P2
# Converted from P5 to P2 by convert_p5_to_p2.py
90 90
255
214 204 211 211 211 210 209 209 208 207 206 204 200 198 194 190 187
186 187 186 185 185 185 184 183 183 183 183 183 182 183 184 187 175
154 157 159 160 167 176 177 175 175 175 172 166 165 168 172 172 172
173 174 217 253 248 248 248 248 248 248 248 248 248 248 248 248 248
248 248 248 248 248 248 248 248 248 248 248 248 248 248 248 248 248
248 248 248 248 248 206 202 211 212 211 210 210 210 210 210 210 209
204 200 196 192 188 186 185 185 185 184 184 183 182 183 182 181 181
181 181 183 187 162 146 152 157 159 168 173 174 174 174 175 171 166
165 169 172 173 169 172 172 210 252 248 248 248 248 248 248 248 248
248 248 248 248 248 248 248 248 248 248 248 248 248 248 248 248 248
248 248 248 248 248 248 248 248 248 248 202 203 212 212 212 211 211
212 213 208 203 199 199 201 201 195 190 187 185 186 185 183 182 182
181 181 181 181 181 181 180 181 180 164 169 174 160 157 163 164 166
168 174 173 168 166 165 169 172 173 171 174 172 204 251 248 248 248
248 248 248 248 248 248 248 248 248 248 248 248 248 248 248 248 248
248 248 248 248 248 248 248 248 248 248 248 248 248 248 248 200 205
213 212 210 210 213 206 179 162 149 142 143 160 182 195 194 189 187
185 185 183 181 181 181 181 181 181 180 176 173 171 166 170 191 200
193 177 164 161 163 166 171 169 170 167 165 169 174 172 174 178 174
207 251 248 248 248 248 248 248 248 248 248 248 248 248 248 248 248
248 248 248 248 248 248 248 248 248 248 248 248 248 248 248 248 248
248 248 248 199 204 211 208 207 210 196 164 140 132 130 127 126 127
130 148 169 183 187 186 183 182 180 181 181 180 180 178 173 171 170
166 169 175 177 176 178 186 182 168 163 164 167 167 170 167 165 169
173 174 177 180 179 223 251 248 248 248 248 248 248 248 248 248 248
248 248 248 248 248 248 248 248 248 248 248 248 248 248 248 248 248
248 248 248 248 248 248 248 248 198 200 205 205 205 188 155 136 129
126 122 125 127 127 132 127 130 147 175 183 183 182 180 180 179 179
177 172 170 170 173 176 174 168 165 164 162 165 176 178 168 162 164
164 166 166 167 169 173 176 181 181 186 242 250 248 248 248 248 248
248 248 248 248 248 248 248 248 248 248 248 248 248 248 248 248 248
248 248 248 248 248 248 248 248 248 248 248 248 248 196 199 201 205
190 151 137 133 123 123 118 120 122 124 134 138 130 126 141 177 185
181 179 179 179 177 172 169 173 180 182 177 169 163 157 153 154 155
160 171 175 166 162 164 167 165 167 171 174 177 183 179 198 248 249
248 248 248 248 248 248 248 248 248 248 248 248 248 248 248 248 248
248 248 248 248 248 248 248 248 248 248 248 248 248 248 248 248 248
248 195 197 201 200 160 137 131 127 121 117 114 117 125 122 130 136
138 140 144 175 185 181 178 177 178 171 166 180 191 186 180 174 167
159 149 144 148 151 153 157 168 174 166 164 165 164 164 170 176 177
183 176 213 250 248 248 248 248 248 248 248 248 248 248 248 248 248
248 248 248 248 248 248 248 248 248 248 248 248 248 248 248 248 248
248 248 248 248 248 248 194 196 202 181 135 129 125 122 122 119 118
118 124 124 125 134 141 146 156 172 183 181 177 175 172 161 166 196
193 182 178 172 166 160 151 144 146 149 149 149 154 169 175 163 165
164 164 171 176 179 183 179 204 246 249 248 248 248 248 248 248 248
248 248 247 247 247 247 246 247 248 248 248 248 248 248 248 248 248
248 248 248 248 248 248 248 248 248 248 248 193 195 200 166 123 120
119 120 123 122 119 118 120 126 127 135 144 148 146 155 175 182 176
172 162 158 161 177 189 180 176 172 166 162 157 152 149 149 149 148
149 155 176 168 166 166 164 170 175 180 184 187 209 250 248 248 248
248 248 248 248 248 248 246 242 240 241 241 241 243 247 248 248 247
247 248 248 248 248 248 248 248 248 248 248 248 248 248 248 248 191
194 197 155 118 115 113 115 122 123 119 115 118 124 127 136 147 149
148 145 159 178 177 172 160 161 160 168 185 181 177 171 168 164 161
157 152 151 149 148 148 147 167 174 163 164 163 169 175 179 186 191
227 252 248 248 248 248 248 248 248 248 248 245 233 228 222 218 222
231 242 247 248 238 242 247 248 248 248 248 248 248 248 248 248 248
248 248 248 248 189 192 193 142 112 114 115 115 118 120 114 113 116
120 130 149 154 150 149 146 147 167 179 166 160 159 158 166 185 182
178 172 169 168 164 160 155 151 150 148 147 148 154 181 167 162 163
167 171 179 188 200 244 249 248 248 248 248 248 248 248 248 248 244
230 221 217 191 160 178 209 222 214 229 236 243 247 248 248 248 248
248 248 248 248 248 248 248 248 248 187 191 186 141 116 116 114 114
114 113 117 115 117 120 132 150 156 153 150 148 143 156 175 162 160
156 157 166 183 181 177 174 170 171 168 163 156 151 150 148 147 148
148 179 179 163 164 164 166 177 188 218 251 247 247 247 247 248 248
248 248 247 246 242 224 208 208 184 140 152 164 156 148 195 229 235
246 247 248 248 248 248 248 248 248 248 248 248 248 248 187 189 184
139 118 116 109 115 114 113 119 119 116 122 131 144 154 155 152 149
143 152 167 161 158 155 157 168 183 181 179 178 173 172 171 167 162
154 149 148 146 147 148 169 186 163 164 163 164 177 195 235 243 240
239 239 243 246 247 247 246 244 241 222 179 160 159 166 146 164 152
146 167 165 211 215 237 246 246 247 248 248 248 248 248 248 248 248
248 248 187 186 184 139 119 114 112 115 116 119 119 119 119 125 128
140 151 154 153 150 146 151 160 160 156 155 156 171 181 175 173 172
170 171 175 165 158 155 151 148 146 146 148 160 194 165 163 162 169
190 207 215 211 210 208 205 221 240 244 243 240 232 224 185 154 130
128 138 146 157 153 147 164 156 197 186 205 236 239 242 245 246 247
247 248 248 248 248 248 248 192 183 183 137 119 116 116 113 120 122
123 117 119 124 128 139 153 153 152 154 149 146 158 159 154 154 155
173 170 162 161 161 159 166 174 172 159 154 150 149 148 147 148 156
195 165 161 161 178 207 202 195 194 193 193 190 200 221 226 223 220
212 199 167 161 128 123 120 135 141 144 143 153 150 159 160 160 182
220 228 233 239 243 245 247 247 248 248 248 248 203 185 180 135 115
112 115 119 120 120 121 120 113 119 122 133 145 146 148 153 137 127
150 158 153 153 154 162 161 158 158 158 158 161 161 168 163 155 148
149 151 150 155 157 189 167 159 166 197 212 199 195 198 202 203 197
194 197 198 197 198 199 176 154 143 123 136 126 125 122 122 133 138
134 131 140 139 144 178 221 218 222 228 235 240 244 246 247 247 248
208 192 182 140 109 109 112 118 121 123 160 143 131 137 132 143 150
148 148 140 136 138 144 154 152 152 154 156 156 155 156 156 157 157
157 157 160 155 148 145 149 153 160 157 196 168 161 195 221 214 215
217 222 223 214 199 193 195 195 195 194 196 178 154 127 123 145 133
118 113 117 134 132 128 124 130 132 158 153 203 216 214 216 220 225
231 236 242 247 248 207 203 188 150 111 109 107 113 121 143 162 141
145 146 151 155 157 156 151 142 138 143 161 152 151 151 152 153 154
154 154 154 156 155 152 152 159 158 149 145 148 160 163 156 180 165
181 200 194 192 197 199 210 219 223 220 207 196 197 197 196 195 181
177 164 133 128 129 117 109 116 127 131 126 120 123 128 131 133 185
222 214 214 215 216 217 220 233 246 248 202 207 202 160 117 114 114
113 123 148 158 143 149 150 148 155 157 155 147 134 127 134 152 151
150 150 151 151 153 153 152 153 155 153 151 152 158 156 148 144 148
170 170 157 170 179 185 182 184 187 187 188 194 199 200 207 218 218
202 197 198 198 186 189 194 160 126 121 121 113 119 130 132 123 117
120 124 125 126 156 208 218 214 215 215 215 214 229 246 248 186 190
203 188 124 109 112 116 130 147 156 139 144 158 149 153 157 155 154
147 138 135 150 151 150 151 150 151 151 152 151 152 152 152 150 150
152 150 146 144 148 169 165 155 172 182 183 186 188 190 192 195 199
199 197 196 197 208 219 204 197 197 195 197 207 188 134 116 123 123
118 128 128 118 115 121 125 126 131 130 147 203 217 214 215 216 214
229 246 248 171 179 199 207 139 102 107 113 136 150 149 149 148 159
153 152 155 156 158 156 145 138 153 151 148 149 149 149 148 149 151
150 150 150 148 148 148 147 145 143 149 170 164 154 173 182 186 189
192 195 198 198 197 197 196 196 195 195 200 217 204 196 195 202 209
188 146 123 125 123 126 122 119 114 116 119 129 126 128 140 137 164
215 214 214 215 214 229 246 248 187 183 205 214 153 106 105 111 139
147 142 160 157 153 155 152 154 155 156 158 152 147 154 157 152 151
148 146 146 147 149 148 148 148 147 148 148 146 143 144 150 170 171
157 176 184 188 194 198 199 199 197 196 195 195 195 195 195 192 198
217 199 195 204 200 187 158 128 125 129 132 128 117 113 117 120 128
128 127 143 149 153 206 216 215 214 213 228 246 248 211 184 203 216
168 111 111 114 139 151 141 141 150 152 153 153 155 153 152 153 154
148 145 153 156 153 151 145 144 144 147 147 147 147 147 149 148 145
144 145 150 171 169 160 179 184 189 199 199 199 197 197 197 196 195
195 194 194 193 189 203 215 198 206 197 189 169 127 123 127 122 126
118 115 117 124 129 127 126 135 145 162 206 217 215 215 214 229 246
248 216 194 197 212 181 121 114 120 141 150 148 142 143 148 149 150
153 154 147 143 149 145 155 156 154 152 151 147 143 143 143 144 145
146 146 148 146 144 143 144 150 170 159 167 181 183 189 196 199 198
198 197 197 197 196 196 195 193 192 190 187 212 202 198 198 187 175
149 128 117 120 127 117 115 117 130 132 128 124 129 133 169 211 214
214 215 213 229 246 248 218 211 199 201 191 141 115 125 148 150 148
148 150 148 146 147 148 150 146 141 145 150 196 172 153 152 149 148
145 141 141 142 143 144 145 145 144 142 142 143 150 161 155 173 181
185 189 192 199 200 199 199 198 197 197 196 196 194 193 192 187 193
178 152 173 184 171 151 131 120 129 125 116 114 123 130 130 127 124
129 143 167 200 210 214 215 214 229 246 248 215 213 194 186 202 162
131 142 153 151 149 148 147 147 144 144 145 148 147 142 139 145 192
183 154 152 150 148 146 141 139 140 141 142 142 142 142 141 141 141
146 151 160 178 183 185 190 193 198 200 201 200 199 198 197 197 196
195 194 193 189 184 177 160 173 171 170 148 129 118 117 120 119 119
125 125 125 122 122 127 147 156 178 205 215 216 214 228 246 248 210
211 194 188 207 164 143 152 154 152 148 146 145 142 141 142 144 146
146 144 132 158 199 192 160 153 150 148 147 144 140 139 138 140 140
140 140 139 139 140 142 151 169 181 186 186 190 194 198 201 202 202
200 199 199 197 196 195 194 193 190 192 184 156 172 165 163 155 136
125 123 126 120 121 126 119 120 115 119 131 151 152 171 200 210 216
215 228 246 248 212 218 207 206 205 160 149 153 155 152 148 145 142
138 137 138 139 142 144 144 140 160 192 194 174 153 151 148 147 145
143 141 138 138 138 138 138 137 138 138 144 159 177 182 188 187 190
194 199 201 203 203 202 199 199 198 197 196 195 192 196 199 183 152
147 162 164 160 146 133 124 120 115 134 128 121 116 116 122 136 153
165 186 203 212 217 217 229 246 248 210 221 210 214 233 168 148 156
153 150 148 145 141 136 134 134 134 137 142 141 140 162 188 185 184
160 152 149 146 144 142 139 136 136 136 136 135 135 135 136 151 172
180 183 187 187 190 195 201 202 203 204 203 201 199 198 198 196 194
200 198 182 195 186 174 171 164 157 143 127 121 120 119 129 127 123
115 121 124 133 144 160 178 203 211 218 219 228 246 248 208 212 209
177 230 229 165 153 152 148 146 146 142 137 133 133 132 135 140 140
138 182 193 186 183 172 154 150 147 144 141 137 134 134 134 134 133
133 132 140 162 173 176 182 187 189 190 197 202 202 203 204 203 200
198 198 198 197 196 189 187 176 202 210 192 176 160 154 134 121 121
116 116 119 124 120 118 126 124 131 141 156 180 202 209 222 223 228
246 248 208 210 203 148 167 247 226 167 148 148 146 144 142 137 132
133 133 134 137 137 140 185 195 190 185 179 163 151 148 146 142 138
133 133 133 131 131 134 137 143 146 147 149 157 169 182 191 195 197
198 200 205 204 199 198 197 198 198 197 188 163 161 194 200 180 166
150 149 134 126 119 117 122 120 119 116 117 122 126 133 142 162 187
200 216 221 225 229 245 248 212 221 187 135 123 205 243 223 164 145
147 141 140 135 130 130 133 133 134 136 134 166 198 192 189 185 175
163 153 148 146 141 135 133 130 130 139 143 144 145 146 146 146 154
153 163 183 191 196 196 199 202 202 199 198 198 198 199 198 198 183
168 186 185 171 159 142 144 134 117 124 128 127 125 119 115 114 119
128 133 137 142 174 184 208 221 225 232 245 248 209 216 157 130 121
145 231 235 221 161 138 140 139 133 128 127 130 130 130 128 130 171
198 193 191 188 182 171 167 160 148 142 135 131 133 143 146 145 147
148 148 149 157 167 164 167 176 180 190 197 197 199 199 198 197 197
198 199 201 192 161 177 183 173 164 154 142 142 136 128 138 128 127
124 118 114 114 119 130 135 139 141 169 179 193 216 221 231 245 248
167 146 135 128 122 113 192 235 230 217 153 137 139 133 129 122 122
125 131 146 172 197 195 194 193 190 186 177 165 173 166 152 146 138
143 147 148 148 150 153 154 158 160 158 158 158 160 169 175 191 198
198 198 197 196 197 198 198 198 203 194 165 167 169 164 156 146 145
133 135 133 123 121 119 115 115 115 123 130 135 142 141 169 186 200
219 218 229 245 248 140 121 122 124 121 111 137 227 226 227 209 145
134 136 128 153 183 188 195 202 203 198 196 194 193 192 188 183 168
167 185 168 158 151 148 149 150 154 160 163 162 159 152 149 149 149
151 156 162 174 195 197 197 198 196 196 198 198 197 203 209 181 166
171 168 160 145 141 130 127 129 122 118 114 115 115 117 126 129 143
139 134 166 197 212 222 217 228 245 248 133 123 121 117 116 115 108
187 229 220 225 195 135 130 146 210 213 211 208 202 199 198 197 196
194 192 189 186 178 176 179 167 147 149 150 153 157 168 169 164 160
156 153 148 147 146 145 148 153 160 179 197 197 197 196 197 197 197
199 177 169 175 186 173 170 159 141 136 127 129 133 124 117 115 114
114 123 128 132 146 130 139 166 185 211 222 215 227 244 247 130 121
120 115 114 114 108 138 222 221 218 222 177 132 192 211 205 207 207
204 200 198 197 196 194 193 190 188 188 177 174 180 162 156 159 160
161 169 166 164 160 157 154 150 148 146 144 144 145 150 164 190 196
195 196 197 197 197 199 180 170 180 180 170 167 154 141 135 128 132
134 122 119 120 117 116 130 132 135 130 120 141 179 197 212 220 221
225 240 246 128 119 116 114 113 113 112 110 196 225 216 216 209 169
209 207 206 207 207 206 201 199 197 196 195 194 192 191 193 178 167
175 161 162 162 158 167 170 163 162 159 156 154 150 146 144 142 140
143 146 150 178 196 194 195 196 195 195 195 195 187 179 174 169 162
150 141 136 128 125 124 115 119 115 116 123 132 128 125 121 121 150
183 199 207 220 226 223 234 241 125 119 116 115 109 112 112 102 161
225 213 214 215 207 209 206 205 208 208 204 201 199 198 197 195 194
193 190 192 182 163 165 161 159 158 164 175 167 162 160 158 156 154
150 147 144 142 140 140 143 143 167 194 194 195 195 194 194 193 190
187 179 171 167 157 148 138 138 135 122 118 115 120 113 114 122 126
120 122 121 122 167 195 203 211 220 227 221 229 235 120 116 115 115
109 108 110 106 125 216 220 219 221 203 200 208 206 209 210 207 203
199 198 197 196 195 194 190 188 188 172 165 163 155 159 178 172 155
155 158 157 157 154 151 148 144 141 141 140 141 141 155 194 194 194
193 192 192 192 175 167 166 164 161 150 140 133 135 137 128 117 122
119 109 115 120 122 124 130 122 123 170 205 216 220 225 226 222 230
232 116 114 113 113 110 107 108 109 103 186 228 222 226 186 183 210
206 208 209 207 203 200 198 198 196 195 194 191 187 185 173 169 162
156 158 175 163 149 151 158 157 156 155 151 149 146 143 143 142 140
141 147 189 195 191 190 190 190 190 186 161 145 145 140 131 128 131
133 135 128 114 120 112 113 120 124 124 126 131 120 121 156 191 210
222 231 229 224 223 226 113 112 111 111 110 106 107 109 100 148 217
222 222 167 169 206 205 205 205 206 204 202 199 198 196 196 195 191
188 181 177 169 159 156 159 175 159 149 153 160 158 157 156 152 149
147 145 144 143 141 139 146 192 197 188 189 189 188 187 192 206 193
163 149 148 139 127 132 137 132 119 114 110 116 119 127 127 127 132
116 117 138 186 205 210 223 228 219 213 218 108 110 111 110 110 105
106 107 103 120 201 214 214 152 140 191 205 202 202 204 204 205 201
197 196 197 196 193 188 180 177 165 159 153 163 173 155 151 157 159
157 157 158 157 151 149 146 144 143 140 141 145 194 205 184 187 187
186 185 192 214 211 196 194 197 200 152 134 139 134 122 112 114 115
118 132 127 132 128 116 120 140 192 207 213 227 230 212 211 208 110
109 109 110 110 105 107 106 106 102 182 214 204 161 124 168 206 201
201 203 203 203 200 197 196 197 197 194 189 179 175 161 154 148 153
153 152 152 153 153 151 151 157 161 158 153 147 143 137 138 140 150
193 214 182 185 184 184 185 207 210 196 195 192 195 208 194 145 144
136 115 112 123 120 123 128 124 125 121 125 132 156 187 207 222 229
229 209 209 208 113 109 109 109 110 104 107 108 107 99 149 219 202
171 119 153 202 200 200 200 200 199 199 198 196 197 197 194 190 179
169 157 149 142 141 143 149 151 151 153 151 150 153 156 160 154 148
144 142 138 140 158 200 221 180 183 181 182 201 214 175 185 195 192
196 204 209 163 142 130 116 122 127 123 115 112 115 114 125 136 146
171 200 216 221 231 223 208 211 211 111 108 108 109 110 106 96 106
107 104 122 211 205 176 123 148 199 199 199 199 199 199 198 197 196
196 197 195 191 177 163 154 147 140 140 141 144 147 150 152 152 151
152 152 154 155 151 145 144 139 140 156 210 226 178 180 182 200 213
189 173 187 197 195 194 191 191 160 134 123 124 124 123 120 108 104
110 116 129 137 151 176 202 223 225 236 221 215 215 212 112 112 109
109 108 110 100 95 108 106 105 191 210 177 135 156 197 199 198 199
199 198 197 197 197 197 197 195 191 177 161 153 142 134 137 139 141
144 151 154 153 151 153 151 153 155 155 147 143 139 137 147 217 225
176 187 204 210 189 177 192 200 189 166 160 161 139 123 134 126 126
121 116 111 114 117 120 123 126 132 153 172 192 212 216 228 222 218
214 212 111 111 109 109 108 109 110 96 101 106 99 165 216 181 143
153 191 199 198 198 198 197 197 197 196 196 196 193 190 177 160 151
139 131 135 137 139 141 149 154 152 152 152 150 154 156 154 147 143
140 139 148 207 214 196 207 197 182 186 181 199 192 146 142 155 155
115 113 132 129 120 117 113 109 124 124 125 124 117 133 152 150 166
212 220 225 229 217 212 212 110 108 107 107 107 108 109 104 102 106
99 136 213 185 150 148 185 199 197 197 197 197 197 197 197 196 195
191 191 185 160 151 139 132 135 136 138 139 143 151 153 153 152 152
153 152 149 145 143 141 140 148 189 210 202 202 194 190 195 197 198
151 133 151 160 137 104 118 135 128 113 111 105 106 111 116 123 113
108 122 144 145 147 198 223 223 233 217 209 210 108 108 109 106 107
108 108 102 104 106 103 113 200 194 150 144 176 199 196 197 196 196
197 197 196 195 196 203 205 189 162 151 138 133 133 136 137 139 140
146 152 153 152 153 152 152 152 146 143 140 137 148 193 207 195 199
195 196 194 195 167 136 134 153 151 116 101 125 148 121 108 102 101
106 103 109 110 107 122 132 137 157 156 175 209 220 233 215 200 202
108 112 111 107 108 108 108 100 104 105 105 100 177 204 154 148 163
199 196 196 196 196 197 196 197 195 202 212 200 174 164 150 136 133
134 135 134 138 138 140 147 151 151 152 151 151 150 146 142 140 136
155 199 210 176 171 175 179 181 165 145 137 134 156 133 105 104 147
152 121 113 111 109 110 109 110 109 128 144 147 146 144 173 197 214
216 233 209 185 184 111 112 108 105 106 107 107 99 105 105 105 97
149 213 160 146 148 192 197 195 195 197 197 197 197 196 201 202 182
142 161 152 137 134 136 134 134 135 136 138 141 147 150 151 150 147
145 143 142 140 136 162 209 204 167 164 169 172 170 146 144 133 145
151 116 101 115 169 148 130 124 126 118 101 97 110 135 150 152 153
151 147 149 206 236 221 235 214 178 174 106 109 107 104 105 107 108
97 101 106 105 100 123 212 159 143 138 180 199 196 197 196 197 197
197 199 197 187 147 130 155 156 137 133 134 135 133 135 136 137 138
142 149 149 147 145 144 143 141 139 135 171 213 190 175 178 179 182
165 140 142 134 143 137 112 92 129 168 150 146 138 142 133 122 123
139 153 154 156 153 148 147 141 166 233 226 232 207 182 177 108 108
105 103 104 106 108 101 97 106 106 103 105 198 164 122 128 162 200
195 196 197 198 199 197 192 188 190 135 135 134 131 128 131 135 138
133 134 136 135 137 138 144 147 144 143 142 141 139 137 136 188 209
190 181 180 183 182 147 140 137 136 134 122 100 93 135 161 153 149
151 151 138 143 149 153 155 157 153 146 144 144 144 143 214 230 221
187 179 178 113 107 102 99 103 107 108 105 96 106 106 105 96 174
175 111 114 143 197 195 195 196 197 195 188 185 208 204 135 136 132
130 122 127 135 142 138 135 134 134 136 137 140 144 143 141 140 141
138 133 149 204 209 202 181 178 183 164 133 136 127 133 132 118 95
118 154 132 155 155 161 142 140 152 154 157 159 153 144 144 145 143
144 141 186 215 191 183 184 184 107 106 102 96 101 106 107 108 98
103 107 104 96 147 190 121 132 135 186 194 193 191 189 185 188 203
227 189 121 137 136 147 117 123 135 145 142 138 135 136 136 136 136
137 140 141 141 141 136 131 187 222 207 187 173 175 179 146 126 125
120 134 132 115 102 134 157 133 149 162 154 126 150 157 158 159 158
139 139 144 146 143 144 144 163 199 189 192 191 194 99 105 103 97
99 105 106 107 100 98 106 104 99 123 196 149 142 126 169 191 188
187 187 195 206 219 194 111 92 124 143 137 104 117 130 145 145 141
138 137 136 135 134 134 139 143 142 137 127 155 224 231 206 179 179
175 149 130 123 124 122 143 138 112 112 140 143 154 145 151 132 127
157 159 158 160 146 130 141 145 146 143 143 144 151 180 201 200 200
204 106 106 102 94 98 104 106 107 105 95 104 104 103 106 187 165
143 121 161 208 199 198 202 207 216 183 104 89 90 97 140 147 136
157 129 140 142 143 140 136 134 133 133 135 140 143 142 128 139 195
215 221 214 198 171 136 123 126 123 124 130 148 145 117 121 151 156
147 142 140 127 140 160 157 158 157 136 129 141 147 147 143 143 144
144 167 200 202 202 207 114 103 98 91 94 102 107 107 107 95 100
105 104 98 168 159 151 121 139 209 201 200 204 213 169 100 91 94
92 86 122 149 163 200 190 160 142 136 137 132 130 129 135 137 143
147 131 132 182 200 202 212 202 161 125 119 124 122 123 123 137 148
151 128 116 136 139 135 143 149 147 154 156 155 157 149 131 128 142
148 148 143 142 145 141 160 192 201 199 205 112 101 96 89 92 100
105 106 107 98 97 106 103 96 150 154 150 130 118 200 200 203 208
156 96 96 96 94 92 86 104 147 162 187 209 204 185 156 140 136
126 129 145 152 149 132 121 121 120 140 216 177 121 118 119 122 122
120 123 123 141 148 153 140 111 113 133 143 148 151 157 156 152 155
154 140 131 128 144 150 149 142 141 145 141 154 183 199 197 203 108
100 93 88 94 100 105 106 106 102 93 105 104 96 137 155 139 150
116 186 204 208 156 101 98 98 95 93 91 89 89 137 180 195 203
208 210 202 192 174 164 168 162 140 120 112 111 105 105 133 179 131
112 115 119 122 123 118 120 126 145 150 152 143 115 117 143 151 153
158 157 148 152 155 147 134 132 127 146 151 148 139 136 142 141 148
178 193 194 197 103 99 91 86 90 98 104 105 105 105 92 101 104
99 123 161 122 139 107 176 220 180 112 98 97 95 94 92 91 90
83 146 219 200 198 206 212 212 215 133 124 129 116 105 108 110 109
109 114 113 111 112 115 115 116 123 123 115 117 139 148 153 151 148
118 136 156 158 159 152 147 146 154 152 139 131 131 128 148 149 146
140 137 139 140 140 171 189 186 189 99 98 88 85 86 95 104 105
105 106 95 95 104 101 112 160 114 111 98 135 139 134 108 92 95
94 93 93 93 92 82 157 233 194 189 195 212 225 206 106 99 101
103 105 107 110 109 111 113 110 109 115 112 116 113 119 119 111 126
155 149 153 152 146 128 158 162 156 149 145 145 148 155 147 136 131
130 130 147 149 147 141 138 137 140 139 161 190 183 183 98 98 88
85 86 94 102 105 105 105 99 91 105 102 104 154 123 112 99 99
97 120 97 91 92 94 94 94 94 91 86 131 213 182 184 199 211
218 213 106 95 106 106 108 109 111 110 111 110 115 113 114 110 115
117 111 110 110 145 157 151 153 154 138 144 162 153 150 149 149 151
155 156 141 134 131 128 133 146 150 147 143 139 136 140 142 147 187
183 179 98 99 86 85 86 94 101 104 105 105 103 88 100 104 102
138 123 115 100 100 101 106 98 89 93 95 94 96 94 93 91 112
183 176 193 201 204 215 208 163 109 93 104 109 110 113 112 111 111
112 110 113 113 110 120 118 106 120 159 151 151 151 159 134 144 155
152 153 155 157 159 161 150 136 134 131 126 133 146 150 146 143 140
137 138 145 141 178 199 198 101 95 84 85 87 95 100 102 103 105
104 89 94 106 102 116 121 123 112 97 100 96 94 89 92 94 96
97 94 94 94 103 172 182 197 198 200 202 201 213 192 127 90 108
110 112 114 113 110 113 102 109 113 111 112 122 116 140 157 149 149
151 156 126 150 154 156 157 161 161 159 153 138 132 133 131 124 132
146 148 146 143 141 138 135 145 141 163 222 227 101 92 84 84 87
95 100 102 104 105 104 93 87 104 102 110 140 141 118 95 102 93
93 90 92 94 100 95 93 96 96 106 171 184 186 192 210 208 198
202 193 197 136 95 113 112 110 113 110 116 114 109 111 113 110 114
122 148 151 149 150 159 138 134 157 157 159 162 156 146 141 133 128
131 134 131 122 130 144 146 145 142 141 139 135 141 146 155 219 224
99 89 83 84 88 95 98 101 104 104 104 97 83 100 102 111 155
145 122 93 105 94 93 90 93 97 100 94 95 98 98 106 162 178
183 194 210 214 212 188 177 191 185 99 105 115 109 111 113 114 120
117 115 114 115 108 119 150 150 150 155 154 129 155 159 160 160 151
136 127 122 121 125 131 133 131 122 128 143 146 146 143 142 140 137
139 149 149 196 202 97 87 83 85 89 95 99 101 100 101 104 100
82 93 104 108 154 147 129 90 110 99 92 91 93 101 97 94 98
97 105 144 164 169 184 205 197 201 210 175 176 186 195 131 87 110
113 110 118 115 118 120 120 119 118 115 121 151 149 150 155 140 147
162 160 158 151 138 134 135 133 131 130 133 133 131 124 125 143 146
146 143 143 141 137 137 148 149 173 178 95 87 83 85 90 95 98
98 97 103 104 102 85 86 103 102 147 140 124 89 110 103 91 92
97 103 94 95 96 115 177 194 173 168 198 204 186 183 203 163 183
203 189 177 118 92 109 110 112 118 115 118 119 121 122 118 126 151
148 150 149 139 156 158 158 154 146 143 143 143 141 137 136 135 132
130 125 123 143 148 146 143 143 142 138 136 143 150 164 181 95 89
83 86 91 95 97 95 98 104 102 102 89 81 100 102 136 135 126
89 108 108 89 92 104 99 93 96 125 167 190 184 172 186 208 185
197 187 191 160 211 232 188 185 209 164 102 101 102 112 118 117 118
119 117 110 127 152 149 151 144 140 154 154 153 148 145 145 144 141
139 137 137 135 130 126 125 122 140 148 146 143 143 142 138 136 138
151 164 211 95 89 83 86 91 95 96 97 100 102 102 102 92 80
94 102 125 139 132 90 104 116 89 98 105 90 99 148 174 166 166
171 176 207 185 175 178 168 182 165 205 211 179 178 212 224 185 152
136 109 103 106 110 110 109 103 129 152 150 153 138 145 154 155 148
140 140 140 141 140 138 136 134 132 128 123 124 122 138 147 146 143
142 143 140 137 135 153 163 221 96 89 83 87 91 94 95 97 98
101 102 103 93 81 87 101 124 147 143 89 97 123 93 105 92 109
167 189 165 164 173 177 199 196 166 180 161 171 173 161 169 161 173
178 195 211 194 190 186 177 160 141 124 125 131 143 151 148 150 150
135 152 157 150 138 136 138 140 139 138 137 134 132 130 127 124 122
117 133 146 146 144 141 143 140 138 133 151 172 220 96 89 84 88
91 93 95 96 98 100 102 101 94 84 82 100 121 152 159 92 91
125 108 96 123 194 190 171 162 169 181 197 195 180 167 173 154 182
166 157 159 160 169 172 189 197 182 177 185 202 218 234 212 209 204
222 173 143 151 143 137 156 149 137 132 136 140 141 139 136 135 132
131 130 128 126 124 114 127 145 145 145 141 143 141 139 136 143 187
224 96 88 84 88 91 94 95 97 97 100 101 101 96 86 79 97
118 153 174 98 87 124 124 130 185 189 174 159 162 180 204 191 184
184 180 163 160 197 161 157 171 175 155 160 191 186 171 176 175 181
198 226 211 224 211 205 163 146 150 138 144 147 134 132 136 141 143
139 133 131 132 131 131 130 128 126 124 116 121 144 145 145 141 143
141 139 137 133 197 221 98 87 84 88 91 93 95 95 96 100 101
101 97 88 80 92 119 154 180 101 84 114 165 184 192 197 192 159
166 181 187 171 195 207 182 158 175 194 161 159 169 165 149 152 178
179 170 167 161 165 184 209 209 214 201 198 161 148 147 138 146 136
132 136 143 146 143 134 127 127 128 128 131 129 128 124 124 117 119
142 143 146 142 142 141 138 139 127 188 201 101 84 85 89 91 93
95 95 100 100 101 101 97 89 83 84 118 157 183 104 84 101 176
209 203 209 198 163 173 189 176 178 212 223 180 167 198 190 162 169
176 166 149 151 160 166 169 165 170 180 185 195 208 202 204 200 155
148 142 139 146 139 143 145 148 146 139 128 124 125 123 126 128 128
127 123 121 111 113 139 141 146 143 141 142 137 139 130 167 198 98
83 86 89 91 94 97 98 100 100 101 101 96 91 86 80 112 159
185 106 83 95 157 206 186 187 171 163 183 205 189 185 211 214 184
181 208 189 171 186 204 199 174 180 186 189 196 200 209 215 217 220
227 228 239 195 146 146 140 140 147 146 149 147 148 143 132 123 122
121 121 126 126 128 124 121 116 108 111 136 139 144 144 142 142 138
138 134 148 198 96 83 87 89 92 93 95 95 96 99 101 100 96
92 89 79 103 161 190 110 82 94 137 184 173 174 172 180 197 207
200 202 212 212 209 213 220 218 220 227 234 236 234 238 240 242 244
245 247 248 248 249 249 250 255 195 140 143 137 138 138 139 141 142
146 136 125 121 123 124 126 128 127 129 122 121 118 117 122 133 134
142 144 142 142 139 137 137 137 195 95 84 88 90 93 93 94 93
95 99 102 99 97 93 90 82 92 155 189 118 81 93 121 209 226
226 230 233 236 236 238 241 242 244 246 247 246 248 250 250 249 250
251 251 251 252 252 252 252 252 253 252 252 251 255 189 133 140 127
115 117 118 125 139 141 127 121 123 128 130 129 130 128 128 122 123
122 130 126 130 129 139 145 142 142 140 136 139 131 191 93 85 88
91 93 93 94 95 98 101 101 100 98 94 91 85 83 145 189 124
79 93 109 223 255 250 251 251 250 251 252 251 251 252 252 252 251
252 252 252 251 250 248 246 244 241 236 234 231 224 217 210 204 198
195 161 130 139 127 98 105 110 124 146 131 120 123 127 133 132 132
131 130 128 126 127 133 136 120 125 123 134 145 143 142 142 135 138
130 185 90 89 90 91 93 94 96 97 99 101 100 99 98 95 93
89 79 130 185 137 79 93 99 200 255 251 250 249 248 246 243 240
238 234 230 227 224 217 211 205 199 194 190 185 178 171 167 166 162
154 151 149 146 143 140 144 133 132 119 102 114 128 147 145 122 124
130 134 138 136 136 135 134 133 134 138 141 128 119 121 115 127 145
143 141 143 135 136 132 170 90 91 92 92 94 95 96 98 100 100
100 99 98 96 94 90 81 111 177 142 81 92 97 156 214 202 197
191 186 182 179 174 171 163 176 178 183 150 147 146 144 143 146 146
142 139 138 139 139 138 138 137 137 137 136 142 137 126 112 106 126
150 150 132 125 132 138 144 141 135 139 137 139 140 141 143 134 122
122 116 112 120 143 144 140 143 136 135 136 151 89 91 92 92 94
95 95 97 100 101 101 99 98 97 94 92 84 96 165 145 83 90
96 124 152 147 144 141 141 143 143 141 141 135 166 168 174 133 138
139 139 140 142 141 140 138 138 141 146 138 139 148 151 149 151 159
149 123 114 112 124 139 127 127 132 140 142 141 134 129 137 137 141
145 144 133 124 123 123 117 111 115 136 143 140 144 137 134 139 139
89 90 92 93 95 95 96 96 99 101 100 99 98 98 96 94 89
88 149 147 86 89 95 112 140 138 134 136 137 137 139 143 143 135
169 172 171 143 143 142 143 143 139 139 145 147 152 175 188 168 175
174 180 178 176 182 181 129 115 116 124 123 114 122 138 141 131 118
127 132 140 141 145 141 130 121 124 124 122 120 114 120 127 140 142
145 140 134 139 138 90 91 93 95 96 96 96 96 99 102 100 99
98 99 97 95 92 84 136 143 87 89 95 106 135 127 151 182 167
164 168 176 178 167 180 184 175 170 166 160 162 156 148 147 162 164
159 178 191 198 216 182 182 193 190 184 202 161 120 125 131 125 113
114 130 127 114 115 128 136 144 146 139 124 121 124 128 124 119 121
126 128 134 138 141 145 142 134 138 140 90 92 93 95 96 97 97
98 100 102 100 99 98 100 98 96 94 84 122 145 88 88 94 102
138 137 186 220 201 194 183 185 199 195 190 192 169 172 175 166 174
174 169 161 177 174 159 159 163 188 209 178 178 192 199 189 188 189
164 122 128 123 115 112 116 116 113 117 136 142 138 123 120 122 126
131 129 120 120 120 139 132 140 140 140 144 144 135 137 142 90 92
93 96 96 97 97 99 100 101 101 99 99 100 98 97 95 87 112
145 89 88 92 99 151 163 179 203 195 196 176 178 204 199 194 190
164 165 173 166 175 183 176 165 183 181 171 173 169 167 171 180 182
188 206 199 174 183 193 117 115 115 113 111 110 113 113 116 127 127
117 113 124 129 131 132 123 118 121 136 130 143 140 140 139 144 146
137 137 144 90 93 94 95 97 98 97 99 101 102 100 99 99 100
99 98 97 90 104 140 89 88 90 96 155 174 155 174 182 184 178
187 202 192 196 178 165 169 172 169 167 171 169 161 182 178 179 189
185 163 164 183 180 190 209 208 186 167 143 138 115 110 110 109 114
114 112 114 114 115 110 118 131 131 131 125 118 119 126 141 136 146
137 139 139 141 147 141 139 144
