P2
# Converted from P5 to P2 by convert_p5_to_p2.py
90 90
255
160 160 160 160 160 160 160 160 160 160 160 160 160 160 160 160 160
160 160 160 160 160 160 160 160 160 160 160 160 160 160 160 160 160
160 160 160 160 160 160 160 160 160 160 160 160 160 160 160 160 160
160 160 160 160 160 160 160 160 160 160 160 160 160 160 160 160 160
160 160 160 160 160 160 160 160 160 160 160 160 160 160 160 160 160
160 160 160 160 160 160 160 160 160 160 160 160 160 160 160 160 160
160 160 160 160 160 160 160 160 160 160 160 160 160 160 160 160 160
160 160 160 160 160 160 160 160 160 160 160 160 160 160 160 160 160
160 160 160 160 160 160 160 160 160 160 160 160 160 160 160 160 160
160 160 160 160 160 160 160 160 160 160 160 160 160 160 160 160 160
160 160 160 160 160 160 160 160 160 160 160 160 160 160 160 160 160
160 160 160 160 160 160 160 160 160 160 160 160 160 160 160 160 160
160 160 160 160 160 160 160 160 160 160 160 160 160 160 160 160 160
160 160 160 160 160 160 160 160 160 160 160 160 160 160 160 160 160
160 160 160 160 160 160 160 160 160 160 160 160 160 160 160 160 160
160 160 160 160 160 160 160 160 160 160 160 160 160 160 160 160 160
160 160 160 160 160 160 160 160 160 160 160 160 160 160 160 160 160
160 160 160 160 160 160 160 160 160 160 160 160 160 160 160 160 160
160 160 160 160 160 160 160 160 160 160 160 160 160 160 160 160 160
160 160 160 160 160 160 160 160 160 160 160 160 160 160 160 160 160
160 160 160 160 160 160 160 160 160 160 160 160 160 160 160 160 160
160 160 160 160 160 160 160 160 160 160 160 160 160 160 160 160 160
160 160 160 160 160 160 160 160 160 160 160 160 160 160 160 160 160
160 160 160 160 160 160 160 160 160 160 160 160 160 160 160 160 160
160 160 160 160 160 160 160 160 160 160 160 160 160 160 160 160 160
160 160 160 160 160 160 160 160 160 160 160 160 160 160 160 160 160
160 160 160 160 160 160 160 160 160 160 160 160 160 160 160 160 160
160 160 160 160 160 160 160 160 160 160 160 160 160 160 160 160 160
160 160 160 160 160 160 160 160 160 160 160 160 160 160 160 160 160
160 160 160 160 160 160 160 160 160 160 160 160 160 160 160 160 160
160 160 160 160 160 160 160 160 160 160 160 160 160 160 160 160 160
160 160 160 160 160 160 160 160 160 160 160 160 160 160 160 160 160
160 160 160 160 160 160 160 160 160 160 160 160 160 160 160 160 160
160 160 160 160 160 160 160 160 160 160 160 159 157 156 156 158 160
160 160 160 159 159 159 158 158 160 160 158 160 160 159 156 154 153
153 157 160 160 160 160 160 160 160 160 160 160 160 158 158 159 160
160 160 160 160 160 160 160 160 160 160 160 160 160 160 160 160 160
160 160 160 160 160 160 160 160 160 160 160 160 160 160 160 160 160
158 158 160 160 160 160 160 160 160 160 160 160 165 162 160 156 160
169 178 180 170 159 160 157 155 162 163 161 168 165 158 158 165 158
158 166 197 201 201 192 170 153 160 160 162 159 160 161 160 159 159
160 172 164 161 157 159 161 160 160 160 160 160 160 160 160 160 160
160 160 160 160 160 160 160 160 160 160 160 160 160 160 160 160 160
160 160 160 160 157 168 166 159 159 160 160 160 160 160 160 160 161
138 145 156 177 237 232 218 195 166 156 155 170 200 197 175 184 193
199 175 183 210 185 152 159 183 212 241 255 247 184 153 156 129 162
164 160 159 168 157 178 215 198 197 184 156 154 160 160 160 160 160
160 160 160 160 160 160 160 160 160 160 160 160 160 160 160 160 160
160 160 160 160 160 160 160 160 152 162 197 191 166 171 163 160 161
163 157 162 163 155 118 130 180 239 226 183 164 167 192 167 188 247
227 208 188 234 243 217 187 173 196 222 188 157 158 171 180 213 254
252 194 155 127 186 149 132 165 167 178 206 200 202 199 220 201 205
173 157 160 160 160 160 160 160 160 160 160 160 160 160 160 160 160
160 160 160 160 160 160 160 160 160 160 160 160 160 171 202 178 208
191 183 173 163 160 167 170 174 162 160 144 152 210 221 189 159 164
168 172 207 245 228 207 190 165 224 255 229 171 144 150 193 239 218
176 168 163 162 191 228 246 187 146 152 169 140 165 171 179 214 211
194 176 199 209 221 170 158 160 160 160 160 160 160 160 160 160 160
160 160 160 160 160 160 160 160 160 160 160 160 160 160 160 160 159
161 224 211 189 200 189 196 177 176 155 165 180 168 182 174 208 225
204 185 193 196 193 191 206 229 238 193 173 203 171 215 247 222 191
175 187 182 203 248 224 173 176 174 154 171 213 229 189 128 181 195
171 174 182 210 206 203 195 214 221 219 163 159 160 160 160 160 160
160 160 160 160 160 160 160 160 160 160 160 160 160 160 160 160 160
160 160 160 160 159 158 221 206 188 205 210 191 190 185 159 169 182
182 199 176 210 237 219 192 186 228 249 221 210 197 191 195 157 178
187 222 237 196 227 255 255 228 175 210 230 207 224 196 179 176 182
206 206 160 162 212 168 168 197 201 201 201 184 205 209 209 165 159
160 160 160 160 160 160 160 160 160 160 160 160 160 160 160 160 160
160 160 160 160 160 160 160 160 160 160 157 209 194 185 187 194 198
191 189 163 172 214 212 185 182 210 213 246 199 188 198 228 244 216
205 175 195 195 186 200 229 231 220 223 247 229 205 235 210 211 245
247 206 190 192 170 165 211 202 183 212 188 161 197 220 212 205 208
194 198 205 161 159 160 160 160 160 160 160 160 160 160 160 160 160
160 160 160 160 160 160 160 160 160 160 160 160 160 160 160 157 202
201 200 198 195 202 183 173 161 170 191 189 178 190 217 184 244 241
208 209 202 221 229 199 177 204 210 203 197 226 242 244 209 225 236
200 211 200 191 220 216 255 227 177 174 184 170 209 209 192 188 159
183 201 214 214 207 195 198 198 159 160 160 160 160 160 160 160 160
160 160 160 160 160 160 160 160 160 160 160 160 160 160 160 160 160
160 160 160 157 214 203 206 201 194 215 195 171 166 166 193 189 188
194 220 181 211 254 212 212 211 191 187 196 178 216 218 190 172 221
255 234 202 228 244 191 158 193 178 166 189 218 206 178 214 185 148
198 207 180 196 159 180 197 195 205 195 211 192 198 157 160 160 160
160 160 160 160 160 160 160 160 160 160 160 160 160 160 160 160 160
160 160 160 160 160 160 160 160 155 206 210 214 196 195 210 201 175
157 159 173 162 163 199 218 210 189 231 247 195 189 205 184 200 225
222 192 196 161 228 253 242 202 238 242 208 208 165 162 172 202 179
177 206 231 169 208 188 202 152 198 156 164 188 190 208 202 196 193
198 157 160 160 160 160 160 160 160 160 160 160 160 160 160 160 160
160 160 160 160 160 160 160 160 160 160 160 160 160 154 203 217 210
211 191 192 177 174 157 161 155 156 172 195 218 192 175 206 244 207
182 176 165 226 248 176 196 189 181 235 255 242 221 252 244 210 232
200 151 197 217 193 186 213 191 183 246 219 195 169 190 157 157 180
190 182 203 193 202 188 155 160 160 160 160 160 160 160 160 160 160
160 160 160 160 160 160 160 160 160 160 160 160 160 160 160 160 160
160 156 191 209 194 210 195 178 165 166 159 160 160 160 178 187 190
209 214 200 203 243 197 157 211 255 200 168 190 154 186 219 222 203
208 255 251 200 176 175 186 223 215 217 177 198 150 188 240 207 161
198 194 156 160 157 175 202 217 199 204 190 155 160 160 160 160 160
160 160 160 160 160 160 160 160 160 160 160 160 160 160 160 160 160
160 160 160 160 160 160 155 196 212 186 197 189 168 167 159 160 160
160 159 182 191 161 236 212 158 158 221 185 196 255 199 158 158 163
165 189 212 219 220 217 250 255 215 135 184 239 225 217 221 173 163
177 177 201 160 129 196 204 157 160 157 163 198 218 209 212 186 154
160 160 160 160 160 160 160 160 160 160 160 160 160 160 160 160 160
160 160 160 160 160 160 160 160 160 160 160 154 192 210 191 176 179
171 160 160 160 160 160 156 176 211 154 225 183 144 168 177 199 255
217 152 156 156 151 156 174 232 255 247 211 195 244 174 152 235 255
232 213 223 184 143 195 202 169 143 148 172 211 160 159 163 161 193
209 201 222 186 154 160 160 160 160 160 160 160 160 160 160 160 160
160 160 160 160 160 160 160 160 160 160 160 160 160 160 160 160 156
181 211 193 189 173 167 159 160 160 160 159 161 170 216 181 222 216
154 157 154 237 242 164 147 146 157 159 147 140 225 254 254 203 165
207 151 206 253 248 244 217 209 164 132 145 225 177 146 155 178 204
162 158 158 174 208 199 172 207 183 155 160 160 160 160 160 160 160
160 160 160 160 160 160 160 160 160 160 160 160 160 160 160 160 160
160 160 160 160 157 174 205 207 182 158 156 160 160 160 160 160 160
160 210 203 194 247 185 147 217 255 181 143 141 170 184 192 197 146
194 255 251 219 148 161 183 244 252 248 248 231 184 150 147 167 208
178 164 152 207 207 162 159 163 178 199 211 178 204 182 156 160 160
160 160 160 160 160 160 160 160 160 160 160 160 160 160 160 160 160
160 160 160 160 160 160 160 160 160 158 168 204 199 179 160 160 161
160 160 160 160 159 160 214 205 144 238 222 180 255 196 153 140 137
183 215 217 207 175 167 253 243 214 150 173 218 250 250 250 245 225
166 145 155 181 148 211 247 160 189 194 161 159 164 182 208 209 173
191 175 157 160 160 160 160 160 160 160 160 160 160 160 160 160 160
160 160 160 160 160 160 160 160 160 160 160 160 160 160 158 168 209
204 169 160 160 160 160 160 160 160 158 165 216 179 128 213 243 235
211 149 146 175 149 203 233 234 203 184 151 186 194 192 154 191 237
247 250 253 238 196 161 144 131 177 188 187 253 187 144 184 162 160
158 163 202 205 206 207 177 156 160 160 160 160 160 160 160 160 160
160 160 160 160 160 160 160 160 160 160 160 160 160 160 160 160 160
160 160 159 167 194 195 177 159 160 160 160 160 160 160 159 160 210
184 142 176 249 223 159 146 165 186 157 210 224 224 199 157 146 205
240 225 156 176 232 249 248 238 199 168 149 156 158 235 231 173 248
209 143 185 162 159 161 185 210 208 198 212 182 155 160 160 160 160
160 160 160 160 160 160 160 160 160 160 160 160 160 160 160 160 160
160 160 160 160 160 160 160 159 167 185 178 182 160 160 160 160 160
160 160 160 156 196 205 159 160 228 186 152 148 193 208 190 243 234
237 216 155 129 230 255 217 149 162 207 233 234 208 178 157 140 155
192 242 238 176 230 202 141 188 161 160 162 190 207 199 194 215 183
156 160 160 160 160 160 160 160 160 160 160 160 160 160 160 160 160
160 160 160 160 160 160 160 160 160 160 160 160 159 163 193 188 186
160 159 160 160 160 160 160 160 155 181 222 169 176 207 158 157 146
203 192 209 251 249 251 233 154 122 246 255 232 154 135 178 193 199
173 156 139 140 153 229 244 211 165 191 182 158 188 159 161 163 198
219 196 196 222 181 156 160 160 160 160 160 160 160 160 160 160 160
160 160 160 160 160 160 160 160 160 160 160 160 160 160 160 160 160
160 162 172 198 194 157 159 160 160 160 160 160 160 157 182 225 192
200 190 155 150 167 171 175 230 251 250 250 246 189 161 254 254 239
178 124 130 162 159 152 147 149 141 159 224 251 194 138 156 145 164
189 157 159 163 173 208 208 206 210 173 157 160 160 160 160 160 160
160 160 160 160 160 160 160 160 160 160 160 160 160 160 160 160 160
160 160 160 160 160 159 165 178 171 194 172 164 159 160 160 160 160
160 157 191 215 217 198 161 162 150 170 145 209 243 250 249 251 248
208 162 249 252 236 186 168 156 160 157 143 182 216 199 232 239 229
182 141 149 142 198 180 156 158 168 177 207 211 185 215 172 158 160
160 160 160 160 160 160 160 160 160 160 160 160 160 160 160 160 160
160 160 160 160 160 160 160 160 160 160 159 163 189 165 185 173 161
160 160 160 160 160 160 156 188 197 229 183 153 154 164 160 167 212
233 249 249 251 246 198 150 198 207 206 174 163 173 137 158 192 225
243 236 248 250 202 154 165 178 157 200 168 158 160 161 166 213 204
190 222 170 158 160 160 160 160 160 160 160 160 160 160 160 160 160
160 160 160 160 160 160 160 160 160 160 160 160 160 160 160 159 159
191 194 188 169 160 160 160 160 160 160 160 156 177 180 203 166 157
152 186 159 186 207 225 242 248 252 237 171 150 208 229 232 190 206
201 145 213 240 246 247 245 242 230 193 145 201 200 174 178 155 160
160 158 173 206 204 209 216 168 158 160 160 160 160 160 160 160 160
160 160 160 160 160 160 160 160 160 160 160 160 160 160 160 160 160
160 160 160 160 158 191 198 181 174 165 161 160 160 160 160 160 157
171 167 197 159 154 159 181 173 191 206 220 227 240 250 223 147 170
241 251 244 183 181 153 171 233 253 249 249 238 216 209 167 166 247
208 171 180 156 160 162 157 171 193 203 206 208 166 159 160 160 160
160 160 160 160 160 160 160 160 160 160 160 160 160 160 160 160 160
160 160 160 160 160 160 160 160 160 157 187 213 197 167 164 160 160
160 160 160 160 157 172 171 185 171 153 163 172 179 188 198 206 212
223 229 199 126 165 241 254 229 152 160 127 179 244 251 249 245 221
194 195 150 198 255 191 170 179 157 160 160 158 160 191 203 205 207
164 159 160 160 160 160 160 160 160 160 160 160 160 160 160 160 160
160 160 160 160 160 160 160 160 160 160 160 160 160 160 158 178 213
188 175 174 161 160 160 160 160 160 158 168 194 166 147 166 171 186
161 182 196 195 196 200 198 156 118 176 243 255 173 166 235 191 150
242 252 251 240 201 184 161 146 208 249 173 158 166 159 159 164 163
167 187 206 195 206 162 159 160 160 160 160 160 160 160 160 160 160
160 160 160 160 160 160 160 160 160 160 160 160 160 160 160 160 160
160 160 158 171 209 187 179 180 164 159 160 160 160 160 159 160 196
164 159 191 169 178 162 164 175 179 167 159 147 130 150 191 252 220
145 205 244 246 200 233 253 251 232 192 162 143 165 179 202 153 156
159 160 160 161 167 169 191 200 187 199 159 160 160 160 160 160 160
160 160 160 160 160 160 160 160 160 160 160 160 160 160 160 160 160
160 160 160 160 160 160 160 159 167 207 203 172 173 165 158 160 160
160 160 160 157 182 164 156 204 175 172 211 199 154 153 112 146 147
155 158 187 194 155 161 211 247 251 248 246 251 243 218 185 138 149
201 206 157 145 162 160 160 160 159 158 160 188 196 212 204 156 160
160 160 160 160 160 160 160 160 160 160 160 160 160 160 160 160 160
160 160 160 160 160 160 160 160 160 160 160 160 159 165 201 219 182
166 169 158 160 160 160 160 160 157 174 170 154 208 196 164 206 251
221 183 130 146 141 172 158 189 157 197 214 215 247 249 249 250 250
231 200 160 141 160 188 212 174 153 160 160 160 160 160 171 163 180
185 209 200 155 160 160 160 160 160 160 160 160 160 160 160 160 160
160 160 160 160 160 160 160 160 160 160 160 160 160 160 160 160 160
159 163 200 210 179 168 162 159 160 160 160 160 160 158 168 168 159
207 229 170 199 248 242 160 153 177 182 224 216 214 148 210 234 230
243 248 250 247 233 202 167 136 156 165 175 165 162 158 160 160 160
160 159 162 163 175 158 223 196 153 160 160 160 160 160 160 160 160
160 160 160 160 160 160 160 160 160 160 160 160 160 160 160 160 160
160 160 160 160 160 159 164 192 218 162 160 161 160 160 160 160 160
160 160 159 158 159 201 239 164 168 225 191 145 201 238 244 247 250
224 173 220 237 228 228 232 240 227 198 170 134 153 160 152 198 217
180 157 160 160 160 160 160 159 162 162 165 206 188 155 160 160 160
160 160 160 160 160 160 160 160 160 160 160 160 160 160 160 160 160
160 160 160 160 160 160 160 160 160 160 159 161 185 217 166 170 161
161 160 160 160 160 160 160 160 160 156 189 213 175 143 179 190 186
228 248 251 250 251 242 221 215 230 217 213 209 208 194 157 138 153
162 160 151 180 246 172 152 160 160 160 160 160 160 162 149 186 196
173 157 160 160 160 160 160 160 160 160 160 160 160 160 160 160 160
160 160 160 160 160 160 160 160 160 160 160 160 160 160 160 159 163
176 209 171 159 162 162 161 161 160 160 160 160 160 160 159 168 222
184 181 188 175 199 229 245 251 250 248 222 218 209 208 203 186 183
167 146 137 156 157 160 159 165 166 190 153 159 159 160 160 160 160
160 161 147 201 210 162 158 160 160 160 160 160 160 160 160 160 160
160 160 160 160 160 160 160 160 160 160 160 160 160 160 160 160 160
160 160 160 159 164 169 213 187 152 160 159 160 160 160 160 160 160
160 160 161 172 221 175 194 236 185 178 209 218 245 239 215 194 163
195 172 164 145 146 140 140 160 160 202 160 159 163 173 203 165 158
160 160 160 160 160 160 160 149 216 218 158 159 160 160 160 160 160
160 160 160 160 160 160 160 160 160 160 160 160 160 160 160 160 160
160 160 160 160 160 160 160 160 159 164 167 199 229 184 153 160 159
160 160 160 160 160 160 160 159 157 200 204 181 249 206 146 162 168
197 200 164 157 138 147 156 171 157 169 196 166 151 178 237 160 158
148 218 243 175 155 160 160 160 160 160 160 156 156 232 201 157 160
160 160 160 160 160 160 160 160 160 160 160 160 160 160 160 160 160
160 160 160 160 160 160 160 160 160 160 160 160 160 159 163 166 186
239 228 162 158 159 160 160 160 160 160 160 160 160 144 177 195 189
230 164 190 205 201 166 148 157 212 197 212 166 173 191 219 242 183
145 227 208 153 158 160 216 241 168 156 160 160 160 160 160 161 154
169 236 188 155 160 160 160 160 160 160 160 160 160 160 160 160 160
160 160 160 160 160 160 160 160 160 160 160 160 160 160 160 160 160
160 159 162 166 176 219 253 191 151 161 160 160 160 160 160 160 160
160 157 168 183 199 199 177 227 252 255 229 179 156 186 221 233 166
200 246 255 230 152 167 230 163 156 159 157 218 238 172 156 160 160
160 160 160 161 152 189 224 155 154 161 160 160 160 160 160 160 160
160 160 160 160 160 160 160 160 160 160 160 160 160 160 160 160 160
160 160 160 160 160 160 160 162 168 172 178 228 232 157 158 160 160
160 160 160 160 160 161 157 165 183 191 200 200 232 249 248 235 222
151 116 224 215 167 174 186 197 170 142 209 202 137 156 148 153 224
241 168 157 160 160 160 160 160 161 148 205 212 141 154 161 160 160
160 160 160 160 160 160 160 160 160 160 160 160 160 160 160 160 160
160 160 160 160 160 160 160 160 160 160 160 160 161 166 168 176 181
255 181 152 161 160 160 160 160 160 160 160 159 154 163 180 202 193
216 240 247 245 239 180 157 200 225 236 206 190 175 142 162 225 184
208 224 183 168 194 204 157 159 160 160 160 160 160 161 148 222 188
141 154 161 160 160 160 160 160 160 160 160 160 160 160 160 160 160
160 160 160 160 160 160 160 160 160 160 160 160 160 160 160 160 160
160 165 169 167 143 232 237 147 160 160 160 160 160 160 160 160 161
155 140 176 185 150 208 230 249 251 251 196 135 208 215 205 214 227
254 184 177 207 208 255 255 255 176 228 220 156 158 160 160 160 160
160 160 151 234 175 144 154 161 160 160 160 160 160 160 160 160 160
160 160 160 160 160 160 160 160 160 160 160 160 160 160 160 160 160
160 160 160 160 160 161 165 161 165 139 180 255 178 150 161 160 160
160 160 160 160 160 159 156 154 158 189 205 224 246 250 238 191 137
178 199 228 222 176 200 232 166 186 242 255 255 223 128 165 196 158
159 160 160 160 160 160 159 153 238 156 146 156 161 160 160 160 160
160 160 160 160 160 160 160 160 160 160 160 160 160 160 160 160 160
160 160 160 160 160 160 160 160 160 160 158 171 167 200 171 141 231
232 143 161 160 160 160 160 160 161 152 189 200 147 179 232 216 212
247 247 232 177 156 188 166 162 169 187 164 196 179 220 255 255 251
153 180 202 155 152 160 160 160 160 160 160 156 165 240 157 151 157
160 160 160 160 160 160 160 160 160 160 160 160 160 160 160 160 160
160 160 160 160 160 160 160 160 160 160 160 160 160 160 160 159 162
178 222 229 128 186 255 173 149 161 160 160 160 161 154 174 221 190
139 189 216 203 196 232 242 231 171 137 190 218 214 218 195 163 220
206 213 236 255 220 142 230 240 165 187 167 159 160 160 160 160 152
183 243 164 152 159 160 160 160 160 160 160 160 160 160 160 160 160
160 160 160 160 160 160 160 160 160 160 160 160 160 160 160 160 160
160 160 160 160 159 162 183 255 164 139 235 235 146 161 160 160 160
159 159 211 192 164 141 174 217 226 184 186 203 192 143 139 185 234
234 226 164 176 242 195 210 216 255 191 158 244 242 161 213 188 154
160 160 160 161 148 197 236 166 157 160 160 160 160 160 160 160 160
160 160 160 160 160 160 160 160 160 160 160 160 160 160 160 160 160
160 160 160 160 160 160 160 160 160 160 158 154 223 233 131 188 255
182 149 161 160 160 151 195 196 172 167 153 178 190 230 241 210 203
191 154 170 159 182 217 197 155 195 204 184 200 221 255 171 169 248
232 155 220 215 152 160 160 160 161 146 220 226 165 160 161 160 160
160 160 160 160 160 160 160 160 160 160 160 160 160 160 160 160 160
160 160 160 160 160 160 160 160 160 160 160 160 160 160 160 160 156
174 255 183 143 240 236 148 160 160 161 159 224 173 183 176 149 178
198 206 226 251 255 250 190 170 158 159 181 177 191 202 197 194 188
248 255 158 171 228 204 147 212 233 160 160 160 159 155 168 242 217
167 158 161 160 160 160 160 160 160 160 160 160 160 160 160 160 160
160 160 160 160 160 160 160 160 160 160 160 160 160 160 160 160 160
160 160 160 160 160 153 217 244 138 193 255 191 150 163 158 165 238
158 181 192 147 169 199 208 197 209 236 240 190 178 151 194 201 194
197 174 195 181 207 255 255 150 172 209 177 148 207 236 137 160 160
159 157 204 246 212 159 159 160 160 160 160 160 160 160 160 160 160
160 160 160 160 160 160 160 160 160 160 160 160 160 160 160 160 160
160 160 160 160 160 160 160 160 160 160 156 169 255 175 144 244 243
157 165 89 142 252 150 163 192 150 155 181 200 200 189 201 211 159
204 168 181 241 255 255 210 114 146 210 241 255 183 158 200 160 165
202 245 110 142 163 156 182 221 244 195 161 159 160 160 160 160 160
160 160 160 160 160 160 160 160 160 160 160 160 160 160 160 160 160
160 160 160 160 160 160 160 160 160 160 160 160 160 160 160 160 153
219 236 131 204 255 204 104 35 154 255 146 150 187 164 161 176 195
188 175 169 173 134 155 200 173 153 159 198 235 144 99 175 112 111
154 148 180 164 196 197 255 133 112 168 154 191 238 238 168 164 161
160 160 160 160 160 160 160 160 160 160 160 160 160 160 160 160 160
160 160 160 160 160 160 160 160 160 160 160 160 160 160 160 160 160
160 160 160 160 156 171 255 180 156 248 253 111 38 136 255 149 135
178 171 170 176 192 213 226 228 219 154 182 233 212 155 87 139 208
156 93 158 84 62 128 153 154 147 146 173 187 97 90 169 150 196
255 217 142 157 162 160 160 160 160 160 160 160 160 160 160 160 160
160 160 160 160 160 160 160 160 160 160 160 160 160 160 160 160 160
160 160 160 160 160 160 160 160 160 160 153 221 242 142 218 255 226
77 86 246 159 120 167 142 164 192 209 224 235 247 213 152 188 179
226 232 207 205 206 145 85 121 96 142 220 222 145 118 92 111 88
60 69 150 146 216 254 196 134 144 163 160 160 160 160 160 160 160
160 160 160 160 160 160 160 160 160 160 160 160 160 160 160 160 160
160 160 160 160 160 160 160 160 160 160 160 160 160 160 160 156 173
255 167 165 253 255 211 90 235 196 115 123 77 129 179 187 199 192
185 154 100 100 70 127 165 167 194 181 114 81 114 114 195 248 244
166 89 59 67 79 79 105 166 195 238 234 184 146 150 162 160 160
160 160 160 160 160 160 160 160 160 160 160 160 160 160 160 160 160
160 160 160 160 160 160 160 160 160 160 160 160 160 160 160 160 160
160 160 160 160 153 221 225 95 219 255 246 207 192 149 83 80 81
91 148 188 196 179 162 135 72 72 96 86 97 110 148 115 122 77
85 165 228 255 238 139 75 68 76 89 136 213 212 219 253 220 177
159 161 160 160 160 160 160 160 160 160 160 160 160 160 160 160 160
160 160 160 160 160 160 160 160 160 160 160 160 160 160 160 160 160
160 160 160 160 160 160 160 160 160 156 170 255 127 154 255 253 247
139 70 69 69 68 73 93 159 191 169 181 143 73 80 98 94 75
72 90 89 73 81 88 182 229 203 176 106 94 94 82 140 248 227
219 191 207 198 177 151 165 159 160 160 160 160 160 160 160 160 160
160 160 160 160 160 160 160 160 160 160 160 160 160 160 160 160 160
160 160 160 160 160 160 160 160 160 160 160 160 160 160 160 153 209
224 153 234 247 255 222 118 80 88 91 87 72 99 126 173 133 82
87 97 100 110 91 83 80 74 84 85 74 79 80 64 119 111 87
74 120 239 244 192 195 217 203 193 181 152 163 160 160 160 160 160
160 160 160 160 160 160 160 160 160 160 160 160 160 160 160 160 160
160 160 160 160 160 160 160 160 160 160 160 160 160 160 160 160 160
160 160 160 157 165 246 215 203 248 251 255 172 130 171 171 176 147
100 72 94 68 68 65 78 75 81 93 90 81 81 94 90 94 86
83 77 127 114 77 119 226 248 142 95 138 247 209 209 187 168 159
160 160 160 160 160 160 160 160 160 160 160 160 160 160 160 160 160
160 160 160 160 160 160 160 160 160 160 160 160 160 160 160 160 160
160 160 160 160 160 160 160 160 162 146 190 214 214 210 225 254 232
208 220 227 246 240 192 130 103 104 89 79 93 97 89 93 92 90
92 101 103 109 97 85 89 141 94 107 232 255 155 93 104 162 226
214 225 185 169 158 160 160 160 160 160 160 160 160 160 160 160 160
160 160 160 160 160 160 160 160 160 160 160 160 160 160 160 160 160
160 160 160 160 160 160 160 160 160 160 160 160 160 165 127 113 231
211 187 233 255 216 174 215 233 240 249 255 254 232 136 89 92 103
102 108 111 121 109 106 111 104 92 84 77 105 133 83 136 245 201
99 97 106 172 211 223 217 181 162 159 160 160 160 160 160 160 160
160 160 160 160 160 160 160 160 160 160 160 160 160 160 160 160 160
160 160 160 160 160 160 160 160 160 160 160 160 160 160 160 160 160
160 167 118 63 187 142 226 234 240 204 211 224 157 120 130 193 249
247 191 113 90 100 98 100 102 95 104 105 108 93 86 88 79 124
107 92 203 240 152 109 99 145 209 209 227 212 179 159 160 160 160
160 160 160 160 160 160 160 160 160 160 160 160 160 160 160 160 160
160 160 160 160 160 160 160 160 160 160 160 160 160 160 160 160 160
160 160 160 160 160 160 165 119 65 123 117 219 207 212 231 236 239
109 73 82 78 131 225 245 216 103 86 95 98 99 96 98 100 92
88 91 84 86 124 90 133 255 221 123 114 104 194 227 222 221 203
167 158 160 160 160 160 160 160 160 160 160 160 160 160 160 160 160
160 160 160 160 160 160 160 160 160 160 160 160 160 160 160 160 160
160 160 160 160 160 160 160 160 160 160 160 167 111 69 89 94 195
215 205 230 233 255 164 82 98 91 75 135 236 255 213 103 87 93
98 99 93 95 88 88 89 77 88 101 86 207 238 146 130 97 121
220 228 229 205 186 162 159 160 160 160 160 160 160 160 160 160 160
160 160 160 160 160 160 160 160 160 160 160 160 160 160 160 160 160
160 160 160 160 160 160 160 160 160 160 160 160 160 160 160 160 168
110 69 100 119 137 164 204 237 241 245 234 102 108 106 79 82 102
167 255 213 98 91 93 93 93 88 90 87 82 77 108 89 127 255
159 115 149 112 140 231 221 226 198 169 159 160 160 160 160 160 160
160 160 160 160 160 160 160 160 160 160 160 160 160 160 160 160 160
160 160 160 160 160 160 160 160 160 160 160 160 160 160 160 160 160
160 160 160 160 167 116 71 91 126 144 121 180 204 246 172 249 181
75 100 103 94 75 69 168 255 154 81 94 91 87 84 85 81 83
78 88 83 207 239 125 128 139 138 198 221 219 227 188 157 160 160
160 160 160 160 160 160 160 160 160 160 160 160 160 160 160 160 160
160 160 160 160 160 160 160 160 160 160 160 160 160 160 160 160 160
160 160 160 160 160 160 160 160 160 167 122 72 95 128 135 124 156
210 244 187 165 252 119 84 115 98 77 91 87 206 221 117 89 94
90 92 91 86 78 87 83 114 255 195 108 119 132 193 235 215 236
179 145 162 160 160 160 160 160 160 160 160 160 160 160 160 160 160
160 160 160 160 160 160 160 160 160 160 160 160 160 160 160 160 160
160 160 160 160 160 160 160 160 160 160 160 160 160 160 167 123 69
97 127 134 139 131 208 244 250 133 230 234 93 78 98 80 82 87
92 203 204 87 90 95 89 89 76 72 99 90 166 218 115 95 113
181 220 228 221 229 113 128 165 160 160 160 160 160 160 160 160 160
160 160 160 160 160 160 160 160 160 160 160 160 160 160 160 160 160
160 160 160 160 160 160 160 160 160 160 160 160 160 160 160 160 160
160 160 166 132 76 99 122 142 149 120 150 245 248 214 151 255 218
126 104 88 86 76 80 95 115 84 108 89 81 75 77 99 100 89
223 151 83 75 151 244 222 219 233 204 81 134 165 160 160 160 160
160 160 160 160 160 160 160 160 160 160 160 160 160 160 160 160 160
160 160 160 160 160 160 160 160 160 160 160 160 160 160 160 160 160
160 160 160 160 160 160 160 163 149 83 95 122 142 141 142 104 200
239 254 181 171 255 235 167 140 95 73 74 69 72 141 140 79 77
79 96 93 110 109 107 103 81 113 243 230 218 234 228 155 72 131
166 160 160 160 160 160 160 160 160 160 160 160 160 160 160 160 160
160 160 160 160 160 160 160 160 160 160 160 160 160 160 160 160 160
160 160 160 160 160 160 160 160 160 160 160 160 161 162 94 97 125
127 137 146 110 131 208 228 239 179 217 249 209 231 175 136 85 125
166 137 95 85 75 98 91 108 101 94 67 78 99 229 237 184 250
241 166 92 77 127 166 160 160 160 160 160 160 160 160 160 160 160
160 160 160 160 160 160 160 160 160 160 160 160 160 160 160 160 160
160 160 160 160 160 160 160 160 160 160 160 160 160 160 160 160 160
161 161 98 95 116 124 145 135 109 115 140 211 227 247 218 215 203
220 228 246 225 216 159 156 167 101 93 101 111 122 105 115 66 131
241 236 141 227 255 197 104 103 80 129 166 160 160 160 160 160 160
160 160 160 160 160 160 160 160 160 160 160 160 160 160 160 160 160
160 160 160 160 160 160 160 160 160 160 160 160 160 160 160 160 160
160 160 160 160 160 161 158 85 93 105 124 130 123 104 121 99 150
209 240 228 219 213 223 220 180 209 207 178 162 92 79 100 102 128
118 92 107 162 247 215 123 199 255 232 139 99 109 78 128 166 160
160 160 160 160 160 160 160 160 160 160 160 160 160 160 160 160 160
160 160 160 160 160 160 160 160 160 160 160 160 160 160 160 160 160
160 160 160 160 160 160 160 160 160 160 161 159 92 92 112 126 141
115 114 119 119 108 131 201 216 224 234 243 244 225 222 176 119 75
84 91 100 102 122 117 155 205 213 156 138 202 253 241 174 124 112
107 75 134 166 160 160 160 160 160 160 160 160 160 160 160 160 160
160 160 160 160 160 160 160 160 160 160 160 160 160 160 160 160 160
160 160 160 160 160 160 160 160 160 160 160 160 160 160 160 162 154
87 93 114 127 128 121 130 113 138 112 86 93 186 244 245 234 228
197 141 80 75 74 83 98 108 98 106 152 154 132 142 206 246 243
222 154 123 132 103 94 85 137 165 160 160 160 160 160 160 160 160
160 160 160 160 160 160 160 160 160 160 160 160 160 160 160 160 160
160 160 160 160 160 160 160 160 160 160 160 160 160 160 160 160 160
160 160 160 162 151 92 96 111 131 117 133 137 116 135 112 101 79
85 139 160 208 169 125 89 78 70 74 89 92 110 127 103 139 196
203 237 248 219 211 149 101 142 127 99 89 90 140 164 160 160 160
160 160 160 160 160 160 160 160 160 160 160 160 160 160 160 160 160
160 160 160 160 160 160 160 160 160 160 160 160 160 160 160 160 160
160 160 160 160 160 160 160 160 164 145 81 95 112 130 117 140 153
118 131 133 119 97 80 107 94 92 120 118 75 88 58 69 86 98
100 115 144 177 149 167 219 157 152 166 106 122 152 133 109 85 84
141 164 160 160 160 160 160 160 160 160 160 160 160 160 160 160 160
160 160 160 160 160 160 160 160 160 160 160 160 160 160 160 160 160
160 160 160 160 160 160 160 160 160 160 160 160 160 166 134 73 98
111 119 117 136 153 126 127 142 120 95 92 95 105 106 144 100 66
117 89 82 102 98 86 103 118 77 88 179 102 82 129 135 105 133
141 139 122 91 99 155 162 160 160 160 160 160 160 160 160 160 160
160 160 160 160 160 160 160 160 160 160 160 160 160 160 160 160 160
160 160 160 160 160 160 160 160 160 160 160 160 160 160 160 160 160
160 164 144 75 94 113 115 113 142 160 134 111 139 110 98 74 81
108 114 119 82 70 146 90 89 109 81 83 91 109 94 128 127 74
99 136 137 115 139 131 132 114 100 152 163 160 160 160 160 160 160
160 160 160 160 160 160 160 160 160 160 160 160 160 160 160 160 160
160 160 160 160 160 160 160 160 160 160 160 160 160 160 160 160 160
160 160 160 160 160 160 160 164 103 89 114 105 124 150 156 131 103
127 111 94 73 85 113 125 108 76 127 170 95 89 128 89 83 142
143 135 158 139 72 99 125 125 119 137 141 127 98 121 164 160 160
160 160 160 160 160 160 160 160 160 160 160 160 160 160 160 160 160
160 160 160 160 160 160 160 160 160 160 160 160 160 160 160 160 160
160 160 160 160 160 160 160 160 160 160 160 160 167 122 90 110 96
137 151 155 134 105 134 129 104 83 93 127 108 102 135 167 165 119
105 133 104 80 150 167 164 163 149 126 108 114 121 137 140 151 141
138 162 161 160 160 160 160 160 160 160 160 160 160 160 160 160 160
160 160 160 160 160 160 160 160 160 160 160 160 160 160 160 160 160
160 160 160 160 160 160 160 160 160 160 160 160 160 160 160 160 160
166 129 86 105 99 139 153 146 140 113 106 121 100 89 115 135 90
155 166 163 115 87 128 146 96 78 142 165 160 159 162 166 161 148
151 161 159 158 160 163 161 160 160 160 160 160 160 160 160 160 160
160 160 160 160 160 160 160 160 160 160 160 160 160 160 160 160 160
160 160 160 160 160 160 160 160 160 160 160 160 160 160 160 160 160
160 160 160 160 160 161 158 106 98 95 133 155 147 140 110 95 112
96 86 137 157 146 163 160 163 120 78 117 148 107 72 109 167 160
160 160 160 161 162 162 161 160 160 160 160 160 160 160 160 160 160
160 160 160 160 160 160 160 160 160 160 160 160 160 160 160 160 160
160 160 160 160 160 160 160 160 160 160 160 160 160 160 160 160 160
160 160 160 160 160 160 160 160 160 160 160 162 164 141 96 125 148
137 139 116 96 106 97 119 161 163 163 160 160 160 167 145 95 148
137 90 105 166 160 160 160 160 160 160 159 160 160 160 160 160 160
160 160 160 160 160 160 160 160 160 160 160 160 160 160 160 160 160
160 160 160 160 160 160 160 160
