P2
# Converted from P5 to P2 by convert_p5_to_p2.py
90 90
255
6 6 8 7 7 7 7 6 6 7 7 7 7 6 5 5 5
6 7 6 5 5 5 5 6 7 5 5 7 7 7 7 7 7
7 7 7 7 7 7 7 5 6 7 7 7 7 6 5 6 6
5 6 6 5 5 5 6 7 6 5 5 5 5 5 5 5 5
5 5 5 5 5 5 5 5 7 6 6 7 7 7 5 38 64
25 6 78 85 44 2 3 6 7 7 7 7 5 5 6 6 5
5 7 7 6 5 5 5 5 6 6 5 6 6 6 6 7 7
7 7 6 7 7 7 6 5 4 1 0 0 0 0 0 0 0
0 0 0 0 0 0 0 3 5 7 6 5 6 7 6 5 6
5 5 5 5 5 5 6 5 5 5 5 6 5 5 5 7 6
6 7 7 1 0 4 7 0 0 1 186 172 17 4 7 7 7
6 7 7 6 6 6 6 6 6 6 5 6 7 7 7 7 7
7 7 7 7 7 7 6 2 0 0 0 0 4 14 23 35 56
71 80 86 95 114 147 135 115 102 77 85 47 9 0 0 0 3
6 7 7 5 5 6 5 6 5 6 5 6 5 5 5 5 7
6 5 5 7 6 5 6 7 7 7 7 7 7 7 7 203 221
21 3 7 7 7 7 7 7 7 7 6 5 5 5 5 6 6
6 7 6 6 7 7 7 7 6 0 0 0 21 55 88 123 139
169 174 184 189 204 218 217 224 208 172 134 157 157 159 167 172 209
201 152 104 56 11 0 0 1 6 7 5 5 5 6 6 5 5
5 5 6 5 7 6 5 5 6 5 5 5 6 6 6 6 6
7 7 7 41 37 6 6 7 7 6 7 6 6 6 5 6 6
5 5 6 6 6 6 6 6 7 7 7 3 0 0 44 110 145
152 137 117 84 45 37 24 18 17 13 19 15 24 19 25 12 0
9 7 13 7 85 167 202 236 233 216 158 80 21 0 0 1 7
6 6 5 5 5 5 5 5 5 5 6 5 6 6 6 6 6
6 5 6 5 6 6 5 6 0 0 7 7 7 6 7 6 5
7 6 5 5 6 6 6 6 5 6 7 7 6 7 3 0 11
78 150 160 109 39 2 6 21 35 69 91 100 100 92 98 88 82
69 37 2 3 9 4 4 3 4 0 0 0 24 46 130 182 205
202 162 86 16 0 0 6 6 5 5 6 5 5 5 5 5 5
5 5 6 6 6 5 5 6 6 5 5 5 5 7 7 7 7
7 6 6 6 6 6 5 5 5 5 6 6 6 6 6 6 7
6 0 9 106 193 162 58 0 2 91 162 223 253 255 255 255 253
220 186 157 161 159 146 132 115 59 29 0 4 4 4 30 56 80
71 55 6 0 16 56 129 183 192 144 53 0 0 5 7 7 6
6 5 6 6 6 6 5 5 5 5 6 6 5 5 5 5 6
5 7 6 7 5 5 5 5 5 6 5 5 5 5 6 6 6
7 6 5 7 2 0 53 196 194 66 0 62 157 131 192 158 154
205 240 246 190 137 143 137 136 157 146 126 130 132 149 117 42 4
6 55 145 228 253 247 255 185 50 34 16 0 0 55 149 198 159
62 0 0 6 7 5 7 5 7 5 6 6 6 6 5 5 5
5 5 5 5 5 5 6 7 6 5 5 5 5 5 6 6 6
5 5 6 6 6 6 6 7 0 10 131 227 126 0 9 132 162
163 149 140 134 115 130 159 152 141 116 128 138 151 176 146 128 140
160 140 96 200 105 155 163 124 115 122 137 178 203 171 185 216 146
70 8 0 5 107 190 158 49 0 2 6 6 5 5 5 7 6
5 6 6 6 5 5 5 5 5 5 5 5 6 6 6 5 5
5 5 6 6 5 5 6 5 5 5 7 8 0 14 168 220 55
0 86 182 179 109 129 156 165 146 121 140 148 116 118 123 135 133
156 171 127 126 136 151 174 131 147 179 170 100 125 126 106 118 128
153 155 118 123 191 227 222 180 92 3 0 110 195 129 12 0 6
5 5 6 5 5 5 5 5 5 6 6 5 5 5 5 5 5
5 6 5 5 5 5 5 5 5 6 7 6 5 5 6 7 0
18 189 203 26 17 120 200 162 125 122 112 137 150 134 116 127 129
130 121 115 132 134 155 131 102 110 143 156 132 125 173 152 97 110
157 152 154 124 116 125 115 117 123 147 153 176 240 254 208 116 0
24 156 181 57 0 4 5 5 6 6 5 6 6 6 6 5 5
5 5 5 5 5 5 5 5 5 6 5 5 5 5 5 5 6
6 6 6 2 8 184 197 15 40 127 113 113 121 137 128 114 126
145 135 108 111 120 132 148 154 135 133 127 113 98 131 161 166 133
121 226 206 169 123 132 130 124 119 121 112 95 117 127 127 131 124
174 210 194 208 175 47 0 98 185 93 0 3 6 6 6 6 5
5 6 6 5 5 5 5 5 5 5 5 5 5 5 5 5 6
6 5 5 5 5 5 5 5 0 139 203 10 28 137 128 143 139
137 127 126 126 127 134 131 122 115 128 134 138 169 133 106 93 87
115 142 144 143 128 166 200 181 128 122 134 138 122 102 110 112 112
115 109 110 125 130 163 183 138 122 153 206 102 0 49 187 125 0
3 6 5 5 5 5 5 5 5 5 5 5 5 5 5 5 5
5 5 5 5 5 5 5 5 6 6 5 6 0 86 211 27 0
90 127 137 161 134 117 117 118 121 126 120 128 122 105 109 125 126
145 131 91 79 82 130 141 145 145 98 158 198 86 84 125 124 117
120 88 88 107 101 105 114 95 115 109 142 148 114 101 91 154 216
124 0 30 200 133 0 5 6 5 5 5 5 5 5 5 5 5
5 5 5 5 5 5 5 5 5 5 5 5 6 7 6 6 0
38 210 55 0 84 178 109 131 138 105 112 115 114 120 116 119 109
103 109 106 126 124 124 104 71 80 107 135 128 131 135 102 153 206
128 103 134 128 134 126 86 88 91 88 110 108 98 99 92 119 131
116 106 139 152 129 125 62 0 37 212 104 0 6 6 5 5 5
5 5 5 5 5 5 5 5 5 5 5 5 5 5 5 5 5
6 6 5 3 6 185 91 0 66 247 190 107 121 119 114 113 100
107 106 110 106 98 103 106 108 116 103 105 78 77 108 130 145 144
141 119 107 182 220 138 92 118 109 121 114 82 76 76 91 96 93
93 110 99 108 111 109 124 140 113 102 111 112 22 0 91 223 46
0 6 5 5 5 5 5 5 5 5 5 5 5 5 5 5 5
5 5 5 5 5 6 6 6 0 128 143 0 86 240 243 164 120
127 120 122 113 109 113 108 114 112 103 111 101 105 98 104 111 92
110 121 121 127 135 134 124 145 222 223 174 102 119 128 130 119 89
75 69 86 105 106 112 122 109 97 96 108 106 101 100 119 99 128
129 0 0 158 174 4 3 5 5 5 5 5 5 5 5 5 5
5 5 5 5 5 5 5 5 5 5 5 5 0 71 178 0 112
233 165 114 132 149 134 137 137 125 117 112 111 118 103 99 103 106
113 123 131 125 124 128 129 146 143 137 150 180 231 241 197 179 135
135 135 140 130 102 84 75 95 101 95 98 102 102 97 84 89 85
93 98 95 101 160 252 99 0 33 216 77 0 5 5 5 5 5
5 5 5 5 5 5 5 5 5 5 5 5 5 5 5 6 2
16 188 42 86 232 177 130 137 144 121 140 141 137 134 110 106 115
105 99 101 108 110 119 121 104 116 145 152 135 136 129 131 147 166
250 255 200 165 108 122 127 123 123 107 99 87 85 88 88 99 96
83 74 66 84 93 106 90 98 121 121 133 160 21 0 123 187 8
2 5 5 5 5 5 5 5 5 5 5 5 5 5 5 5 5
5 5 5 5 0 131 137 21 199 147 150 140 132 133 135 133 131
123 115 114 119 97 85 100 102 113 106 93 79 73 107 161 179 161
135 142 140 121 159 251 194 100 104 125 146 115 120 130 124 96 84
90 119 100 105 100 71 74 81 96 117 111 92 86 97 115 106 127
63 0 17 204 85 0 6 5 5 5 5 5 5 5 5 5 5
5 5 5 5 5 5 5 5 1 32 201 25 105 153 112 127 137
142 123 121 126 127 116 115 115 93 81 84 93 93 89 85 100 94
65 91 144 149 144 137 138 128 126 173 179 85 117 129 124 153 150
129 128 126 95 68 77 106 113 114 112 88 86 102 131 151 141 133
105 98 101 97 170 174 14 0 104 180 4 4 5 5 5 5 5
5 5 5 5 5 5 5 5 5 5 5 5 4 0 137 143 0
119 113 115 121 124 113 113 126 111 112 111 101 88 76 80 76 86
95 92 97 127 113 66 82 142 127 139 143 121 138 147 121 85 119
151 144 134 127 133 135 127 117 72 53 57 64 82 98 98 94 87
95 120 127 138 127 115 109 109 85 161 246 123 4 7 185 80 0
6 5 5 5 5 5 5 5 5 5 5 5 5 5 5 5 5
1 28 176 33 1 69 112 150 132 120 96 91 101 104 98 95 92
84 79 77 73 81 94 95 134 146 101 76 58 119 158 144 147 165
185 157 130 154 136 137 161 155 154 148 140 144 116 64 58 84 79
56 81 100 88 86 84 77 96 111 111 123 117 98 93 107 139 111
80 0 101 145 0 5 5 5 5 5 5 5 5 5 5 5 5
5 5 5 5 5 0 114 124 0 1 61 118 170 143 93 97 107
100 87 65 69 66 67 85 89 101 118 120 117 154 136 54 45 40
51 140 196 199 170 127 125 113 90 61 134 140 139 127 161 169 130
81 47 69 117 118 77 87 101 91 81 78 86 92 103 115 119 122
118 120 110 104 87 89 60 21 181 28 1 6 5 5 5 5 5
5 5 5 5 5 5 5 5 5 3 6 141 39 10 8 39 108
134 128 106 117 120 124 115 86 80 76 69 91 100 112 134 135 118
151 183 138 71 16 18 40 124 173 191 150 136 136 97 87 138 153
143 124 144 113 48 37 43 58 100 124 92 94 102 88 91 89 91
112 131 139 118 123 141 117 74 100 130 84 89 3 132 105 0 5
6 6 5 5 5 5 5 5 5 5 5 5 5 5 0 45 112
0 12 8 18 78 110 131 137 124 103 105 125 117 113 107 94 90
95 111 134 123 109 166 213 232 216 69 1 14 17 52 132 148 127
95 129 148 178 162 127 101 58 19 18 17 43 90 146 129 91 90
110 87 90 75 64 79 80 82 95 93 89 81 83 85 110 87 84
33 51 160 8 4 6 6 5 5 5 5 5 5 5 5 5 5
5 5 0 87 69 0 7 5 40 124 119 142 163 172 154 157 149
170 139 120 122 131 130 138 146 133 114 153 215 252 255 239 101 3
19 13 15 36 95 58 5 96 89 62 23 13 11 4 7 70 180
197 191 127 104 114 98 75 84 64 40 44 50 45 58 57 64 64
86 86 77 83 118 60 0 167 67 0 7 5 6 6 5 5 5
5 5 5 5 5 5 3 12 128 15 40 24 3 74 255 206 169
144 141 142 152 119 130 164 133 141 151 159 151 139 130 90 111 171
176 191 251 255 123 8 22 22 23 14 10 9 13 8 16 13 15
0 40 148 237 254 210 169 134 142 120 97 107 114 99 77 64 69
70 76 72 65 74 101 109 93 100 132 44 0 108 133 0 7 6
5 5 5 6 5 5 5 5 5 5 5 0 76 96 16 124 19
9 184 250 123 93 116 128 151 149 118 114 161 133 132 132 153 153
143 129 73 84 101 95 105 135 214 255 129 5 16 27 21 21 16
15 19 16 3 18 114 232 255 255 252 188 122 116 133 121 118 126
114 111 117 107 103 110 134 112 101 115 109 100 101 98 127 31 0
26 143 27 1 6 5 5 5 5 5 5 5 5 5 6 6 6
98 17 67 34 21 208 236 168 104 118 113 94 111 88 62 149 186
193 187 127 133 163 141 112 72 62 89 104 104 108 122 187 255 177
49 19 22 17 11 12 7 12 90 202 255 255 251 225 197 152 96
94 122 125 116 123 128 108 114 116 122 113 124 133 127 134 111 111
103 89 136 27 10 0 81 74 1 5 5 5 5 5 5 5 5
5 5 6 1 39 51 2 5 14 203 207 160 114 121 149 123 127
122 82 94 185 189 180 163 144 141 138 120 107 79 49 68 107 104
95 104 98 183 255 235 129 84 69 65 73 94 183 255 255 245 197
135 94 97 98 78 101 124 135 126 104 131 173 120 110 111 98 92
114 110 102 97 96 93 86 111 19 9 3 36 61 10 4 5 5
5 5 5 5 5 5 5 7 4 35 11 1 8 180 204 120 109
121 160 171 154 127 117 123 133 137 141 144 141 158 143 118 93 92
76 54 59 69 85 81 90 93 122 236 255 255 226 232 228 225 255
255 255 223 150 93 83 75 78 67 72 101 113 127 131 129 116 113
123 122 121 123 126 129 121 111 103 97 94 74 64 9 4 6 3
60 44 1 5 5 5 5 5 5 5 5 6 0 31 24 3 14
185 255 147 100 117 147 173 157 138 119 117 129 143 147 140 139 152
142 136 116 89 85 69 67 51 51 75 93 92 98 106 217 255 255
255 245 239 255 255 255 222 109 83 92 83 77 64 59 72 98 114
115 136 144 123 116 125 131 125 127 132 123 121 142 134 101 89 93
72 5 4 6 0 45 90 0 5 6 5 5 5 7 5 5 3
19 69 7 0 113 255 224 199 163 120 110 117 137 143 152 154 151
133 136 158 145 140 124 122 104 79 87 85 64 61 63 64 72 96
93 109 235 255 254 255 242 244 255 255 253 152 69 84 89 87 78
63 56 63 85 101 119 131 135 124 128 116 106 126 150 160 190 147
122 122 106 111 149 196 27 2 12 0 40 102 1 6 5 5 5
5 7 5 7 0 86 54 0 51 196 215 190 172 203 234 195 146
149 144 144 145 132 135 127 151 175 156 134 99 80 90 101 90 69
51 60 68 72 91 84 142 255 255 254 254 238 245 255 255 242 120
75 84 79 82 62 47 59 62 83 84 121 142 132 126 128 114 132
129 138 106 119 143 153 129 97 93 134 186 80 0 15 2 43 58
0 5 6 6 5 5 6 5 3 21 81 1 32 165 212 203 147
145 123 130 134 135 167 200 164 140 141 146 141 148 174 157 110 81
76 101 106 87 67 41 40 40 54 83 81 196 255 255 255 251 220
242 255 255 238 106 89 96 76 63 49 46 65 66 79 79 99 144
161 145 119 153 79 69 113 136 116 106 106 112 114 118 108 130 204
33 0 10 22 31 1 5 5 5 5 5 5 5 0 68 53 0
118 214 224 232 218 195 143 113 110 99 88 132 169 130 131 151 147
150 175 157 110 68 81 93 90 82 81 66 47 28 39 65 144 254
254 252 255 236 197 233 255 255 254 143 89 76 48 41 39 50 70
82 89 84 88 128 131 142 161 187 79 84 145 142 136 116 103 106
103 95 101 127 235 200 13 10 11 32 8 5 5 5 6 5 5
6 3 71 13 53 185 175 172 223 255 242 178 128 146 137 148 138
105 66 183 196 158 126 142 145 95 63 87 98 68 56 60 47 48
33 33 79 202 255 255 247 247 184 155 217 255 255 255 210 99 52
27 35 44 59 78 88 92 81 93 111 119 149 170 139 132 127 143
130 140 113 120 126 100 95 92 84 107 136 139 9 12 44 35 1
5 5 5 5 6 2 27 48 0 98 174 140 141 194 220 218 176
147 173 131 138 161 152 155 181 181 171 153 143 141 91 56 76 79
62 53 44 44 49 26 22 65 157 216 251 255 246 162 101 178 255
255 255 236 129 55 37 40 40 59 82 91 77 79 104 109 128 135
147 139 149 125 118 114 119 125 143 129 103 99 81 64 61 76 144
41 0 22 54 2 6 5 5 5 7 0 47 50 28 148 85 81
108 114 105 86 76 133 149 147 135 108 115 158 137 130 141 161 167
133 71 58 71 52 51 47 32 47 38 46 64 54 79 110 159 193
233 226 169 195 254 255 250 219 144 43 32 40 63 73 79 88 67
64 74 76 120 146 142 128 116 115 139 133 112 115 129 112 91 92
88 70 63 66 48 45 2 7 46 11 5 5 5 5 7 0 58
9 77 199 106 95 112 96 106 123 130 120 111 109 130 121 109 157
177 124 136 151 156 119 84 65 66 63 62 40 32 42 40 58 70
54 51 63 77 80 123 210 227 239 253 236 197 146 115 52 24 43
71 72 79 73 58 61 64 69 98 123 121 128 122 132 138 120 110
118 111 90 82 94 77 84 100 68 63 1 0 3 19 15 4 5
5 6 5 13 82 0 134 226 130 102 121 125 117 130 129 133 122
106 100 127 126 48 149 174 134 112 118 106 83 71 66 66 67 40
43 44 53 60 61 60 54 57 57 73 67 139 249 183 130 129 107
74 68 68 38 35 47 53 70 76 67 63 61 60 80 106 122 139
110 107 126 133 98 86 95 86 69 86 84 104 90 64 128 77 60
0 14 17 4 5 5 6 0 49 85 0 173 243 186 146 150 166
158 140 141 146 139 164 64 95 136 65 141 164 135 127 118 101 76
59 51 54 38 24 19 52 57 57 66 67 62 57 52 72 74 129
170 55 49 62 58 58 58 57 51 30 42 58 63 66 64 59 50
66 87 113 118 129 121 114 114 135 178 146 108 97 91 89 108 116
109 193 222 238 217 16 3 28 5 5 5 6 0 76 57 4 207
255 255 228 221 220 195 159 166 176 138 175 61 115 190 161 128 139
145 133 135 118 83 59 60 51 24 19 35 49 53 62 65 59 71
53 55 71 88 115 76 73 60 62 65 71 76 54 52 37 23 36
39 56 56 59 55 58 77 104 140 151 143 138 116 126 125 99 118
120 100 112 112 103 165 246 173 197 241 68 0 20 5 5 5 6
0 108 30 39 233 199 156 139 144 180 228 219 157 105 141 134 78
140 175 183 99 150 140 168 149 100 72 57 56 42 14 19 46 46
43 49 63 54 60 51 59 63 80 100 79 77 69 73 79 79 64
60 51 57 37 33 27 52 62 60 50 58 80 102 102 121 133 116
114 106 99 110 113 103 99 92 97 90 106 96 77 96 142 93 0
12 12 4 5 5 10 136 13 87 140 87 97 109 101 89 134 189
232 183 129 83 125 121 117 153 93 116 113 141 151 114 84 66 52
29 13 28 43 44 36 44 50 58 58 58 72 83 101 134 97 76
68 66 71 73 71 67 53 56 57 24 32 42 49 55 48 65 97
113 126 116 114 144 131 107 111 107 89 85 97 86 89 88 77 67
58 59 78 101 9 18 28 1 5 2 19 107 8 68 100 113 118
131 134 112 114 107 130 162 153 188 140 107 113 122 100 91 158 110
118 126 91 62 44 22 19 34 40 35 39 55 48 54 63 76 55
62 119 191 123 74 66 70 66 68 87 73 70 50 48 22 13 16
31 42 66 80 102 120 132 118 130 116 111 131 97 102 94 101 120
107 97 81 72 79 80 94 100 126 34 10 34 2 6 1 36 83
0 54 136 138 110 137 144 123 124 111 107 143 195 212 135 103 99
117 93 76 140 180 153 120 95 73 59 28 22 38 43 47 60 68
52 68 86 84 72 97 191 230 179 98 64 72 66 66 65 59 57
51 53 40 12 19 26 45 69 79 105 136 142 142 140 109 138 146
49 74 104 104 103 91 95 96 91 124 151 164 168 217 75 0 32
4 5 0 58 94 4 106 154 137 118 123 122 112 113 109 115 113
102 148 155 118 103 85 83 106 109 130 172 132 105 88 58 36 48
48 45 65 76 82 71 74 84 80 116 195 244 226 224 145 85 80
78 77 64 53 51 63 52 38 19 21 40 60 56 72 108 136 145
126 108 110 119 124 72 79 115 97 136 158 144 166 196 226 213 173
160 186 71 0 50 7 4 0 71 86 8 156 189 153 136 138 112
110 109 107 128 129 131 114 132 163 140 118 77 85 121 100 102 104
87 80 67 66 87 61 49 70 74 64 65 80 87 127 213 255 233
165 250 237 135 77 73 68 59 66 63 54 39 38 32 25 40 61
62 90 114 107 90 53 119 157 128 133 117 65 110 112 118 99 111
145 132 112 94 84 96 102 40 2 38 9 4 0 76 73 0 65
133 124 140 137 129 116 100 97 128 151 132 127 115 135 192 191 90
85 91 100 97 80 91 73 71 74 76 58 50 54 58 69 93 134
184 251 255 136 194 177 251 255 226 112 64 69 70 69 71 50 44
46 38 35 37 61 78 112 107 91 64 70 189 158 124 123 137 89
70 99 84 100 119 121 84 65 62 79 88 81 55 2 31 9 4
0 100 82 0 57 110 135 160 139 111 102 117 110 114 132 130 128
118 122 138 127 162 185 135 100 96 75 72 61 51 70 81 84 99
107 137 155 176 197 239 255 234 84 225 237 251 255 255 209 146 95
61 71 68 47 54 53 48 32 49 77 99 108 89 118 72 108 134
112 134 127 101 103 62 47 127 197 180 94 70 92 89 83 77 79
100 7 27 8 4 0 89 94 0 80 115 144 142 147 143 128 129
141 131 115 111 110 100 79 80 109 156 161 158 104 94 91 68 63
75 161 206 233 238 221 214 222 229 250 255 252 255 255 255 255 255
255 255 252 236 200 145 114 79 69 66 57 67 59 65 71 79 110
124 152 70 78 97 121 165 148 115 104 125 108 99 159 156 103 98
101 82 85 82 64 68 8 50 10 4 0 105 112 2 76 94 136
128 140 153 155 150 131 112 96 91 94 86 85 99 121 105 81 92
77 67 71 110 145 207 255 255 255 254 242 239 244 249 225 201 232
232 223 224 238 255 255 255 253 237 227 220 210 195 177 138 71 41
47 60 67 87 101 106 110 102 41 72 155 196 192 148 122 159 179
142 53 70 122 104 95 78 103 89 74 68 5 42 8 4 0 90
120 14 105 109 136 122 133 148 133 129 125 126 108 81 88 94 96
103 101 93 91 88 77 87 127 219 255 255 255 254 254 255 255 255
255 200 90 55 56 36 18 21 32 53 104 164 181 207 236 224 237
253 254 249 191 82 31 63 91 96 84 71 66 95 123 115 114 91
77 76 81 96 88 76 91 118 64 50 73 82 108 78 85 91 2
52 8 4 0 59 127 15 104 114 149 109 114 148 133 123 109 106
113 101 99 99 97 97 84 70 84 86 95 117 204 255 255 254 254
254 255 255 255 244 155 33 2 7 2 3 4 4 2 0 0 0
21 65 183 254 244 246 252 255 255 229 124 52 73 75 70 81 99
136 132 101 98 98 101 120 122 121 116 128 101 131 190 160 80 39
71 65 83 91 3 77 9 4 0 66 171 4 89 116 176 151 131
138 136 138 100 98 134 119 117 94 105 94 82 77 98 93 92 141
247 255 254 255 255 255 255 217 135 44 0 8 13 13 9 9 7
8 12 8 10 8 6 0 28 166 255 255 254 254 254 255 255 181
88 88 66 78 106 125 106 104 107 101 102 100 104 111 109 139 161
93 76 110 97 61 91 73 84 98 13 75 2 5 0 56 185 4
61 95 184 184 138 119 111 123 92 110 139 125 121 120 109 113 92
93 106 91 101 166 255 255 255 255 230 147 66 16 0 13 29 30
28 22 28 24 23 7 5 10 4 4 8 8 2 4 107 238 255
255 253 254 255 255 172 105 85 57 67 91 119 116 104 109 117 125
122 107 96 111 86 65 70 59 65 79 124 94 59 54 28 77 0
5 3 22 166 23 44 90 152 138 97 105 114 121 108 124 130 127
134 155 143 117 95 76 101 104 107 164 255 255 205 103 21 12 36
77 82 73 77 53 58 72 95 77 76 77 70 53 52 43 28 10
8 5 0 42 173 251 255 255 255 255 229 120 89 73 59 66 85
88 92 106 120 103 97 82 70 75 66 66 72 88 106 69 81 79
48 17 45 71 0 5 5 1 160 52 17 101 121 115 109 131 135
151 140 122 138 149 150 158 142 113 110 108 116 127 142 128 148 83
8 15 67 102 110 119 130 123 116 102 95 107 117 108 89 77 63
78 109 110 87 64 38 13 8 0 0 57 173 255 255 255 199 113
120 124 102 68 47 41 60 62 53 56 76 73 75 76 71 84 79
87 135 149 109 85 93 4 74 71 0 5 5 0 140 96 0 108
120 116 126 151 149 150 142 131 127 122 117 116 113 134 134 132 134
125 148 96 29 32 81 120 124 138 169 130 124 143 122 125 129 126
106 116 92 15 0 51 121 129 94 92 83 77 52 35 16 0 0
70 148 170 126 111 138 142 157 121 64 54 54 65 75 80 87 101
107 73 69 78 73 84 103 114 168 233 163 0 88 40 1 5 5
0 88 146 0 73 158 135 109 124 130 122 133 140 134 138 144 142
134 123 133 117 113 128 131 72 77 115 127 127 154 161 135 114 134
140 128 144 139 126 113 96 114 42 0 74 135 145 114 108 98 97
93 89 98 61 22 1 3 49 92 117 149 153 144 112 77 108 107
110 106 99 111 110 109 90 78 78 74 89 105 94 114 188 54 0
67 5 4 5 5 0 37 184 21 18 170 148 106 130 143 134 139
135 155 184 157 141 140 144 119 79 104 119 106 90 128 157 172 174
174 140 135 149 123 128 123 125 123 120 133 108 129 50 9 87 103
120 94 107 118 111 108 111 131 140 115 67 25 30 78 131 152 129
126 94 90 106 98 114 115 96 93 96 103 89 91 86 80 84 93
96 103 122 7 30 72 0 5 5 5 3 3 184 83 0 46 117
148 137 135 125 142 154 136 149 140 150 148 121 89 71 106 108 85
88 130 165 122 94 114 111 101 122 113 105 121 107 107 116 149 129
106 22 53 121 107 121 95 85 94 104 129 121 106 98 101 89 91
72 60 133 140 123 112 76 80 88 96 113 128 109 73 88 87 86
93 87 88 91 95 89 69 52 0 70 49 0 5 5 5 7 0
135 157 0 30 135 135 116 117 118 134 126 116 135 143 135 116 83
69 71 83 94 73 72 88 149 123 95 121 124 127 120 116 109 113
134 105 127 131 132 114 22 67 113 127 129 105 99 82 88 104 126
162 152 174 185 159 106 77 96 108 118 83 90 92 82 81 105 106
104 81 90 110 107 97 83 94 84 94 83 97 19 9 122 17 3
5 5 7 7 0 69 212 22 22 129 125 140 133 126 133 129 131
121 115 120 96 78 80 80 94 104 77 60 77 140 190 119 114 138
117 100 91 93 113 110 112 146 119 114 149 32 86 110 131 121 101
110 96 118 117 119 140 162 190 206 218 159 91 72 82 67 70 91
105 104 105 95 64 67 94 106 96 91 85 71 79 91 142 198 150
0 26 66 0 5 5 5 6 6 3 11 197 135 0 43 102 132
121 120 127 129 126 114 124 121 100 86 90 101 111 125 79 55 65
88 188 165 94 100 99 88 85 84 82 62 104 120 109 91 196 68
81 119 144 114 110 114 130 157 122 108 129 106 157 137 142 135 92
80 66 53 90 113 115 105 123 108 80 72 81 92 115 128 117 110
86 86 91 148 86 0 70 29 1 5 5 5 6 7 7 0 101
224 14 25 161 134 120 129 135 127 141 129 112 90 74 81 82 103
137 139 101 59 56 64 137 143 115 96 86 83 79 77 68 39 72
72 87 66 94 97 116 125 128 115 118 124 107 97 75 71 122 126
119 95 103 113 94 84 50 55 101 155 185 166 81 74 98 105 82
69 95 104 103 107 116 135 95 45 0 28 105 7 5 6 3 0
7 7 7 2 17 211 124 0 67 141 137 138 129 120 137 122 95
89 107 106 96 102 118 132 131 74 59 73 110 117 115 113 79 76
83 79 51 65 76 89 84 58 57 90 150 101 113 148 159 137 86
73 69 119 152 120 120 104 97 110 97 80 44 53 96 92 150 143
135 134 90 80 85 91 106 94 119 162 165 120 67 35 0 109 62
0 5 4 23 92 0 7 7 7 0 98 236 47 0 89 145 127
153 153 131 104 99 108 134 126 96 107 117 143 151 77 57 81 85
118 124 119 89 65 71 76 60 82 88 86 56 52 65 103 124 84
122 121 117 104 81 70 78 135 114 97 121 118 99 59 45 67 43
50 86 82 127 104 87 101 122 149 118 106 93 88 118 161 139 83
125 18 29 110 3 4 6 1 55 243 134 2 6 6 2 13 200
187 5 24 112 125 162 186 134 120 120 133 132 117 108 116 115 147
134 99 73 70 61 85 123 122 79 70 62 62 65 91 89 64 48
54 88 89 82 87 123 111 95 73 69 80 99 103 94 142 140 100
82 40 51 75 70 50 52 66 101 137 94 63 79 129 147 113 77
79 75 105 82 71 48 0 113 36 0 6 6 4 13 128 208 0
6 7 7 0 77 249 128 0 20 115 140 161 149 130 131 171 139
114 139 128 137 182 149 103 101 78 43 54 102 111 77 83 97 82
81 84 92 66 59 117 120 57 66 72 97 95 69 63 78 91 86
82 93 120 87 79 55 47 79 105 92 56 32 70 72 128 147 87
80 85 95 100 101 88 75 83 75 37 0 80 93 0 5 5 6
2 57 178 36 6 7 7 7 5 0 142 248 78 0 28 112 140
152 147 116 129 143 113 137 125 146 162 118 122 148 116 52 28 48
65 89 87 73 81 89 74 74 67 78 119 128 91 72 90 67 62
84 92 104 90 93 103 87 83 83 56 47 66 103 113 83 65 38
59 88 71 101 138 87 89 84 100 116 106 95 69 41 0 49 114
3 3 5 5 6 2 49 208 0 7 6 7 7 7 1 22 197
250 68 0 14 89 122 124 126 130 124 112 124 122 102 107 107 127
139 108 77 49 38 47 57 79 82 72 64 67 66 81 78 147 157
110 83 89 102 130 101 106 129 151 116 80 65 61 66 65 59 49
64 109 79 90 79 71 109 103 79 94 111 91 87 102 106 85 62
34 0 38 127 17 1 5 5 5 6 4 23 113 7 7 7 7
7 7 7 0 51 221 238 54 0 4 67 123 144 152 128 114 111
115 109 105 106 88 88 112 101 97 79 62 54 62 83 55 62 117
110 87 73 168 119 73 95 99 181 154 75 72 65 71 77 47 30
48 56 72 76 59 137 176 87 83 84 88 101 92 84 88 89 82
99 93 72 41 16 0 35 129 25 0 5 5 5 6 7 0 62
239 7 7 7 7 7 7 7 7 0 71 233 230 39 0 0 37
103 147 149 129 123 112 103 103 108 82 63 95 108 110 88 93 85
70 56 58 58 76 75 86 70 98 105 110 85 99 83 61 79 78
70 64 53 38 64 110 116 85 64 70 172 131 74 68 68 64 81
83 84 95 99 83 122 183 71 5 0 44 123 33 0 5 5 5
5 5 6 3 41 106 4 7 7 7 6 7 7 7 6 0 85
243 218 41 0 6 15 70 140 155 125 144 126 116 153 93 53 73
92 99 108 129 121 87 51 48 53 59 72 97 78 118 60 125 138
139 133 112 84 53 35 45 76 96 101 145 122 89 102 101 103 75
71 81 89 83 96 99 99 95 94 51 40 51 6 0 68 147 31
0 6 5 5 5 5 5 5 7 3 0 16 6 7 7 7 7
7 7 7 4 0 103 248 221 38 0 8 0 51 169 150 121 108
132 154 79 70 88 81 141 145 94 67 48 46 55 68 76 88 85
106 128 90 136 124 113 114 125 75 32 51 94 127 107 64 72 68
75 115 91 78 96 87 97 106 96 90 89 88 78 39 13 7 0
2 119 142 16 0 6 5 5 5 5 5 5 5 6 2 0 156
0 7 7 7 7 7 7 7 7 5 0 86 227 234 62 0 4
0 19 63 74 171 151 105 114 108 97 123 130 87 76 55 54 82
128 132 104 93 95 131 81 147 158 79 93 56 48 45 55 92 105
74 62 68 71 72 69 96 83 83 83 94 88 106 143 152 106 62
23 3 3 0 28 145 126 8 0 5 5 5 5 5 5 5 5
5 4 31 74 106 2 8 7 7 7 6 7 7 7 8 6 0
38 173 245 122 0 2 5 0 9 90 107 84 98 122 135 98 79
93 88 81 89 122 124 107 70 70 92 76 2 83 139 71 96 104
73 48 51 61 42 64 88 89 100 94 78 115 108 72 92 117 129
111 116 124 48 11 6 0 0 88 172 87 0 2 6 5 5 5
5 5 5 5 5 5 0 51 243 65 4 7 7 7 7 6 6
7 7 7 7 7 0 0 88 226 178 20 0 7 5 0 0 7
31 124 156 126 99 101 108 92 169 136 78 94 73 57 32 10 0
26 149 90 86 97 57 51 63 71 81 98 107 84 71 64 66 93
171 178 177 180 132 41 1 0 0 0 0 45 150 157 48 0 4
5 5 5 5 5 5 5 5 5 5 5 2 24 130 117 1 8
7 7 7 7 7 7 7 7 7 7 8 5 0 22 136 185 71
0 0 5 6 6 1 3 40 131 165 117 108 134 117 78 72 73
59 40 4 4 7 3 69 84 80 80 86 85 99 112 96 88 78
57 31 37 69 86 172 251 194 97 16 0 4 2 0 4 84 160
97 6 0 5 5 5 5 5 5 5 5 5 5 5 5 5 6
4 0 54 5 7 7 7 7 7 7 7 7 7 7 7 6 7
7 1 0 46 151 135 65 4 0 2 8 6 0 0 48 91 69
76 64 55 62 75 56 5 5 7 6 5 3 44 95 104 93 76
95 165 138 72 77 71 73 61 69 44 57 44 8 0 2 3 0
4 77 153 119 23 0 2 5 5 5 5 5 5 5 5 5 5
5 5 5 5 5 5 5 103 1 7 7 7 7 7 7 7 7
7 7 7 7 7 7 7 7 0 0 59 143 150 82 27 0 0
5 7 0 0 0 3 6 9 12 16 7 5 7 7 6 7 5
10 36 51 78 136 159 123 70 19 31 34 31 28 12 1 0 0
2 0 0 7 80 158 162 66 0 0 5 5 5 5 5 5 5
5 5 5 5 5 5 5 5 5 5 5 5 105 1 6 7 7
7 7 7 7 7 7 7 7 7 7 7 7 7 7 6 0 0
38 99 134 126 71 18 0 0 0 4 6 6 6 5 4 6 7
9 7 7 7 6 5 2 4 25 55 41 1 0 4 4 2 1
1 4 6 3 0 0 29 100 151 139 62 4 0 4 5 5 5
5 5 5 5 5 5 5 5 5 5 5 5 5 5 5 5 5
9 8 7 7 7 7 7 7 7 7 7 7 7 7 7 7 7
7 7 7 7 7 0 0 7 59 118 134 112 80 43 15 1 0
0 0 0 1 4 8 7 11 13 11 7 7 6 3 0 0 5
7 6 4 1 0 0 0 0 22 64 119 156 122 50 0 0 3
5 5 5 5 5 5 5 5 5 5 5 5 5 5 5 5 5
5 5 5 5 5 10 8 7 7 7 7 7 7 6 7 7 7
7 7 7 7 7 7 7 7 7 7 7 7 5 0 0 10 51
95 127 138 123 110 100 78 53 33 18 9 4 1 0 0 0 0
0 0 0 0 0 0 3 14 32 56 76 96 112 100 106 60 15
0 0 4 5 5 5 5 5 5 5 5 5 5 5 5 5 5
5 5 5 5 5 5 5 5 5 5 10 7 7 7 7 7 7
7 7 7 7 7 7 7 7 7 7 7 7 7 7 7 7 7
7 7 7 5 0 0 0 17 40 70 93 112 129 140 147 142 123
121 118 113 115 106 95 85 88 95 104 105 121 112 105 103 83 55
30 4 0 0 2 6 5 5 5 5 5 5 6 5 5 5 5
5 5 5 5 5 5 5 5 5 5 5 5 5 5 5 8 7
7 7 6 7 7 7 7 6 7 7 7 7 7 7 7 7 7
7 7 7 7 7 7 7 7 7 7 7 6 4 1 0 0 0
0 9 19 25 35 38 50 61 72 65 72 56 48 45 44 37 27
12 0 0 0 0 1 5 5 5 6 5 5 5 5 5 5 5
6 5 5 5 5 5 5 5 5 5 6 6 5 5 5 5 5
5 5 5 8 8 8 7 8 8 7 8 8 7 8 8 8 7
7 8 8 7 7 7 7 8 8 8 7 8 8 7 8 8 7
7 7 8 8 8 7 6 4 3 1 1 0 0 0 0 0 0
0 0 0 1 3 5 7 7 7 7 7 7 7 7 7 7 7
7 5 5 5 7 5 5 7 5 5 6 6 5 7 6 5 5
5 5 5 5 5 5 5 5
