P2
# Converted from P5 to P2 by convert_p5_to_p2.py
90 90
255
49 49 49 49 49 49 49 50 50 50 50 51 51 51 51 52 52
51 52 52 52 52 53 52 51 52 51 51 52 53 53 52 52 52
53 54 53 54 55 56 56 56 56 55 55 56 56 57 56 56 57
58 58 57 58 58 58 57 58 57 57 57 58 57 57 57 57 56
57 56 55 56 56 56 56 58 58 57 57 57 57 57 58 57 57
58 58 56 57 56 48 49 49 49 49 49 50 50 50 49 50 51
51 52 51 52 51 51 52 52 53 52 52 52 52 52 52 52 53
54 53 54 53 53 54 54 53 54 55 56 55 51 49 53 55 52
47 51 56 57 58 57 57 57 57 57 58 58 58 58 57 57 58
57 58 58 57 58 57 57 57 56 56 57 58 58 57 57 57 56
57 57 57 58 57 57 57 57 56 56 49 50 49 49 50 50 50
51 50 50 50 51 51 52 51 52 51 51 51 52 52 53 51 52
53 52 52 53 53 54 54 54 54 54 53 54 54 55 56 53 50
77 122 148 152 136 110 73 48 53 58 58 57 59 59 59 59 59
58 58 59 59 58 59 58 57 57 58 58 57 56 56 57 57 58
59 58 56 55 57 58 57 57 57 57 57 57 57 57 57 50 50
49 50 50 49 50 50 50 50 51 51 51 52 52 52 53 52 52
53 53 52 53 53 53 53 53 52 53 54 54 54 54 55 55 55
55 55 50 61 127 196 228 220 211 203 194 169 122 56 50 58 59
59 59 58 59 59 59 59 58 58 58 59 57 57 58 58 57 57
57 58 57 58 57 59 59 56 57 58 58 58 58 58 58 57 57
57 58 58 49 49 49 49 51 50 50 50 50 51 51 51 51 52
52 53 54 54 53 53 53 53 53 54 54 54 53 54 54 54 54
54 54 55 56 56 57 52 66 162 223 218 198 189 185 187 188 177
188 166 65 50 58 59 59 59 59 59 59 59 58 59 59 58 58
57 57 58 58 58 58 58 58 59 58 59 59 58 58 58 58 57
58 58 58 58 57 57 58 58 49 49 50 50 50 51 51 51 51
51 52 51 51 52 53 54 54 54 54 54 53 54 53 54 54 54
54 55 55 54 55 55 55 55 56 57 55 59 156 219 206 193 182
181 182 183 182 184 184 206 168 55 55 59 59 60 60 60 59 59
59 59 58 58 58 57 57 58 58 57 58 58 59 59 59 59 58
58 59 58 58 57 57 57 58 58 59 58 57 57 50 49 49 49
50 50 51 50 51 53 52 52 52 53 53 54 54 54 54 54 54
55 54 53 54 54 55 55 55 55 55 56 55 56 56 57 51 124
217 192 171 182 188 185 186 185 181 181 184 185 221 135 45 59 59
60 60 59 59 59 59 59 59 59 59 59 58 58 58 58 58 59
58 58 59 59 58 58 59 58 58 58 57 57 59 60 59 59 59
59 51 51 50 50 50 50 51 52 51 52 52 53 53 53 54 54
54 54 55 55 55 54 55 55 55 54 55 55 55 54 55 55 56
56 57 53 74 187 203 182 179 172 161 172 184 174 179 182 182 186
189 191 72 53 59 60 60 60 59 60 59 60 59 58 59 59 59
58 59 59 59 59 59 59 58 58 58 58 59 58 58 58 58 59
60 59 59 57 59 60 50 51 51 50 50 51 51 52 52 53 53
54 54 53 48 47 48 47 45 50 56 56 55 55 55 55 55 55
56 55 56 56 57 58 57 51 123 191 177 179 182 182 174 160 159
160 154 169 182 183 174 193 121 46 58 59 60 61 60 59 60 60
60 59 59 59 59 59 59 59 59 60 60 60 58 58 58 59 59
58 58 59 60 60 60 60 60 60 60 60 50 50 51 50 50 51
51 51 52 53 53 54 49 53 89 122 138 134 110 69 43 52 55
55 55 56 56 56 57 56 56 57 57 58 58 59 156 206 187 177
186 187 192 177 169 174 170 160 177 180 179 187 157 53 57 59 60
61 60 60 59 59 60 60 60 60 60 59 59 60 59 59 60 59
59 59 58 58 59 59 60 60 60 60 60 60 61 60 60 61 51
51 51 51 51 51 52 51 52 53 53 48 76 148 212 227 211 220
226 201 123 48 51 55 55 56 55 55 56 56 56 57 57 58 55
75 174 192 208 197 184 191 186 189 183 177 175 179 174 178 183 182
174 66 54 59 60 60 60 60 60 60 60 60 60 60 60 59 59
60 60 60 60 60 59 60 59 59 59 60 61 61 60 61 60 60
60 60 61 61 51 51 51 51 51 51 51 52 53 54 47 83 178
215 219 208 214 213 213 213 222 150 47 53 56 56 57 56 56 57
58 58 58 59 53 87 181 184 189 204 204 178 182 183 192 179 167
167 178 179 179 187 182 75 52 59 61 61 61 61 60 60 59 60
61 61 61 60 60 59 60 61 60 61 60 60 60 59 60 60 60
61 61 61 60 61 62 61 62 62 52 51 52 52 52 52 52 53
53 49 71 172 213 217 186 159 174 180 188 199 197 229 126 43 56
56 56 57 57 57 57 59 58 59 53 92 181 184 187 179 195 202
179 187 190 185 182 163 164 177 178 186 182 80 52 59 60 60 61
61 60 61 61 60 61 61 60 60 60 60 61 61 61 62 61 60
60 60 61 61 62 62 61 61 61 61 61 62 61 61 52 52 52
52 52 52 53 54 54 49 132 209 202 190 166 158 170 176 169 182
201 199 210 73 49 56 56 57 57 58 57 58 60 60 53 93 175
178 183 178 180 205 206 182 182 191 193 180 162 179 184 181 175 77
53 60 60 61 62 61 61 61 61 61 61 60 61 61 61 61 61
62 62 62 62 60 60 61 61 61 61 62 62 62 62 62 62 62
61 63 52 52 52 53 53 53 54 54 49 77 185 199 189 187 207
202 188 187 187 183 193 193 211 136 43 55 56 56 56 58 59 58
59 59 55 84 175 174 181 177 180 182 206 204 184 189 185 180 179
173 183 182 163 66 56 61 61 61 61 62 62 61 59 55 53 53
52 56 60 62 61 62 62 62 62 61 61 61 61 61 61 62 62
62 62 62 62 62 61 60 53 52 53 53 54 54 54 53 45 114
201 187 175 174 216 208 168 193 197 194 179 190 200 170 54 54 58
58 58 59 59 59 60 60 58 71 175 174 179 182 179 181 177 203
210 184 181 177 187 187 172 182 144 53 59 61 62 61 61 62 58
56 72 99 126 130 115 85 54 53 62 63 62 62 62 62 62 61
62 62 62 62 62 62 62 63 61 60 61 61 52 52 52 53 53
54 54 53 49 142 185 178 194 176 180 225 187 165 179 187 173 185
189 186 71 51 58 58 58 58 60 61 60 60 60 52 161 186 174
188 182 178 181 174 183 201 190 182 198 200 179 181 106 49 61 61
61 62 62 57 72 132 182 192 202 212 214 198 159 79 52 62 62
63 62 62 62 62 62 62 63 63 63 63 63 62 61 61 61 61
52 52 52 52 53 54 55 54 56 156 195 175 204 207 185 211 202
193 198 191 190 180 188 191 85 50 58 59 59 60 60 60 59 60
62 53 111 203 165 179 182 176 176 178 166 176 201 194 196 188 177
160 63 56 61 61 62 63 57 87 180 226 202 190 188 193 201 196
212 190 94 51 62 62 62 63 62 63 62 63 63 63 62 63 62
62 62 62 61 61 52 52 52 53 54 54 56 56 58 157 185 174
174 201 209 183 200 192 199 203 188 193 190 188 86 50 59 59 60
60 60 60 61 61 61 62 55 168 182 160 176 186 182 180 178 176
182 200 176 169 173 99 48 61 62 62 63 58 84 171 224 198 179
166 186 188 192 196 204 194 183 90 53 64 64 63 63 62 62 64
63 63 63 64 62 62 62 62 62 62 53 53 53 54 54 54 56
57 54 150 185 180 191 172 197 207 225 191 190 206 199 190 182 179
75 52 59 59 59 60 60 60 61 61 62 63 57 77 190 171 159
173 183 185 182 176 176 172 179 176 119 46 60 63 62 62 61 68
146 197 176 183 188 180 164 181 186 187 194 188 179 166 67 60 63
63 63 62 63 63 64 64 63 62 63 63 63 63 62 63 53 54
55 55 54 56 57 57 51 130 189 171 194 182 194 195 207 209 191
204 196 184 186 161 58 56 59 60 59 59 60 61 61 62 62 62
64 55 84 171 173 159 162 166 166 166 167 170 176 118 45 57 63
63 63 63 58 114 182 212 200 178 190 196 172 171 190 189 183 188
176 180 120 54 64 64 63 62 62 62 62 63 63 63 63 63 61
63 64 64 56 55 56 55 55 57 57 57 51 94 187 174 173 180
192 188 192 217 181 188 192 190 192 125 47 60 60 60 60 59 55
57 60 59 55 55 62 65 56 66 126 167 168 168 167 171 172 147
81 39 58 64 63 63 63 61 70 155 189 197 220 198 194 199 194
166 164 179 186 192 184 170 151 65 61 63 62 63 63 64 63 64
63 63 63 63 63 64 63 63 55 56 56 56 56 57 58 58 57
60 164 193 176 180 190 198 182 199 201 181 197 198 174 70 53 61
61 61 57 60 87 109 121 122 116 94 59 58 64 62 53 66 88
101 102 92 66 40 43 63 64 64 63 64 63 56 98 180 196 195
193 214 193 196 194 180 169 161 169 192 186 176 176 92 55 63 64
64 64 64 63 64 63 64 63 63 65 64 64 64 56 56 57 57
57 57 58 59 59 51 96 184 176 182 173 181 181 178 197 188 202
191 107 48 61 60 61 56 72 118 131 115 105 108 119 144 139 73
55 64 64 60 51 43 41 42 48 61 67 65 64 65 64 64 64
58 125 181 194 193 180 207 183 178 188 188 183 184 174 184 188 178
171 118 54 64 64 64 63 63 64 64 64 64 65 64 64 64 64
64 57 57 57 57 58 59 59 59 60 60 53 112 173 173 169 163
162 164 178 189 181 116 45 57 60 61 56 77 128 118 106 100 104
113 95 102 135 156 73 58 65 65 66 65 66 66 65 65 66 64
65 65 65 66 65 62 146 184 188 184 180 196 201 176 180 195 189
192 205 189 185 177 166 128 56 64 65 64 65 65 64 63 65 64
65 65 64 64 65 65 56 58 58 59 59 58 59 60 60 60 60
53 96 152 166 176 171 163 161 155 92 45 58 61 60 59 65 131
121 103 123 126 133 127 113 102 108 139 159 59 63 64 64 64 65
64 65 64 65 66 66 65 66 65 64 66 158 187 184 180 184 191
225 185 190 192 189 189 202 190 189 183 177 137 56 65 65 65 65
66 65 65 66 66 66 65 65 65 65 66 57 57 58 59 59 58
60 60 61 61 61 61 53 60 88 108 113 116 99 56 43 60 61
61 60 56 101 132 108 127 143 143 133 127 134 123 111 109 165 110
53 64 64 65 66 67 66 65 65 65 67 66 65 64 64 67 158
176 179 176 182 183 210 211 180 198 201 181 177 189 198 187 175 140
57 64 66 66 66 66 67 66 66 66 65 66 66 66 66 66 58
58 59 60 59 61 61 61 57 54 56 54 52 51 51 49 47 45
47 56 62 60 62 62 59 66 123 115 123 149 153 131 127 151 148
137 123 118 129 146 58 63 64 65 66 66 65 66 67 66 67 66
67 65 64 62 158 176 177 182 183 187 186 222 198 202 202 195 171
183 199 189 185 130 55 66 67 64 60 58 58 62 66 67 67 66
66 66 66 66 58 58 59 60 61 61 58 55 74 97 106 123 114
87 55 52 60 61 62 61 61 61 61 61 57 87 131 111 121 135
151 142 138 158 162 144 148 135 127 152 76 60 65 66 66 66 67
66 66 66 67 66 66 65 64 56 158 178 166 182 178 185 181 215
213 190 192 191 183 183 190 193 196 108 57 65 60 79 105 118 111
86 59 61 67 66 66 67 66 64 58 59 60 60 61 55 68 128
176 173 170 191 181 175 155 90 48 57 61 61 62 61 61 63 56
106 122 109 126 135 130 134 160 139 155 148 153 169 155 147 91 57
66 66 66 66 66 67 67 66 66 66 66 67 67 57 128 197 156
184 179 179 186 195 221 195 184 192 194 178 192 193 179 80 57 71
136 192 207 211 201 190 158 82 55 67 67 66 66 64 59 60 61
61 55 82 158 185 180 184 209 189 181 200 206 202 120 51 57 61
62 62 63 63 55 118 126 112 128 159 132 129 137 136 148 151 145
170 159 136 95 56 65 66 66 66 66 66 66 67 67 67 67 67
68 66 77 200 161 177 185 180 184 184 200 218 193 199 197 184 196
198 143 53 78 172 230 231 243 249 229 214 214 212 102 54 66 66
66 64 60 60 60 55 83 179 187 177 191 203 200 190 215 201 193
198 199 124 48 60 61 62 62 62 57 117 130 112 121 148 148 131
130 144 140 143 146 162 129 142 95 56 65 66 67 67 67 66 67
68 68 67 67 67 68 68 56 142 207 160 178 190 190 193 188 216
206 211 221 202 192 184 81 61 169 250 242 235 251 250 236 223 206
220 234 89 57 66 66 65 60 61 58 64 166 228 218 198 194 193
197 218 211 199 193 196 192 198 96 49 61 61 62 63 57 116 135
104 112 120 133 157 126 136 142 137 146 148 139 156 83 59 66 66
67 67 66 67 67 64 61 60 63 61 61 65 68 65 183 188 160
186 194 196 192 197 216 204 196 192 189 110 46 129 244 249 227 241
218 236 242 224 221 203 235 203 59 63 64 65 60 61 54 108 202
220 225 209 179 183 210 211 209 227 187 193 194 192 165 54 58 62
62 63 57 99 149 110 118 126 129 157 132 138 134 123 134 151 148
134 62 64 67 67 67 67 68 64 62 79 113 132 136 123 103 75
60 62 74 180 193 166 169 177 178 166 199 181 169 177 112 49 78
207 255 239 244 201 182 191 189 206 230 226 204 247 116 54 65 64
60 58 73 159 188 202 208 220 199 198 206 200 228 206 180 189 194
187 189 93 51 61 63 63 61 75 169 114 117 116 129 141 148 147
129 123 130 137 131 111 54 67 67 67 67 68 63 69 122 164 191
195 188 184 187 170 112 65 59 64 137 178 172 166 159 160 177 180
148 91 49 58 121 246 237 213 206 191 213 204 190 243 239 232 203
232 175 53 65 65 60 53 112 187 184 190 188 224 225 206 200 213
192 148 145 168 188 193 196 133 49 61 63 64 64 54 137 149 100
114 115 139 155 128 111 115 128 119 141 68 61 66 67 67 68 62
81 151 183 190 189 185 182 179 188 186 185 143 68 62 52 72 108
129 134 138 123 95 57 49 69 63 156 250 230 197 189 199 210 208
208 196 180 218 215 209 192 65 63 65 60 58 139 188 187 204 206
212 236 222 209 176 160 174 186 203 190 197 202 160 55 60 63 64
64 63 70 170 131 115 109 114 119 116 117 110 105 138 95 52 68
67 68 68 65 75 158 191 177 184 177 176 175 170 174 186 186 193
143 62 68 61 48 43 45 44 42 46 63 71 70 68 174 237 222
197 197 218 221 227 239 222 197 188 206 193 193 80 60 65 60 64
151 183 176 179 195 185 211 207 181 182 201 210 195 196 186 195 193
165 59 58 63 65 65 66 58 82 171 137 104 99 105 109 107 112
137 103 47 66 66 68 69 68 64 147 188 176 172 173 177 183 186
183 180 176 188 184 186 109 57 69 70 70 69 68 70 71 71 70
68 72 185 222 221 212 223 247 249 238 237 233 221 183 191 204 193
83 60 65 58 71 165 182 179 179 184 164 157 168 166 205 224 197
203 201 173 192 191 172 64 58 64 64 65 66 66 57 74 141 148
125 125 124 129 131 87 49 65 67 68 68 69 63 94 185 177 172
175 182 187 190 185 182 177 170 165 166 172 160 68 64 67 69 70
69 69 70 70 70 70 69 176 227 236 233 247 227 227 217 203 191
207 237 197 203 184 77 62 65 58 71 162 179 180 182 171 185 174
165 177 179 174 180 203 213 193 192 192 161 59 59 64 65 65 67
66 67 62 56 79 97 104 94 75 55 53 67 67 67 68 69 69
64 139 187 178 178 184 182 185 184 170 158 152 153 156 170 164 178
108 58 68 69 69 70 69 70 70 71 70 64 171 239 211 226 228
206 204 193 213 211 213 225 217 194 166 67 66 67 58 69 168 171
180 181 172 165 173 188 185 177 182 200 183 211 197 188 187 146 49
61 63 64 65 66 66 66 67 67 61 56 53 52 57 66 69 66
67 68 68 69 67 79 164 177 186 192 184 172 167 155 146 156 162
172 181 178 164 160 137 61 67 69 70 69 70 70 70 71 71 60
149 232 205 220 215 197 199 194 227 225 220 238 215 192 134 58 68
67 60 61 168 176 174 181 198 187 181 177 186 186 191 181 169 168
189 183 180 133 48 63 64 64 66 66 65 62 60 60 63 66 68
68 67 67 67 67 67 68 69 69 63 100 186 181 182 177 165 146
144 157 182 188 185 186 181 181 173 151 154 70 65 69 70 70 70
70 71 71 71 65 99 220 204 202 228 233 203 221 208 212 234 241
202 177 85 62 68 66 60 51 145 180 162 178 221 223 198 190 187
188 184 170 188 194 181 179 182 95 51 64 65 66 64 59 68 86
99 97 80 62 59 66 67 67 67 68 67 68 68 69 64 112 179
175 168 153 146 170 189 188 191 191 181 184 180 189 198 182 174 81
62 68 70 70 69 71 71 70 71 72 63 162 224 196 195 231 221
221 203 228 239 224 192 121 58 68 68 68 62 54 105 204 160 164
203 218 198 203 196 190 195 193 195 187 180 180 168 58 59 65 66
60 70 117 156 174 179 179 181 160 104 60 63 68 68 69 68 68
69 70 63 123 165 152 152 165 171 183 185 186 176 180 169 185 200
181 164 173 174 85 61 68 70 71 71 71 71 71 71 73 69 76
178 212 193 203 231 226 238 232 213 199 144 60 64 69 69 69 62
62 57 181 179 156 182 216 194 198 194 202 213 217 207 183 177 183
102 46 66 66 60 91 152 183 171 149 147 139 150 181 186 149 70
61 68 68 68 68 69 70 62 121 173 179 182 179 189 180 174 174
169 177 193 195 173 155 176 183 165 77 63 68 69 70 71 71 72
71 71 72 73 66 71 146 197 198 195 202 205 197 186 138 66 63
70 69 69 68 62 63 54 91 204 161 156 189 191 187 185 188 185
194 194 175 186 141 44 62 66 61 93 170 179 169 156 166 165 167
153 146 171 193 162 68 63 68 69 69 69 71 63 114 168 170 193
181 189 180 172 180 183 181 195 158 161 187 187 182 160 72 63 68
69 70 71 71 71 72 72 71 71 72 68 61 89 133 162 166 157
138 92 56 64 70 70 70 69 69 61 61 63 51 119 198 158 171
211 200 185 181 194 196 173 179 151 54 54 67 63 79 162 172 178
166 179 187 180 175 180 150 161 174 196 147 58 67 68 69 70 70
65 99 163 166 196 202 193 195 193 193 189 194 183 164 183 184 179
183 154 64 66 69 70 71 72 72 72 71 71 72 71 72 71 72
63 55 60 65 61 55 58 69 70 70 70 69 69 70 61 62 63
63 52 103 173 168 185 215 216 195 182 178 166 126 48 50 68 67
62 136 173 167 173 171 168 166 171 165 186 167 152 176 181 197 103
58 68 68 69 70 68 81 169 173 211 188 152 153 139 185 208 200
169 168 183 179 173 179 125 58 69 69 69 71 72 72 72 73 72
72 71 71 72 72 72 73 71 69 70 72 71 69 70 70 69 69
70 69 61 61 62 64 66 56 73 127 151 168 179 165 155 123 68
36 55 68 67 63 91 171 157 168 164 168 172 186 176 165 180 176
151 167 185 189 158 60 66 68 70 70 70 61 151 170 157 148 148
155 152 156 170 150 155 178 181 176 167 164 78 62 69 70 70 70
72 72 72 72 72 71 72 72 73 72 73 72 72 73 72 72 71
70 70 70 70 69 69 70 62 62 63 64 65 65 61 56 63 71
71 66 53 41 50 66 68 68 67 61 129 169 159 172 163 179 196
195 186 177 183 178 166 157 181 178 184 87 61 69 69 70 70 65
92 177 155 167 174 180 171 163 170 171 176 178 179 170 175 126 54
69 70 70 70 71 71 72 72 72 72 72 73 72 73 73 73 72
72 72 72 71 70 71 70 69 69 69 70 70 62 63 63 63 64
64 65 67 65 61 58 57 61 68 69 67 67 68 67 69 153 170
168 177 197 192 185 186 194 189 188 198 204 173 171 180 197 119 56
68 69 70 69 71 60 130 179 162 169 169 165 179 179 177 171 172
172 177 152 63 64 70 70 70 70 71 71 72 73 73 72 72 72
72 72 72 72 72 72 71 72 71 71 71 71 70 69 70 71 71
62 62 62 63 63 63 64 64 65 67 68 68 68 68 68 68 68
68 65 81 171 169 171 172 179 192 170 188 197 190 179 172 189 178
177 181 190 136 56 68 69 70 69 70 70 65 135 165 149 154 156
171 174 174 167 162 173 160 73 58 71 70 70 71 71 71 71 73
72 73 73 73 72 72 73 73 73 73 73 72 71 72 71 70 70
70 70 70 70 71 61 62 62 62 62 64 64 63 65 66 67 67
67 67 69 68 68 68 63 90 165 163 174 166 158 183 197 179 180
197 195 189 183 173 181 184 179 145 59 68 70 70 69 69 71 68
63 109 163 172 166 166 162 168 171 173 142 62 57 71 70 70 71
71 71 71 72 73 73 74 74 73 73 73 72 73 72 73 73 74
74 71 71 71 72 72 71 71 71 70 61 61 61 62 62 63 64
64 65 65 66 68 67 68 68 68 68 68 63 95 161 156 173 178
173 180 179 161 176 189 172 183 184 178 180 184 184 142 60 68 69
71 71 71 71 71 72 62 80 119 140 156 156 149 123 84 49 62
73 71 70 70 71 71 71 71 73 72 69 68 68 67 67 72 74
74 74 73 72 73 73 72 72 71 71 72 72 71 71 71 60 61
61 62 63 64 64 64 64 65 65 66 68 68 68 68 69 68 64
92 164 160 180 178 180 188 173 188 200 175 156 165 193 178 175 180
184 136 57 68 70 71 70 70 70 71 71 73 66 55 52 57 59
51 46 56 71 73 70 71 72 73 72 72 72 74 69 71 90 110
120 116 99 71 64 74 74 73 73 72 72 72 71 72 72 72 71
71 71 71 62 62 62 63 63 63 63 64 65 66 65 67 68 68
69 68 69 68 65 85 167 160 185 188 175 194 193 199 178 162 173
167 166 186 177 180 183 121 56 69 69 69 70 71 71 70 71 70
72 74 73 69 68 72 74 73 72 72 72 72 72 73 72 72 72
67 86 144 198 222 213 205 202 173 105 63 73 74 73 73 73 73
71 72 72 71 72 72 72 72 62 62 63 64 63 63 64 64 64
66 66 67 68 68 69 68 69 70 67 73 161 154 172 183 187 178
157 155 165 176 178 178 156 186 174 177 173 87 60 69 69 70 70
71 71 71 71 71 72 72 72 73 73 73 72 72 72 71 71 71
71 72 72 73 67 94 183 245 244 206 174 172 179 215 226 128 61
73 74 73 73 73 72 72 74 73 71 73 73 72 61 62 63 64
63 64 64 64 64 65 66 66 67 69 70 69 69 69 69 61 151
170 157 178 184 168 165 171 185 175 184 195 174 164 170 165 148 60
66 69 69 70 71 70 71 71 71 70 72 72 72 73 74 73 73
72 71 72 72 71 73 71 72 68 83 174 250 242 180 164 180 188
181 172 214 239 117 62 75 74 73 71 73 72 73 73 74 73 72
72 61 62 63 63 64 64 64 64 65 66 66 67 69 70 69 69
70 70 70 65 102 180 148 171 187 176 173 184 173 172 182 196 178
158 159 169 100 56 69 69 70 70 71 71 71 72 71 71 70 71
71 72 73 74 74 73 72 72 72 73 71 72 72 68 137 215 241
220 182 195 209 212 220 218 199 230 216 78 70 74 73 73 73 72
73 73 74 73 72 73 63 63 63 63 64 65 65 64 66 66 66
67 68 70 70 70 70 69 69 71 62 156 165 152 166 164 177 189
174 177 175 175 177 173 169 144 56 67 70 70 70 71 71 71 71
71 72 72 72 71 72 72 73 74 74 73 73 73 72 72 73 72
69 90 185 227 238 185 198 208 205 214 218 226 211 208 242 139 61
74 74 73 73 73 74 73 73 73 73 73 63 64 64 63 65 65
66 66 65 65 67 67 67 69 69 70 70 70 70 70 67 81 175
151 145 157 176 181 182 178 173 176 172 171 154 63 60 70 71 70
70 71 70 71 72 71 72 71 72 71 71 71 72 74 74 74 74
74 73 73 73 72 66 121 203 226 227 193 230 229 214 206 211 222
229 215 228 196 67 72 74 73 73 74 73 72 73 72 71 72 64
64 65 65 65 65 66 66 66 67 67 68 67 68 70 69 69 70
71 71 72 64 88 172 159 139 172 183 179 174 177 170 166 152 68
54 71 71 72 70 70 71 71 72 72 71 72 71 71 72 72 73
73 74 74 74 74 72 74 74 73 72 68 146 212 226 222 207 224
226 227 222 224 239 225 216 216 218 86 69 74 73 73 73 73 72
73 72 72 72 64 64 64 65 64 65 66 66 66 67 67 66 68
69 70 70 70 70 70 71 71 73 66 79 137 149 153 160 163 169
165 155 116 53 55 73 71 71 70 71 71 70 71 71 71 72 71
70 71 72 73 74 74 74 74 74 74 74 73 74 73 73 71 161
209 223 226 233 214 196 234 231 229 239 239 218 212 215 98 67 74
73 72 72 73 72 72 72 72 72 63 64 65 66 64 65 66 66
67 67 68 67 69 69 70 70 71 72 72 72 71 72 73 69 63
85 101 111 122 119 93 64 45 63 74 72 71 70 72 71 71 70
70 72 72 71 71 71 72 72 72 74 74 78 74 74 75 75 73
74 75 73 73 174 211 221 214 195 196 216 231 229 219 238 237 214
211 209 100 66 73 73 71 70 71 71 71 71 71 72 64 64 65
64 65 66 66 66 67 67 69 69 68 70 72 72 71 72 72 72
72 72 72 72 73 68 61 57 54 50 51 63 73 69 64 62 62
62 66 71 71 71 71 71 71 72 72 71 71 72 73 73 74 77
74 75 75 74 74 73 74 73 70 170 211 221 211 199 226 242 229
236 218 220 227 216 209 198 91 66 72 72 72 71 71 72 72 72
72 72 65 65 65 65 65 66 66 67 68 68 68 68 69 71 71
72 72 72 73 73 72 73 72 73 73 73 75 74 73 74 74 70
67 85 116 135 136 122 92 64 63 71 71 70 72 72 71 71 73
73 72 73 74 74 74 74 75 74 73 73 74 74 64 167 218 212
219 226 235 227 239 240 220 216 223 213 208 182 76 70 72 72 72
71 71 71 71 71 71 71 64 64 65 64 65 67 67 68 69 68
68 70 70 71 70 71 72 72 73 73 73 73 73 72 73 73 73
73 72 73 66 80 130 176 206 207 206 210 196 160 92 59 69 71
72 72 71 72 72 72 73 73 74 74 73 75 75 75 75 74 73
74 63 137 228 202 220 223 218 231 248 244 218 219 211 200 202 147
62 72 73 72 71 71 72 73 73 72 72 71 65 65 65 65 67
67 69 69 70 70 69 70 70 71 70 71 71 71 71 71 72 72
73 72 73 73 74 73 72 66 95 159 179 183 189 191 196 195 185
201 191 112 60 70 72 73 73 72 72 72 72 73 74 74 75 74
74 75 75 75 74 75 72 82 208 215 215 217 218 229 251 240 213
217 198 194 194 97 63 72 72 72 71 72 72 72 73 73 73 71
65 65 65 66 67 67 69 69 69 70 70 70 70 70 70 71 71
72 71 72 72 72 72 73 74 74 74 74 68 95 170 190 179 162
189 201 199 187 182 189 190 199 111 60 72 72 72 73 73 73 73
74 74 74 75 74 74 74 74 74 74 75 76 65 134 230 209 210
198 191 209 222 209 211 206 211 146 62 71 72 72 72 71 72 71
72 71 72 73 72 66 65 66 66 67 68 70 69 70 71 71 71
71 71 70 72 72 72 73 72 72 71 72 74 73 73 74 72 81
164 186 186 189 161 164 185 194 185 177 200 204 183 182 87 64 73
72 73 73 73 73 73 74 75 75 75 75 75 74 75 75 74 76
75 67 159 221 202 189 193 180 199 218 196 206 167 71 67 73 72
73 73 72 72 71 72 72 71 71 72 67 65 67 67 67 68 69
69 71 71 70 70 71 71 71 71 72 72 72 71 72 72 73 73
73 74 75 68 124 188 182 185 178 180 161 167 191 194 188 186 207
202 191 155 62 72 72 73 73 73 74 74 75 75 75 75 74 75
74 74 74 75 75 76 73 66 134 204 212 208 202 192 195 186 148
71 63 74 72 72 73 73 71 72 71 71 71 71 72 73 66 67
66 66 68 68 69 70 71 71 70 72 72 71 71 72 71 72 73
71 72 72 73 73 73 74 72 86 166 175 189 181 179 185 185 146
161 196 200 203 210 222 181 178 94 65 72 73 74 73 74 75 75
75 75 74 74 74 75 75 75 75 75 76 76 76 64 85 138 168
171 161 138 98 60 66 74 73 72 72 73 73 73 72 72 69 71
72 73 72 66 67 66 66 68 69 69 70 70 71 72 71 72 72
71 71 71 72 73 71 71 73 73 73 73 74 66 120 192 173 177
200 186 187 197 192 147 168 193 215 212 205 192 186 138 61 73 74
73 73 74 74 74 74 75 74 74 75 75 75 74 74 76 77 76
76 78 70 58 59 63 59 55 62 73 75 73 72 72 73 72 72
73 72 71 71 70 71 72 72 67 67 67 67 68 69 70 70 71
72 72 72 71 71 72 72 72 73 72 72 72 73 73 73 73 74
70 147 198 187 155 180 199 180 201 203 187 146 165 205 207 192 197
201 168 64 72 73 74 74 73 73 74 74 75 75 75 74 75 75
75 74 75 76 77 76 75 76 77 75 72 73 75 76 74 73 74
73 72 73 72 73 72 72 72 71 71 72 72 72 67 67 67 67
68 70 70 70 71 71 72 72 72 72 72 72 72 73 72 72 73
73 73 73 74 72 81 165 196 184 173 189 211 172 177 195 207 175
142 187 214 191 186 189 178 73 70 73 73 74 73 74 75 76 74
74 74 74 74 75 75 74 74 76 76 75 76 76 77 76 75 75
74 75 75 74 73 73 73 72 72 72 71 73 72 70 70 72 72
71 67 68 67 68 70 70 70 72 72 72 72 72 71 71 71 72
72 71 72 72 73 73 74 74 74 71 86 177 181 180 179 181 200
202 175 193 200 211 166 160 209 200 186 181 184 80 69 73 73 73
73 74 74 74 74 74 74 75 75 74 75 75 74 75 74 75 76
75 76 76 75 75 74 74 74 74 74 72 73 73 71 71 71 73
73 71 71 71 71 71 67 68 67 68 70 71 70 71 72 73 73
73 72 71 73 72 71 72 72 72 74 74 74 74 74 71 91 178
173 181 179 171 187 206 196 185 197 196 203 163 183 208 190 177 183
80 69 74 74 74 75 74 75 76 75 75 75 75 74 75 74 75
74 76 76 74 75 75 75 76 75 75 74 73 73 74 75 73 73
73 71 72 72 71 71 71 70 71 71 70 67 69 69 68 70 71
71 72 72 73 73 72 72 72 73 72 72 73 72 73 74 74 74
74 75 71 86 172 175 178 177 175 191 195 202 197 184 187 199 182
159 177 180 185 176 73 71 74 75 75 74 74 75 74 75 75 75
74 74 74 76 76 76 75 75 75 75 75 74 74 75 74 75 74
74 74 73 73 73 73 71 72 71 71 71 70 70 71 70 71 68
69 70 70 70 70 72 73 73 74 73 73 72 71 71 73 72 72
74 74 73 74 74 74 74 73 81 181 174 176 179 175 221 209 204
209 184 178 185 199 172 151 173 189 158 64 73 73 74 74 75 74
76 75 75 76 76 75 77 76 75 74 75 74 76 75 74 74 75
75 75 74 74 73 73 74 72 73 73 73 73 72 71 71 72 72
71 72 71 73 68 70 70 70 72 72 73 74 74 73 73 74 73
73 73 73 73 73 73 74 74 74 74 74 74 75 68 175 181 173
176 171 197 205 191 196 197 171 188 192 193 163 152 181 124 62 73
73 76 75 75 75 76 75 74 75 76 75 76 75 74 74 76 75
75 75 75 75 75 74 74 75 74 74 73 73 73 73 73 72 73
72 72 71 72 72 71 72 73 72 69 71 71 71 72 73 73 74
73 73 73 74 74 74 74 74 74 73 72 73 74 74 73 74 75
76 65 139 196 165 169 175 170 166 159 157 201 215 196 197 186 172
162 172 83 67 73 73 75 75 75 76 76 75 75 76 75 75 76
76 76 77 77 76 75 74 74 76 75 74 75 74 75 74 73 73
74 74 73 73 73 73 72 72 72 72 72 72 72 71 69 69 70
70 72 71 73 75 74 74 74 73 74 73 73 74 73 74 74 72
73 75 74 75 75 76 72 88 194 168 162 168 172 177 173 177 183
179 204 195 176 134 160 139 57 73 73 73 74 76 74 76 75 75
76 75 75 75 75 76 76 75 75 76 74 75 75 74 75 75 74
75 75 73 74 74 73 74 74 72 73 73 73 72 71 73 72 72
71 71 68 70 71 71 72 72 73 73 74 74 73 74 74 74 74
74 74 74 74 74 74 75 75 75 74 76 76 64 144 193 156 155
169 175 169 169 181 163 171 190 156 157 160 70 67 74 73 74 74
75 74 74 75 75 75 75 76 75 75 76 76 75 74 73 74 75
75 75 74 74 76 75 73 74 74 73 73 74 74 72 71 71 72
73 72 72 72 71 71 72 70 71 71 71 73 73 73 74 74 73
74 74 74 75 74 75 75 74 73 74 73 74 74 74 75 75 74
73 74 177 180 158 157 163 165 169 177 175 158 164 152 175 99 57
75 74 74 73 75 74 75 75 75 75 75 75 75 76 76 76 76
76 75 75 76 74 74 74 74 74 75 75 74 74 74 74 73 72
74 73 71 72 72 73 73 72 72 71 71 72 70 71 70 72 72
72 73 74 75 74 74 75 75 74 74 74 74 75 73 73 73 74
75 75 74 74 75 76 71 80 168 177 150 156 159 161 170 167 160
157 166 101 51 74 75 74 74 75 75 74 74 75 75 75 74 74
75 75 76 76 76 76 76 77 77 77 75 74 75 75 74 74 75
74 73 72 73 74 73 72 72 72 71 72 73 72 72 72 71 72
70 71 71 70 70 72 73 73 74 74 74 74 74 75 74 74 75
75 74 72 73 74 74 74 75 76 76 75 76 70 75 136 164 168
166 164 160 162 169 147 81 50 74 75 76 74 74 74 74 74 74
75 75 76 73 74 76 75 75 75 76 77 77 76 76 76 76 75
75 76 75 73 74 73 73 73 73 74 74 73 72 72 73 73 72
72 71 72 72 72 70 71 71 70 72 72 73 73 74 75 75 75
73 73 74 74 74 75 74 73 74 73 74 75 75 75 75 75 76
77 74 64 83 115 135 144 138 123 90 54 59 77 75 75 75 74
74 74 74 74 74 74 75 74 74 75 75 76 77 76 75 76 76
76 75 75 75 74 75 75 74 73 73 73 72 73 73 72 73 72
73 74 72 72 73 72 72 72 72 72 70 70 71 71 71 72 72
72 75 74 73 74 74 74 74 73 74 75 74 74 74 73 74 74
75 74 75 75 75 75 76 77 71 63 59 59 56 52 58 74 78
75 75 74 75 75 74 74 73 74 74 75 74 74 75 74 76 77
76 76 75 75 76 76 75 75 75 75 75 74 74 74 73 73 73
73 73 72 73 72 74 73 73 71 72 72 73 73 71 70 71 70
71 70 70 72 72 72 73 74 74 75 75 74 75 74 74 74 73
73 73 73 74 73 73 74 74 76 76 76 76 76 75 77 79 77
77 77 77 75 75 75 75 74 75 74 73 74 74 75 74 75 75
75 74 75 76 77 76 77 76 75 75 76 75 76 76 76 75 75
74 73 74 72 73 73 73 73 73 73 72 72 73 71 72 73 72
72 72 69 69 70 70 70 70 72 72 71 72 74 74 74 74 75
75 75 73 74 74 74 73 74 73 74 74 74 74 74 76 74 75
75 75 76 75 76 75 75 75 74 75 74 74 73 75 75 74 74
74 75 74 75 75 74 74 75 77 76 76 76 76 74 75 76 76
74 75 76 75 75 74 74 73 73 73 72 72 74 74 72 72 72
73 72 72 73 72 71 71 71
