P2
# Converted from P5 to P2 by convert_p5_to_p2.py
90 90
255
106 99 97 88 93 101 98 96 90 88 91 86 86 83 82 85 88
86 86 88 83 84 91 92 87 90 90 91 98 94 99 96 93 95
88 91 91 97 95 99 105 99 86 88 88 91 94 94 96 87 86
86 86 86 84 81 80 80 81 84 87 89 87 79 79 78 75 74
75 78 80 83 77 81 82 77 75 80 84 85 79 75 70 69 70
70 74 75 69 70 112 105 96 92 95 97 103 99 96 99 90 84
86 87 92 95 94 85 92 97 93 88 93 103 103 100 99 100 103
101 94 99 108 104 95 98 100 105 105 114 113 103 104 109 114 127
134 128 112 113 120 110 99 94 88 80 81 82 85 92 84 87 90
81 81 88 84 83 84 88 96 92 87 95 87 83 83 83 83 78
76 74 68 71 73 70 71 73 73 70 107 104 96 96 86 87 96
97 94 94 87 79 80 85 92 93 96 95 108 113 106 91 91 95
95 101 105 105 110 113 116 114 108 102 103 114 115 119 130 125 116
105 117 128 128 144 131 124 124 125 129 122 114 111 100 96 97 97
97 99 82 82 89 83 87 90 88 89 87 87 87 86 94 101 94
89 81 80 79 80 76 77 74 75 74 72 71 75 79 73 108 108
101 96 88 93 97 95 91 88 83 80 81 84 92 94 98 101 109
112 109 94 94 99 95 98 103 108 110 120 119 119 116 115 111 123
127 131 139 147 143 128 133 132 129 131 131 126 126 129 130 136 130
126 117 111 110 112 94 90 85 92 87 77 80 77 83 83 80 82
80 79 83 87 93 91 83 82 79 77 77 79 81 81 76 73 73
78 79 73 117 112 110 109 98 104 100 89 91 96 96 89 90 85
86 87 90 102 101 100 100 100 104 105 103 96 101 107 109 118 114
114 116 117 114 113 134 153 145 120 88 62 49 38 34 30 34 34
37 46 60 83 107 133 138 120 113 106 103 98 96 102 90 77 78
77 83 87 85 81 80 85 87 86 89 86 85 79 81 78 80 88
92 87 82 79 76 77 77 76 104 104 109 110 116 118 102 94 92
103 103 101 93 86 87 87 93 97 98 99 108 101 101 98 102 107
103 107 115 117 114 121 120 113 115 124 124 86 43 22 16 15 15
17 17 16 14 13 14 14 11 9 16 44 79 119 145 125 103 96
103 102 89 83 85 87 91 92 97 90 87 86 89 98 103 92 91
92 85 84 87 96 101 95 87 88 81 77 83 83 118 104 103 111
115 111 104 98 90 100 106 111 101 94 94 103 111 97 97 104 115
106 100 98 100 102 98 115 125 123 121 124 131 134 131 86 36 16
15 20 30 27 20 19 18 17 17 15 18 19 18 17 14 10 9
29 89 140 132 126 118 108 102 96 101 95 98 100 108 109 106 99
110 126 121 103 90 100 100 100 93 96 96 92 88 92 92 91 89
81 118 117 109 104 112 112 115 110 103 112 116 112 96 96 110 119
119 115 119 116 117 103 105 99 97 98 111 120 119 118 124 128 142
130 58 18 16 16 13 17 29 16 14 15 15 14 17 16 17 18
17 16 17 17 16 13 7 55 137 154 144 132 117 110 107 104 104
104 101 95 99 112 126 127 123 102 93 104 110 103 100 93 88 99
99 99 103 105 94 80 125 138 139 134 134 129 125 126 120 121 116
101 91 101 119 122 120 123 130 128 129 120 120 113 105 110 124 126
127 135 142 149 143 60 9 18 26 37 53 72 82 69 51 43 37
30 24 19 16 16 15 18 19 17 15 16 17 8 35 133 159 140
122 115 112 108 118 119 113 106 112 117 125 120 111 97 106 114 102
102 113 102 94 100 104 105 112 112 106 89 122 134 150 152 140 123
118 129 136 132 121 113 114 117 125 125 128 129 133 134 132 128 119
123 120 118 132 141 141 147 148 148 72 13 32 56 106 152 167 185
188 177 146 113 92 80 57 40 31 25 21 19 20 20 18 16 17
18 9 39 138 146 137 124 121 114 129 130 132 136 134 131 128 124
118 107 110 113 103 97 106 108 105 102 109 103 117 125 124 100 139
139 136 133 133 121 116 121 129 145 148 138 137 133 135 139 141 135
142 135 136 129 122 130 134 133 140 146 148 151 150 87 18 31 82
157 217 231 238 246 250 246 234 210 185 158 111 72 49 34 28 26
23 20 19 14 17 19 18 9 55 147 149 128 117 114 117 114 120
136 133 139 137 128 125 113 114 119 118 108 98 104 108 102 109 107
112 123 121 104 153 144 151 145 133 131 144 142 145 160 152 146 153
145 142 142 142 134 142 148 148 140 142 149 136 128 126 130 150 150
101 21 18 59 131 213 237 239 248 254 254 250 245 234 218 182 132
83 56 43 37 31 27 22 17 15 17 19 18 16 9 98 159 142
109 93 101 118 131 134 134 140 142 136 122 116 120 123 130 124 114
120 120 120 123 126 127 126 115 108 153 154 180 168 140 158 157 184
197 186 167 169 176 160 159 159 165 148 151 160 156 151 147 153 144
135 137 139 141 106 32 13 29 79 133 187 219 222 223 226 228 230
228 217 186 139 102 76 63 55 43 32 29 27 20 16 18 19 18
17 9 40 134 105 87 87 100 122 101 121 131 144 127 141 125 119
118 120 125 125 129 140 141 136 139 138 134 133 123 109 141 151 168
157 142 147 143 181 173 179 181 188 196 177 179 197 192 175 183 167
162 166 156 145 139 146 159 185 128 39 21 18 37 87 137 175 200
202 198 193 197 214 220 205 164 123 107 93 80 70 61 51 37 27
23 20 18 19 19 15 14 16 59 63 73 84 80 83 67 82 121
110 107 130 113 128 126 129 133 127 133 143 143 141 143 139 142 137
125 105 117 110 114 114 110 104 105 151 161 162 201 194 159 135 130
185 209 214 205 168 170 190 172 159 177 192 202 193 68 21 18 18
56 106 149 186 206 208 203 198 200 221 236 229 203 171 154 142 125
103 80 66 44 28 24 19 18 18 17 16 15 14 35 57 55 67
63 59 61 73 92 78 96 93 89 149 142 144 149 146 144 142 137
134 145 148 147 134 113 95 112 81 65 76 99 96 92 94 128 139
151 140 117 105 98 108 170 157 179 207 212 206 208 206 219 226 242
153 34 20 18 17 54 112 153 166 166 184 206 212 220 204 163 130
126 136 134 131 117 96 73 60 44 32 27 19 18 18 18 16 16
17 28 47 38 51 62 66 65 64 57 70 87 76 76 118 140 143
147 144 142 142 140 136 143 132 125 100 90 80 77 73 68 69 78
90 91 80 90 104 91 90 94 78 72 78 66 60 82 126 189 192
196 202 198 202 197 95 21 22 20 17 47 94 92 69 58 85 165
191 169 86 29 23 38 60 59 52 47 41 34 35 37 32 29 19
17 18 18 19 18 17 24 37 34 42 48 54 61 58 58 62 73
59 68 66 115 149 144 139 138 143 143 147 140 117 105 85 86 68
66 73 69 72 94 88 76 82 90 83 71 70 63 55 54 53 54
68 67 47 107 180 191 180 149 151 142 76 23 23 21 18 25 27
40 47 32 25 83 159 101 27 17 41 64 45 29 20 16 15 27
41 38 32 28 21 16 17 18 19 19 17 18 34 36 36 37 36
48 50 52 62 46 36 57 64 97 153 144 127 130 130 132 121 111
106 94 95 88 65 68 74 76 78 86 80 84 87 77 73 67 69
68 52 51 54 52 64 70 66 142 169 152 98 101 118 136 94 23
20 20 17 54 59 71 75 34 41 76 152 88 24 39 86 109 52
31 31 49 88 105 77 48 32 26 19 18 18 16 18 19 17 17
33 36 35 36 36 36 38 37 47 43 37 43 51 82 144 143 125
117 117 115 101 91 97 93 87 74 67 75 76 77 85 85 79 84
87 75 72 73 72 69 42 52 54 47 57 56 65 101 108 72 58
56 63 111 63 21 21 18 17 98 165 143 115 95 122 139 165 83
39 75 124 125 129 125 133 143 143 128 80 44 27 23 19 18 19
17 16 17 19 16 28 31 31 34 37 40 46 44 40 38 39 43
49 66 115 146 120 111 102 100 99 94 94 90 82 73 71 75 56
69 79 77 77 78 72 66 62 67 58 49 48 52 52 39 40 46
44 47 52 53 63 56 47 56 28 26 20 18 19 91 173 206 210
211 204 196 182 82 58 114 193 217 231 235 219 171 117 81 62 39
27 24 19 19 19 17 14 16 19 15 30 50 43 39 40 46 47
42 41 40 32 31 35 46 74 116 115 102 92 91 98 107 99 88
86 85 77 58 39 65 75 72 72 74 70 55 51 63 60 52 52
56 48 42 41 44 45 43 32 39 57 49 46 34 22 23 21 21
17 54 143 195 208 206 175 192 193 92 66 105 170 192 205 207 182
136 86 62 51 36 29 25 20 19 19 18 16 17 18 15 36 71
66 66 84 85 87 74 74 78 77 77 77 81 81 83 100 104 95
94 90 89 93 90 90 95 84 37 31 49 73 67 59 57 64 53
54 66 67 62 53 53 45 43 46 46 46 43 42 42 47 44 38
22 20 20 20 20 16 35 111 167 191 160 110 194 196 95 66 77
164 172 173 167 138 100 65 51 39 31 30 26 20 17 18 17 18
18 18 16 20 31 33 38 50 58 59 51 50 53 60 67 75 83
89 102 115 112 96 80 66 62 56 64 94 105 69 36 34 38 64
71 63 57 58 54 55 58 60 60 58 61 55 49 54 52 47 45
45 45 49 45 39 25 21 19 20 19 14 23 66 116 142 149 114
120 106 47 35 39 146 181 146 128 91 67 53 41 34 32 32 29
21 17 16 17 15 18 19 16 17 27 30 34 35 34 31 32 34
33 31 34 37 44 58 63 62 59 59 55 55 50 47 45 50 48
45 33 34 32 42 72 68 62 58 60 58 54 53 53 57 64 58
50 52 51 49 54 49 48 51 46 40 26 21 20 19 19 17 19
51 77 92 157 222 150 35 26 37 55 97 107 88 81 70 60 51
41 35 33 32 27 21 17 16 16 17 19 19 17 15 27 37 39
41 40 38 35 35 33 33 39 41 46 49 43 42 46 52 56 58
51 58 65 56 52 51 34 35 34 39 68 69 63 60 57 53 53
54 54 54 58 55 51 51 52 55 58 49 47 50 44 42 30 20
20 21 23 19 15 37 77 86 74 95 129 87 55 53 56 46 54
77 85 79 63 54 46 38 33 29 24 19 18 19 17 17 16 16
18 18 25 37 38 44 37 39 40 43 35 35 36 36 44 56 57
57 58 62 66 65 59 54 55 45 40 39 37 34 34 49 69 67
62 60 56 56 59 58 57 55 49 46 48 50 51 48 46 48 47
43 41 44 34 21 20 22 22 17 16 18 56 102 120 147 114 82
64 51 50 66 86 93 89 74 59 50 45 37 30 26 22 17 18
20 19 18 16 16 18 18 20 36 41 43 42 46 47 44 44 45
49 50 52 63 69 68 67 62 54 49 43 36 39 46 43 39 35
31 39 48 56 63 62 60 56 56 56 53 55 49 45 47 47 44
45 43 40 43 45 47 47 50 35 23 21 20 19 19 18 15 18
46 99 155 138 90 69 62 69 80 83 82 72 56 47 41 42 33
29 26 22 19 19 21 20 18 16 17 17 19 18 38 47 41 47
55 53 52 46 46 47 49 46 48 48 41 40 37 31 31 35 38
54 61 49 43 34 33 34 34 34 48 58 60 57 53 53 50 51
47 48 45 47 49 55 57 55 55 59 58 58 63 43 22 24 20
19 20 19 18 13 14 32 87 183 220 198 137 98 85 77 68 52
39 39 38 35 31 27 24 23 19 20 21 18 17 18 19 17 17
17 35 55 52 51 57 60 57 50 47 47 46 50 52 50 45 47
46 47 50 52 53 61 68 60 47 31 33 27 27 29 27 41 61
56 52 51 50 52 46 44 48 47 48 53 51 54 53 57 61 59
62 54 24 21 21 21 20 21 18 18 16 13 22 75 132 136 100
76 63 52 45 41 38 35 32 30 27 27 28 24 19 18 18 19
17 18 20 19 17 16 34 53 57 54 55 61 56 55 51 54 53
49 54 52 56 61 55 53 53 48 45 61 62 53 41 30 30 31
32 31 25 29 51 59 56 58 54 51 44 42 47 45 46 52 53
54 54 59 66 71 73 73 31 18 21 20 18 21 21 18 17 17
14 14 24 32 35 38 35 32 33 34 34 30 26 26 30 34 31
26 19 18 18 19 18 20 21 21 18 16 30 42 42 38 37 40
42 41 40 44 43 37 43 37 46 47 43 36 35 43 47 60 67
58 45 27 26 31 31 28 30 28 35 54 60 60 59 56 53 53
55 57 59 64 64 66 70 72 73 75 76 80 48 17 20 19 19
20 19 20 18 16 16 13 13 24 31 28 25 27 27 28 29 31
28 27 33 36 35 30 21 18 18 18 17 20 21 19 17 17 25
36 39 39 38 40 39 39 37 35 34 31 34 34 30 27 28 25
26 33 42 42 41 46 56 26 29 28 27 26 28 27 25 43 59
57 58 59 61 61 63 62 65 68 73 76 78 80 82 77 74 76
71 33 17 20 21 19 18 19 17 16 15 14 15 31 59 46 35
35 32 32 33 35 36 37 40 41 34 27 19 19 19 18 18 19
20 18 18 17 27 36 41 39 40 45 43 40 39 37 37 40 44
42 34 31 34 36 37 38 42 43 43 46 59 46 52 51 47 37
34 40 49 57 56 60 66 71 69 68 70 72 74 77 77 74 75
81 83 76 75 74 75 52 18 20 21 20 21 19 16 16 16 16
15 20 60 71 58 52 46 38 36 37 42 50 54 53 41 25 19
20 21 20 18 17 17 18 19 17 23 38 49 53 61 72 72 64
65 65 63 73 78 64 58 58 63 68 75 74 63 51 48 55 65
62 64 64 64 63 62 65 65 65 69 69 56 52 59 65 58 47
53 71 81 74 73 74 81 77 79 65 58 51 20 21 21 21 20
20 18 19 19 17 16 15 44 74 71 68 62 51 45 48 54 63
68 66 56 38 22 20 22 20 20 20 21 22 18 17 17 23 29
27 27 30 33 36 51 68 70 63 65 65 75 73 69 64 63 52
42 49 49 41 40 63 67 67 68 70 71 70 70 76 76 60 51
46 41 38 38 38 36 38 50 46 55 48 50 56 43 41 40 33
22 22 21 21 19 19 19 18 19 20 27 36 44 62 76 76 73
66 63 65 70 74 77 78 69 52 29 19 21 21 21 22 22 23
18 18 17 16 21 20 19 21 22 21 29 35 27 16 17 34 63
82 66 62 55 40 42 53 47 39 36 65 70 69 70 70 66 69
69 58 56 58 55 48 38 38 38 47 50 35 32 33 38 40 35
39 32 30 37 30 23 24 22 21 19 18 19 23 36 45 61 92
90 81 94 85 78 82 80 88 96 99 100 103 97 75 38 22 20
20 22 25 22 22 18 18 18 15 19 24 29 28 27 32 37 35
34 34 36 44 66 88 76 50 37 41 44 58 54 40 33 46 58
68 71 60 54 53 45 48 58 53 48 42 37 46 46 45 44 39
37 41 37 35 39 43 37 31 28 23 21 23 23 22 19 21 39
61 72 85 103 126 138 126 128 116 103 109 123 133 133 128 122 120
111 78 40 24 21 19 23 27 24 22 18 19 17 17 17 21 33
37 44 50 74 94 109 105 95 78 70 71 48 40 46 40 45 44
39 40 38 48 47 52 52 46 46 47 43 50 47 48 47 49 48
56 56 54 42 37 37 48 41 34 37 43 36 30 25 21 22 23
21 19 20 46 84 108 124 142 149 154 158 159 151 139 138 142 151
161 158 147 132 113 93 71 38 25 23 20 26 27 22 20 18 21
19 17 19 18 16 21 26 25 32 86 139 104 83 54 44 45 42
45 47 46 44 45 45 52 47 51 51 48 46 40 43 53 54 46
46 50 43 56 55 60 52 49 43 37 38 47 44 36 38 42 38
31 25 22 23 21 21 25 29 80 136 144 148 161 168 170 172 174
171 160 152 155 163 169 165 156 142 118 92 78 49 28 26 20 23
21 18 18 19 20 18 15 17 18 15 17 24 28 27 45 82 85
96 89 82 74 72 66 62 59 66 72 67 57 47 50 54 51 52
53 42 47 59 52 59 54 47 61 56 54 48 46 44 38 38 43
44 39 44 44 36 26 24 22 22 23 24 30 52 113 157 162 168
176 177 176 173 173 175 167 159 161 168 170 161 153 143 124 93 67
41 23 25 20 22 20 17 18 18 17 17 18 19 19 19 17 20
25 30 38 38 53 53 71 60 81 65 40 57 62 59 61 60 43
43 49 52 48 51 52 44 40 58 76 75 78 68 65 57 56 54
43 45 43 42 46 48 46 47 34 24 23 23 21 23 31 31 32
70 140 165 173 180 182 180 177 172 172 174 170 163 166 168 161 152
143 132 119 92 63 30 26 26 21 21 20 16 17 19 19 21 23
24 20 19 19 14 13 16 21 26 45 55 79 88 107 109 98 106
101 104 104 101 98 73 46 44 44 48 44 39 38 41 46 50 76
85 85 70 65 62 50 45 40 43 49 47 36 28 23 23 24 21
19 27 42 48 57 123 165 166 173 179 180 178 175 170 171 175 173
169 168 166 161 155 144 132 119 91 63 30 27 23 20 18 19 26
28 29 27 30 30 33 29 23 21 17 14 14 14 15 15 21 25
35 47 76 86 80 71 101 101 111 103 63 49 45 43 46 40 41
42 37 36 32 34 42 65 74 72 66 60 50 46 50 47 31 22
24 24 23 23 20 23 46 84 95 126 165 170 173 173 175 177 175
170 171 177 179 175 170 167 164 165 162 151 136 115 89 53 29 23
21 19 21 29 35 42 50 57 48 43 41 32 25 22 17 14 15
16 16 14 14 18 18 20 21 25 33 31 37 42 53 48 42 44
42 40 45 45 44 42 38 32 34 34 28 29 50 48 48 59 71
69 52 28 19 20 20 22 20 18 21 26 61 127 150 167 179 178
175 167 164 161 156 160 174 180 182 181 177 173 171 171 168 159 136
104 74 48 30 26 24 25 34 44 49 52 45 36 25 20 18 14
13 13 12 12 13 16 17 15 13 14 18 24 24 20 21 20 27
52 85 88 83 41 38 39 39 37 37 38 35 33 35 28 27 30
27 28 32 43 73 66 28 16 20 21 21 21 16 17 25 22 33
100 164 179 181 182 169 153 134 136 149 168 183 184 186 186 184 180
178 175 169 157 149 116 71 43 28 25 29 35 36 30 23 14 10
10 13 13 13 13 12 11 12 12 12 14 14 13 13 13 12 18
21 18 20 22 21 22 30 58 87 41 41 39 36 37 39 39 42
46 48 43 47 49 53 62 64 58 44 26 15 17 19 20 21 18
16 23 28 27 23 31 66 108 149 168 166 121 103 149 178 182 184
187 188 189 186 184 175 168 170 167 123 64 37 28 22 22 20 16
11 11 12 12 12 12 12 12 12 12 12 12 13 12 11 12 11
11 12 13 11 18 21 22 21 20 20 22 23 21 23 40 40 38
38 38 40 45 44 39 37 41 39 40 40 39 36 22 15 15 18
17 18 20 18 15 18 25 30 39 34 28 25 25 38 56 64 49
78 134 175 185 186 188 194 197 196 191 173 167 147 94 36 20 21
19 15 15 14 14 13 12 11 8 9 11 13 13 12 11 13 12
12 12 11 12 12 11 10 13 12 16 19 25 27 27 27 24 25
26 24 39 35 31 38 37 49 47 32 25 27 35 27 27 25 25
21 14 16 17 20 16 17 16 15 18 24 33 37 39 38 37 36
38 29 20 18 21 25 34 49 65 73 85 104 118 128 129 112 82
40 19 19 19 20 18 13 14 14 12 11 10 11 10 12 14 14
14 14 12 13 12 12 12 11 12 12 12 11 12 13 16 18 21
27 25 27 25 25 27 28 28 36 36 37 39 41 46 44 38 41
48 53 51 47 37 15 15 17 18 18 17 16 14 17 22 32 37
35 34 36 32 39 42 34 28 34 32 30 28 25 24 21 20 20
17 20 20 17 13 17 19 18 20 19 14 10 10 11 11 10 12
13 18 17 13 14 16 15 12 12 11 11 11 12 13 12 12 11
11 12 16 18 16 18 18 19 20 21 27 30 25 28 35 35 36
39 42 44 43 46 49 52 54 59 38 16 16 17 16 14 15 14
15 19 25 33 31 30 37 32 28 33 31 31 34 37 40 40 35
34 36 31 29 31 28 21 19 18 20 21 18 16 16 12 9 11
12 12 12 13 14 16 20 16 12 14 16 15 15 14 14 12 13
12 12 14 17 13 11 12 15 18 17 20 24 21 20 20 21 22
28 25 25 29 28 28 29 31 28 28 27 27 27 28 21 15 15
14 14 15 17 15 17 19 22 27 28 30 31 27 28 26 23 25
31 32 36 35 32 31 35 29 29 27 20 19 19 21 21 19 16
12 12 11 10 12 13 13 13 15 15 19 18 16 14 14 20 23
22 21 18 17 16 15 16 18 16 13 11 8 10 13 13 16 29
30 27 27 26 19 28 24 25 26 24 25 25 25 24 25 25 24
26 27 20 15 17 16 15 14 16 17 17 18 22 25 25 26 25
24 26 23 21 20 28 29 33 33 28 26 27 25 22 19 19 19
19 18 17 15 13 11 13 12 11 13 14 14 15 15 15 15 15
17 18 20 23 22 21 20 19 19 18 17 17 14 10 10 11 7
8 10 11 12 23 33 34 38 25 16 27 24 29 36 32 31 30
27 28 30 31 29 25 18 19 18 16 16 16 14 15 18 17 19
21 20 21 25 23 22 22 19 15 17 23 21 22 23 22 23 22
19 16 19 18 18 18 17 14 12 12 11 11 9 9 11 11 13
14 12 13 12 14 19 20 21 22 21 20 20 21 21 21 19 14
8 8 7 11 11 11 10 10 12 15 22 23 28 23 20 25 28
49 54 52 48 44 41 44 48 48 42 28 16 16 14 15 19 18
18 17 18 17 17 18 18 21 21 20 22 20 18 18 19 20 19
19 19 19 20 18 15 16 17 20 20 17 15 13 11 11 11 12
10 11 10 11 14 12 9 10 12 17 17 19 21 22 22 21 18
18 17 14 12 11 7 8 8 6 12 12 10 10 12 11 19 26
30 26 19 28 50 61 60 59 57 56 56 53 58 57 48 28 14
14 14 15 17 16 18 16 17 17 16 15 17 20 21 19 21 20
18 20 20 19 17 16 16 18 17 17 17 17 20 18 17 16 15
14 13 13 13 12 12 11 10 11 12 11 9 11 13 16 18 19
21 20 20 19 13 9 7 6 8 11 8 5 7 5 9 12 11
9 10 10 17 30 33 36 28 46 57 59 59 56 57 54 56 59
59 52 44 20 14 14 15 18 18 14 14 14 16 18 18 15 15
19 20 19 20 17 15 19 19 18 17 14 17 17 17 19 18 18
16 16 18 15 14 14 13 14 12 13 14 12 12 11 10 10 10
13 16 16 18 19 20 19 17 13 10 7 7 7 8 9 8 9
9 6 6 13 11 9 8 10 13 27 38 40 38 42 38 38 38
37 37 36 38 38 34 29 19 16 17 15 17 21 19 14 13 15
17 19 19 18 17 16 16 18 16 14 17 19 18 17 18 18 17
16 16 18 17 16 15 17 16 13 12 13 14 13 12 12 9 11
12 11 9 10 10 13 19 17 14 14 13 13 11 10 9 9 6
5 6 8 5 8 9 8 5 11 10 7 8 8 10 17 25 25
24 26 24 26 26 26 26 26 24 20 19 15 16 16 17 17 14
16 17 16 18 18 16 16 18 18 17 17 15 16 17 17 17 17
16 16 16 14 13 13 12 15 16 17 18 16 14 12 12 13 13
12 10 9 10 11 12 11 9 10 12 16 15 13 11 9 8 5
9 9 6 7 5 4 4 4 3 4 5 5 3 8 7 5 7
7 11 13 17 18 19 28 28 27 27 26 26 27 26 20 15 14
19 18 17 16 17 19 17 15 16 16 15 15 16 18 17 16 16
16 18 16 15 15 13 14 13 12 12 12 12 13 15 14 16 16
12 12 13 13 12 11 10 9 10 8 9 8 8 10 12 17 14
9 7 4 5 4 8 8 5 4 4 4 2 4 2 4 6 5
3 7 9 6 7 9 12 16 20 20 19 26 26 25 28 27 24
21 18 17 18 17 17 19 19 18 19 19 17 15 14 14 16 18
18 18 17 15 14 15 15 16 14 13 12 12 12 12 12 13 15
14 15 15 12 12 10 11 12 13 12 11 12 11 9 7 6 7
6 8 13 15 11 4 3 3 6 7 7 6 5 7 9 9 8
6 3 8 9 6 3 5 8 4 4 7 10 13 18 22 23 29
28 31 32 25 17 13 15 17 19 19 15 15 16 18 19 19 19
18 17 15 16 17 17 18 17 16 17 18 15 16 17 17 13 12
12 12 13 15 17 16 14 12 10 11 12 12 13 13 12 11 10
10 11 8 6 7 6 10 13 11 7 4 2 2 4 9 10 7
5 4 8 12 11 9 3 4 5 5 4 4 6 3 5 8 10
10 14 20 21 29 28 30 23 15 14 14 16 18 19 18 15 17
15 14 15 16 18 16 17 17 18 18 16 16 16 17 18 18 16
16 16 16 15 13 14 15 15 14 14 13 12 12 11 12 12 12
12 12 11 8 7 10 11 7 7 7 8 13 11 7 6 5 2
0 3 8 10 7 4 3 4 3 5 7 4 5 3 3 3 5
6 3 4 5 8 11 13 19 22 30 30 24 16 14 16 18 17
17 18 17 16 19 17 15 16 15 16 15 15 17 16 17 18 17
14 16 17 18 17 17 14 15 16 13 16 18 14 11 12 13 13
13 13 14 13 11 12 12 9 9 11 12 11 8 7 8 11 11
5 5 6 4 2 2 3 6 7 7 6 5 5 3 2 3 3
5 3 1 1 2 2 3 5 8 10 12 13 19 24 33 30 20
16 15 15 18 17 15 19 17 16 18 19 18 20 20 20 17 17
16 15 17 19 18 16 15 15 16 14 13 13 13 13 16 16 15
13 11 12 14 13 13 15 16 13 11 11 11 11 11 11 10 9
7 10 12 12 7 4 5 8 6 4 4 5 5 6 6 6 5
5 4 2 3 3 3 4 3 1 0 0 5 11 12 12 13 13
17 23 32 26 22 16 15 16 18 18 18 21 22 25 25 24 23
21 21 20 21 22 18 14 15 17 15 14 15 15 16 18 18 17
15 15 17 17 15 14 14 13 13 11 11 12 13 11 10 10 12
13 12 9 7 7 6 8 11 10 7 5 6 7 7 10 11 10
9 10 10 9 9 7 5 5 4 3 3 4 3 2 1 4 8
9 11 10 8 11 17 20 27 21 21 17 16 17 16 19 20 24
26 26 30 22 17 20 21 22 24 24 21 17 15 16 17 16 16
16 16 18 22 22 20 18 15 16 16 16 15 11 11 10 11 11
11 11 10 11 11 12 13 12 10 7 7 8 9 8 8 6 6
8 7 10 11 12 13 12 10 9 8 8 7 8 10 5 4 3
3 2 3 6 9 11 9 7 7 9 14 17 21 19 19 17 16
16 16 20 22 28 25 25 24 25 36 30 22 27 28 25 23 25
25 19 15 13 16 22 20 17 16 14 13 13 14 15 15 12 10
8 8 9 11 11 12 13 13 13 13 13 12 13 12 11 9 8
7 7 7 7 8 10 8 9 10 10 12 12 9 8 10 10 9
10 11 9 6 5 4 3 4 7 7 9 9 9 11 11 11 17
16 18 19 18 17 16 17 21 23 25 30 32 36 47 33 18 26
32 34 32 33 34 23 21 33 59 77 84 81 66 49 34 21 14
10 9 7 6 7 9 9 10 11 12 14 14 13 13 14 12 12
11 11 11 12 12 10 10 11 9 10 11 10 9 9 11 12 12
10 10 11 10 9 7 10 9 6 8 8 5 8 9 8 8 10
10 10 11 12 15 15 20 21 19 17 17 18 20 18 23 31 33
29 22 20 37 32 25 31 26 30 21 28 46 84 97 98 100 98
92 80 71 61 53 39 31 23 17 10 9 11 11 12 12 12 12
11 11 13 12 11 11 11 10 11 12 11 12 11 10 11 12 12
13 11 11 13 15 13 12 11 12 9 7 9 9 8 9 9 7
8 8 10 10 9 9 12 13 11 14 16 17 17 17 15 15 15
16 16 22 28 28 20 23 29 29 19 27 24 21 18 23 32 65
83 84 91 93 92 93 89 79 79 74 64 64 66 64 49 25 12
7 7 9 12 11 9 10 12 12 11 10 11 10 9 10 11 12
12 10 11 13 13 13 12 14 14 16 15 14 13 12 11 11 11
10 9 7 9 9 12 10 9 10 12 12 10 10 11 13 14 16
18 16 16 17 17 15 14 18 22 18 21 26 22 18 20 21 21
19 19 22 31 65 68 69 75 76 74 79 86 85 82 77 70 67
65 66 61 47 31 17 15 12 8 8 9 10 11 11 10 10 11
11 10 11 12 13 14 12 11 12 12 13 13 13 13 13 13 15
15 12 11 12 12 12 11 9 10 8 10 10 9 11 13 12 10
10 10 14 13 16 17 17 19 18 16 17 17 16 16 17 21 21
18 20 20 22 22 18 20 19 27 50 57 56 56 58 60 63 71
74 73 74 74 69 67 65 63 62 63 63 55 43 34 19 11 9
10 9 9 9 10 10 10 10 12 13 11 11 12 12 11 12 11
10 11 12 13 13 13 11 7 9 12 12 11 11 10 6 4 5
10 9 9 9 9 10 9 12 13 17 17 16 17 18 18 19 17
18 18 17 17 16 16 20 19 16 17 18 18 19 18 27 35 31
30 35 44 51 60 62 65 66 68 68 69 68 69 68 69 72 75
78 69 45 23 18 13 8 8 10 12 13 14 13 11 13 19 23
26 25 20 20 17 16 14 14 13 12 11 10 9 10 12 11 9
11 11 7 4 3 5 7 7 6 8 11 9 11 13 15 17 15
14 16 18 16 13 16 17 18 16 17 17 16 17 17 17 18 15
18 15 17 21 19 17 25 37 45 52 55 58 61 64 63 59 61
64 63 48 38 52 77 88 82 52 24 20 22 24 23 36 38 33
31 29 25 23 25 28 29 23 20 22 23 21 21 15 10 7 8
11 13 14 11 10 9 10 10 8 8 8 9 9 9 9 11 10
9 13 13 14 16 15 16 16 14 13 13 14 16 15 18 18 18
19 20 19 16 14 16 14 15 18 23 30 32 34 42 47 49 54
56 58 57 52 53 60 61 50 31 17 26 49 65 68 54 33 27
30 27 30 37 34 28 27 31 27 21 22 27 29 26 20 19 18
18 19 15 10 7 6 10 13 13 13 11 10 7 9 10 12 12
12 11 9 9 8 10 16 16 15 14 14 15 17 16 14 16 17
17 17 19 19 19 18 18 18 17 15 23 36 45 47 54 66 54
32 31 38 39 41 45 44 46 52 43 33 44 64 71 51 22 11
21 34 41 39 33 30 28 23 19 22 26 23 23 26 21 21 22
25 32 28 21 18 19 16 16 14 11 7 10 13 13 13 12 12
10 9 8 11 13 13 11 9 11 10 11 16 15 15 15 13 16
19 16 14 17 18 19 18 17 15 17 17 17 18 19 37 51 50
39 39 68 74 63 47 29 25 30 34 35 38 47 58 58 41 22
32 55 70 65 40 16 14 20 27 34 38 30 26 23 19 20 27
26 25 28 23 20 21 19 24 27 20 14 16 18 17 14 10 11
15 15 14 13 13 13 11 11 11 11 10 9 11 12 10 9 15
15 14 15 17 19 18 16 15 17 19 19 18 15 16 17 17 18
16 25 38 29 26 40 60 64 64 75 68 49 29 21 26 33 34
34 40 53 67 64 35 21 38 56 60 43 24 16 18 22 27 31
26 23 18 17 22 23 24 28 29 25 23 24 20 20 20 16 18
18 16 14 12 12 15 16 15 17 14 13 13 12 11 11 11 11
12 12 11 11 16 14 14 16 18 19 18 17 15 18 19 18 18
15 16 18 18 17 16 26 28 26 47 62 47 40 66 73 63 57
44 31 23 25 29 25 22 23 37 61 72 47 21 22 29 41 47
30 18 15 17 19 19 18 17 18 21 20 20 22 26 27 22 23
25 21 18 17 16 17 16 13 12 13 14 16 16 18 16 14 15
14 13 12 13 13 13 13 13 12 15 14 13 14 14 16 16 15
13 16 18 18 19 19 18 17 18 18 18 26 27 40 48 34 25
47 59 65 67 52 39 34 27 21 21 25 27 25 22 28 46 53
35 19 18 24 32 37 36 21 17 16 14 17 19 18 19 15 14
15 17 18 21 19 18 19 16 15 17 16 17 16 13 14 15 15
14 14 14 12 12 14 13 13 13 13 14 14 14 12 17 15 14
15 15 17 16 15 15 18 19 19 19 18 18 18 16 17 18 22
28 32 27 23 34 42 51 63 48 36 29 26 24 22 19 18 22
26 25 20 20 23 25 24 21 17 17 24 33 29 19 17 17 18
17 17 18 17 16 15 15 14 15 15 14 15 16 15 18 16 14
15 12 13 15 15 13 13 13 13 13 13 12 12 14 13 14 14
13 13 15 14 15 15 15 16 19 19 17 18 18 18 18 15 16
19 18 18 18 18 22 23 26 31 38 50 52 37 25 22 19 18
17 16 17 16 17 19 18 18 16 16 17 17 20 19 16 18 18
19 18 16 18 17 15 18 19 18 18 17 18 18 15 15 16 18
19 18 18 16 16 14 13 14 18 17 14 13 13 12 12 12 11
11 13 14 14 13 13 12 14 14 14 15 15 14 16 17 16 18
17 18 19 16 16 19 18 17 18 19 16 18 25 30 41 44 28
22 18 16 16 17 16 14 15 17 17 16 15 17 16 15 16 17
18 17 15 17 17 14 13 13 14 16 16 15 16 16 16 17 18
18 18 19 19 18 18 19 18 15 14 14 13 13 15 15 15 14
13 12 11 10 9 11 14 14 15 15 14 12 14 14 15 14 16
14 15 16 17 19 18 19 18 15 16 19 18 17 17 17 14 15
19 23 31 25 20 17 17 18 17 19 16 15 15 18 18 17 17
17 16 16 17 16 18 18 15 16 16 14 12 13 13 13 13 13
13 14 13 14 17 16 17 18 17 18 18 19 18 17 17 17 15
12 12 13 13 12 13 11 12 10 10 11 12 13 14 15 13 12
13 15 16 14 14 14 16 17 16 17 16 18 17 15 16 19 16
16 15 15 14 15 18 20 25 22 17 17 19 17 18 17 18 18
17 17 18 17 17 17 17 17 16 17 19 18 15 15 16 14 14
14 14 14 14 14 13 13 12 13 15 15 15 16 16 17 18 18
15 14 18 19 15 13 12 12 12 10 9 10 11 12 12 11 10
11 11 12 12 11 14 13 13 15 16 16 20 19 16 17 16 19
17 15 16 18 18 16 14 15 15 16 18 19 20 18 16 17 17
18 17 16 17 19 18 16 17 18 17 18 19 17 17 17 18 18
16 15 17 16 16 15 13 13 14 13 13 14 13 13 15 14 13
14 17 18 18 19 16 16 15 16 15 13 12 11 10 10 9 8
10 11 10 9 7 8 9 11 10 11 15 14 16 18 20 18 17
16 14 18 17 15 16 13 13 14 14 14 13 13 14 13 17 19
16 13 15 16 14 14 15 18 16 17 16 16 15 16 15 16 16
14 14 14 14 14 14 14 14 14 13 12 13 12 12 13 13 12
12 13 13 13 14 13 13 16 18 17 17 18 15 14 14 15 15
13 10 9 9 5 9 12 10 9 5 5 7 9 9 10 17 18
18 17 16 14 14 14 11 12 12 10 9 8 8 10 10 9 10
10 10 11 13 14 12 11 12 13 12 11 11 14 14 14 14 13
12 12 11 10 9 9 12 12 12 11 10 11 13 13 13 12 12
12 11 12 12 11 11 11 13 13 13 13 11 11 12 14 15 17
15 13 12 14 14 11 8 6 5 3 3 5 7 5 2 1 2
3 3 6 16 15 12 12 11 11 12 11 9 10 7 5 4 2
3 4 5 6 7 9 8 8 9 10 8 5 7 9 8 9 9
9 12 12 12 11 10 10 6 7 8 7 9 8 8 9 9 8
11 12 12 11 10 8 9 10 10 12 11 7 10 9 8 10 9
10 11 11 12 14 12 10 9 9 7 4 5 4 2 2 1 1
1 0 0 0 1 1 0 6
