P2
# Converted from P5 to P2 by convert_p5_to_p2.py
90 90
255
226 226 226 226 226 226 226 226 226 226 226 226 226 226 226 226 226
226 226 226 226 226 226 226 226 226 226 226 226 226 226 226 226 226
226 226 226 226 226 226 226 226 226 226 226 226 226 226 226 226 226
226 226 226 226 226 226 226 226 226 226 226 226 226 226 226 226 226
226 226 226 226 226 226 226 226 226 226 226 226 226 226 226 226 226
226 226 226 226 226 226 226 226 226 226 226 226 226 226 226 226 226
226 226 226 226 226 226 226 226 226 226 226 226 226 226 226 226 226
226 226 226 226 226 226 226 226 226 226 226 226 226 226 226 226 226
226 226 229 233 233 233 233 230 226 226 226 226 226 226 226 226 226
226 226 226 226 226 226 226 226 226 226 226 226 226 226 226 226 226
226 226 226 226 226 226 226 226 226 226 226 226 226 226 226 226 226
226 226 226 226 226 226 226 226 226 226 226 226 226 226 226 226 226
226 226 226 226 226 226 226 226 226 226 226 226 226 226 226 226 226
226 226 226 226 229 233 243 224 203 204 204 202 219 240 235 231 226
226 226 226 226 226 226 226 226 226 226 226 226 226 226 226 226 226
226 226 226 226 226 226 226 226 226 226 226 226 226 226 226 226 226
226 226 226 226 226 226 226 226 226 226 226 226 226 226 226 226 226
226 226 226 226 226 226 226 226 226 226 226 226 226 226 226 226 226
226 226 226 226 226 226 226 228 239 226 201 134 75 16 17 17 16
57 160 177 213 240 232 226 226 226 226 226 226 226 226 226 226 226
226 226 226 226 226 226 226 226 226 226 226 226 226 226 226 226 226
226 226 226 226 226 226 226 226 226 226 226 226 226 226 226 226 226
226 226 226 226 226 226 226 226 226 226 226 226 226 226 226 226 226
226 226 226 226 226 226 226 226 226 226 226 230 231 164 57 23 0
0 0 0 0 0 0 0 12 39 145 219 236 227 226 226 226 226
226 226 226 226 226 226 226 226 226 226 226 226 226 226 226 226 226
226 226 226 226 226 226 226 226 226 226 226 226 226 226 226 226 226
226 226 226 226 226 226 226 226 226 226 226 226 226 226 226 226 226
226 226 226 226 226 226 226 226 226 226 226 226 226 226 225 231 237
111 0 0 0 0 0 0 0 0 0 0 0 0 0 0 44 161
244 232 225 226 226 226 226 226 226 226 226 226 226 226 226 226 226
226 226 226 226 226 226 226 226 226 226 226 226 226 226 226 226 226
226 226 226 226 226 226 226 226 226 226 226 226 226 226 226 226 226
226 226 226 226 226 226 226 226 226 226 226 226 226 226 226 226 226
226 226 231 236 113 0 0 0 0 0 0 0 0 0 0 0 0
16 28 14 0 11 97 212 234 225 226 226 226 226 226 226 226 226
226 226 226 226 226 226 226 226 226 226 226 226 226 226 226 226 226
226 226 226 226 226 226 226 226 226 226 226 226 226 226 226 226 226
226 226 226 226 226 226 226 226 226 226 226 226 226 226 226 226 226
226 226 226 226 226 226 228 230 114 0 0 0 0 0 0 0 0
0 0 0 0 2 38 86 77 30 0 0 69 230 230 226 226 226
226 226 226 226 226 226 226 226 226 226 226 226 226 226 226 226 226
226 226 226 226 226 226 226 226 226 226 226 226 226 226 226 226 226
226 226 226 226 226 226 226 226 226 226 226 226 226 226 226 226 226
226 226 226 226 226 226 226 226 226 226 226 240 154 0 0 0 0
0 0 0 0 0 0 0 0 0 2 40 112 120 67 23 1 0
153 236 226 226 226 226 226 226 226 226 226 226 226 226 226 226 226
226 226 226 226 226 226 226 226 226 226 226 226 226 226 226 226 226
226 226 226 226 226 226 226 226 226 226 226 226 226 226 226 226 226
226 226 226 226 226 226 226 226 226 226 226 226 226 226 226 229 229
60 0 0 0 0 0 0 0 0 0 0 0 0 0 4 48 100
84 47 30 10 0 14 202 235 226 226 226 226 226 226 226 226 226
226 226 226 226 226 226 226 226 226 226 226 226 226 226 226 226 226
226 226 226 226 226 226 226 226 226 226 226 226 226 226 226 226 226
226 226 226 226 226 226 226 226 226 226 226 226 226 226 226 226 226
226 226 226 238 154 5 0 0 0 0 0 0 0 0 0 0 0
0 0 6 34 44 23 9 7 2 0 0 161 241 226 226 226 226
226 226 226 226 226 226 226 226 226 226 226 226 226 226 226 226 226
226 226 226 226 226 226 226 226 226 226 226 226 226 226 226 226 226
226 226 226 226 226 226 226 226 226 226 226 226 226 226 226 226 226
226 226 226 226 226 226 226 226 243 119 0 0 0 0 0 0 0
0 0 0 0 0 0 0 3 8 2 0 0 0 0 0 0 27
198 236 226 226 226 226 226 226 226 226 226 226 226 226 226 226 226
226 226 226 226 226 226 226 226 226 226 226 226 226 226 226 226 226
226 226 226 226 226 226 226 226 226 226 226 226 226 226 226 226 226
226 226 226 226 226 226 226 226 226 226 226 226 227 239 116 0 0
0 0 0 0 0 0 0 0 0 0 0 0 0 0 0 0 0
0 0 0 0 0 96 232 228 226 226 226 226 226 226 226 226 226
226 226 226 226 226 226 226 226 226 226 226 226 226 226 226 226 226
226 226 226 226 226 226 226 226 226 226 226 226 226 226 226 226 226
226 226 226 226 226 226 226 226 226 226 226 226 226 226 226 226 226
230 222 71 0 0 0 1 5 4 0 0 0 0 0 0 0 0
0 3 11 5 0 0 0 0 0 0 33 222 230 226 226 226 226
226 226 226 226 226 226 226 226 226 226 226 226 226 226 226 226 226
226 226 226 226 226 226 226 226 226 226 226 226 226 226 226 226 226
226 226 226 226 226 226 226 226 226 226 226 226 226 226 226 226 226
226 226 226 226 226 230 222 71 0 0 1 0 6 28 12 0 0
0 0 0 0 0 12 14 16 50 18 0 0 0 0 0 41 225
230 226 226 226 226 226 226 226 226 226 226 226 226 226 226 226 226
226 226 226 226 226 226 226 226 226 226 226 226 226 226 226 226 226
226 226 226 226 226 226 226 226 226 226 226 226 226 226 226 226 226
226 226 226 226 226 226 226 226 226 226 230 220 66 0 0 7 45
59 24 37 11 0 0 0 0 18 81 120 124 91 36 35 5 0
0 0 0 19 178 235 226 226 226 226 226 226 226 226 226 226 226
226 226 226 226 226 226 226 226 226 226 226 226 226 226 226 226 226
226 226 226 226 226 226 226 226 226 226 226 226 226 226 226 226 226
226 226 226 226 226 226 226 226 226 226 226 226 226 226 226 230 221
68 0 3 74 167 180 103 25 8 0 0 0 23 115 166 180 199
199 101 13 8 1 0 0 0 11 162 237 226 226 226 226 226 226
226 226 226 226 226 226 226 226 226 226 226 226 226 226 226 226 226
226 226 226 226 226 226 226 226 226 226 226 226 226 226 226 226 226
226 226 226 226 226 226 226 226 226 226 226 226 226 226 226 226 226
226 226 226 230 222 71 0 36 155 220 230 219 98 0 0 0 3
107 210 241 237 236 220 154 43 0 0 0 0 0 0 124 241 226
226 226 226 226 226 226 226 226 226 226 226 226 226 226 226 226 226
226 226 226 226 226 226 226 226 226 226 226 226 226 226 226 226 226
226 226 226 226 226 226 226 226 226 226 226 226 226 226 226 226 226
226 226 226 226 226 226 226 226 230 222 71 0 79 208 143 147 247
211 25 0 0 27 187 255 209 113 136 217 238 118 0 0 0 0
0 0 128 241 226 226 226 226 226 226 226 226 226 226 226 226 226
226 226 226 226 226 226 226 226 226 226 226 226 226 226 226 226 226
226 226 226 226 226 226 226 226 226 226 226 226 226 226 226 226 226
226 226 226 226 226 226 226 226 226 226 226 226 226 228 230 93 0
113 129 0 59 142 254 81 6 12 33 210 235 44 0 73 102 238
215 27 0 0 0 0 0 128 241 226 226 226 226 226 226 226 226
226 226 226 226 226 226 226 226 226 226 226 226 226 226 226 226 226
226 226 226 226 226 226 226 226 226 226 226 226 226 226 226 226 226
226 226 226 226 226 226 226 226 226 226 226 226 226 226 226 226 226
226 226 244 127 0 121 90 0 72 95 229 91 3 18 35 210 193
4 0 19 34 188 250 52 0 0 0 0 0 128 241 226 226 226
226 226 226 226 226 226 226 226 226 226 226 226 226 226 226 226 226
226 226 226 226 226 226 226 226 226 226 226 226 226 226 226 226 226
226 226 226 226 226 226 226 226 226 226 226 226 226 226 226 226 226
226 226 226 226 226 226 226 242 123 0 99 112 0 28 54 175 86
39 39 45 160 172 2 0 0 0 152 252 53 0 0 0 0 0
129 241 226 226 226 226 226 226 226 226 226 226 226 226 226 226 226
226 226 226 226 226 226 226 226 226 226 226 226 226 226 226 226 226
226 226 226 226 226 226 226 226 226 226 226 226 226 226 226 226 226
226 226 226 226 226 226 226 226 226 226 226 226 242 123 0 43 173
38 0 48 150 170 172 160 142 145 131 27 0 0 33 210 249 49
0 0 0 0 0 124 240 226 226 226 226 226 226 226 226 226 226
226 226 226 226 226 226 226 226 226 226 226 226 226 226 226 226 226
226 226 226 226 226 226 226 226 226 226 226 226 226 226 226 226 226
226 226 226 226 226 226 226 226 226 226 226 226 226 226 226 226 226
242 121 0 4 177 160 63 145 173 189 194 184 165 178 190 147 66
69 181 255 141 9 0 0 0 0 0 85 229 228 226 226 226 226
226 226 226 226 226 226 226 226 226 226 226 226 226 226 226 226 226
226 226 226 226 226 226 226 226 226 226 226 226 226 226 226 226 226
227 228 228 228 228 228 228 228 228 228 227 226 226 226 226 226 226
226 226 226 226 226 237 163 12 0 70 164 160 180 187 187 188 189
190 189 189 190 188 176 187 179 46 0 0 0 0 0 0 63 223
230 226 226 226 226 226 226 226 226 226 226 226 226 226 226 226 226
226 226 226 226 226 226 226 226 226 226 226 226 226 226 226 226 226
226 226 226 228 225 215 207 209 209 209 209 209 209 209 208 215 225
226 228 226 226 226 226 226 226 226 226 236 172 12 9 78 133 171
180 183 188 189 188 187 186 188 185 179 180 178 180 126 12 0 0
0 0 0 21 211 232 226 226 226 226 226 226 226 226 226 226 226
226 226 226 226 226 226 226 226 226 226 226 226 226 226 226 226 226
226 226 226 226 226 226 226 228 219 210 211 210 213 213 213 214 214
213 213 213 214 216 217 217 225 226 226 226 226 226 226 226 236 176
11 57 135 154 175 181 183 190 188 187 186 188 188 182 180 174 151
163 163 25 0 0 0 0 0 28 219 232 226 226 226 226 226 226
226 226 226 226 226 226 226 226 226 226 226 226 226 226 226 226 226
226 226 226 226 226 226 226 226 226 226 226 229 206 189 207 214 210
211 220 219 217 214 219 221 213 209 209 203 194 204 228 226 226 226
226 226 226 236 175 12 69 141 162 174 184 185 189 187 188 187 186
185 184 159 152 146 157 140 16 0 0 0 0 0 15 182 237 226
226 226 226 226 226 226 226 226 226 226 226 226 226 226 226 226 226
226 226 226 226 226 226 226 226 226 226 226 226 226 226 226 226 229
206 187 198 195 198 199 202 202 200 197 203 204 197 198 196 196 187
196 229 226 226 226 226 226 226 236 171 13 20 79 146 184 187 189
188 185 187 183 178 153 131 135 157 160 159 94 3 0 23 34 0
0 0 79 235 228 226 226 226 226 226 226 226 226 226 226 226 226
226 226 226 226 226 226 226 226 226 226 226 226 226 226 226 226 226
226 226 226 226 226 228 207 196 197 195 196 196 193 193 194 195 193
191 195 197 199 200 220 227 226 226 226 226 226 226 237 162 10 6
59 80 144 181 185 183 179 163 138 100 103 134 157 153 149 139 110
12 0 48 121 92 31 0 8 184 236 226 226 226 226 226 226 226
226 226 226 226 226 226 226 226 226 226 226 226 226 226 226 226 226
226 226 226 226 226 226 226 226 226 226 227 215 201 189 179 182 188
180 180 179 182 184 180 178 188 197 209 225 227 226 226 226 226 226
226 232 206 25 37 175 118 86 120 144 147 134 120 124 128 150 152
137 155 188 188 192 47 0 11 102 147 102 16 0 84 236 227 226
226 226 226 226 226 226 226 226 226 226 226 226 226 226 226 226 226
226 226 226 226 226 226 226 226 226 226 226 226 226 226 226 228 220
194 179 169 175 172 169 168 170 168 174 171 170 180 191 208 230 226
226 226 226 226 226 226 230 224 29 37 192 181 126 100 138 159 155
156 155 146 138 137 148 184 201 210 197 120 2 0 36 117 121 25
0 8 178 238 226 226 226 226 226 226 226 226 226 226 226 226 226
226 226 226 226 226 226 226 226 226 226 226 226 226 226 226 226 226
226 226 226 227 220 207 185 172 174 172 170 166 167 169 173 174 175
180 203 219 227 226 226 226 226 226 226 225 245 152 4 43 186 193
179 119 94 120 126 123 112 115 130 169 187 197 231 243 234 197 39
0 1 25 31 0 0 0 85 241 228 226 226 226 226 226 226 226
226 226 226 226 226 226 226 226 226 226 226 226 226 226 226 226 226
226 226 226 226 226 226 226 226 226 228 213 183 172 170 171 168 167
167 168 170 170 170 183 209 227 226 226 226 226 226 226 226 233 205
46 0 44 202 208 191 177 143 111 111 109 121 159 184 187 200 232
249 250 252 247 125 0 0 0 0 0 0 0 16 164 235 226 226
226 226 226 226 226 226 226 226 226 226 226 226 226 226 226 226 226
226 226 226 226 226 226 226 226 226 226 226 226 226 226 227 209 187
168 165 163 161 162 163 163 165 163 165 185 220 227 226 226 226 226
226 226 230 245 101 0 0 62 236 231 193 186 193 184 183 184 183
189 197 214 229 248 249 248 248 255 216 41 0 0 0 0 0 0
0 45 213 232 226 226 226 226 226 226 226 226 226 226 226 226 226
226 226 226 226 226 226 226 226 226 226 226 226 226 226 226 226 226
226 226 228 217 150 151 155 151 151 154 155 153 153 152 151 146 208
230 226 226 226 226 226 232 235 146 22 7 4 151 251 250 228 185
183 189 185 185 183 203 226 245 249 249 248 248 248 249 255 130 0
0 0 0 0 0 0 2 127 246 226 226 226 226 226 226 226 226
226 226 226 226 226 226 226 226 226 226 226 226 226 226 226 226 226
226 226 226 226 226 226 226 229 221 102 110 143 148 147 147 147 147
147 146 113 102 219 229 226 226 226 228 243 206 70 4 0 3 103
239 251 249 249 211 190 184 179 190 213 241 249 249 248 248 248 248
248 248 255 213 27 0 0 0 0 0 0 0 26 182 238 225 226
226 226 226 226 226 226 226 226 226 226 226 226 226 226 226 226 226
226 226 226 226 226 226 226 226 226 226 226 226 226 237 132 93 140
143 142 142 142 142 142 143 97 114 231 231 234 233 237 236 181 53
0 0 0 51 225 253 248 248 249 247 227 208 215 231 245 250 248
248 248 248 248 248 248 248 251 250 96 0 0 0 0 0 0 0
0 70 238 232 225 226 226 226 226 226 226 226 226 226 226 226 226
226 226 226 226 226 226 226 226 226 226 226 226 226 226 226 226 226
226 235 143 93 143 143 141 143 145 141 143 148 90 120 250 219 198
206 184 88 2 0 0 0 5 151 255 250 248 248 248 249 249 243
247 250 249 248 248 248 248 248 248 248 248 248 248 255 178 5 0
0 0 0 0 0 0 0 106 234 230 226 226 226 226 226 226 226
226 226 226 226 226 226 226 226 226 226 226 226 226 226 226 226 226
226 226 226 226 226 226 235 151 92 142 145 139 142 144 139 144 147
98 93 132 61 13 20 10 0 0 0 0 0 63 231 252 248 248
248 248 248 248 250 249 248 248 248 248 248 248 248 248 248 248 248
249 255 220 32 0 0 0 0 0 0 0 0 0 112 237 227 226
226 226 226 226 226 226 226 226 226 226 226 226 226 226 226 226 226
226 226 226 226 226 226 226 226 226 226 226 235 150 94 139 144 142
142 142 142 143 144 108 56 0 0 0 0 0 0 0 0 0 0
119 243 250 249 248 248 248 249 249 247 248 249 248 248 248 248 248
249 249 249 250 249 243 250 245 92 0 0 0 0 0 0 0 0
0 15 193 236 226 226 226 226 226 226 226 226 226 226 226 226 226
226 226 226 226 226 226 226 226 226 226 226 226 226 226 226 226 234
152 102 139 134 138 134 133 138 133 140 114 64 0 0 0 0 0
0 0 0 0 21 144 216 247 248 247 248 248 245 239 232 232 242
247 248 248 248 246 244 244 245 235 230 223 226 244 166 0 0 0
0 0 0 0 0 0 0 46 225 233 226 226 226 226 226 226 226
226 226 226 226 226 226 226 226 226 226 226 226 226 226 226 226 226
226 226 226 226 235 156 104 139 137 135 135 136 136 135 141 117 63
0 0 0 0 0 0 0 0 0 59 151 171 208 228 240 248 248
239 228 221 228 237 248 248 248 249 239 222 209 204 195 194 197 191
218 224 51 0 2 4 0 0 0 0 0 0 0 126 238 228 226
226 226 226 226 226 226 226 226 226 226 226 226 226 226 226 226 226
226 226 226 226 226 226 226 226 227 241 154 103 125 117 127 119 117
128 116 124 114 64 0 0 0 0 0 0 0 0 0 93 166 183
218 237 245 249 248 248 235 234 248 248 248 248 248 248 246 240 226
214 207 197 193 187 193 235 172 1 4 44 23 1 0 0 0 0
0 0 133 236 227 226 226 226 226 226 226 226 226 226 226 226 226
226 226 226 226 226 226 226 226 226 226 226 226 226 235 149 61 108
125 111 117 111 108 118 108 120 114 63 0 0 0 0 0 0 4
0 13 137 211 240 250 250 248 248 248 249 239 241 249 248 248 248
248 248 248 250 249 249 245 236 222 204 191 205 233 71 0 11 24
31 8 0 0 0 0 0 66 242 228 226 226 226 226 226 226 226
226 226 226 226 226 226 226 226 226 226 226 226 226 226 226 226 226
235 192 6 29 91 130 122 124 116 116 123 121 131 94 59 0 12
4 0 0 16 28 0 59 208 244 251 249 248 248 248 248 248 248
247 248 248 248 248 248 248 248 248 248 249 249 250 249 240 221 193
221 169 2 0 0 19 30 2 0 0 0 0 15 151 233 227 226
226 226 226 226 226 226 226 226 226 226 226 226 226 226 226 226 226
226 226 226 226 228 233 85 0 42 80 104 86 94 80 76 95 85
101 72 61 0 21 7 0 0 40 10 0 149 252 250 248 248 248
248 248 248 248 248 248 248 248 248 248 248 248 248 248 248 248 248
248 248 250 249 224 205 220 71 0 0 1 22 19 0 0 0 0
0 45 232 228 226 226 226 226 226 226 226 226 226 226 226 226 226
226 226 226 226 226 226 226 226 226 228 231 61 0 55 95 88 73
85 75 71 86 73 89 88 63 15 36 4 0 17 27 0 59 241
254 248 248 248 248 248 248 248 248 248 248 248 248 248 248 248 248
248 248 248 248 248 248 248 248 249 249 224 222 166 4 5 36 29
33 10 0 0 0 0 16 179 236 226 226 226 226 226 226 226 226
226 226 226 226 226 226 226 226 226 226 226 226 226 226 226 236 168
0 48 75 87 80 91 80 75 93 78 91 71 66 55 23 0 1
39 8 1 165 255 248 248 248 248 248 248 248 248 249 248 248 248
248 248 248 248 248 248 248 248 248 248 248 248 248 248 249 246 245
231 45 13 65 45 24 32 2 0 0 0 0 146 242 226 226 226
226 226 226 226 226 226 226 226 226 226 226 226 226 226 226 226 226
226 226 226 228 230 100 50 67 88 52 74 50 45 78 51 83 57
126 71 0 0 15 30 0 62 240 253 248 248 248 248 248 248 248
248 245 247 248 248 248 248 248 248 248 248 248 248 248 248 248 248
248 248 248 249 251 254 113 14 38 24 5 46 20 0 0 0 0
108 233 228 226 226 226 226 226 226 226 226 226 226 226 226 226 226
226 226 226 226 226 226 226 226 225 231 228 109 58 90 69 84 68
63 85 67 88 67 79 32 0 0 21 11 0 152 255 248 248 248
248 248 248 248 248 248 235 242 249 248 248 248 248 248 248 248 248
248 248 248 248 248 248 248 248 248 248 255 156 0 1 0 0 24
31 0 0 0 0 27 220 231 226 226 226 226 226 226 226 226 226
226 226 226 226 226 226 226 226 226 226 226 226 226 226 229 222 68
11 56 27 73 59 55 77 32 49 25 46 37 0 0 4 0 49
233 253 248 248 248 248 248 248 248 249 244 231 243 249 248 248 248
248 248 248 248 248 248 248 248 248 248 248 248 248 248 248 255 185
8 0 0 0 5 31 4 0 0 0 8 155 238 226 226 226 226
226 226 226 226 226 226 226 226 226 226 226 226 226 226 226 226 226
226 226 230 212 84 65 89 55 83 60 53 85 53 82 74 77 38
0 0 0 0 130 255 249 248 248 248 248 248 248 248 249 241 232
244 249 248 248 248 248 248 248 248 248 248 248 248 248 248 248 248
248 248 248 255 209 29 0 0 0 0 37 8 0 0 0 0 101
239 227 226 226 226 226 226 226 226 226 226 226 226 226 226 226 226
226 226 226 226 226 226 227 234 155 43 51 112 93 95 82 78 95
86 110 68 45 73 9 0 0 7 185 255 248 248 248 248 248 248
248 248 249 239 226 244 249 248 248 248 248 248 248 248 248 248 248
248 248 248 248 248 248 248 248 255 212 32 0 0 0 0 37 6
0 0 0 0 29 209 232 226 226 226 226 226 226 226 226 226 226
226 226 226 226 226 226 226 226 226 226 226 227 236 138 17 41 103
52 90 62 53 93 49 91 58 25 78 11 0 0 32 225 254 248
248 248 248 248 248 248 248 249 239 223 246 249 248 248 248 248 248
248 248 248 248 248 248 248 248 248 248 248 248 248 252 235 54 0
0 0 4 26 3 0 0 0 0 14 203 233 226 226 226 226 226
226 226 226 226 226 226 226 226 226 226 226 226 226 226 226 226 226
231 199 74 57 64 31 82 45 34 85 36 52 83 60 42 2 0
0 73 246 252 248 248 248 248 248 248 248 248 250 237 224 244 249
248 248 248 248 248 248 248 248 248 248 248 248 248 248 248 248 248
248 251 254 68 0 0 0 9 17 0 0 0 0 0 6 155 235
227 226 226 226 226 226 226 226 226 226 226 226 226 226 226 226 226
226 226 226 226 226 226 233 207 179 107 89 114 95 90 114 96 88
62 41 0 0 0 0 98 245 252 248 248 248 248 248 248 248 248
250 232 225 246 249 248 248 248 248 248 248 248 248 248 248 248 248
248 248 248 248 248 248 251 252 66 0 0 0 15 23 0 0 0
0 0 2 125 237 226 226 226 226 226 226 226 226 226 226 226 226
226 226 226 226 226 226 226 226 226 226 226 226 231 234 226 224 222
224 225 221 230 209 20 0 0 0 0 0 87 240 252 248 248 248
248 248 248 248 248 250 234 229 249 248 248 248 248 248 248 248 248
248 248 248 248 248 248 248 248 248 248 248 251 252 68 0 0 0
21 15 0 0 0 0 0 0 78 239 227 226 226 226 226 226 226
226 226 226 226 226 226 226 226 226 226 226 226 226 226 226 226 226
226 226 228 229 229 229 229 229 243 131 3 0 5 8 0 0 126
240 251 248 248 248 248 248 248 248 248 249 235 232 248 248 248 248
248 248 248 248 248 248 248 248 248 248 248 248 248 248 248 248 250
255 104 0 0 2 29 6 0 0 0 0 0 0 79 239 227 226
226 226 226 226 226 226 226 226 226 226 226 226 226 226 226 226 226
226 226 226 226 226 226 226 226 226 226 226 226 226 241 105 0 0
0 6 1 0 154 247 250 248 248 248 248 248 248 248 248 248 232
233 248 248 248 248 248 248 248 248 248 248 248 248 248 248 248 248
248 248 248 248 249 255 114 0 0 11 24 0 0 0 0 0 0
2 114 238 227 226 226 226 226 226 226 226 226 226 226 226 226 226
226 226 226 226 226 226 226 226 226 226 226 226 226 226 226 226 226
226 241 108 0 0 0 0 0 0 157 255 249 248 248 248 248 248
248 248 248 250 229 228 249 248 248 248 248 248 248 248 248 248 248
248 248 248 248 248 248 248 248 248 250 254 75 0 12 30 17 15
20 10 3 0 0 4 144 236 226 226 226 226 226 226 226 226 226
226 226 226 226 226 226 226 226 226 226 226 226 226 226 226 226 226
226 226 226 226 226 226 240 118 4 56 130 100 12 0 168 255 249
248 248 248 248 248 248 248 248 250 229 227 249 248 248 248 248 248
248 248 248 248 248 248 248 248 248 248 248 248 249 251 255 235 50
6 17 9 1 6 15 20 33 35 3 1 135 237 226 226 226 226
226 226 226 226 226 226 226 226 226 226 226 226 226 226 226 226 226
226 226 226 226 226 226 226 226 226 226 226 233 184 120 177 199 201
132 9 99 246 251 248 248 248 248 248 248 248 248 249 231 230 249
248 248 248 248 248 248 248 248 248 248 248 248 248 248 248 248 249
248 230 232 171 24 7 0 0 0 0 0 0 10 61 19 9 192
234 226 226 226 226 226 226 226 226 226 226 226 226 226 226 226 226
226 226 226 226 226 226 226 226 226 226 226 226 226 226 226 226 229
182 171 190 186 186 197 123 46 224 254 248 248 248 248 248 248 248
248 248 232 232 248 248 248 248 248 248 248 248 248 248 248 248 248
248 248 248 248 249 207 182 179 179 98 0 0 0 0 0 0 0
4 29 23 99 204 230 226 226 226 226 226 226 226 226 226 226 226
226 226 226 226 226 226 226 226 226 226 226 226 226 226 226 226 226
226 226 226 234 180 143 165 183 188 187 185 192 151 202 254 248 248
248 248 248 248 248 248 248 232 230 247 248 248 248 248 248 248 248
248 248 248 248 248 248 248 248 251 235 169 178 175 189 120 0 0
0 0 0 0 0 8 5 103 177 139 203 231 226 226 226 226 226
226 226 226 226 226 226 226 226 226 226 226 226 226 226 226 226 226
226 226 226 226 226 226 227 234 206 138 146 166 185 186 183 186 187
190 168 224 253 248 248 248 248 248 248 248 249 238 232 247 248 248
248 248 248 248 248 248 248 248 248 248 248 248 248 253 231 165 179
186 177 87 0 0 0 0 0 0 0 0 54 167 180 155 197 231
226 226 226 226 226 226 226 226 226 226 226 226 226 226 226 226 226
226 226 226 226 226 226 226 226 227 233 236 230 205 134 136 162 177
185 184 186 186 184 188 168 178 253 249 248 248 248 248 248 248 248
248 248 248 248 248 248 248 248 248 248 248 248 248 248 248 248 248
249 250 224 167 179 185 163 94 10 0 0 0 0 0 0 30 150
191 183 159 199 231 226 226 226 226 226 226 226 226 226 226 226 226
226 226 226 226 226 226 226 226 226 226 226 231 230 227 186 177 160
126 136 156 174 183 185 184 186 185 186 183 191 161 195 255 248 248
248 248 248 248 248 248 248 248 248 248 248 248 248 248 248 248 248
248 248 248 248 249 245 219 197 167 180 182 154 122 75 18 0 0
0 6 41 117 178 186 186 159 203 231 226 226 226 226 226 226 226
226 226 226 226 226 226 226 226 226 226 226 226 226 226 226 229 206
177 172 140 120 138 147 164 173 180 184 185 186 186 184 184 182 189
176 153 235 252 248 248 248 248 248 248 248 248 248 248 248 248 248
248 248 248 248 248 248 248 248 248 250 236 200 192 166 175 178 155
135 120 91 65 56 63 85 122 149 172 178 186 175 196 230 226 226
226 226 226 226 226 226 226 226 226 226 226 226 226 226 226 226 226
226 226 228 222 141 139 170 175 173 177 176 178 179 183 183 185 187
186 185 185 183 183 195 154 140 252 249 248 248 248 248 248 248 248
248 248 248 248 248 248 248 248 248 248 248 248 248 248 250 236 202
195 160 165 177 160 145 132 129 131 132 130 135 150 170 181 182 185
186 156 203 232 226 226 226 226 226 226 226 226 226 226 226 226 226
226 226 226 226 226 226 226 228 217 162 168 178 181 180 181 184 182
184 182 184 188 186 183 183 186 186 182 186 188 139 215 254 248 248
248 248 248 248 248 248 248 248 248 248 248 248 248 248 248 248 248
248 248 250 236 203 197 163 155 174 160 153 148 145 141 145 143 154
171 184 188 183 186 187 179 176 223 229 226 226 226 226 226 226 226
226 226 226 226 226 226 226 226 226 226 226 226 228 217 161 174 184
185 185 187 187 186 183 185 186 185 184 184 184 184 185 185 185 190
170 178 253 249 248 248 248 248 248 248 248 248 248 248 248 248 248
248 248 248 248 248 248 248 250 240 207 197 143 132 159 159 162 161
155 155 159 165 172 177 184 184 184 187 187 187 169 171 223 232 226
226 226 226 226 226 226 226 226 226 226 226 226 226 226 226 226 226
230 206 148 175 183 184 188 188 182 185 185 187 184 185 186 185 185
184 186 187 185 185 188 160 212 252 248 248 248 248 248 248 248 248
248 248 248 248 248 248 248 248 248 248 248 248 249 245 214 185 111
128 157 168 172 173 170 173 174 176 177 180 184 184 186 185 184 186
190 169 178 202 229 226 226 226 226 226 226 226 226 226 226 226 226
226 226 226 226 226 230 209 137 165 183 185 185 186 185 187 185 186
187 186 187 185 185 187 183 184 186 185 190 179 160 239 252 248 248
248 248 248 248 248 248 248 248 248 248 248 248 248 248 248 248 248
249 255 202 97 100 140 158 173 177 180 179 178 178 178 179 184 186
186 184 182 184 186 187 188 181 156 206 230 226 226 226 226 226 226
226 226 226 226 226 226 226 226 226 226 226 231 164 145 180 184 186
187 186 184 182 186 187 186 185 185 186 186 183 186 185 184 183 190
168 180 250 250 248 248 248 248 248 248 248 248 248 248 248 248 248
248 248 248 248 249 255 220 64 14 103 141 160 175 180 186 186 180
182 184 186 186 184 185 183 185 185 186 186 186 188 182 184 218 228
226 226 226 226 226 226 226 226 226 226 226 226 226 226 226 226 233
173 138 176 184 185 186 182 185 184 186 187 185 185 183 186 183 186
187 184 184 184 184 184 145 201 255 248 248 248 248 248 248 248 248
248 248 248 248 248 248 248 248 252 255 217 55 0 33 111 147 164
177 183 187 186 185 186 185 186 185 185 187 184 186 185 185 186 187
185 186 184 211 229 226 226 226 226 226 226 226 226 226 226 226 226
226 226 226 226 231 178 138 173 182 183 185 185 185 185 183 187 185
185 184 187 186 185 186 184 185 184 180 191 173 157 232 255 248 248
248 248 248 248 248 248 248 248 248 248 248 251 255 252 159 35 0
0 40 111 150 166 177 185 185 183 186 185 185 184 187 187 184 185
184 186 186 187 184 185 187 171 200 230 226 226 226 226 226 226 226
226 226 226 226 226 226 226 226 226 232 183 142 174 184 185 187 186
185 187 185 186 185 186 188 185 186 184 185 185 183 184 183 186 187
133 142 244 255 250 248 248 248 248 248 248 248 250 253 255 255 253
210 88 1 0 0 0 44 114 150 162 176 184 185 187 186 185 184
185 186 185 185 187 186 186 184 186 187 184 161 156 215 229 226 226
226 226 226 226 226 226 226 226 226 226 226 226 226 228 224 158 145
176 186 185 183 186 184 184 184 184 185 187 186 184 184 186 185 187
184 184 182 177 171 153 98 106 209 255 255 255 255 255 255 255 255
255 239 221 170 86 19 0 0 0 0 1 46 124 148 162 178 185
186 185 186 185 185 186 186 184 184 184 186 187 187 183 169 163 181
215 231 226 226 226 226 226 226 226 226 226 226 226 226 226 226 226
226 229 197 148 156 172 177 180 182 184 182 186 187 185 188 182 186
186 184 186 184 187 186 185 183 178 167 152 120 38 31 110 160 188
200 200 183 160 128 107 65 24 0 0 0 0 0 0 0 7 56
126 152 166 181 186 185 182 186 186 186 185 185 184 185 187 185 177
161 162 184 214 230 229 226 226 226 226 226 226 226 226 226 226 226
226 226 226 226 226 226 229 178 148 155 155 161 164 171 174 178 179
180 184 185 184 187 187 187 185 183 184 187 185 185 182 169 152 125
61 1 0 0 9 13 13 7 0 0 0 0 0 0 0 0 0
0 0 0 13 71 124 149 162 181 187 186 184 185 186 185 186 185
184 184 178 162 150 176 218 231 229 226 226 226 226 226 226 226 226
226 226 226 226 226 226 226 226 226 226 226 228 213 157 132 134 143
144 150 155 157 158 160 168 175 176 181 185 184 183 186 184 184 187
185 178 159 141 114 81 19 0 0 0 0 0 0 0 0 0 0
0 0 0 0 0 0 0 0 14 75 114 140 153 173 185 187 186
184 182 181 183 177 173 163 127 172 215 232 228 226 226 226 226 226
226 226 226 226 226 226 226 226 226 226 226 226 226 226 226 226 226
232 208 134 119 99 108 124 125 134 144 145 139 149 157 159 166 177
182 186 186 186 184 178 165 141 122 107 73 18 0 0 0 0 0
0 0 0 0 0 0 0 0 0 0 0 0 0 11 63 109 133
143 155 171 177 178 175 174 166 160 155 133 109 158 230 231 226 226
226 226 226 226 226 226 226 226 226 226 226 226 226 226 226 226 226
226 226 226 226 226 226 228 228 205 154 154 106 120 110 107 118 118
121 131 133 136 153 166 166 169 167 164 154 138 121 108 92 52 9
0 0 4 11 27 25 25 25 25 25 25 25 25 25 22 48 132
69 0 46 98 119 128 142 151 156 158 153 149 143 133 113 101 157
232 229 226 226 226 226 226 226 226 226 226 226 226 226 226 226 226
226 226 226 226 226 226 226 226 226 226 226 226 227 230 238 233 214
217 171 136 93 86 92 91 99 113 123 129 135 137 138 134 127 116
103 95 69 23 14 90 107 154 173 213 208 208 208 208 208 208 208
208 208 206 216 247 222 91 44 85 109 116 125 131 140 138 135 133
121 95 108 204 233 228 226 226 226 226 226 226 226 226 226 226 226
226 226 226 226 226 226 226 226 226 226 226 226 226 226 226 226 226
226 226 226 227 230 229 234 231 201 194 154 125 129 86 81 97 111
116 118 111 108 99 87 63 50 106 183 236 243 237 235 232 232 232
232 232 232 232 232 232 232 233 231 226 237 202 52 50 95 111 115
114 120 122 120 108 79 117 212 235 227 226 226 226 226 226 226 226
226 226 226 226 226 226 226 226 226 226 226 226 226 226 226 226 226
226 226 226 226 226 226 226 226 226 226 226 226 227 232 233 233 235
230 191 153 100 75 76 86 86 84 74 52 47 163 243 236 228 226
226 226 226 226 226 226 226 226 226 226 226 226 226 226 226 227 234
160 36 43 74 94 103 103 95 77 74 125 214 235 226 226 226 226
226 226 226 226 226 226 226 226 226 226 226 226 226 226 226 226 226
226 226 226 226 226 226 226 226 226 226 226 226 226 226 226 226 226
226 226 226 226 226 227 235 235 218 157 95 82 85 79 68 72 171
238 227 226 226 226 226 226 226 226 226 226 226 226 226 226 226 226
226 226 226 226 228 235 182 99 61 79 83 84 73 103 181 231 230
226 226 226 226 226 226 226 226 226 226 226 226 226 226 226 226 226
226 226 226 226 226 226 226 226 226 226 226 226 226 226 226 226 226
226 226 226 226 226 226 226 226 226 226 226 226 226 230 235 221 215
214 213 213 219 233 227 226 226 226 226 226 226 226 226 226 226 226
226 226 226 226 226 226 226 226 226 226 226 237 227 213 213 212 212
211 224 237 227 226 226 226 226 226 226 226 226 226 226 226 226 226
226 226 226 226 226 226 226 226 226 226 226 226 226 226 226 226 226
226 226 226 226 226 226 226 226 226 226 226 226 226 226 226 226 226
226 226 226 229 230 230 230 231 230 226 226 226 226 226 226 226 226
226 226 226 226 226 226 226 226 226 226 226 226 226 226 226 226 226
228 231 230 230 230 231 229 226 226 226 226 226 226 226 226 226 226
226 226 226 226 226 226 226 226
