P2
# Converted from P5 to P2 by convert_p5_to_p2.py
90 90
255
59 73 70 67 67 65 67 66 63 65 63 58 58 50 72 166 183
83 12 17 107 140 169 179 180 181 180 180 180 178 176 166 143 150
181 155 116 112 122 130 135 131 122 104 83 114 167 175 179 181 180
180 180 182 187 197 79 104 182 188 150 57 55 52 49 79 78 54
66 101 142 167 174 177 178 179 182 175 97 68 79 82 132 147 147
154 169 176 174 169 72 94 91 85 81 78 80 86 89 90 88 86
84 76 70 115 217 245 169 125 164 169 219 237 240 247 250 249 244
239 213 186 212 242 159 56 43 49 51 54 62 65 66 70 115 231
246 241 243 241 242 243 243 242 253 226 81 150 246 227 198 190 179
147 80 54 64 79 138 181 211 225 232 234 236 239 241 245 213 119
92 120 167 181 188 204 220 230 228 223 65 88 91 97 110 118 103
73 74 85 85 83 84 85 84 72 92 178 245 254 188 158 210 235
246 241 233 227 238 221 192 218 218 140 50 40 50 51 53 55 53
52 54 54 60 111 203 253 242 238 239 240 236 233 240 163 121 206
240 237 227 209 217 213 206 116 28 107 183 200 211 218 222 224 225
229 232 234 241 179 73 101 150 166 191 210 220 222 217 210 124 173
173 182 202 212 206 149 67 64 65 57 66 70 67 69 63 57 104
148 135 150 224 215 129 77 61 57 75 110 179 169 65 34 48 48
52 52 53 54 57 56 59 59 58 47 61 155 248 255 237 236 231
225 172 114 152 207 244 238 200 210 223 215 227 228 145 153 191 202
214 222 225 225 225 228 232 232 238 197 57 93 171 182 202 213 215
212 212 210 160 215 209 210 211 212 217 226 131 37 43 79 73 47
51 38 30 35 33 44 67 123 186 71 16 25 33 37 30 32 43
36 37 48 48 50 52 53 54 55 57 57 57 61 61 63 58 48
103 214 252 231 219 188 130 71 127 194 200 215 206 232 216 217 229
231 235 188 178 205 211 213 216 221 225 228 230 231 233 166 27 127
196 179 191 200 195 191 190 198 161 222 218 220 221 224 224 229 186
38 36 159 166 146 163 138 74 26 26 63 78 115 84 21 36 41
41 43 45 41 39 44 46 48 51 52 51 53 54 56 57 57 55
58 58 60 61 60 50 63 170 216 157 120 147 104 145 204 192 212
240 233 229 208 234 240 234 221 184 192 200 206 213 219 223 226 228
226 221 121 30 177 204 180 176 184 183 186 191 200 167 228 223 226
230 234 227 221 154 25 86 172 185 202 208 213 208 132 25 17 72
117 31 33 35 38 41 41 40 40 40 42 38 43 47 48 49 50
51 52 53 54 57 58 58 57 57 58 62 56 64 96 40 148 180
125 142 193 199 198 209 239 228 224 238 244 236 230 202 186 203 213
221 225 225 226 227 223 206 77 55 198 201 192 174 177 184 194 207
213 171 229 220 218 221 230 234 218 77 42 165 185 195 204 207 206
214 224 81 0 108 97 29 35 34 39 39 38 39 40 41 36 42
36 43 48 49 50 52 48 47 49 55 58 57 58 56 57 60 63
60 53 69 169 141 104 106 151 191 210 210 226 231 241 241 236 233
232 219 201 211 219 225 227 227 226 222 217 172 31 95 204 197 198
192 182 184 194 206 215 171 228 218 216 225 237 240 178 40 120 189
194 204 206 205 214 211 203 71 40 159 69 30 34 35 38 39 41
40 39 34 68 150 110 46 47 50 51 52 56 51 45 47 53 54
57 56 56 57 56 56 58 67 80 87 102 121 158 207 217 226 227
239 246 240 231 231 232 226 211 211 219 226 228 228 223 212 197 91
0 126 203 194 198 197 185 178 194 208 218 166 221 213 212 213 218
191 65 71 172 185 203 206 198 222 255 218 116 4 133 159 49 32
35 33 35 39 37 38 40 45 150 232 171 42 45 45 52 59 59
54 47 46 52 53 53 56 57 57 54 53 55 56 51 59 98 118
160 200 211 223 229 233 235 232 229 230 234 230 217 216 219 224 227
228 215 193 116 8 1 148 203 191 193 199 188 178 197 210 220 122
162 176 196 207 186 80 19 135 181 195 205 199 212 255 237 130 8
60 176 109 40 33 35 33 36 38 35 39 41 98 211 230 86 34
45 43 47 55 53 49 47 48 51 54 54 55 60 59 59 57 56
56 55 56 53 64 104 185 215 221 227 226 226 230 233 232 235 233
220 220 224 226 229 227 178 91 11 0 3 148 202 192 191 200 200
188 197 207 216 124 180 179 184 201 131 0 78 175 186 203 196 213
255 222 103 6 15 100 54 40 42 34 35 33 35 34 33 42 80
172 236 160 32 42 48 47 46 46 49 46 46 47 49 53 57 59
59 59 62 65 60 59 56 57 56 52 44 81 192 224 222 223 224
226 231 231 232 233 224 222 227 228 230 218 75 0 0 0 0 128
204 194 186 189 200 195 199 213 220 141 201 199 202 209 195 74 134
182 195 191 196 209 187 75 0 4 61 31 31 55 39 36 35 35
34 33 30 50 125 201 224 80 34 47 49 48 51 51 46 46 47
49 48 51 53 57 60 60 62 63 63 60 57 58 57 55 54 42
82 204 224 223 225 226 231 230 231 232 229 224 228 232 237 182 6
0 0 0 0 94 201 195 187 177 197 197 199 215 226 149 204 201
206 211 218 177 153 182 188 212 225 171 52 0 0 49 43 26 69
62 38 35 34 34 32 32 25 86 167 229 155 35 41 46 48 49
65 58 47 48 50 52 50 51 54 55 60 61 61 61 61 58 59
57 58 58 57 59 43 108 226 227 224 225 231 231 232 234 233 229
239 244 249 130 0 0 0 0 3 74 183 189 187 172 178 197 200
217 227 141 198 201 204 213 216 191 155 189 235 241 150 41 0 0
44 83 35 44 64 47 37 37 35 34 33 26 54 136 192 209 66
33 41 43 46 50 52 52 51 48 50 53 53 56 55 56 57 60
64 61 62 60 59 57 59 59 57 59 55 53 160 231 222 222 228
232 236 242 242 228 177 172 190 147 72 16 10 76 140 175 188 192
192 175 161 190 198 217 228 134 194 199 202 210 210 195 176 226 233
129 22 0 0 0 87 78 38 37 37 36 36 35 37 34 32 22
109 186 227 147 35 43 42 43 46 50 53 54 50 46 50 52 55
57 57 57 58 60 61 64 64 62 59 61 59 58 57 61 67 56
70 149 220 218 226 241 242 220 187 157 101 121 158 188 211 183 138
156 194 205 202 206 208 204 187 184 195 214 226 141 192 196 203 210
208 150 114 179 113 18 0 0 0 80 88 58 34 31 29 28 34
35 36 34 25 44 153 208 233 104 42 45 44 44 48 48 51 54
55 47 48 52 56 56 56 59 59 57 59 63 61 63 63 62 61
58 56 56 64 61 63 54 144 220 232 222 167 136 134 138 145 161
188 200 205 217 221 197 192 203 206 211 214 213 209 197 190 203 217
143 191 195 201 204 201 66 0 29 8 0 0 0 106 164 49 41
32 31 32 30 32 34 33 34 21 92 183 218 215 76 50 46 43
44 46 50 51 68 105 87 44 51 54 56 55 57 59 57 58 60
60 63 64 60 60 58 57 58 58 61 67 53 55 161 166 94 60
83 143 146 148 182 200 206 209 214 217 216 204 202 213 221 223 217
212 211 204 194 203 135 193 193 199 191 138 10 0 0 0 0 0
60 228 139 29 33 33 32 32 33 31 31 33 26 37 140 192 233
195 62 58 47 44 47 47 53 53 68 95 135 61 44 50 53 54
55 57 55 55 64 60 58 58 62 59 54 59 64 57 63 62 52
49 61 27 7 46 85 101 118 163 187 200 206 212 217 220 220 216
214 222 233 237 230 217 212 211 207 199 124 182 211 206 134 39 0
0 0 1 0 12 173 223 123 24 31 35 33 31 30 32 31 30
27 98 178 204 237 203 68 61 51 45 50 50 52 57 56 51 95
96 41 49 51 53 55 58 57 55 63 58 61 86 74 51 72 93
106 107 61 63 71 53 53 33 0 36 85 84 118 164 188 199 206
212 216 219 223 223 218 224 225 227 233 227 231 225 212 204 154 207
221 211 185 163 145 101 21 0 0 100 223 199 144 32 33 32 32
30 29 32 29 26 93 170 182 210 235 237 105 45 49 47 48 47
53 54 58 54 45 98 73 43 51 55 58 58 58 58 55 56 61
163 202 122 109 166 190 157 64 76 135 61 51 63 12 5 40 72
124 162 185 197 205 212 216 222 224 222 217 228 221 209 206 223 246
246 223 211 179 236 221 222 226 228 224 208 128 18 13 179 212 191
175 47 29 33 31 28 24 25 42 49 143 170 202 212 232 246 149
41 42 44 46 47 51 52 59 58 48 67 97 44 52 53 57 59
61 61 59 60 58 176 254 224 190 231 241 180 63 92 171 102 57
64 38 0 9 56 135 166 185 196 205 210 216 230 230 220 212 229
227 199 194 219 252 255 225 201 176 234 225 223 223 224 216 184 126
42 73 210 197 184 189 95 17 35 30 23 67 84 110 110 146 133
175 196 223 214 210 150 40 33 47 48 47 51 54 79 86 51 92
57 46 52 55 59 61 59 58 62 63 167 243 239 221 232 249 195
68 107 135 95 62 61 57 3 10 48 122 173 186 196 204 209 221
236 237 221 213 212 219 205 192 222 226 177 153 172 177 235 226 225
223 220 205 161 85 20 116 216 190 175 181 173 31 28 19 106 178
150 171 184 174 188 162 184 215 198 213 214 140 43 39 49 49 51
54 79 115 66 61 61 44 51 54 59 60 58 59 60 82 169 232
242 193 206 238 149 72 73 59 69 60 58 65 12 8 47 101 170
188 196 204 209 223 239 240 223 210 215 209 219 228 183 114 120 177
202 179 238 228 225 224 219 191 114 34 0 135 215 189 162 168 212
92 2 77 205 188 154 166 188 161 179 176 191 217 223 223 211 228
146 32 45 50 52 56 90 137 86 49 59 46 50 54 58 59 59
61 60 95 170 226 219 141 192 194 97 75 61 51 56 53 56 79
29 7 44 98 169 187 198 206 207 228 244 243 223 208 213 203 178
174 114 130 187 200 205 179 236 226 226 226 216 140 40 0 1 160
213 187 167 184 212 171 30 164 199 161 165 181 194 194 187 186 197
219 217 219 221 214 218 77 37 52 54 54 135 219 135 53 55 48
50 53 57 57 59 61 60 95 149 180 135 94 122 100 72 82 58
51 63 58 56 90 34 4 43 100 158 183 196 202 210 234 246 244
224 210 214 184 126 95 114 165 193 200 210 185 240 232 232 217 145
33 0 0 16 183 206 184 185 194 196 208 138 180 174 169 175 188
195 199 208 218 216 210 211 209 216 220 232 130 33 51 54 57 154
255 206 70 49 48 49 50 54 58 58 55 58 78 101 90 86 84
70 65 69 72 49 49 152 174 63 102 34 3 55 99 154 185 197
201 214 238 245 242 220 208 215 167 88 123 214 230 180 198 207 150
200 201 203 180 93 10 0 0 42 199 190 173 191 192 195 213 193
176 179 178 186 191 199 206 208 218 217 212 222 234 229 223 234 145
36 56 54 63 153 246 238 106 48 48 46 51 54 56 58 59 59
61 72 71 81 75 65 57 63 55 48 58 204 255 106 121 39 0
51 101 157 186 195 202 213 232 246 243 218 205 212 133 139 236 255
200 176 199 206 111 151 151 156 168 184 171 102 8 60 200 186 170
185 186 198 212 174 166 187 182 188 200 208 207 212 220 215 210 228
248 233 224 235 126 39 59 53 67 148 233 252 146 52 47 46 53
54 55 55 58 59 61 65 68 66 62 59 60 58 52 44 86 225
241 119 103 31 0 39 90 148 178 188 202 209 214 238 246 226 212
177 155 242 251 163 145 187 202 209 136 176 157 162 179 194 204 170
16 59 194 181 169 173 178 193 206 161 159 197 187 189 200 209 209
221 224 216 213 225 232 224 222 232 113 40 56 54 59 132 223 254
185 61 46 47 52 52 54 55 57 58 64 66 68 62 62 65 60
53 53 40 131 251 212 85 68 16 4 37 73 136 163 173 190 202
207 233 245 238 203 164 232 253 152 129 176 191 202 209 120 201 189
154 169 188 195 109 0 46 189 174 178 177 178 181 186 164 153 192
196 191 200 207 214 224 223 215 211 219 220 223 222 232 142 38 54
54 56 106 196 234 195 74 50 44 47 54 53 52 55 58 64 65
69 68 64 59 56 57 50 64 190 230 134 57 50 4 8 40 62
114 148 162 178 198 204 234 247 236 171 204 255 163 82 148 174 187
203 210 96 145 208 186 155 174 144 30 0 26 152 177 176 173 169
167 168 164 158 183 195 189 196 204 211 216 219 215 211 216 222 224
223 231 174 44 51 55 55 83 116 132 131 78 59 47 36 38 39
39 44 55 63 62 64 62 60 56 57 54 66 162 220 136 63 55
38 0 5 34 56 83 110 143 159 171 176 204 197 158 181 240 246
149 120 120 144 182 197 210 74 109 129 132 106 101 32 0 0 35
166 180 170 166 153 142 113 141 173 174 185 185 192 203 209 209 216
218 215 218 224 225 224 231 182 41 51 55 55 66 79 84 94 82
63 57 63 88 120 157 114 48 55 58 59 59 61 62 59 56 120
225 200 90 53 53 15 0 2 19 41 47 54 62 53 115 143 74
111 175 213 244 242 243 237 209 164 161 188 207 29 61 34 24 21
6 0 0 5 50 135 111 128 133 69 23 0 115 189 177 184 185
189 201 207 209 215 220 223 225 223 224 224 232 174 38 50 53 53
54 61 68 77 79 63 91 154 172 207 243 237 104 35 57 59 60
59 60 56 78 178 202 126 64 55 47 50 47 1 4 12 23 21
0 85 212 201 154 196 229 233 242 242 241 235 243 250 184 167 201
0 0 0 0 0 0 5 63 72 35 3 4 76 64 18 6 0
139 190 180 187 186 190 198 200 206 213 222 228 226 223 224 224 230
160 31 45 51 53 53 55 57 66 70 68 71 94 108 151 227 244
171 38 57 62 61 61 61 67 101 165 161 85 55 48 64 191 79
0 0 1 3 0 37 205 228 214 226 211 206 231 239 237 231 235
244 250 229 158 190 70 60 17 0 0 41 115 84 20 5 5 55
68 28 11 6 9 162 193 178 184 184 191 198 201 205 214 220 225
224 224 227 225 232 143 27 45 48 48 53 57 55 65 75 69 66
60 68 129 205 240 217 65 47 59 59 59 64 76 106 109 99 72
54 48 81 224 59 0 0 1 0 0 102 218 213 224 232 232 222
231 237 239 237 239 243 244 241 157 174 142 177 143 79 56 140 84
11 8 4 36 77 40 12 9 1 20 175 196 180 182 183 190 198
198 203 216 222 224 225 225 228 229 231 124 25 42 45 49 54 54
52 58 66 69 69 63 56 141 186 235 245 122 33 53 56 57 60
62 68 65 57 58 68 55 36 161 95 0 0 0 0 0 128 211
210 223 233 235 234 235 240 242 244 243 243 246 239 142 160 141 183
162 110 125 78 30 15 13 14 46 43 15 8 12 0 42 189 199
191 178 181 184 193 198 205 218 222 226 225 225 228 230 228 108 21
40 44 48 51 53 55 62 66 71 65 54 39 130 172 224 239 184
34 47 54 54 54 50 43 41 50 61 70 28 0 39 113 41 0
0 0 0 132 203 205 220 229 230 231 235 240 243 244 245 244 248
232 114 145 142 190 129 108 99 40 22 13 12 26 38 18 15 15
12 0 72 203 199 199 184 177 177 186 194 206 217 224 226 225 223
226 228 228 100 17 36 40 47 54 55 56 60 63 54 61 93 117
156 169 206 232 222 62 34 48 67 92 97 93 103 77 40 16 1
83 172 186 163 108 45 0 0 125 197 197 213 224 224 227 232 238
242 244 244 244 252 217 83 139 147 144 95 113 65 30 19 15 17
24 21 14 15 14 12 0 91 214 204 197 194 189 183 186 193 206
216 223 225 222 226 225 227 227 90 17 33 38 40 53 51 47 49
34 49 124 172 205 192 176 198 231 237 134 39 67 120 139 117 159
197 193 151 37 27 180 209 210 216 208 173 63 0 107 192 190 201
216 221 223 227 233 239 245 244 245 255 186 31 94 118 93 110 78
26 11 14 16 14 18 17 15 12 11 9 0 115 210 204 196 194
193 189 189 197 207 217 223 225 226 226 226 229 224 69 10 27 26
25 22 18 21 14 37 130 170 189 211 201 168 182 227 232 205 77
98 139 102 104 170 189 198 218 203 135 163 202 210 210 207 202 156
22 81 184 181 193 204 212 217 222 226 233 242 245 245 255 118 0
68 71 106 86 37 12 10 11 11 13 16 17 13 13 12 8 7
152 210 202 194 194 191 190 195 204 211 220 224 224 224 225 229 231
216 37 0 6 0 9 32 47 50 56 132 179 203 197 205 203 176
171 215 229 235 103 94 114 92 129 164 188 201 207 220 224 185 192
213 214 212 210 196 80 35 163 184 186 193 200 208 214 219 227 237
239 239 224 113 163 120 80 110 56 22 14 10 9 11 14 17 14
11 13 10 4 31 181 212 202 194 194 191 193 200 208 214 222 225
226 223 227 230 234 195 30 7 9 58 115 143 150 129 92 146 183
162 179 222 215 175 171 198 227 244 157 103 133 82 139 165 181 202
216 228 227 219 205 209 219 230 229 210 137 10 93 154 172 178 184
190 196 202 212 221 215 203 203 196 116 34 85 86 37 23 15 12
11 14 14 13 13 9 10 10 0 53 198 207 199 194 195 194 195
202 209 218 224 226 227 225 230 232 236 165 18 25 113 177 191 192
194 190 149 98 123 51 120 200 196 170 177 188 227 236 211 172 178
114 129 166 187 213 214 193 183 188 193 201 223 243 244 231 183 32
34 115 153 163 165 169 159 152 154 135 142 182 166 64 26 41 64
60 33 21 15 15 15 15 17 16 15 17 16 15 0 68 200 207
200 197 195 196 200 206 211 221 223 227 227 225 230 233 234 111 0
112 193 194 205 200 201 199 201 168 61 28 69 55 132 188 191 188
222 235 239 205 104 181 152 154 193 170 106 79 104 165 182 185 194
224 248 244 211 67 2 84 127 131 125 122 103 95 74 60 99 96
59 33 40 43 40 36 25 22 19 15 15 16 16 17 17 18 16
14 0 73 199 206 199 197 196 198 203 207 211 220 222 226 227 225
230 237 213 37 44 178 191 197 206 207 209 207 217 230 99 60 5
37 168 192 192 198 220 238 241 227 153 182 160 143 184 71 39 70
128 174 196 203 201 194 224 246 219 100 0 43 88 87 84 71 57
51 46 58 47 26 35 43 42 44 27 33 28 26 24 16 13 13
16 19 19 15 13 11 0 78 198 203 198 196 195 200 206 208 215
222 223 226 226 226 229 243 157 2 124 189 192 200 202 205 211 215
210 181 198 175 15 75 192 197 201 199 219 237 236 238 215 153 184
178 116 44 73 113 163 186 203 212 213 209 202 223 223 117 0 17
54 59 56 40 25 27 41 37 32 39 43 45 46 45 25 37 35
28 26 21 13 11 15 22 21 14 13 14 2 85 200 201 199 195
195 200 209 212 218 224 225 226 226 226 232 238 76 19 170 194 195
189 180 183 194 205 191 70 128 228 178 89 158 211 202 204 215 235
233 228 215 178 207 205 127 77 127 145 162 182 200 208 212 217 211
206 209 102 0 7 32 42 39 23 18 31 34 34 40 42 43 43
47 48 23 30 30 32 27 25 22 16 19 28 22 13 15 16 1
93 203 203 198 196 197 203 209 214 220 225 225 226 226 226 236 215
23 51 193 198 196 191 184 186 194 201 219 210 71 71 169 180 189
195 177 219 224 225 237 187 157 209 221 136 47 130 143 137 164 192
207 211 215 217 218 214 202 67 0 0 14 26 20 10 25 30 35
42 41 40 39 40 43 47 21 29 24 31 29 30 28 19 19 28
19 17 16 10 1 110 203 204 195 196 197 200 209 217 221 223 223
227 227 227 234 169 7 121 203 202 201 197 196 194 186 174 169 176
176 133 154 162 147 199 208 197 192 204 218 169 189 187 139 111 45
116 134 141 176 195 206 214 221 225 221 220 203 43 0 0 0 4
4 28 35 32 36 42 42 40 40 40 41 60 21 28 27 26 28
29 28 19 16 21 19 15 12 4 2 129 204 204 196 197 197 202
211 219 222 222 224 226 226 225 221 100 17 172 206 199 192 187 191
193 183 168 161 162 185 204 201 189 189 194 200 196 118 33 104 143
156 168 186 198 199 192 198 200 199 201 203 214 222 232 227 218 213
53 0 1 0 0 23 43 35 36 38 43 43 44 43 39 40 99
23 22 20 20 22 26 24 18 17 18 19 14 8 1 8 142 206
203 197 197 198 206 213 220 223 222 226 225 224 221 188 39 44 185
210 189 176 181 188 188 185 183 184 189 189 195 197 196 201 202 200
210 214 109 84 143 155 182 202 209 207 209 207 208 206 203 202 210
221 230 229 218 218 77 0 0 0 10 45 34 36 39 40 42 50
49 45 38 86 184 23 20 19 19 19 24 22 20 17 16 17 12
7 0 18 152 206 201 195 196 200 206 213 220 223 221 224 224 222
210 143 7 77 188 198 176 174 180 183 178 170 172 178 181 185 193
196 205 204 201 207 213 216 194 124 150 166 181 194 205 210 212 213
212 219 221 217 209 218 229 227 222 224 94 0 0 2 31 32 30
36 39 41 42 47 52 45 61 178 242 23 23 22 18 13 18 22
19 17 14 13 9 5 0 38 169 203 199 195 195 201 208 214 220
221 219 223 222 214 190 98 0 101 178 174 168 174 175 173 171 169
175 181 184 193 191 193 202 199 198 213 239 237 216 138 138 167 181
187 202 209 209 228 243 244 246 240 217 213 225 223 220 223 100 0
0 21 33 26 30 36 42 43 42 45 47 52 112 221 250 23 25
23 21 13 5 18 21 17 7 0 0 0 0 61 180 202 200 196
197 202 208 215 221 220 218 219 217 203 164 57 2 112 162 160 169
175 171 172 168 171 176 177 184 194 193 196 195 197 202 221 246 249
246 156 140 165 167 178 195 205 207 222 246 247 244 234 212 209 220
217 214 218 101 0 7 30 27 27 30 36 46 46 44 47 43 73
179 240 239 25 26 24 27 21 5 4 10 9 13 37 57 85 25
77 181 199 198 197 200 204 207 214 218 218 218 214 207 188 142 38
9 117 155 162 171 171 175 171 168 171 169 175 183 190 189 193 193
197 216 228 240 244 250 168 131 153 157 171 184 197 205 216 229 234
226 211 205 206 213 216 212 216 95 0 15 25 27 34 36 37 46
50 47 48 47 83 202 247 188 25 24 21 26 24 5 0 25 70
57 34 76 44 4 107 184 198 197 196 200 205 208 214 215 213 213
211 198 178 128 29 14 114 153 169 175 175 175 169 166 167 168 177
183 184 180 186 198 206 217 219 217 226 238 191 128 141 148 158 175
189 189 196 203 211 210 204 205 204 207 210 208 215 80 0 15 17
24 34 41 40 45 49 47 51 54 121 210 203 85 21 26 22 21
14 8 68 52 40 94 61 87 33 2 132 187 198 198 196 199 206
209 214 213 208 209 206 190 171 122 26 15 107 147 161 174 175 175
173 168 166 165 174 178 175 170 187 195 199 200 202 202 209 214 190
132 132 144 155 170 182 186 185 189 198 205 203 202 201 204 204 205
209 61 0 11 16 25 33 38 41 49 49 49 51 71 159 204 129
42 17 25 23 21 4 50 74 23 106 100 54 82 24 15 152 191
200 198 197 202 207 211 212 212 207 207 200 183 169 119 19 13 101
142 147 152 156 168 171 168 165 163 166 170 165 162 183 189 193 195
195 197 199 197 176 137 133 151 158 165 176 179 182 189 197 200 199
199 195 198 201 206 203 44 0 13 19 28 33 37 45 51 48 48
50 91 167 155 71 42 13 18 13 8 37 75 2 68 79 115 87
45 10 35 157 195 202 197 195 204 208 210 213 210 201 204 194 176
162 113 12 3 86 132 137 130 123 141 153 155 155 155 158 160 157
158 172 183 187 189 186 184 186 184 163 140 133 148 151 156 169 171
176 183 191 194 195 196 190 195 201 207 187 27 0 13 20 27 31
38 45 46 48 50 50 98 160 135 61 40 23 25 14 12 54 30
7 118 71 120 153 91 20 40 167 193 202 197 197 205 208 210 212
208 201 202 191 173 163 113 10 0 64 125 134 119 104 109 130 135
131 138 144 143 149 156 162 175 183 189 183 181 183 177 162 147 141
154 152 158 165 168 173 180 186 185 191 194 187 194 199 206 161 8
0 12 22 28 33 38 44 46 46 51 53 84 143 108 46 40 23
27 21 19 17 17 12 88 65 91 139 128 60 50 178 194 199 193
197 206 208 211 212 203 203 204 190 176 170 116 8 0 42 117 138
122 100 92 113 116 114 118 129 136 141 149 156 169 183 183 177 177
181 169 156 150 151 158 152 157 162 165 172 175 182 183 188 192 189
194 197 208 139 0 0 17 26 28 33 37 42 43 44 49 53 76
103 58 37 39 10 18 19 16 8 26 21 32 54 110 141 142 81
92 175 193 201 194 198 207 209 211 210 200 198 199 190 176 173 110
2 0 22 93 133 131 115 97 117 117 105 106 125 135 133 140 150
162 176 183 180 179 174 158 140 142 152 159 157 161 159 159 172 175
180 181 185 190 189 191 194 206 124 0 2 13 27 32 36 40 41
40 42 48 51 58 63 51 37 30 3 10 12 10 2 8 16 16
44 75 92 68 33 119 178 192 201 198 201 207 210 214 209 197 196
197 190 178 174 96 0 0 4 62 109 134 130 113 124 128 101 103
131 147 135 131 139 154 171 179 181 181 173 149 126 131 147 159 158
162 161 160 169 176 177 175 178 187 185 189 193 212 107 0 2 10
29 34 33 41 44 43 39 43 48 49 52 53 41 27 3 4 1
0 1 8 15 23 30 45 56 26 0 103 190 193 201 198 201 207
211 214 209 197 195 195 189 182 176 79 0 0 0 34 75 113 139
129 123 129 102 102 136 151 139 125 127 140 165 173 176 177 171 143
112 122 135 153 158 161 161 161 168 167 170 177 176 182 187 193 199
213 89 0 1 8 29 33 33 36 41 43 42 44 47 43 46 48
36 26 2 0 0 0 3 12 17 16 50 65 14 15 8 131 189
192 202 198 202 208 210 212 211 197 196 199 191 185 176 60 0 0
0 13 62 80 121 143 126 133 121 104 132 148 144 127 119 134 156
172 174 175 164 131 101 114 123 134 144 150 153 157 165 165 172 177
178 184 188 196 204 215 83 0 1 2 20 31 34 34 36 39 42
43 45 43 44 40 33 24 19 22 11 0 0 2 5 7 44 36
35 70 34 153 185 191 203 200 205 209 211 212 208 196 198 203 195
188 169 42 0 0 0 0 46 70 92 133 120 118 131 104 117 148
149 143 126 122 138 158 168 168 157 116 92 106 112 129 130 129 145
154 161 170 175 179 180 189 192 196 203 216 87 0 4 5 4 29
38 37 38 39 40 41 42 42 41 37 29 20 32 57 57 33 6
0 0 4 1 0 21 39 31 170 184 190 200 199 205 209 212 211
204 199 204 207 199 194 159 23 0 0 0 0 25 63 83 115 117
104 122 116 100 132 148 150 135 117 128 146 158 168 168 128 99 105
119 141 143 132 139 145 155 162 174 182 182 191 193 196 200 213 96
0 3 10 0 8 33 44 43 39 38 37 39 36 31 26 23 20
34 65 95 82 47 24 3 0 1 1 1 0 42 189 182 189 194
200 207 210 212 213 206 203 211 207 200 199 140 4 0 1 1 0
11 53 85 115 127 103 118 127 99 105 137 150 140 125 117 142 157
170 173 145 114 103 119 147 150 154 155 148 151 161 169 175 183 191
192 196 199 210 91 0 11 36 15 0 4 24 41 42 39 34 30
25 21 24 27 22 40 56 77 81 56 49 31 3 0 0 2 0
64 202 182 190 193 199 207 210 212 217 212 209 213 209 200 202 110
0 0 0 1 0 6 38 76 108 118 115 120 129 100 85 119 143
139 123 113 130 154 169 171 144 109 112 119 140 148 162 167 165 164
168 173 177 184 188 196 197 199 211 81 0 16 68 57 5 0 0
5 10 17 20 25 22 21 24 26 24 89 97 74 63 50 30 26
6 0 0 1 0 94 205 181 190 197 200 206 210 212 210 201 204
212 211 206 200 67 0 0 0 1 1 1 36 68 106 117 111 119
131 100 82 110 135 141 129 111 114 143 161 156 122 92 113 123 134
143 158 164 168 171 173 180 182 184 190 202 198 201 205 63 0 2
48 100 78 0 0 0 5 21 23 27 26 25 21 22 29 85 98
89 82 75 62 53 51 48 45 44 25 134 203 178 190 196 202 204
208 212 211 204 206 213 211 211 177 23 0 1 1 2 1 2 37
64 92 111 104 123 122 91 81 99 128 143 132 115 113 140 155 145
111 84 101 123 136 149 160 164 172 177 179 184 186 185 193 201 197
201 194 38 0 0 7 46 115 13 0 5 15 24 29 29 28 25
24 22 24 128 163 144 123 103 91 81 78 74 65 57 50 166 195
172 189 195 198 206 210 212 210 205 211 214 211 214 129 0 0 0
0 1 3 2 25 57 79 90 91 114 120 87 98 105 134 144 127
112 120 137 150 146 103 82 92 115 133 147 157 165 171 174 175 181
185 185 192 198 195 200 173 14 0 0 0 0 13 8 1 12 22
29 36 34 30 27 21 21 24 158 205 187 170 153 129 106 87 74
68 59 70 182 184 172 189 195 202 209 212 212 210 208 214 216 215
213 79 0 0 0 0 2 6 5 14 46 73 87 92 110 128 101
103 121 142 147 129 119 125 141 152 136 99 91 96 106 119 134 147
157 164 172 175 179 180 178 189 195 191 204 129 0 0 0 0 0
0 0 3 18 25 40 38 32 29 27 20 21 28 168 219 205 193
181 163 144 122 87 67 48 91 185 169 177 187 191 204 211 212 212
211 213 218 218 220 196 31 0 0 0 1 3 6 6 11 35 70
94 88 106 125 103 99 124 140 153 136 128 136 150 152 124 87 84
91 87 98 110 118 137 156 169 173 176 177 178 193 194 190 185 65
0 0 0 0 0 0 0 2 17 29 40 38 35 28 23 20 26
32 170 222 211 203 190 179 166 147 104 69 43 116 183 165 179 183
190 204 212 213 213 211 216 220 218 223 163 3 0 0 1 2 5
5 8 12 24 52 81 87 102 125 105 96 125 143 154 145 133 133
146 151 131 87 65 75 68 71 84 91 119 147 161 167 175 176 184
197 191 194 131 3 8 12 9 1 0 0 0 0 13 25 31 32
30 27 26 26 31 34 171 223 212 210 201 189 175 155 122 82 55
142 175 165 186 184 190 203 213 216 212 212 217 220 219 229 109 0
0 2 1 3 5 7 8 9 16 40 64 72 95 124 113 89 115
140 160 156 138 133 143 145 135 93 55 58 61 68 82 96 114 137
153 163 172 177 185 192 198 168 40 31 58 57 57 42 27 7 0
0 2 18 28 26 28 30 31 32 34 38 173 228 219 217 213 197
182 164 128 73 64 158 164 166 186 183 190 203 212 216 213 212 216
219 223 217 47 0 0 2 3 2 4 7 6 8 11 29 53 63
89 111 111 86 98 128 161 161 142 138 146 140 127 82 53 54 57
64 87 101 112 143 164 171 176 179 187 198 187 53 4 50 77 98
105 95 70 51 34 15 1 0 14 26 28 31 32 36 37 38 186
248 241 237 221 200 183 154 107 54 70 159 155 167 178 180 190 205
213 216 216 214 218 223 232 173 5 0 0 1 2 2 4 5 7
8 7 18 44 57 81 106 110 85 82 108 142 154 142 134 134 136
108 65 39 37 46 55 67 83 109 148 164 181 181 181 196 200 84
0 27 49 86 143 176 165 121 82 68 64 48 25 8 7 21 32
35 38 39 39 189 253 245 243 222 199 177 126 71 23 53 133 136
161 167 173 186 206 213 215 216 217 222 224 233 94 0 0 1 0
2 3 4 3 4 6 6 7 26 52 70 107 120 83 70 88 111
119 110 120 123 119 90 58 32 28 33 39 49 61 74 112 151 183
183 177 168 76 0 78 76 35 103 177 198 216 212 162 114 94 84
82 62 30 20 25 33 37 38 38 180 239 229 225 214 191 140 70
27 0 21 82 85 117 134 146 170 196 208 210 211 217 221 230 193
17 0 0 0 0 1 1 2 3 3 4 5 4 10 34 59 101
119 86 66 70 82 84 85 100 106 105 79 41 19 21 29 32 33
44 47 63 93 113 123 157 156 104 150 145 89 49 107 153 185 229
250 249 225 197 189 189 182 147 94 36 24 27 32 35 176 232 219
211 198 175 153 148 155 162 169 186 187 186 187 181 181 191 197 192
197 209 215 211 73 0 0 0 0 0 0 0 0 1 1 1 3
5 4 15 35 73 109 89 59 59 64 70 75 79 89 85 48 7
5 12 20 25 25 22 16 15 10 3 129 253 255 255 240 140 96
65 80 121 179 223 244 251 251 249 252 250 253 250 171 122 70 32
23 25 175 230 213 206 206 211 223 230 230 230 228 225 228 228 226
226 223 221 219 212 208 208 211 181 82 78 75 62 44 22 1 0
0 0 0 0 2 4 10 6 11 35 70 62 37 46 53 61 67
75 69 37 6 0 1 6 12 14 15 14 7 1 0 1 106 218
205 193 112 105 94 64 76 106 143 191 222 230 235 235 235 245 249
252 155 108 109 69 44 26 169 218 205 217 223 225 223 223 223 222
221 221 220 221 220 221 222 222 222 221 223 221 220 219 226 228 227
221 215 201 171 130 74 23 0 0 0 0 2 4 1 8 19 21
12 24 40 57 65 62 39 7 0 1 1 0 3 6 7 5 2
2 0 0 5 14 15 33 0 5 31 39 74 94 101 119 161 182
197 207 202 221 239 247 207 96 59 56 58 54 159 190 208 224 225
227 227 227 225 223 221 221 222 222 223 223 224 223 222 221 221 221
222 221 222 222 222 222 224 226 231 234 227 199 159 119 62 7 0
0 0 0 0 5 1 3 21 46 54 34 8 0 3 0 0 0
1 0 0 0 0 0 0 0 0 0 0 9 34 42 46 52 55
52 56 50 51 58 66 74 80 94 115 127 125 93 50 34 37 47
97 116 217 227 229 229 230 229 227 225 223 223 223 224 225 226 225
224 225 224 223 223 223 223 223 223 222 222 223 224 223 222 222 226
232 233 224 185 110 37 0 0 0 0 0 5 17 29 25 15 14
13 13 9 1 1 0 0 0 0 0 0 0 0 0 13 33 59
60 53 50 47 47 47 50 50 51 47 44 39 40 38 36 35 40
49 65 109 92 55 10 104 229 231 232 232 233 233 231 228 227 225
226 226 225 227 226 225 225 225 224 223 226 226 224 221 223 228 234
234 232 232 231 230 228 225 225 234 236 219 145 22 9 23 28 34
33 39 45 45 48 57 59 56 51 46 38 31 26 17 13 13 15
26 37 32 39 50 49 45 44 41 40 44 34 30 41 41 45 46
52 50 47 51 56 58 114 202 191 158 31 176 200 227 229 230 231
231 230 228 226 225 226 225 226 225 227 227 223 223 224 225 230 230
234 240 242 240 234 229 228 233 235 233 235 237 235 231 234 243 243
85 14 23 25 35 39 47 50 52 52 54 59 61 63 61 61 61
56 52 48 48 67 111 147 138 65 42 55 50 47 44 42 45 47
64 36 41 43 46 51 49 48 53 64 102 176 188 196 200 122 179
175 225 227 227 228 227 225 225 223 222 223 223 223 225 227 228 222
222 228 235 228 233 230 221 211 203 201 204 209 215 218 218 220 222
221 218 218 216 211 186 168 146 93 43 26 30 53 63 62 55 56
62 60 56 54 49 46 46 50 60 87 136 170 216 170 59 35 44
47 47 48 50 77 163 65 44 51 55 58 57 57 60 78 143 207
205 203 229 104 164 203 222 225 225 226 227 225 225 223 223 223 223
224 225 224 226 222 221 219 221 217 209 193 194 203 209 215 216 220
224 225 227 230 228 221 219 221 225 225 233 237 241 243 223 182 100
40 51 64 70 70 66 65 61 57 51 53 58 79 94 134 202 183
181 211 129 30 38 43 43 45 43 148 133 47 48 44 46 52 57
58 72 94 160 222 209 234 224
