P2
# Converted from P5 to P2 by convert_p5_to_p2.py
90 90
255
0 0 4 3 4 5 4 6 5 6 6 5 6 6 6 6 7
6 6 7 6 6 5 5 4 4 4 4 5 5 4 3 2 4
4 5 4 4 5 5 4 4 4 4 4 4 3 1 1 3 4
4 4 4 4 3 3 3 3 3 3 3 3 3 3 3 3 3
3 4 3 4 4 3 3 3 3 4 3 4 4 3 4 4 4
3 2 1 1 3 1 1 5 7 6 4 5 7 6 7 6 7
7 6 6 8 6 6 5 6 7 7 7 7 7 7 6 6 7
7 6 6 6 6 7 6 6 7 6 6 6 7 6 7 6 6
7 5 6 7 8 7 7 6 6 6 5 6 6 5 6 6 6
5 6 7 5 5 6 6 6 7 6 6 7 6 6 7 8 8
7 5 4 4 4 6 8 7 7 7 3 6 6 6 7 7 6
6 6 6 6 5 6 7 6 5 7 6 6 7 7 6 6 7
7 6 7 6 6 5 6 5 6 6 6 5 6 6 6 7 6
6 6 6 6 5 6 6 6 6 6 5 7 6 6 7 6 6
7 6 6 6 7 7 7 7 7 7 7 7 7 7 8 7 8
9 9 8 5 5 13 29 41 50 47 20 5 7 7 7 3 5
8 7 6 6 7 6 6 6 6 6 5 6 6 5 6 8 7
6 7 6 5 6 6 6 7 6 6 6 6 5 6 6 6 6
6 6 6 6 5 6 6 5 6 6 6 6 6 6 5 6 6
5 7 6 5 6 7 6 6 7 7 8 7 6 7 7 7 9
8 7 8 8 8 8 6 6 24 51 75 87 91 89 89 83 20
4 7 6 3 5 7 6 6 5 6 6 6 6 6 7 5 5
6 6 7 7 6 5 6 6 5 6 6 6 6 6 6 6 7
6 6 6 6 6 6 6 6 6 6 6 6 6 5 6 6 6
6 6 6 6 6 5 7 7 6 6 6 6 6 7 7 6 7
7 6 6 7 7 8 8 8 8 5 5 27 60 88 99 101 99
98 95 82 88 53 2 8 6 2 5 5 6 6 6 5 7 6
6 6 6 7 6 5 6 6 6 6 6 6 6 6 5 5 6
7 6 6 6 7 7 6 6 7 6 6 6 7 6 6 6 6
6 6 6 6 6 6 6 6 6 6 5 5 6 6 6 6 7
7 7 8 6 6 7 7 6 7 6 7 9 6 3 23 63 94
107 110 112 112 110 105 96 92 86 56 3 6 5 3 4 6 6
6 5 5 5 6 7 6 6 6 6 6 6 5 6 6 6 6
6 6 6 6 6 6 6 6 6 6 5 6 6 6 5 6 6
7 5 6 7 6 5 6 6 6 6 6 5 7 7 6 6 6
6 5 7 7 6 6 6 7 7 7 7 7 8 7 7 6 3
13 51 93 113 120 121 118 116 119 120 109 99 90 87 48 3 6
6 3 4 5 7 5 5 5 5 6 6 6 6 5 7 5 6
6 6 6 6 6 6 6 6 6 6 5 6 6 6 6 5 6
6 6 6 6 6 7 7 6 5 6 6 6 6 5 6 5 5
5 6 7 6 5 5 6 6 7 6 6 6 6 7 7 7 8
9 8 4 6 37 84 114 121 112 92 74 60 54 71 108 115 99
87 82 34 2 6 5 2 4 6 6 4 5 7 6 6 6 6
6 6 6 6 6 6 6 6 6 6 7 6 6 6 6 6 6
7 7 6 6 6 7 6 7 7 6 6 6 7 6 6 6 5
6 6 6 6 6 5 6 6 6 6 6 6 7 6 6 7 7
7 8 7 7 8 7 3 20 68 109 120 106 79 72 82 95 101
76 31 67 114 98 85 74 16 4 6 4 3 5 6 5 6 6
7 6 6 6 6 6 6 6 6 7 6 6 6 6 6 6 6
6 6 6 6 6 7 7 6 6 6 6 6 7 6 7 6 6
5 7 6 6 7 6 7 6 6 6 6 6 6 6 6 6 5
7 6 6 6 6 8 8 7 8 4 7 45 95 121 108 84 82
104 126 134 134 138 142 72 47 110 94 84 53 4 5 6 4 3
5 5 5 5 5 6 5 6 6 6 6 6 6 6 6 5 7
6 6 6 6 7 5 6 7 5 6 7 7 6 7 6 7 6
6 6 7 7 6 6 6 6 7 6 7 6 7 6 6 6 6
6 6 6 6 6 6 6 6 7 7 6 7 7 3 18 72 116
113 87 89 113 130 132 128 126 125 127 138 99 50 106 88 78 26
3 5 6 5 2 5 6 5 6 6 6 6 6 6 6 6 6
7 6 6 6 7 6 6 7 6 6 5 5 6 6 6 6 5
6 7 6 6 7 6 6 6 7 7 6 5 7 7 6 7 6
7 7 5 6 6 5 6 6 6 6 6 6 6 6 6 7 5
4 37 94 119 98 86 107 131 129 122 121 121 123 125 125 135 93
63 104 85 60 7 5 6 7 6 3 5 6 6 6 5 6 6
6 7 6 6 6 6 6 6 6 7 6 6 6 6 6 6 6
6 6 7 7 6 6 7 6 6 6 6 7 7 7 6 6 6
6 7 7 7 7 7 7 6 6 6 6 6 6 6 6 6 6
6 7 7 3 13 62 112 110 88 102 125 125 121 119 118 117 117
117 124 125 134 78 79 96 79 29 2 6 6 6 5 3 4 6
6 6 5 6 5 6 6 6 7 7 6 6 6 7 6 6 5
6 6 6 8 6 6 6 7 7 6 7 7 7 6 7 7 8
7 6 7 7 6 7 7 8 7 7 6 6 8 7 6 7 6
6 7 7 6 6 6 7 4 24 86 119 96 92 120 128 118 115
112 113 113 113 118 117 122 127 125 64 94 88 57 5 5 6 6
6 5 2 5 6 6 6 6 6 6 6 5 6 6 6 7 6
5 6 7 7 5 6 6 7 7 6 6 6 7 6 7 7 7
7 7 7 7 7 6 7 6 6 8 8 7 7 6 5 6 7
7 7 7 6 6 6 6 7 7 6 6 2 31 103 110 92 107
127 121 114 110 108 105 103 103 107 114 118 122 132 101 70 97 76
23 2 5 6 7 5 6 3 4 6 6 6 6 5 6 7 6
5 6 6 6 6 6 6 6 6 5 6 7 6 5 6 6 6
6 7 7 7 7 7 7 7 7 6 7 8 7 6 6 7 10
13 16 16 15 12 9 7 5 6 7 6 7 6 6 5 6 1
44 104 94 121 126 115 109 106 102 98 99 98 97 103 113 117 124
131 77 90 89 49 3 5 6 5 6 5 4 3 4 5 6 6
6 6 7 6 7 6 6 6 6 6 6 5 5 6 6 6 7
8 6 6 6 6 6 7 6 7 7 7 7 7 7 7 8 6
8 15 27 37 46 53 60 61 57 53 48 37 23 12 6 6 6
6 6 6 6 2 19 102 126 120 112 106 96 80 64 58 62 88
98 102 113 119 129 109 74 98 70 14 3 7 6 4 6 6 4
2 5 6 6 6 7 6 6 6 7 8 6 6 5 5 5 6
6 6 6 5 6 6 6 7 7 6 7 7 7 7 7 7 7
7 7 6 9 20 37 52 68 76 77 83 87 86 83 81 83 79
69 54 34 15 6 6 7 7 5 4 13 110 118 108 94 71 47
33 30 29 33 65 98 103 115 122 129 79 91 87 33 1 6 6
5 5 6 6 6 3 5 6 6 6 6 6 6 6 6 7 6
6 5 6 6 6 6 6 6 6 5 6 5 7 6 7 6 6
6 7 9 7 7 5 6 17 39 57 65 76 87 92 93 97 99
97 96 97 98 94 88 82 72 53 28 9 6 7 7 6 3 85
106 75 44 29 28 29 32 32 29 62 98 107 118 129 106 79 98
58 5 5 7 6 5 6 5 5 5 3 5 6 6 7 6 6
6 6 7 6 5 6 6 6 5 6 6 7 6 6 6 6 6
7 6 5 7 7 7 6 7 8 6 9 30 51 67 74 83 96
101 102 105 107 107 105 108 111 108 103 100 96 86 75 65 43 15
6 6 6 2 49 56 30 27 27 26 26 28 31 31 71 101 112
122 125 81 97 77 17 3 5 6 6 6 5 4 5 5 2 4
6 5 5 7 6 6 6 7 5 6 6 6 6 5 6 6 6
6 6 6 7 6 6 6 6 6 6 7 7 7 6 14 40 59
71 81 88 101 108 109 111 114 115 114 114 120 122 116 112 110 105
96 88 81 72 53 19 5 8 4 15 28 24 22 19 20 23 27
30 36 84 106 118 130 95 85 94 36 1 6 6 6 5 6 6
5 5 5 3 4 6 5 5 6 6 5 6 6 6 6 7 6
6 6 5 5 6 6 6 7 6 6 7 7 7 6 8 7 8
6 17 47 65 75 86 92 104 114 116 117 120 122 122 122 127 130
128 123 121 118 112 103 98 94 86 77 55 20 5 5 11 18 12
9 9 16 21 28 29 54 98 113 126 115 81 100 55 5 5 6
6 6 5 5 5 6 5 6 3 5 6 6 6 7 6 7 7
6 5 7 6 5 6 6 6 6 6 6 6 7 7 7 7 7
8 7 7 8 5 18 51 67 80 91 96 106 119 121 122 125 126
127 127 131 137 136 130 129 128 124 116 111 108 103 97 90 77 58
16 5 6 7 4 4 4 11 23 28 33 80 108 120 126 84 99
74 12 3 6 8 6 5 6 6 5 6 5 6 2 4 6 6
5 6 6 6 6 5 6 6 5 6 6 6 6 6 6 6 6
7 6 6 7 7 8 7 8 6 15 50 69 80 93 100 108 122
125 126 127 131 131 131 136 143 143 139 135 134 132 127 122 119 116
111 105 96 87 81 51 10 5 6 5 6 6 12 24 28 53 101
115 127 97 89 93 27 1 6 6 6 6 6 6 6 6 6 5
4 3 4 6 6 6 5 6 6 5 6 6 6 6 6 6 6
5 5 6 6 6 6 6 7 6 7 7 7 5 10 47 69 82
95 101 111 124 129 130 131 134 137 135 139 148 150 145 142 142 139
135 131 127 125 123 117 112 100 99 93 82 39 6 6 6 6 6
16 26 34 85 112 124 112 85 100 42 2 6 6 6 5 6 5
5 5 7 6 5 4 3 4 6 6 5 6 6 6 6 5 6
6 6 5 6 6 6 6 7 6 6 7 7 8 7 7 7 6
6 38 68 82 95 102 112 126 131 132 133 136 138 138 142 152 154
150 146 146 145 141 137 134 132 131 127 123 113 108 108 104 95 69
19 4 7 6 8 21 27 62 106 120 122 86 101 62 4 5 8
7 4 5 6 7 6 6 6 6 5 4 2 4 5 6 6 5
5 5 6 6 6 6 7 6 6 6 6 6 5 6 5 7 6
8 7 7 7 4 28 66 82 95 102 115 128 131 133 135 139 139
140 144 154 160 154 149 149 148 147 143 140 137 138 134 130 124 115
118 118 117 105 87 47 7 7 6 15 25 43 96 116 127 94 98
78 13 4 5 6 7 6 6 6 6 6 6 5 5 6 5 3
4 6 6 6 4 5 6 6 6 6 6 6 6 5 6 7 6
6 6 6 6 6 7 7 8 6 15 59 81 94 102 116 129 133
134 136 140 142 143 145 156 163 161 155 152 153 152 149 145 143 143
142 138 132 122 124 126 128 126 111 95 72 24 5 9 22 32 79
113 127 104 92 93 23 2 7 5 6 6 6 6 5 6 5 5
6 5 6 5 3 4 6 6 6 5 7 6 6 6 6 6 6
6 5 7 6 6 7 6 7 6 7 7 7 7 7 43 78 91
101 115 130 134 135 138 141 144 147 147 157 165 165 157 155 156 155
153 151 148 148 148 143 140 129 128 131 134 137 129 116 102 85 47
6 16 26 61 108 125 114 89 100 38 1 5 5 6 6 7 6
5 6 7 6 6 6 6 5 6 2 4 5 5 7 6 7 6
6 5 5 6 6 6 6 7 6 6 7 6 7 6 7 7 8
4 22 69 87 101 118 129 134 137 138 143 146 146 149 159 169 169
161 157 158 159 156 155 153 152 153 148 145 136 130 136 139 145 142
130 120 108 94 68 19 22 44 99 122 124 89 104 52 2 5 5
6 6 6 7 6 6 5 5 6 6 6 6 6 4 3 4 5
5 6 5 6 6 6 6 5 5 6 6 6 6 6 6 6 6
7 6 6 6 6 7 49 84 101 118 129 133 136 139 144 146 147
149 161 171 170 164 160 160 161 160 158 155 155 156 154 150 142 134
139 143 150 152 141 133 125 112 103 71 31 33 86 119 127 95 102
69 7 3 7 6 6 5 6 5 5 5 6 5 6 6 6 6
5 6 3 4 4 5 5 5 6 5 5 6 6 6 7 5 5
6 7 6 6 6 7 7 7 7 4 24 80 102 116 126 131 135
139 144 147 148 150 162 172 173 166 162 163 164 163 160 159 158 159
158 155 147 138 142 148 152 159 154 143 136 128 119 102 59 36 73
115 127 102 99 83 12 2 6 8 6 6 6 7 6 5 6 6
6 5 6 5 5 6 6 2 4 5 5 5 6 5 6 5 6
6 5 5 6 6 6 7 6 6 6 7 6 6 7 5 54 98
111 121 128 133 137 143 146 147 151 163 174 174 168 163 164 166 167
163 161 161 162 161 159 153 141 143 151 155 162 161 152 146 138 131
124 81 44 60 109 127 109 94 94 22 1 5 5 6 5 6 6
6 7 6 5 5 6 6 6 6 6 5 6 3 4 6 5 5
5 6 6 5 6 6 4 5 6 6 6 7 6 6 6 7 6
7 4 18 80 105 116 125 131 136 141 145 148 152 165 173 174 171
167 165 168 169 167 163 163 165 164 161 158 146 145 153 158 167 167
160 153 148 140 137 104 55 52 101 125 116 93 100 32 0 6 7
6 5 6 6 6 6 6 5 6 6 6 6 6 6 6 5 6
3 4 4 6 5 4 5 5 5 6 6 5 6 6 5 6 6
6 6 6 6 6 7 2 39 96 109 120 128 136 141 145 147 154
165 174 173 171 168 168 172 171 166 164 165 167 167 163 161 149 146
155 160 168 173 165 159 154 148 145 124 70 47 92 125 122 94 104
46 1 6 6 6 7 6 4 5 6 6 6 6 6 7 6 6
6 6 6 5 5 2 4 5 6 6 5 4 5 6 7 6 6
5 6 5 5 6 6 6 6 6 6 7 6 65 105 115 126 132
139 144 148 154 166 173 173 176 174 168 171 173 169 165 165 168 169
166 161 153 148 156 161 169 176 173 165 161 156 152 140 83 48 83
121 129 108 105 56 3 6 7 6 6 6 5 6 5 6 6 5
6 6 6 5 6 5 6 6 6 5 3 4 4 6 6 5 6
6 5 7 6 6 6 5 6 6 6 6 6 7 6 6 4 18
90 112 122 131 135 140 146 154 166 172 173 173 176 171 171 171 170
168 167 169 171 169 165 155 150 158 164 172 180 176 170 167 162 157
151 100 50 74 119 129 121 116 67 5 5 6 6 6 6 6 6
6 6 6 6 6 6 6 6 6 6 6 5 5 6 5 3 4
5 6 6 6 6 5 5 5 5 6 5 5 6 6 6 6 6
6 7 8 1 37 105 116 125 132 137 143 154 165 171 170 175 176
178 175 172 169 169 170 172 172 171 168 157 152 159 165 172 182 183
173 172 170 164 161 116 56 65 114 129 127 123 96 19 3 7 6
6 6 6 5 6 6 6 7 6 6 6 5 6 7 6 6 6
5 6 6 2 4 6 6 6 6 6 5 5 6 6 6 5 6
6 6 6 5 6 6 6 6 2 59 111 118 127 133 143 154 163
169 166 171 176 173 175 172 171 171 169 172 174 171 169 159 153 161
167 173 183 185 179 175 173 169 166 130 63 59 111 128 130 125 111
77 20 5 6 7 6 7 6 6 7 6 6 6 5 6 6 6
6 6 6 6 6 6 6 6 3 4 6 6 6 4 5 6 6
6 6 6 6 7 6 6 5 6 6 6 7 5 7 75 111 120
130 141 153 162 166 165 163 175 179 172 171 172 171 172 173 174 173
170 162 155 162 169 176 185 188 182 178 176 172 172 142 73 56 105
127 131 128 117 103 83 27 3 6 6 6 6 6 6 6 7 6
6 6 6 7 5 6 6 6 6 6 7 6 6 3 4 4 5
6 6 5 5 6 5 6 6 6 6 6 6 6 6 5 6 6
4 15 88 115 127 139 150 158 162 162 163 166 172 174 171 170 172
171 174 176 173 172 161 155 163 170 176 187 189 185 182 180 175 175
152 83 53 101 127 133 130 118 114 107 90 30 3 6 7 7 6
6 5 6 6 6 6 5 6 7 6 5 6 6 5 5 6 6
6 2 4 5 5 5 5 7 6 6 6 6 6 5 6 6 6
6 5 6 6 6 3 25 102 122 135 146 153 155 158 162 164 167
168 169 170 170 172 175 176 174 170 163 155 163 172 179 189 192 186
184 183 179 178 162 92 53 96 127 134 133 121 122 121 111 90 31
4 7 7 6 6 6 6 6 6 6 5 7 7 6 6 6 5
5 7 6 5 6 5 3 4 6 6 7 6 6 6 5 5 6
6 4 6 6 6 6 6 6 6 7 1 36 112 126 138 146 150
153 159 162 164 166 166 169 170 172 174 175 173 171 162 157 164 172
181 191 194 189 186 186 182 181 169 104 54 89 125 135 135 123 126
130 124 114 88 29 4 7 7 6 6 6 6 6 6 6 5 6
6 6 6 6 6 6 7 6 6 6 8 3 4 4 5 6 6
7 6 5 6 6 6 5 5 6 5 6 6 6 6 6 0 44
115 125 137 145 152 157 161 162 163 166 166 169 172 175 175 173 170
161 157 166 172 181 191 194 192 187 188 184 185 175 109 54 86 124
134 137 124 128 138 132 129 111 87 28 5 7 6 6 5 7 7
6 6 6 6 5 7 6 6 6 6 6 7 6 6 6 6 2
4 6 5 5 7 5 6 6 6 6 6 6 6 5 6 6 6
7 5 6 1 49 116 126 140 146 153 158 160 162 163 164 167 172
175 173 173 170 160 158 167 174 182 191 195 193 189 191 187 185 178
116 53 82 123 133 139 126 129 142 139 137 127 108 86 26 4 7
6 6 6 7 6 5 6 6 6 5 6 6 6 6 6 7 6
6 5 6 6 3 4 5 5 5 5 6 5 5 6 5 6 6
6 6 6 6 6 6 6 7 0 53 121 130 140 146 151 155 158
161 162 165 170 173 172 171 169 158 158 168 175 184 194 195 193 192
192 190 188 180 117 54 81 122 135 140 126 132 147 145 143 139 123
108 83 20 5 7 6 6 5 6 6 6 6 6 6 6 6 6
5 6 6 6 6 5 6 7 5 3 5 5 7 6 4 5 5
6 6 6 6 5 5 6 6 6 5 6 6 7 0 55 123 131
138 144 149 152 157 160 163 169 170 170 170 167 157 159 168 174 185
191 188 193 193 192 190 190 185 122 54 77 121 135 142 128 132 149
148 148 147 134 120 110 77 13 6 7 6 6 6 7 6 5 6
6 6 6 6 5 6 6 6 6 6 6 5 6 5 2 4 6
5 5 6 6 6 5 6 6 6 6 6 6 6 5 6 6 6
6 0 53 117 126 135 142 148 152 157 162 166 168 168 168 164 156
160 169 175 185 195 188 183 186 192 193 191 184 124 56 76 119 134
142 127 134 152 153 152 151 144 131 121 108 68 9 6 7 6 6
6 6 6 6 6 6 6 6 6 6 6 7 5 6 6 6 6
6 5 3 5 5 5 5 6 6 5 6 6 5 5 5 6 6
5 5 6 6 5 7 1 48 113 123 133 141 146 153 159 162 164
166 167 160 154 162 170 176 187 195 195 186 184 184 185 193 187 123
56 75 120 134 144 128 134 154 156 155 157 151 139 130 120 105 58
6 7 7 6 7 7 5 6 6 6 6 6 7 6 5 4 7
6 6 6 6 6 6 6 3 5 6 5 5 5 6 5 6 6
5 5 5 6 6 6 5 6 6 7 7 1 43 113 124 132 141
148 155 159 161 164 163 156 154 163 170 177 187 195 194 192 185 185
185 188 187 124 56 75 119 134 144 130 135 156 158 157 159 156 145
137 130 119 102 46 3 7 7 6 7 6 6 6 6 7 6 6
6 5 10 12 5 6 6 6 6 6 5 5 2 4 7 6 5
6 6 5 6 6 5 6 6 6 6 6 6 6 6 6 6 0
35 111 123 133 142 149 153 157 162 159 151 154 164 170 177 190 195
195 193 192 185 185 188 187 121 54 78 120 134 144 129 137 158 160
159 161 160 151 142 137 129 116 95 29 4 7 6 7 6 6 6
5 6 6 6 7 5 3 18 24 3 7 6 6 6 5 6 7
3 4 5 6 5 5 5 7 5 6 6 5 6 7 6 7 6
6 6 7 6 3 51 108 123 134 142 148 153 156 153 148 155 163
170 178 191 190 185 186 191 193 185 190 184 119 52 78 120 134 145
129 137 158 161 162 162 164 157 147 142 138 127 112 81 14 5 6
7 6 6 6 6 6 6 7 7 7 6 6 5 4 5 6 6
6 7 5 5 6 3 4 4 5 6 6 5 6 5 6 6 6
5 6 7 6 6 6 6 7 2 45 101 102 121 132 141 148 150
144 147 156 164 170 180 186 187 185 185 184 184 188 192 179 106 50
83 120 133 145 128 139 161 163 163 165 165 159 151 147 143 135 123
107 59 5 6 6 7 6 5 6 6 6 6 6 7 7 7 6
5 6 6 6 6 6 6 6 5 6 2 4 5 5 6 7 6
6 5 5 5 6 6 6 6 7 6 5 6 1 30 100 94 103
123 134 139 138 140 146 156 162 170 180 186 185 185 185 185 185 185
192 172 97 50 84 121 133 145 129 138 161 163 164 167 168 163 153
149 147 142 131 117 100 36 2 7 7 6 6 6 7 6 5 6
6 6 5 6 6 6 6 6 5 5 5 6 6 6 5 3 5
6 6 5 6 6 6 5 6 6 5 6 6 6 6 5 6 1
23 95 95 106 107 116 125 131 136 147 155 161 170 182 185 185 185
185 185 184 186 192 163 85 49 90 122 134 145 128 141 163 165 165
168 171 166 156 151 149 146 138 126 114 83 15 4 6 6 7 6
5 5 7 6 7 6 6 6 6 5 6 6 6 5 6 6 6
6 6 5 3 4 6 7 6 7 7 5 5 6 6 6 6 7
6 6 7 2 14 88 98 103 123 105 110 123 135 145 152 160 170
179 183 183 182 184 185 185 188 191 152 74 50 96 124 134 144 127
144 164 166 166 169 171 167 159 155 152 149 142 133 121 108 54 4
7 6 6 7 6 6 6 6 6 7 5 6 6 6 6 6 6
5 6 6 6 6 6 6 6 2 4 5 6 6 5 5 5 7
6 6 6 6 6 5 6 4 9 74 100 97 125 112 86 110 129
140 148 159 169 177 178 178 179 183 183 183 188 183 133 65 53 99
123 136 143 127 143 164 166 168 171 173 169 160 157 154 152 146 137
129 117 91 24 3 7 6 6 6 5 6 6 5 6 6 6 6
7 6 6 6 6 6 6 6 6 6 6 5 6 3 4 6 6
6 4 5 6 6 6 5 6 6 6 7 5 3 61 104 93 125
119 88 36 97 133 145 157 166 169 171 173 175 179 182 181 186 172
115 53 57 106 123 139 141 126 146 164 167 168 171 174 170 163 158
156 156 149 141 132 124 108 58 6 6 7 6 6 6 6 6 6
6 6 6 6 5 6 6 6 7 6 7 6 6 6 5 5 6
6 3 5 6 6 7 6 6 6 6 5 6 6 6 5 6 1
45 102 89 119 120 100 50 16 67 136 147 155 160 164 167 171 175
178 178 180 158 99 49 65 109 124 140 139 126 146 165 166 169 172
173 169 162 159 158 156 152 144 136 129 117 89 24 3 6 7 6
6 6 6 6 6 6 6 5 6 5 6 6 6 6 6 6 6
6 6 5 5 7 5 2 5 6 6 6 5 6 6 6 6 6
7 7 6 1 30 99 90 112 123 108 64 27 11 23 117 138 146
153 159 165 168 171 174 173 139 80 44 74 113 125 141 136 124 150
164 166 169 172 173 170 163 160 159 159 155 147 140 133 123 102 51
5 6 5 6 6 6 6 6 6 6 6 6 6 6 6 6 5
6 6 5 6 6 6 6 6 6 7 6 3 4 6 6 6 7
5 6 6 6 6 6 6 3 17 88 94 101 128 112 82 33 22
8 1 78 133 140 149 155 160 164 169 159 119 66 43 84 114 124
140 134 125 152 165 166 169 173 174 171 163 161 161 161 155 149 141
136 127 110 75 17 3 7 6 7 6 6 5 6 6 5 6 6
6 6 6 5 6 5 6 6 5 5 6 6 5 5 5 6 3
5 6 6 6 7 6 6 6 6 6 6 3 8 73 99 92 126
116 96 46 25 15 6 1 27 116 134 142 149 157 157 134 92 50
50 95 114 124 141 131 127 153 165 166 169 172 173 170 162 160 162
162 157 149 142 139 130 115 89 35 3 6 8 7 6 6 6 6
6 6 7 5 6 6 6 5 6 6 5 7 6 6 6 7 6
5 5 6 5 2 5 6 6 6 6 6 6 6 5 5 6 3
53 102 85 121 116 105 65 28 22 9 6 6 0 71 129 136 147
138 106 68 39 57 105 114 126 141 128 128 155 164 164 167 171 173
168 163 161 162 163 157 151 144 139 132 118 96 54 7 5 6 7
6 6 6 6 6 5 6 6 6 5 6 6 6 7 6 6 6
6 5 6 6 6 6 6 6 6 3 5 6 5 7 6 5 6
7 7 6 2 36 98 86 108 117 104 87 37 27 16 7 7 6
2 18 103 119 104 79 48 36 72 111 114 126 139 126 130 154 162
163 167 171 171 167 162 161 162 162 156 150 145 140 134 121 100 64
14 5 7 6 6 6 6 6 6 5 5 5 5 7 6 6 6
6 7 7 7 7 5 6 6 6 6 6 7 6 6 3 4 5
5 5 6 6 6 6 6 3 19 86 93 96 124 105 99 56 28
24 12 5 7 7 7 2 27 63 52 34 43 89 116 116 127 136
122 132 156 159 162 166 169 167 163 161 159 162 159 155 150 144 140
134 121 102 73 21 4 7 7 6 6 5 6 6 6 6 5 5
6 7 6 6 6 5 6 6 5 5 7 5 6 6 6 6 6
7 6 2 5 6 6 6 6 6 5 5 5 7 66 98 83 122
115 105 82 35 27 23 12 5 5 5 6 9 14 27 29 57 101
120 122 130 134 121 133 154 157 161 165 167 164 161 160 159 160 158
154 148 145 140 134 122 104 76 27 3 7 6 6 6 6 6 6
5 6 6 6 6 5 6 6 6 6 6 6 6 5 6 6 6
6 6 5 6 6 6 6 3 5 6 6 7 6 7 7 7 2
46 100 81 110 121 108 99 57 29 28 22 16 10 9 12 17 24
26 40 79 111 121 127 130 128 119 135 151 154 159 164 163 159 155
156 156 157 156 151 147 143 140 133 120 102 75 27 3 6 6 5
6 6 6 5 6 6 7 6 6 6 5 6 7 6 6 6 6
6 7 6 6 5 6 6 6 5 7 6 6 3 5 7 6 6
5 6 8 3 25 88 88 89 127 111 105 87 41 31 27 23 21
20 22 25 25 31 56 94 114 123 127 126 124 117 133 146 150 156
159 159 153 151 151 153 154 151 148 145 141 137 132 118 99 70 23
3 7 6 6 6 7 6 6 5 6 6 6 6 5 6 7 6
6 6 6 5 6 5 6 6 6 6 6 6 5 6 7 6 6
2 4 6 6 6 6 6 5 11 69 96 76 119 120 109 101 72
32 32 28 28 27 27 28 29 45 79 107 116 124 109 110 124 115
125 138 144 149 151 150 147 146 147 149 150 148 144 141 138 133 126
113 93 57 17 2 7 7 7 7 7 6 7 6 6 6 6 6
5 6 6 7 6 6 6 6 6 6 7 6 6 6 5 6 6
6 5 5 6 5 3 5 6 6 6 6 6 4 47 95 79 99
127 115 106 97 63 32 33 32 31 29 30 41 70 99 112 116 123
101 97 107 69 95 129 135 137 138 138 140 141 143 145 145 143 139
136 133 129 121 105 78 38 7 5 7 6 7 7 7 7 6 6
6 6 5 7 7 7 7 6 6 7 7 6 5 6 6 5 6
6 6 5 6 6 6 6 4 5 5 3 4 6 6 6 6 2
26 83 91 78 125 119 114 103 98 65 37 31 31 33 44 68 93
109 112 118 118 95 102 105 47 0 17 67 106 122 127 131 133 136
137 136 135 133 130 127 123 111 84 49 17 2 5 7 7 5 6
7 7 6 6 6 6 6 5 7 7 6 6 6 6 6 6 6
6 6 6 5 6 6 6 6 6 5 6 4 5 5 6 2 4
6 6 6 5 9 64 96 72 103 128 116 111 100 98 88 62 56
63 77 95 108 114 114 119 108 91 111 94 28 1 5 2 0 17
54 90 111 122 126 127 127 124 120 114 101 73 40 15 4 4 6
7 7 7 6 6 6 6 6 6 6 5 6 7 6 6 6 5
6 6 5 6 6 6 5 6 6 6 6 6 6 6 6 5 6
6 6 6 3 5 7 5 6 3 39 86 89 75 126 122 115 110
101 97 98 97 96 101 106 112 116 120 116 98 95 114 77 17 1
5 6 6 6 2 0 8 25 43 56 65 66 60 51 38 21 7
2 4 7 7 7 7 7 6 6 6 6 5 6 6 6 6 6
6 6 6 6 6 6 6 6 6 6 6 6 7 6 6 6 6
6 6 6 6 6 6 6 5 3 5 6 6 4 19 73 95 73
98 129 119 112 111 106 102 101 104 108 112 115 120 126 108 90 105
108 55 7 2 6 6 6 7 6 6 6 4 2 0 0 1 2
1 0 1 3 5 5 6 8 6 6 6 6 6 6 6 7 6
6 6 6 6 6 5 5 6 6 6 6 6 6 6 6 6 6
6 6 6 6 4 5 6 6 6 6 6 6 5 2 5 6 6
4 50 85 94 65 120 123 113 110 114 110 110 111 113 115 119 125
122 96 90 114 96 35 1 4 7 6 6 6 6 6 6 5 6
6 7 6 5 6 6 7 6 6 5 6 7 7 7 6 6 5
6 6 5 6 6 6 6 6 6 7 6 5 6 6 6 6 7
6 6 6 6 7 5 6 6 6 5 5 6 6 6 7 6 5
5 3 5 7 3 23 74 92 79 73 129 115 112 112 108 108 115
117 117 124 128 107 87 101 114 72 17 1 6 5 5 5 6 6
6 6 6 6 6 6 6 6 6 6 7 7 6 6 6 6 7
6 7 6 7 6 6 6 6 6 6 5 6 6 7 6 6 7
6 6 6 6 5 6 6 5 6 6 6 6 6 6 6 6 6
7 6 6 6 7 7 3 5 5 6 53 81 100 65 87 129 120
118 114 106 113 121 125 128 117 87 88 114 104 49 6 4 5 6
5 6 6 6 6 6 6 6 5 6 7 5 6 6 6 6 5
6 6 6 7 7 6 6 6 7 7 6 6 6 7 6 6 6
6 6 6 6 5 6 7 6 6 5 5 5 5 6 6 6 6
6 6 6 5 5 5 6 6 6 5 5 3 6 3 23 74 85
103 53 94 130 122 118 120 123 128 130 117 90 84 104 115 81 28
2 5 8 6 5 6 6 6 6 6 5 5 7 6 6 6 6
6 6 6 6 5 7 7 6 5 7 7 6 5 6 7 6 6
7 7 6 6 6 6 6 6 6 6 5 6 6 5 6 6 6
5 6 6 5 6 6 6 6 6 6 5 5 6 5 4 4 3
6 4 49 80 91 106 47 73 135 129 129 131 128 111 85 78 98
117 103 54 10 2 5 6 6 6 6 6 6 6 6 5 6 6
6 7 6 6 6 6 6 7 6 6 7 7 6 6 6 6 6
6 5 6 7 7 6 5 5 6 6 5 6 6 7 6 5 5
6 6 6 5 6 6 5 6 5 6 6 6 6 5 5 6 5
5 6 6 3 2 3 13 67 81 95 110 63 35 84 106 102 90
76 74 93 116 113 80 31 2 4 6 7 6 6 6 6 6 6
6 6 5 6 6 6 6 6 6 6 6 7 7 6 6 6 7
6 6 6 6 6 6 5 6 6 6 5 6 6 6 6 6 5
6 3 3 7 6 6 6 6 6 6 6 6 6 5 6 5 6
6 7 6 5 5 4 5 4 5 2 0 30 77 84 96 111 102
62 46 55 65 80 100 116 114 92 50 11 2 8 6 6 6 6
6 6 6 6 6 6 5 5 6 6 7 6 5 6 7 5 7
7 7 6 6 6 6 6 7 6 6 7 6 6 5 6 6 5
6 6 6 6 7 2 31 33 2 7 6 6 6 6 5 6 7
6 6 6 5 5 6 6 6 5 6 5 5 5 6 2 0 47
80 86 96 105 115 113 108 109 115 117 112 99 68 24 2 3 6
7 6 6 6 6 6 7 6 6 5 6 6 6 6 6 6 7
6 6 5 6 6 5 7 6 6 7 6 6 7 6 6 6 6
5 5 6 7 5 6 6 6 6 6 2 24 27 2 6 6 6
5 5 5 6 7 7 6 7 5 5 4 6 5 4 5 5 6
6 5 3 3 56 80 87 93 100 105 110 111 110 105 97 73 34
7 2 6 6 7 5 6 6 5 6 6 7 5 6 6 6 6
6 6 6 5 6 6 5 5 6 6 6 7 6 6 6 6 6
6 6 6 5 6 6 6 5 6 7 6 6 7 5 5 6 2
2 7 6 5 6 6 5 5 5 5 6 7 6 5 6 6 6
4 5 5 5 7 7 5 3 2 54 81 80 92 95 98 98 98
92 73 36 9 2 6 7 6 7 6 5 5 6 5 6 6 6
6 5 6 6 6 6 6 6 7 6 6 7 6 6 5 6 6
7 7 6 6 6 6 5 6 6 6 6 6 6 6 6 5 6
6 6 6 6 7 6 7 5 6 6 6 6 5 6 6 6 5
6 6 4 5 6 5 6 6 5 6 7 5 3 3 26 81 81
84 88 87 79 60 34 11 2 4 5 6 6 6 6 6 6 6
6 5 6 6 6 6 6 6 6 6 5 7 6 6 6 6 5
6 6 6 5 6 6 6 6 7 8 6 6 5 6 6 6 6
6 7 6 6 6 5 6 6 7 6 6 6 4 6 7 6 6
5 6 6 5 5 7 6 6 7 5 6 6 6 5 5 6 4
2 5 5 26 54 55 47 34 19 5 2 5 7 6 6 6 6
6 6 6 6 6 6 6 6 6 6 5 6 6 6 6 6 6
6 6 6 6 5 6 6 6 6 6 7 6 6 7 7 6 6
6 5 6 6 6 7 7 6 6 6 5 6 6 6 7 6 6
5 6 5 5 5 6 7 5 4 7 6 6 6 5 5 6 5
6 6 5 5 4 2 4 7 4 3 5 3 2 4 6 6 5
7 6 6 5 7 6 5 6 7 6 6 6 6 6 7 5 6
6 6 6 6 6 6 5 6 6 6 6 6 7 6 6 5 5
5 6 6 6 6 6 6 6 6 6 5 7 6 6 6 4 5
6 6 6 6 6 6 6 6 6 6 6 6 6 5 6 6 5
6 5 7 5 4 4 5 7 6 5 3 4 6 6 6 6 6
6 6 7 5 5 7 6 5 5 6 5 5 6 5 6 6 7
7 6 7 7 5 6 5 6 5 6 6 6 6 6 7 6 5
7 6 7 7 6 6 6 6 6 7 6 6 7 7 6 6 7
7 7 6 6 6 7 6 6 7 6 5 6 7 6 6 5 5
6 7 5 7 6 5 5 6 5 6 5 6 6 4 5 3 4
6 6 5 4 6 6 7 6 5 6 7 6 5 5 5 6 6
6 4 6 6 7 7 6 6 6 6 7 7 6 6 6 6 6
6 5 6 7 6 6 6 6 7 6 6 5 6 5 6 6 6
6 7 6 6 7 6 6 6 6 6 6 6 6 6 6 6 6
6 5 5 7 6 6 6 5 6 6 5 5 4 4 6 5 6
6 5 5 2 3 7 6 6 6 6 6 5 6 6 6 6 6
5 6 5 5 6 6 6 6 6 6 7 6 5 6 6 5 6
6 5 5 6 6 6 5 5 6 6 6 5 5 6 6 6 5
7 6 6 6 6 6 6 6 7 6 7 6 7 6 6 6 6
6 6 6 6 6 6 5 5 5 5 6 4 5 6 5 5 6
5 5 5 6 6 6 6 6
