P2
90 90
255
0 0 0 0 0 0 0 0 0 0 0 0 0 0 0 0 0 0 0 0 0 0 0 0 0 0 0 0 0 0 0 0 0 0 0 0 0 0 0 0 0 0 0 0 0 0 0 0 0 0 0 0 0 0 0 0 0 0 0 0 0 0 0 0 0 0 0 0 0 0 0 0 0 0 0 0 0 0 0 0 0 0 0 0 0 0 0 0 0 0
0 0 0 0 0 0 0 0 0 0 0 0 0 0 0 0 0 0 0 0 0 0 0 0 0 0 0 0 0 0 0 0 0 0 0 0 0 0 0 0 0 0 0 0 0 0 0 0 0 0 0 0 0 0 0 0 0 0 0 0 0 0 0 0 0 0 0 0 0 0 0 0 0 0 0 0 0 0 0 0 0 0 0 0 0 0 0 0 0 0
0 0 0 0 0 0 0 0 0 0 0 0 0 0 0 0 0 0 0 0 0 0 0 0 0 0 0 0 0 0 0 0 0 0 0 0 0 0 0 0 0 0 0 0 0 0 0 0 0 0 0 0 0 0 0 0 0 0 0 0 0 0 0 0 0 0 0 0 0 0 0 0 0 0 0 0 0 0 0 0 0 0 0 0 0 0 0 0 0 0
0 0 0 0 0 0 0 0 0 0 0 0 0 0 0 0 0 0 0 0 0 0 0 0 0 0 0 0 0 0 0 0 0 0 0 0 0 0 0 0 0 0 0 0 0 0 0 0 0 0 0 0 0 0 0 0 0 0 0 0 0 0 0 0 0 0 0 0 0 0 0 0 0 0 0 0 0 0 0 0 0 0 0 0 0 0 0 0 0 0
0 0 0 0 0 0 0 0 0 0 0 0 0 0 0 0 0 0 0 0 0 0 0 0 0 0 0 0 0 0 0 0 0 0 0 0 0 0 0 0 0 0 0 0 0 0 0 0 0 0 0 0 0 0 0 0 0 0 0 0 0 0 0 0 0 0 0 0 0 0 0 0 0 0 0 0 0 0 0 0 0 0 0 0 0 0 0 0 0 0
0 0 0 0 0 0 0 0 0 0 0 0 0 0 0 0 0 0 0 0 0 0 0 0 0 0 0 0 0 0 0 0 0 0 0 0 0 0 0 0 0 0 0 0 0 0 0 0 0 0 0 0 0 0 0 0 0 0 0 0 0 0 0 0 0 0 0 0 0 0 0 0 0 0 0 0 0 0 0 0 0 0 0 0 0 0 0 0 0 0
0 0 0 0 0 0 0 0 0 0 0 0 0 0 0 0 0 0 0 0 0 0 0 0 0 0 0 0 0 0 0 0 0 0 0 0 0 0 0 0 0 0 0 0 0 0 0 0 0 0 0 0 0 0 0 0 0 0 0 0 0 0 0 0 0 0 0 0 0 0 0 0 0 0 0 0 0 0 0 0 0 0 0 0 0 0 0 0 0 0
0 0 0 0 0 0 0 0 0 0 0 0 0 0 0 0 0 0 0 0 0 0 0 0 0 0 0 0 0 0 0 0 0 0 0 0 0 0 0 0 0 0 0 0 0 0 0 0 0 0 0 0 0 0 0 0 0 0 0 0 0 0 0 0 0 0 0 0 0 0 0 0 0 0 0 0 0 0 0 0 0 0 0 0 0 0 0 0 0 0
0 0 0 0 0 0 0 0 0 0 0 0 0 0 0 0 0 0 0 0 0 0 0 0 0 0 0 0 0 0 0 0 0 0 0 0 0 0 0 0 0 0 0 0 0 0 0 0 0 0 0 0 0 0 0 0 0 0 0 0 0 0 0 0 0 0 0 0 0 0 0 0 0 0 0 0 0 0 0 0 0 0 0 0 0 0 0 0 0 0
0 0 0 0 0 0 0 0 0 0 0 0 0 0 0 0 0 0 0 0 0 0 0 0 0 0 0 0 0 0 0 0 0 0 0 0 0 0 0 0 0 0 0 0 0 0 0 0 0 0 0 0 0 0 0 0 0 0 0 0 0 0 0 0 0 0 0 0 0 0 0 0 0 0 0 0 0 0 0 0 0 0 0 0 0 0 0 0 0 0
0 0 0 0 0 0 0 0 0 0 0 0 0 0 0 0 0 0 0 0 0 0 0 0 0 0 0 0 0 0 0 0 0 0 0 0 0 0 0 0 0 0 0 0 0 0 0 0 0 0 0 0 0 0 0 0 0 0 0 0 0 0 0 0 0 0 0 0 0 0 0 0 0 0 0 0 0 0 0 0 0 0 0 0 0 0 0 0 0 0
0 0 0 0 0 0 0 0 0 0 0 0 0 0 0 0 0 0 0 0 0 0 0 0 0 0 0 0 0 0 0 0 0 0 0 0 0 0 0 0 0 0 0 0 0 0 0 0 0 0 0 0 0 0 0 0 0 0 0 0 0 0 0 0 0 0 0 0 0 0 0 0 0 0 0 0 0 0 0 0 0 0 0 0 0 0 0 0 0 0
0 0 0 0 0 0 0 0 0 0 0 0 0 0 0 0 0 0 0 0 0 0 0 0 0 0 0 0 0 0 0 0 0 0 0 0 0 0 0 0 0 0 0 0 0 0 0 0 0 0 0 0 0 0 0 0 0 0 0 0 0 0 0 0 0 0 0 0 0 0 0 0 0 0 0 0 0 0 0 0 0 0 0 0 0 0 0 0 0 0
0 0 0 0 0 0 0 0 0 0 0 0 0 0 0 0 0 0 0 0 0 0 0 0 0 0 0 0 0 0 0 0 0 0 0 0 0 0 0 0 0 0 0 0 0 0 0 0 0 0 0 0 0 0 0 0 0 0 0 0 0 0 0 0 0 0 0 0 0 0 0 0 0 0 0 0 0 0 0 0 0 0 0 0 0 0 0 0 0 0
0 0 0 0 0 0 0 0 0 0 0 0 0 0 0 0 0 0 0 0 0 0 0 0 0 0 0 0 0 0 0 0 0 0 0 0 0 0 0 0 0 0 0 0 0 0 0 0 0 0 0 0 0 0 0 0 0 0 0 0 0 0 0 0 0 0 0 0 0 0 0 0 0 0 0 0 0 0 0 0 0 0 0 0 0 0 0 0 0 0
0 0 0 0 0 0 0 0 0 0 0 0 0 0 0 0 0 0 0 0 0 0 0 0 0 0 0 0 0 0 0 0 0 0 0 0 0 0 0 0 0 0 0 0 0 0 0 0 0 0 0 0 0 0 0 0 0 0 0 0 0 0 0 0 0 0 0 0 0 0 0 0 0 0 0 0 0 0 0 0 0 0 0 0 0 0 0 0 0 0
0 0 0 0 0 0 0 0 0 0 0 0 0 0 0 0 0 0 0 0 0 0 0 0 0 0 0 0 0 0 0 0 0 0 0 0 0 0 0 0 0 0 0 0 0 0 0 0 0 0 0 0 0 0 0 0 0 0 0 0 0 0 0 0 0 0 0 0 0 0 0 0 0 0 0 0 0 0 0 0 0 0 0 0 0 0 0 0 0 0
0 0 0 0 0 0 0 0 0 0 0 0 0 0 0 0 0 0 0 0 0 0 0 0 0 0 0 0 0 0 0 0 0 0 0 0 0 0 0 0 0 0 0 0 0 0 0 0 0 0 0 0 0 0 0 0 0 0 0 0 0 0 0 0 0 0 0 0 0 0 0 0 0 0 0 0 0 0 0 0 0 0 0 0 0 0 0 0 0 0
0 0 0 0 0 0 0 0 0 0 0 0 0 0 0 0 0 0 0 0 0 0 0 0 0 0 0 0 0 0 0 0 0 0 0 0 0 0 0 0 0 0 0 0 0 0 0 0 0 0 0 0 0 0 0 0 0 0 0 0 0 0 0 0 0 0 0 0 0 0 0 0 0 0 0 0 0 0 0 0 0 0 0 0 0 0 0 0 0 0
0 0 0 0 0 0 0 0 0 0 0 0 0 0 0 0 0 0 0 0 0 0 0 0 0 0 0 0 0 0 0 0 0 0 0 0 0 0 0 0 0 0 0 0 0 0 0 0 0 0 0 0 0 0 0 0 0 0 0 0 0 0 0 0 0 0 0 0 0 0 0 0 0 0 0 0 0 0 0 0 0 0 0 0 0 0 0 0 0 0
0 0 0 0 0 0 0 0 0 0 0 0 0 0 0 0 0 0 0 0 0 0 0 0 0 0 0 0 0 0 0 0 0 0 0 0 0 0 0 0 0 0 0 0 0 0 0 0 0 0 0 0 0 0 0 0 0 0 0 0 0 0 0 0 0 0 0 0 0 0 0 0 0 0 0 0 0 0 0 0 0 0 0 0 0 0 0 0 0 0
0 0 0 0 0 0 0 0 0 0 0 0 0 0 0 0 0 0 0 0 0 0 0 0 0 0 0 0 0 0 0 0 0 0 0 0 0 0 0 0 0 0 0 0 0 0 0 0 0 0 0 0 0 0 0 0 0 0 0 0 0 0 0 0 0 0 0 0 0 0 0 0 0 0 0 0 0 0 0 0 0 0 0 0 0 0 0 0 0 0
0 0 0 0 0 0 0 0 0 0 0 0 0 0 0 0 0 0 0 0 0 0 0 0 0 0 0 0 0 0 0 0 0 0 0 0 0 0 0 0 0 0 0 0 0 0 0 0 0 0 0 0 0 0 0 0 0 0 0 0 0 0 0 0 0 0 0 0 0 0 0 0 0 0 0 0 0 0 0 0 0 0 0 0 0 0 0 0 0 0
0 0 0 0 0 0 0 0 0 0 0 0 0 0 0 0 0 0 0 0 0 0 0 0 0 0 0 0 0 0 0 0 0 0 0 0 0 0 0 0 0 0 0 0 0 0 0 0 0 0 0 0 0 0 0 0 0 0 0 0 0 0 0 0 0 0 0 0 0 0 0 0 0 0 0 0 0 0 0 0 0 0 0 0 0 0 0 0 0 0
0 0 0 0 0 0 0 0 0 0 0 0 0 0 0 0 0 0 0 0 0 0 0 0 0 0 0 0 0 0 0 0 0 0 0 0 0 0 0 0 0 0 0 0 0 0 0 0 0 0 0 0 0 0 0 0 0 0 0 0 0 0 0 0 0 0 0 0 0 0 0 0 0 0 0 0 0 0 0 0 0 0 0 0 0 0 0 0 0 0
0 0 0 0 0 0 0 0 0 0 0 0 0 0 0 0 0 0 0 0 0 0 0 0 0 0 0 0 0 0 0 0 0 0 0 0 0 0 0 0 0 0 0 0 0 0 0 0 0 0 0 0 0 0 0 0 0 0 0 0 0 0 0 0 0 0 0 0 0 0 0 0 0 0 0 0 0 0 0 0 0 0 0 0 0 0 0 0 0 0
0 0 0 0 0 0 0 0 0 0 0 0 0 0 0 0 0 0 0 0 0 0 0 0 0 0 0 0 0 0 0 0 0 0 0 0 0 0 0 0 0 0 0 0 0 0 0 0 0 0 0 0 0 0 0 0 0 0 0 0 0 0 0 0 0 0 0 0 0 0 0 0 0 0 0 0 0 0 0 0 0 0 0 0 0 0 0 0 0 0
0 0 0 0 0 0 0 0 0 0 0 0 0 0 0 0 0 0 0 0 0 0 0 0 0 0 0 0 0 0 0 0 0 0 0 0 0 0 0 0 0 0 0 0 0 0 0 0 0 0 0 0 0 0 0 0 0 0 0 0 0 0 0 0 0 0 0 0 0 0 0 0 0 0 0 0 0 0 0 0 0 0 0 0 0 0 0 0 0 0
0 0 0 0 0 0 0 0 0 0 0 0 0 0 0 0 0 0 0 0 0 0 0 0 0 0 0 0 0 0 0 0 0 0 0 0 0 0 0 0 0 0 0 0 0 0 0 0 0 0 0 0 0 0 0 0 0 0 0 0 0 0 0 0 0 0 0 0 0 0 0 0 0 0 0 0 0 0 0 0 0 0 0 0 0 0 0 0 0 0
0 0 0 0 0 0 0 0 0 0 0 0 0 0 0 0 0 0 0 0 0 0 0 0 0 0 0 0 0 0 0 0 0 0 0 0 0 0 0 0 0 0 0 0 0 0 0 0 0 0 0 0 0 0 0 0 0 0 0 0 0 0 0 0 0 0 0 0 0 0 0 0 0 0 0 0 0 0 0 0 0 0 0 0 0 0 0 0 0 0
0 0 0 0 0 0 0 0 0 0 0 0 0 0 0 0 0 0 0 0 0 0 0 0 0 0 0 0 0 0 0 0 0 0 0 0 0 0 0 0 0 0 0 0 0 0 0 0 0 0 0 0 0 0 0 0 0 0 0 0 0 0 0 0 0 0 0 0 0 0 0 0 0 0 0 0 0 0 0 0 0 0 0 0 0 0 0 0 0 0
0 0 0 0 0 0 0 0 0 0 0 0 0 0 0 0 0 0 0 0 0 0 0 0 0 0 0 0 0 0 0 0 0 0 0 0 0 0 0 0 0 0 0 0 0 0 0 0 0 0 0 0 0 0 0 0 0 0 0 0 0 0 0 0 0 0 0 0 0 0 0 0 0 0 0 0 0 0 0 0 0 0 0 0 0 0 0 0 0 0
0 0 0 0 0 0 0 0 0 0 0 0 0 0 0 0 0 0 0 0 0 0 0 0 0 0 0 0 0 0 0 0 0 0 0 0 0 0 0 0 0 0 0 0 0 0 0 0 0 0 0 0 0 0 0 0 0 0 0 0 0 0 0 0 0 0 0 0 0 0 0 0 0 0 0 0 0 0 0 0 0 0 0 0 0 0 0 0 0 0
0 0 0 0 0 0 0 0 0 0 0 0 0 0 0 0 0 0 0 0 0 0 0 0 0 0 0 0 0 0 0 0 0 0 0 0 0 0 0 0 0 0 0 0 0 0 0 0 0 0 0 0 0 0 0 0 0 0 0 0 0 0 0 0 0 0 0 0 0 0 0 0 0 0 0 0 0 0 0 0 0 0 0 0 0 0 0 0 0 0
0 0 0 0 0 0 0 0 0 0 0 0 0 0 0 0 0 0 0 0 0 0 0 0 0 0 0 0 0 0 0 0 0 0 0 0 0 0 0 0 0 0 0 0 0 0 0 0 0 0 0 0 0 0 0 0 0 0 0 0 0 0 0 0 0 0 0 0 0 0 0 0 0 0 0 0 0 0 0 0 0 0 0 0 0 0 0 0 0 0
0 0 0 0 0 0 0 0 0 0 0 0 0 0 0 0 0 0 0 0 0 0 0 0 0 0 0 0 0 0 0 0 0 0 0 0 0 0 0 0 0 0 0 0 0 0 0 0 0 0 0 0 0 0 0 0 0 0 0 0 0 0 0 0 0 0 0 0 0 0 0 0 0 0 0 0 0 0 0 0 0 0 0 0 0 0 0 0 0 0
0 0 0 0 0 0 0 0 0 0 0 0 0 0 0 0 0 0 0 0 0 0 0 0 0 0 0 0 0 0 0 0 0 0 0 0 0 0 0 0 0 0 0 0 0 0 0 0 0 0 0 0 0 0 0 0 0 0 0 0 0 0 0 0 0 0 0 0 0 0 0 0 0 0 0 0 0 0 0 0 0 0 0 0 0 0 0 0 0 0
0 0 0 0 0 0 0 0 0 0 0 0 0 0 0 0 0 0 0 0 0 0 0 0 0 0 0 0 0 0 0 0 0 0 0 0 0 0 0 0 0 0 0 0 0 0 0 0 0 0 0 0 0 0 0 0 0 0 0 0 0 0 0 0 0 0 0 0 0 0 0 0 0 0 0 0 0 0 0 0 0 0 0 0 0 0 0 0 0 0
0 0 0 0 0 0 0 0 0 0 0 0 0 0 0 0 0 0 0 0 0 0 0 0 0 0 0 0 0 0 0 0 0 0 0 0 0 0 0 0 0 0 0 0 0 0 0 0 0 0 0 0 0 0 0 0 0 0 0 0 0 0 0 0 0 0 0 0 0 0 0 0 0 0 0 0 0 0 0 0 0 0 0 0 0 0 0 0 0 0
0 0 0 0 0 0 0 0 0 0 0 0 0 0 0 0 0 0 0 0 0 0 0 0 0 0 0 0 0 0 0 0 0 0 0 0 0 0 0 0 0 0 0 0 0 0 0 0 0 0 0 0 0 0 0 0 0 0 0 0 0 0 0 0 0 0 0 0 0 0 0 0 0 0 0 0 0 0 0 0 0 0 0 0 0 0 0 0 0 0
0 0 0 0 0 0 0 0 0 0 0 0 0 0 0 0 0 0 0 0 0 0 0 0 0 0 0 0 0 0 0 0 0 0 0 0 0 0 0 0 0 0 0 0 0 0 0 0 0 0 0 0 0 0 0 0 0 0 0 0 0 0 0 0 0 0 0 0 0 0 0 0 0 0 0 0 0 0 0 0 0 0 0 0 0 0 0 0 0 0
0 0 0 0 0 0 0 0 0 0 0 0 0 0 0 0 0 0 0 0 0 0 0 0 0 0 0 0 0 0 0 0 0 0 0 0 0 0 0 0 0 0 0 0 0 0 0 0 0 0 0 0 0 0 0 0 0 0 0 0 0 0 0 0 0 0 0 0 0 0 0 0 0 0 0 0 0 0 0 0 0 0 0 0 0 0 0 0 0 0
0 0 0 0 0 0 0 0 0 0 0 0 0 0 0 0 0 0 0 0 0 0 0 0 0 0 0 0 0 0 0 0 0 0 0 0 0 0 0 0 0 0 0 0 0 0 0 0 0 0 0 0 0 0 0 0 0 0 0 0 0 0 0 0 0 0 0 0 0 0 0 0 0 0 0 0 0 0 0 0 0 0 0 0 0 0 0 0 0 0
0 0 0 0 0 0 0 0 0 0 0 0 0 0 0 0 0 0 0 0 0 0 0 0 0 0 0 0 0 0 0 0 0 0 0 0 0 0 0 0 0 0 0 0 0 0 0 0 0 0 0 0 0 0 0 0 0 0 0 0 0 0 0 0 0 0 0 0 0 0 0 0 0 0 0 0 0 0 0 0 0 0 0 0 0 0 0 0 0 0
0 0 0 0 0 0 0 0 0 0 0 0 0 0 0 0 0 0 0 0 0 0 0 0 0 0 0 0 0 0 0 0 0 0 0 0 0 0 0 0 0 0 0 0 0 0 0 0 0 0 0 0 0 0 0 0 0 0 0 0 0 0 0 0 0 0 0 0 0 0 0 0 0 0 0 0 0 0 0 0 0 0 0 0 0 0 0 0 0 0
40 39 39 37 37 38 38 34 33 33 29 28 28 34 39 39 45 69 69 19 18 20 20 20 21 17 17 23 23 26 135 165 176 180 180 176 166 154 150 158 179 184 186 187 187 186 183 173 170 170 165 150 126 59 30 27 26 26 28 32 36 15 12 11 11 12 12 12 12 11 11 12 12 11 12 12 12 12 12 12 19 20 19 20 20 21 21 24 79 79
40 40 37 37 37 38 38 42 42 42 42 42 43 45 48 49 54 25 18 16 17 20 20 20 16 16 26 25 25 29 29 37 154 170 171 171 127 130 153 180 184 186 186 187 187 186 183 179 170 170 165 149 35 26 21 24 24 16 13 11 11 11 12 11 12 12 12 11 12 12 12 12 11 11 11 11 11 12 12 12 19 20 20 20 20 21 21 23 23 23
40 40 37 37 37 38 42 42 42 42 42 42 43 45 32 30 16 15 15 16 17 17 19 19 16 16 26 26 37 37 34 31 32 32 35 38 38 43 159 180 184 186 186 189 192 192 189 170 170 163 144 23 20 20 19 14 14 14 13 11 11 11 10 11 12 13 12 11 11 12 12 12 12 11 12 12 11 11 12 12 17 17 21 26 26 26 24 24 25 26
38 34 34 37 37 45 45 42 32 35 35 35 33 33 32 16 15 17 17 18 16 16 15 15 16 18 35 35 36 36 35 38 38 35 27 25 27 29 29 34 40 45 49 57 159 161 151 151 38 23 18 18 19 19 19 14 14 14 11 11 11 11 10 9 13 13 13 14 12 12 12 12 12 11 12 12 12 11 11 12 17 17 18 26 26 26 24 24 25 28
34 34 35 37 37 38 44 44 42 42 50 52 52 52 24 15 15 17 17 18 16 16 14 15 18 33 35 35 34 34 35 38 38 31 31 35 35 29 29 30 29 25 25 25 21 20 20 18 17 18 18 18 19 19 11 10 11 11 11 11 10 11 17 17 13 13 15 15 12 12 11 11 11 12 12 12 12 11 11 11 17 17 17 17 20 20 20 20 28 28
26 26 35 35 36 38 44 44 42 42 50 52 52 52 45 15 15 17 17 14 15 14 14 17 21 33 29 29 34 28 28 28 27 31 33 33 37 37 33 33 34 29 29 29 22 20 20 19 20 20 17 17 17 10 10 12 12 12 12 14 14 18 17 17 13 13 15 15 13 12 12 11 12 12 12 12 16 11 11 11 16 17 17 17 20 20 20 20 22 22
26 24 24 26 26 26 26 27 26 26 25 26 27 27 17 15 15 14 14 14 16 16 17 17 20 26 29 29 28 26 26 23 23 22 30 30 34 34 33 33 34 29 29 29 19 19 19 19 20 20 18 12 12 11 11 13 13 12 12 15 15 18 16 16 13 13 22 22 21 21 18 18 16 16 16 16 16 12 12 8 8 11 11 13 28 31 31 23 22 22
25 24 24 26 26 26 26 26 26 26 25 26 27 27 18 15 16 15 15 14 16 17 17 17 20 26 26 24 24 23 26 23 23 22 30 30 34 34 24 24 24 26 19 18 19 19 19 18 16 13 11 12 12 11 11 13 13 13 14 15 15 14 16 18 19 19 22 21 20 20 20 18 16 16 16 16 8 11 11 8 9 10 10 11 28 31 31 31 21 21
26 26 25 29 28 27 26 26 26 26 27 26 26 17 17 16 16 15 15 14 14 17 17 17 19 20 20 24 21 21 21 19 17 17 20 20 20 20 21 21 20 16 17 18 18 18 18 18 12 11 11 11 11 9 10 10 10 14 14 14 11 11 14 18 20 21 21 21 20 20 20 20 19 18 16 7 7 7 9 11 11 10 10 11 12 22 22 26 26 22
26 26 56 56 56 54 51 48 50 52 52 48 21 15 14 14 14 17 17 17 17 17 16 16 16 20 20 20 20 20 20 18 19 19 19 18 17 18 18 18 16 16 16 18 19 19 15 14 14 11 11 11 11 11 10 10 10 13 13 9 9 11 17 17 20 21 21 21 21 19 19 19 18 10 10 7 7 7 6 11 11 10 10 10 10 22 29 29 26 22
32 56 59 59 57 57 55 55 56 57 56 50 19 14 14 14 14 17 17 17 17 17 16 16 15 15 20 20 19 20 20 18 19 19 19 17 15 17 17 17 17 17 17 18 17 17 15 14 14 13 13 12 12 11 10 10 10 11 10 10 9 11 17 18 18 20 20 21 20 9 7 6 6 7 9 7 7 6 6 11 11 10 9 9 10 12 29 29 36 35
45 56 59 59 57 57 55 55 56 57 56 50 16 14 14 14 19 19 13 13 14 17 18 18 15 15 20 20 19 19 15 15 18 18 17 17 15 16 17 17 18 17 17 16 16 16 15 14 14 13 13 12 12 12 11 11 11 9 10 10 10 17 17 18 18 20 20 19 10 8 7 6 6 7 7 9 8 8 6 6 11 11 8 8 8 10 32 36 36 35
45 31 32 31 31 31 31 31 30 24 19 16 16 16 16 15 19 19 13 13 14 17 18 18 18 16 16 16 16 16 16 17 18 18 17 17 16 16 16 16 18 16 16 16 16 16 12 12 13 13 13 12 12 10 11 11 11 9 10 10 11 17 17 16 12 11 9 9 9 8 7 5 5 4 7 7 8 8 6 6 11 11 8 7 7 9 12 21 21 21
26 26 26 26 26 26 26 25 18 15 16 17 16 16 16 16 17 16 16 17 17 15 15 18 18 16 16 15 15 17 17 16 17 16 16 16 12 12 12 12 14 16 16 16 16 12 12 12 12 12 12 9 9 9 11 11 11 9 9 10 15 15 13 12 6 5 5 8 8 5 5 4 4 4 3 3 4 5 5 4 7 7 6 7 7 9 13 18 19 19
27 27 26 26 26 26 26 25 17 16 16 18 17 16 16 18 18 16 15 15 15 15 15 17 17 16 16 15 15 17 17 14 14 12 12 12 12 12 12 12 14 14 14 16 16 11 12 12 12 12 11 9 9 9 9 7 7 9 9 11 15 15 10 4 4 5 5 8 8 5 5 4 4 3 3 3 4 5 5 4 7 7 6 6 7 9 13 18 19 19
27 27 26 27 27 25 24 16 17 18 18 18 18 18 18 19 19 18 15 15 15 16 17 17 17 17 15 15 15 15 15 14 14 12 12 12 12 12 12 15 14 14 14 11 11 11 12 12 12 11 11 11 10 10 6 6 6 6 8 13 13 14 3 2 2 5 5 7 5 5 5 9 9 10 3 3 6 6 4 4 4 5 4 4 8 10 10 20 21 21
28 28 29 28 28 14 14 16 18 18 18 15 15 15 18 19 19 18 17 17 15 17 17 17 17 16 16 17 17 15 16 16 16 12 12 12 12 12 14 15 14 14 11 11 11 12 12 12 12 11 11 11 10 10 7 6 6 6 11 11 13 5 3 2 2 2 9 9 5 4 4 9 9 10 8 4 4 4 3 4 4 5 4 4 8 9 9 12 20 20
28 28 29 17 14 14 14 17 18 18 18 15 15 15 15 15 15 16 17 17 17 17 17 17 16 16 16 17 17 15 16 16 15 15 12 12 13 14 14 13 12 12 12 11 11 12 12 12 12 12 9 9 10 10 7 7 7 7 11 11 6 6 5 1 1 2 9 9 6 4 4 3 3 3 4 4 4 4 3 4 4 5 3 3 5 9 12 12 20 20
29 29 28 15 15 15 17 17 18 18 16 16 18 18 15 15 15 16 15 16 16 16 17 18 18 15 17 17 17 16 16 13 15 15 14 16 16 12 11 11 13 13 13 12 12 12 11 12 12 10 10 11 11 11 7 7 7 8 10 4 4 6 5 1 1 4 6 6 6 6 5 5 2 2 3 3 3 3 1 1 1 1 3 3 5 11 12 12 21 21
30 30 18 15 15 15 17 17 16 17 16 16 18 18 17 20 20 20 16 16 16 16 17 18 18 15 15 15 15 16 14 13 13 14 16 16 14 14 11 11 13 13 13 13 14 12 11 11 11 11 11 11 11 7 7 8 11 11 5 4 4 7 7 3 3 4 6 6 6 6 5 5 2 2 3 3 3 3 3 1 1 1 2 10 11 11 12 12 19 19
30 22 22 15 15 15 17 17 18 23 24 24 26 21 20 20 20 20 22 22 15 15 15 16 16 15 15 15 15 17 19 14 14 14 16 16 16 14 14 13 13 10 11 11 11 10 10 10 12 12 12 10 7 6 6 7 11 11 8 5 5 7 7 10 10 11 11 10 9 8 8 8 6 3 3 3 3 3 3 2 2 1 9 10 11 11 8 8 17 17
22 20 20 16 16 16 16 18 18 25 25 25 26 21 20 20 20 21 22 22 23 15 15 16 16 15 15 15 15 17 19 19 17 16 15 15 15 14 14 12 12 10 11 11 11 10 10 10 12 12 12 12 11 6 6 8 8 7 7 5 5 7 7 10 10 11 12 12 9 8 8 8 6 9 9 3 3 3 3 2 3 7 9 9 8 8 8 8 11 17
18 18 18 16 16 16 16 20 20 25 25 25 26 25 29 23 23 23 25 23 23 21 22 16 15 15 15 18 17 17 18 18 16 12 15 15 15 14 8 8 8 9 11 11 11 13 13 13 13 12 12 12 11 11 8 8 8 7 7 7 6 9 9 9 9 10 12 12 9 9 10 10 9 9 9 9 6 3 3 3 3 7 8 9 9 9 10 11 11 13
18 18 18 17 16 16 16 21 21 27 31 31 32 35 29 24 28 30 30 30 30 26 22 22 22 82 89 90 90 84 28 20 15 12 12 12 11 8 8 8 8 11 11 11 13 13 13 13 13 11 11 11 11 10 11 11 10 11 11 10 11 11 9 9 9 10 12 12 9 11 10 10 9 8 9 9 7 8 8 7 8 8 8 9 9 9 10 11 11 13
17 19 19 17 16 16 17 19 17 22 31 31 32 23 23 28 28 26 26 30 30 26 26 29 87 92 95 95 93 93 88 79 72 66 57 17 13 10 8 9 10 11 11 11 11 11 10 10 12 11 10 11 11 10 11 11 11 11 11 10 10 12 12 12 12 11 11 14 14 11 12 12 8 8 9 9 9 8 8 8 8 8 9 9 9 9 10 11 11 12
15 17 17 16 16 15 15 15 15 19 30 30 22 22 25 21 21 23 21 19 19 20 26 70 87 92 95 95 93 93 84 81 81 78 66 65 65 65 60 14 10 10 10 11 11 11 9 9 12 12 10 10 10 10 10 11 11 11 11 10 10 12 12 12 12 13 13 14 14 14 12 11 11 11 11 9 9 8 9 9 10 9 9 9 12 12 10 10 10 12
15 17 17 16 16 17 17 15 15 16 18 19 19 22 19 19 20 21 21 19 19 20 27 60 62 62 64 67 69 86 84 81 81 73 66 65 65 65 63 58 16 11 10 10 9 9 9 9 11 11 10 10 10 10 10 10 12 12 12 11 11 11 12 12 12 13 13 12 12 14 14 11 11 11 12 12 11 10 9 9 10 9 9 9 12 12 10 10 9 12
14 16 16 16 18 17 17 16 17 17 17 17 18 17 18 19 19 21 21 19 19 19 20 60 62 62 64 67 54 61 66 68 76 73 69 68 65 65 63 65 65 66 66 62 17 11 9 10 10 8 9 9 10 10 10 10 12 12 12 11 11 11 11 12 12 11 12 12 12 12 12 11 8 8 12 12 11 10 10 5 4 4 9 9 8 8 9 9 9 10
14 16 16 16 18 18 17 17 17 17 17 17 16 16 16 19 19 16 16 17 19 19 17 19 26 24 24 26 44 44 57 60 62 64 65 68 68 67 66 66 65 66 66 78 78 24 15 12 10 8 8 9 10 11 11 11 12 12 22 25 27 27 20 20 19 12 12 13 12 12 12 11 8 8 11 11 9 10 10 5 4 4 7 8 8 8 9 10 9 9
13 16 16 15 15 15 16 17 14 17 17 17 16 17 17 17 17 16 16 17 17 15 15 15 20 20 22 32 39 46 50 50 57 64 65 65 56 65 62 62 55 41 70 78 78 66 66 18 18 25 26 26 35 35 35 28 28 28 22 25 27 27 20 20 21 21 19 19 12 12 8 9 9 12 12 10 9 10 10 8 8 8 7 8 8 9 9 10 9 9
13 13 14 15 15 16 16 14 14 14 16 16 16 18 18 18 18 18 18 15 15 15 15 15 20 20 22 32 39 46 50 50 57 57 59 60 56 56 62 62 55 41 34 29 27 66 66 41 33 30 28 28 27 35 35 28 28 28 24 21 21 23 27 22 21 19 18 18 18 16 8 8 8 11 13 13 13 10 10 8 9 9 12 12 12 11 9 9 9 9
15 15 14 14 15 16 16 15 15 17 17 17 17 18 18 18 17 17 17 18 15 17 42 42 42 65 64 64 34 34 30 36 36 40 43 43 51 50 35 54 54 61 61 29 22 21 21 41 33 30 28 28 22 20 20 26 24 25 25 21 21 21 22 28 25 19 18 18 16 16 16 7 9 11 13 13 13 12 12 8 9 9 12 12 12 11 9 10 10 10
15 14 14 14 14 14 17 15 15 17 18 18 18 15 16 17 17 17 17 18 38 38 42 42 42 67 67 69 34 30 26 26 32 35 35 43 50 52 35 35 35 61 61 55 55 21 18 18 20 33 33 28 24 24 18 18 24 24 24 26 21 21 22 21 21 25 17 16 17 17 17 15 11 11 15 15 13 12 13 13 11 11 11 11 10 10 11 11 10 10
15 14 14 14 18 18 18 15 15 18 18 18 18 15 15 17 17 17 16 19 30 30 38 38 44 67 67 69 69 59 26 26 32 35 35 30 30 52 54 57 35 31 31 55 55 38 18 18 18 18 31 28 24 24 17 17 21 24 24 26 26 26 23 23 23 19 19 16 17 16 16 12 12 12 15 15 15 16 13 13 11 11 11 11 10 12 11 11 11 11
15 13 13 14 18 18 18 15 15 18 18 18 18 15 15 17 17 17 17 26 26 30 32 52 39 39 69 67 67 59 37 25 24 24 25 24 24 24 26 57 54 54 24 22 22 28 36 20 18 17 17 17 17 17 17 17 21 21 21 26 26 26 23 23 23 19 19 16 16 16 16 12 12 12 15 15 15 16 14 13 13 13 12 12 13 13 13 13 13 12
14 13 13 14 14 16 16 15 14 17 18 18 18 18 17 17 17 17 17 26 26 31 36 29 29 49 65 67 67 59 32 27 24 20 20 24 24 24 24 23 54 54 25 20 20 20 22 32 32 17 17 17 16 17 18 18 18 15 15 15 15 16 21 21 16 16 15 15 16 16 16 15 13 14 15 15 13 13 13 12 12 13 12 12 13 13 14 14 13 13
15 14 14 15 15 16 16 15 14 18 18 18 18 18 17 17 17 17 17 19 25 27 26 26 29 48 48 59 60 26 23 27 23 20 20 17 25 24 24 18 18 18 20 20 19 17 17 18 32 21 17 17 17 17 17 18 18 18 15 15 15 15 15 15 15 15 15 15 16 16 14 14 13 13 15 15 13 13 13 12 12 12 11 11 13 13 14 14 12 12
14 14 14 15 15 15 17 17 17 17 17 18 18 15 15 18 17 17 18 18 18 19 28 28 43 48 48 25 20 18 17 17 17 15 16 16 16 17 17 16 15 15 16 16 18 17 17 17 17 17 17 17 17 17 16 18 18 18 17 17 18 18 15 15 15 18 18 18 18 15 14 13 13 13 16 15 13 13 13 11 11 12 11 11 13 14 13 13 12 12
14 14 14 15 15 15 16 16 16 17 17 18 18 15 15 18 17 17 18 18 15 15 28 28 43 43 21 18 17 16 16 17 17 14 14 16 16 17 16 16 15 15 16 16 17 17 15 16 16 13 12 13 13 16 16 16 14 17 17 17 18 18 18 18 18 18 18 18 18 15 15 13 13 13 13 14 14 13 13 11 11 9 9 10 13 14 14 14 12 12
14 14 14 14 15 14 16 16 16 18 18 18 18 15 15 18 17 17 17 17 14 14 16 20 25 21 17 17 17 17 17 17 15 14 14 17 17 17 17 17 15 15 16 16 18 18 15 15 15 13 12 13 13 13 13 13 13 13 13 13 15 15 18 18 17 18 18 18 18 17 17 17 13 12 12 12 12 13 13 11 11 9 9 11 11 14 14 14 12 12
14 15 15 14 14 14 16 16 16 16 16 18 18 15 15 17 16 15 14 14 14 14 18 18 21 18 16 16 17 17 17 17 18 18 17 17 17 17 17 17 16 16 16 16 18 18 15 15 15 13 14 13 13 13 13 13 13 13 12 12 14 14 14 16 17 17 18 18 15 15 17 17 14 12 11 11 12 9 9 11 11 11 11 11 11 11 10 11 11 11
14 14 14 14 14 15 17 17 16 16 16 17 17 15 15 17 16 15 14 14 14 15 18 18 18 15 16 16 17 17 17 17 18 18 17 16 17 17 17 17 17 16 16 16 18 18 15 15 15 15 14 14 12 13 13 13 13 13 12 12 14 14 13 13 17 17 18 18 16 16 15 15 14 12 11 11 9 9 9 9 11 11 9 9 6 9 10 9 10 10
14 14 17 17 17 17 15 15 16 17 17 16 15 14 14 15 15 14 13 14 14 14 18 18 18 12 16 16 16 12 16 16 16 17 16 16 16 16 16 16 17 15 13 13 13 12 14 14 13 13 13 12 12 11 11 13 13 11 12 12 13 13 13 13 12 17 18 18 16 16 15 15 14 14 14 11 9 9 9 7 10 10 9 9 6 6 9 9 10 10
16 16 17 17 17 12 12 12 10 10 10 7 7 10 11 12 12 8 9 9 9 9 10 11 13 12 12 13 12 10 10 15 13 13 13 11 11 11 8 8 8 8 13 13 13 9 9 9 13 13 13 12 12 11 11 12 12 11 11 11 13 13 13 13 10 11 11 12 16 16 14 13 13 14 14 13 5 4 3 2 2 2 7 7 0 1 1 1 1 3
16 16 15 14 13 12 12 12 10 10 10 7 7 5 5 7 7 8 9 9 9 9 10 11 11 9 10 10 10 10 10 12 13 13 13 11 11 11 8 8 8 8 10 10 10 9 9 9 12 12 12 12 11 10 10 11 11 11 11 10 11 11 11 10 10 11 11 12 13 14 12 11 11 11 11 7 5 4 3 2 2 2 3 1 0 1 1 1 1 3
