P2
  # Kuwahara Filter Output - Memory Optimized
                                             90 90
                                                  255
                                                     109 98 98 91 91 100 97 97 89 89 90 86 86 83 83 84 87 86 86 87 84 84 92 92 89 90 90 91 96 96 98 98 94 94 90 91 91 96 96 97 102 102 87 88 88 90 94 94 95 87 86 86 86 86 85 81 80 80 81 83 88 88 88 79 79 79 75 75 75 79 79 82 79 82 82 76 76 83 85 85 76 76 70 70 70 70 75 75 70 70
                                                                                                                                         110 107 95 95 92 100 100 97 97 96 88 86 86 86 93 95 95 87 87 91 87 91 91 99 100 101 101 102 99 97 97 97 106 106 101 93 95 101 101 117 117 105 107 120 120 134 129 129 122 122 122 120 91 88 83 81 81 81 82 87 87 88 88 80 80 88 88 86 87 87 90 90 90 94 82 84 82 82 83 78 76 76 70 70 71 71 71 73 71 70
                                                      108 107 95 95 89 89 96 96 97 96 82 80 80 83 93 93 95 98 111 111 110 93 93 96 96 101 105 105 108 117 117 117 106 106 101 120 120 123 130 117 117 109 107 129 129 134 128 125 125 126 128 129 120 120 91 104 104 90 95 95 84 84 87 83 83 88 88 86 87 87 84 90 90 94 92 92 82 82 79 79 76 76 78 73 73 71 71 78 78 73
                                                                                                                                                                          108 107 97 97 89 89 96 96 94 92 82 80 80 83 93 93 95 98 111 111 110 93 93 96 96 97 105 109 109 118 117 116 116 116 114 115 120 123 130 135 133 121 128 129 129 134 128 125 125 126 128 129 120 129 129 114 110 110 95 95 85 88 88 78 78 78 84 84 82 81 81 81 86 86 92 92 82 82 79 79 77 77 78 77 74 72 72 78 78 73
                                                                                                  111 109 110 110 96 99 95 92 92 92 100 85 89 86 87 87 89 100 100 100 102 102 102 102 102 100 105 109 109 116 116 116 116 116 115 117 124 142 142 138 125 35 30 27 24 24 24 24 25 28 33 114 124 129 129 114 110 110 100 98 101 101 85 78 78 78 84 84 82 81 81 87 87 86 90 90 82 80 80 78 78 81 85 82 78 75 76 78 78 75
                            109 105 110 110 113 115 100 92 92 103 103 105 89 86 87 87 89 97 97 100 102 102 99 99 100 103 105 105 110 116 116 118 117 115 115 117 124 124 25 22 22 19 18 18 17 17 16 15 15 16 16 14 14 21 114 124 124 109 100 98 101 101 85 81 81 93 88 88 90 85 85 87 87 90 93 89 89 93 82 82 82 97 97 91 89 89 78 78 79 82
                                                                                                                                              118 105 105 113 113 113 100 94 94 103 103 111 97 97 90 93 113 97 97 100 108 104 99 99 99 99 103 120 121 122 122 124 124 134 123 114 21 15 15 16 22 19 18 18 17 17 16 16 18 18 18 17 16 15 13 17 125 125 137 137 108 108 100 104 102 100 102 102 103 102 104 104 122 124 124 94 93 93 103 99 96 97 97 91 89 89 88 85 84 81
                                                                             118 108 107 107 113 113 111 107 114 116 116 111 97 97 118 120 120 119 122 113 113 104 104 99 99 99 102 123 121 122 122 124 134 134 26 20 20 15 15 16 26 19 17 17 16 16 16 16 18 18 18 17 18 16 16 15 13 22 137 148 144 128 116 111 108 108 102 102 103 102 104 104 125 124 124 100 100 104 104 104 96 96 93 101 101 102 108 108 86 81
                        124 140 140 140 132 124 124 125 128 116 116 111 96 96 123 120 120 119 131 131 131 122 122 119 103 103 120 123 123 143 147 147 141 29 29 20 20 24 30 39 49 38 31 28 24 21 19 17 17 17 17 19 19 16 16 17 17 15 18 148 146 146 116 111 108 108 124 124 104 103 103 125 125 125 118 105 111 111 101 101 107 107 100 101 101 105 108 108 104 85
                                                                                                                                                                     124 140 140 140 132 120 120 125 129 123 123 113 105 128 123 123 124 129 131 134 134 131 122 119 127 113 140 144 144 149 149 147 34 29 29 29 52 197 209 217 217 215 201 71 60 48 35 27 22 19 18 19 19 19 19 17 17 18 16 19 146 145 145 123 117 117 124 124 131 135 135 134 124 124 124 111 111 111 101 101 104 106 106 104 105 105 119 123 123 102
                                                                                                                            144 143 143 136 130 120 120 121 129 151 146 146 144 139 140 141 141 138 136 134 134 131 124 124 133 133 140 144 150 150 149 133 32 32 40 206 231 239 247 251 250 250 244 231 212 186 100 65 46 27 24 22 21 19 19 16 18 19 19 15 22 145 145 123 117 117 119 121 130 134 134 140 140 124 124 116 116 114 123 102 104 106 106 104 107 107 119 123 123 102
                                                                                        153 151 143 136 130 130 128 134 134 151 146 146 144 139 140 141 141 138 138 142 153 145 148 148 133 133 132 133 150 150 138 20 20 32 101 214 231 239 247 251 250 250 244 231 214 186 98 70 54 36 31 30 30 20 20 17 18 19 19 17 13 138 145 145 94 95 95 121 130 134 134 140 140 136 121 118 118 120 126 126 123 113 113 113 132 131 130 130 121 109
                                                153 151 168 168 147 151 151 184 184 178 178 176 182 152 152 151 152 144 144 161 161 145 148 148 141 141 132 133 140 137 21 20 20 46 158 195 229 229 233 238 241 223 223 218 214 118 95 70 54 45 36 30 30 26 17 17 19 19 19 17 14 20 135 82 83 95 95 110 118 130 137 137 137 137 121 118 118 120 126 126 129 142 142 140 140 140 138 137 130 109
     150 150 168 168 147 151 151 184 169 178 178 191 182 169 169 196 196 164 165 167 167 159 150 150 141 141 144 185 148 25 19 19 24 120 162 192 204 204 198 197 197 223 223 218 193 118 95 78 67 67 57 37 30 26 26 19 18 19 19 15 15 15 54 62 83 83 88 68 71 71 127 98 126 127 121 123 123 123 128 129 129 142 142 140 140 140 138 137 130 107
                                                                                                                                                  115 105 93 100 102 102 99 167 169 169 191 191 184 117 117 196 196 198 181 167 167 172 158 158 155 216 185 185 36 19 18 18 32 130 164 192 204 204 198 197 197 223 223 223 200 149 140 140 129 110 70 70 34 26 26 19 18 18 18 16 16 15 24 62 62 61 63 63 63 66 74 83 88 84 84 136 142 142 147 144 143 143 140 137 144 144 144 140 127 100
                                                                                               115 74 71 71 102 102 92 92 148 148 163 110 102 94 94 89 188 189 190 190 195 199 201 201 206 211 217 199 36 19 18 18 27 130 164 164 181 200 205 205 208 211 206 190 159 149 140 140 129 110 70 70 37 28 28 19 18 18 18 16 16 16 20 49 40 61 63 63 63 60 60 61 88 71 71 137 142 142 147 144 143 143 141 137 142 141 129 95 95 65
                                   73 72 71 70 70 88 92 92 86 86 92 81 81 94 94 65 63 62 62 69 81 199 190 190 192 211 217 173 43 22 22 22 19 27 48 62 52 52 50 197 196 196 40 28 28 52 52 48 34 30 29 34 38 38 30 30 18 18 18 18 19 19 18 19 35 35 37 41 61 60 60 55 59 71 71 64 64 139 146 142 140 140 141 141 142 141 106 95 89 87
                                                                                                                                       67 67 71 70 70 87 82 82 82 86 74 69 69 68 53 53 53 53 67 67 63 150 190 190 192 182 137 137 112 22 22 22 19 27 41 58 52 33 33 56 125 125 27 27 28 52 39 28 28 29 29 34 38 38 30 30 19 17 18 18 19 19 17 17 35 36 36 36 36 39 55 55 59 41 41 64 64 74 148 148 125 125 135 137 136 101 98 92 92 87
                                            66 67 76 76 84 83 82 86 86 74 74 69 69 70 53 53 53 53 67 67 64 130 173 173 78 130 137 137 101 21 21 20 18 29 41 58 58 33 33 56 125 59 27 27 111 111 39 28 28 29 116 98 51 38 30 30 19 18 18 17 19 19 17 17 35 36 36 36 36 37 40 42 42 39 39 41 47 62 146 146 125 125 112 104 96 94 94 94 92 74
                                                                                                                                             66 73 76 76 84 83 82 86 86 74 74 70 70 70 49 53 53 52 62 64 64 66 74 62 54 54 56 101 33 21 21 20 18 47 181 181 101 80 160 160 133 59 44 44 111 111 104 162 141 141 116 98 62 31 23 20 19 18 18 17 17 18 18 17 32 33 34 36 36 37 43 41 41 39 39 41 47 59 137 134 118 118 98 101 101 94 94 94 86 74
                                                    71 68 73 76 76 75 80 78 63 63 69 54 50 50 48 50 42 44 44 41 41 53 53 62 54 54 56 24 24 20 20 19 36 198 199 199 200 200 160 160 142 74 74 206 206 209 196 162 141 141 52 39 28 23 20 19 19 19 18 16 16 17 18 20 38 36 36 36 43 44 43 41 41 38 35 37 43 59 108 102 95 91 91 93 101 94 90 86 86 75
                                                                                                                                                      70 72 72 76 76 75 53 53 63 63 55 54 54 45 43 43 45 45 44 39 39 53 53 44 25 21 21 21 21 19 27 154 190 198 199 199 194 194 80 80 79 175 175 206 206 209 97 66 51 39 32 28 28 19 18 19 19 17 18 18 17 22 50 53 53 69 72 72 62 62 67 70 74 79 79 84 89 108 108 91 95 91 91 93 97 93 88 88 35 33
                                                       57 72 72 58 58 58 53 53 64 64 62 54 54 45 43 43 46 46 45 44 46 46 44 44 21 20 20 20 21 19 31 134 190 190 191 126 194 194 80 80 79 175 175 186 188 174 65 48 39 34 31 31 28 19 17 18 18 18 18 18 17 20 32 32 35 39 43 44 42 42 42 70 74 79 79 84 89 108 108 91 91 56 53 53 54 96 96 88 34 33
                                                                                                                                                     57 69 69 58 58 58 56 56 56 57 57 60 56 51 52 52 46 46 45 44 48 48 44 23 20 20 20 20 17 18 35 134 162 162 126 126 54 36 36 42 133 166 166 155 72 58 47 38 34 32 32 31 19 17 16 16 16 18 18 17 17 30 32 32 35 38 34 34 34 34 33 38 38 42 49 53 52 54 56 56 56 54 52 53 52 49 49 34 34 33
                                                 41 69 69 59 59 59 56 54 54 54 55 60 54 51 52 52 50 54 48 48 49 43 43 23 20 20 19 19 18 18 31 83 83 135 161 103 51 36 36 50 64 82 83 83 79 57 57 38 34 32 32 30 19 17 16 16 17 19 19 16 16 30 38 38 41 39 39 34 34 34 33 38 38 42 49 51 51 54 56 56 56 54 56 58 52 49 49 34 34 34
                                                                                                                                    41 68 68 61 59 59 56 54 54 54 55 54 54 51 52 52 52 54 48 48 49 43 43 24 20 20 20 22 17 17 22 83 83 96 121 121 72 56 53 53 55 78 83 83 79 57 49 49 35 32 32 25 18 18 19 17 17 16 16 18 18 20 38 38 41 39 39 38 44 34 34 38 38 42 49 61 63 62 62 61 61 56 56 58 44 40 40 35 34 34
                         49 68 68 61 61 56 56 57 56 55 55 47 47 47 51 51 52 44 48 48 46 43 43 38 20 20 22 22 18 18 17 80 80 96 139 139 76 56 53 53 55 86 86 82 82 57 45 45 32 28 28 24 18 18 20 20 18 16 16 18 18 19 38 38 43 43 41 44 44 45 45 49 49 49 61 61 63 62 62 61 40 38 38 46 44 40 40 33 33 37
                                                                                                           49 64 64 61 61 56 56 57 56 56 47 46 47 47 47 47 47 44 46 46 46 45 46 28 21 21 20 19 19 19 17 16 23 130 139 139 76 62 62 58 81 81 86 84 45 41 39 39 30 28 24 24 19 19 20 20 19 16 16 17 18 19 41 43 43 43 56 56 56 45 47 47 49 48 50 50 43 43 43 40 40 38 38 61 61 44 38 33 33 37
 31 34 56 60 60 56 52 52 52 52 48 48 47 47 47 55 55 56 59 60 60 58 55 31 23 23 20 19 19 19 18 16 16 36 135 135 160 119 92 83 81 81 78 40 35 41 39 39 30 27 24 24 19 19 20 18 17 17 18 18 18 18 44 54 54 56 57 57 53 47 47 47 47 48 50 50 43 43 49 48 48 57 57 57 61 50 50 32 32 29
                                                                                     28 34 58 58 56 52 52 52 45 46 48 48 47 53 53 53 55 56 59 60 60 58 21 21 21 22 21 21 18 18 17 15 16 36 135 135 62 52 45 41 39 36 36 30 30 30 30 28 28 20 18 18 18 19 19 18 18 18 18 17 43 43 48 54 54 56 57 57 53 53 49 49 51 53 53 55 50 50 49 48 48 62 62 57 31 29 31 31 32 29
                                                                                                                                                                       30 53 58 58 56 52 52 49 45 46 47 47 52 53 53 53 55 71 73 74 74 32 21 21 21 19 21 21 18 18 17 15 15 17 21 32 33 33 29 30 30 30 29 29 28 28 34 34 28 20 18 18 18 18 18 21 21 20 18 20 43 39 38 38 39 41 40 40 40 37 37 36 36 50 50 34 31 31 48 48 50 62 62 55 31 29 31 31 31 20
                                                          30 28 29 57 59 59 59 58 57 57 59 61 61 64 67 73 75 71 73 76 76 77 69 20 19 19 20 19 19 19 17 16 16 14 14 32 33 33 29 30 30 31 29 29 28 28 34 34 37 32 19 18 18 18 18 21 21 18 17 17 22 38 38 39 39 41 40 40 39 36 36 36 36 35 31 31 30 31 34 39 42 42 42 44 52 28 30 30 29 32
                                                                                                                                          29 28 29 54 59 59 59 58 57 66 59 61 61 64 75 76 76 82 82 76 75 75 74 22 19 21 21 19 19 19 16 16 16 15 15 20 59 34 31 30 30 31 35 35 38 32 38 37 37 32 19 19 18 18 18 20 20 18 17 17 21 38 40 39 39 42 40 39 39 36 36 36 39 35 31 31 30 31 34 39 42 42 42 44 52 58 58 58 57 32
                             31 32 59 61 58 58 60 65 65 66 66 67 71 74 75 76 76 82 82 76 75 75 74 63 19 21 21 21 21 20 16 16 16 15 15 17 59 59 64 41 37 35 35 35 38 49 55 60 32 23 19 19 20 21 18 18 18 18 18 18 19 41 41 46 48 55 55 52 52 52 51 53 57 50 53 67 70 68 68 67 50 46 51 51 56 58 66 66 67 19
                                                                                                             61 60 60 61 61 66 66 66 52 66 66 66 43 43 76 76 76 76 79 77 76 76 73 63 28 21 21 21 21 20 19 17 17 17 17 17 28 62 77 77 77 47 42 43 43 49 55 60 57 35 26 21 21 21 22 19 19 19 20 19 19 22 23 23 25 27 28 28 30 36 36 43 49 43 53 67 70 68 57 57 39 39 51 51 52 57 66 66 67 59
                                                                                                                                                                                             61 60 60 49 49 41 40 40 40 52 35 35 35 40 40 36 33 27 27 28 25 22 22 22 26 20 20 20 21 25 30 36 107 98 97 97 103 70 77 77 77 107 107 97 76 72 61 26 23 23 22 22 22 22 22 18 18 19 19 20 20 22 23 23 25 27 28 28 30 36 36 50 60 53 44 40 41 41 57 57 39 39 51 51 55 55 62 51 51 47
                                                                                    48 49 48 49 43 41 40 40 38 37 35 35 35 40 40 36 24 22 22 21 21 22 22 22 26 35 43 49 137 144 139 133 133 131 97 97 140 136 136 127 114 107 107 97 27 23 23 23 23 23 22 22 18 18 18 18 18 19 25 30 35 37 45 98 98 88 66 59 57 53 45 44 44 44 44 40 41 41 46 47 47 46 49 50 48 46 46 51 51 47
                                                                                                                                                                                 48 51 51 47 43 43 41 41 38 37 37 38 38 25 23 21 21 22 22 21 21 28 43 140 151 158 162 164 162 156 156 133 133 131 158 158 154 136 136 127 114 41 27 23 22 22 23 23 20 19 19 20 18 18 18 17 17 19 26 30 35 53 107 90 90 73 57 54 52 52 45 44 44 44 44 51 51 51 51 47 47 44 49 55 55 46 46 48 48 55
                                                                                       50 51 42 40 40 45 45 40 39 38 38 25 24 24 23 21 21 23 25 37 158 161 165 169 172 172 171 168 165 156 156 158 158 157 158 158 154 141 122 104 30 24 24 23 22 22 18 18 18 19 19 17 18 18 17 17 19 26 26 31 75 75 83 90 90 66 65 62 61 61 57 58 56 51 49 52 52 51 51 51 44 44 52 55 55 48 48 55 52 55
                                                                                                                                                                                           40 40 45 45 40 45 45 40 24 23 22 22 24 24 25 32 144 164 164 177 179 178 178 173 173 174 171 162 162 166 167 158 158 143 130 79 79 30 25 25 21 21 21 17 17 18 18 18 18 19 19 19 19 18 20 22 32 32 52 52 75 75 83 83 63 66 65 62 61 61 57 53 48 48 49 52 52 40 40 51 57 70 77 77 59 54 54 59 46 45
                                                                                                 45 40 45 45 44 44 42 23 24 23 22 22 25 29 29 46 166 174 177 177 179 178 178 173 173 174 170 162 162 166 167 161 152 143 130 79 79 24 25 25 21 21 21 17 17 18 18 19 23 23 19 19 19 14 14 15 23 23 52 52 82 82 90 95 102 102 105 105 94 82 65 53 44 42 42 48 39 40 40 36 41 51 77 77 77 62 59 59 48 45
           45 42 24 22 22 23 25 23 23 29 34 37 159 170 173 176 176 176 175 175 175 173 174 172 172 167 165 165 161 158 151 141 126 34 24 23 23 23 22 23 23 24 25 23 33 30 30 24 23 23 16 15 15 14 14 15 18 23 25 46 82 82 90 95 102 102 105 105 49 45 45 45 45 40 40 44 35 35 31 31 41 51 77 77 67 67 61 52 48 46
                                                                                                                    22 24 24 22 22 23 29 43 56 158 167 167 167 170 173 176 176 176 175 177 177 172 169 169 167 167 165 160 151 138 120 33 28 28 24 23 23 23 36 35 34 41 37 35 33 30 30 17 16 15 15 15 15 14 14 16 20 21 21 23 34 50 58 55 45 42 41 41 39 39 45 45 45 40 40 31 35 35 29 29 39 51 63 67 67 67 58 22 19 19
                             22 24 24 33 155 169 177 177 177 169 167 167 167 159 172 177 177 183 183 177 177 172 169 169 165 156 73 48 33 28 28 29 28 28 33 33 37 36 36 18 16 14 13 12 12 12 12 13 14 15 14 13 13 16 20 21 21 21 21 23 34 80 80 55 40 38 38 38 38 38 39 40 39 39 31 31 31 29 29 29 39 59 59 20 19 21 21 20 19 19
                                                                                                                                   27 26 26 55 155 169 177 177 177 169 150 153 159 179 185 186 187 187 186 184 177 172 172 166 158 140 45 30 24 28 28 29 31 31 15 12 11 11 13 13 13 12 12 12 12 12 12 13 14 13 13 13 13 21 21 20 21 21 21 22 24 80 80 40 40 38 38 38 38 38 39 41 43 42 42 44 45 48 46 44 44 19 17 17 19 21 21 20 19 19
                                            27 28 26 32 40 154 170 171 171 128 131 153 169 182 186 187 187 187 186 184 179 170 170 166 149 39 27 23 24 24 16 14 12 12 12 12 11 11 13 13 12 12 12 13 12 12 12 11 11 13 13 13 14 21 21 20 21 21 22 22 23 23 29 40 40 38 38 38 42 41 41 41 43 42 42 44 32 27 21 16 16 17 17 17 19 19 17 16 0 0
                                                                                                                                              27 28 36 36 35 33 34 34 42 47 41 41 167 182 186 187 187 190 192 191 187 170 170 163 109 29 20 20 20 18 15 14 14 14 12 12 10 10 12 13 12 12 12 13 12 12 12 11 11 12 12 11 12 12 13 21 21 23 25 26 25 26 25 25 38 38 36 37 37 45 45 40 34 35 35 35 32 27 21 16 16 17 17 18 17 17 17 16 0 0
                                            18 20 35 37 37 36 36 35 36 37 25 25 28 30 30 35 42 47 51 58 153 149 139 139 109 29 20 19 19 19 19 14 14 14 11 11 11 10 10 13 13 14 14 13 12 12 12 12 12 12 12 12 12 12 12 12 13 18 18 26 25 26 25 25 23 31 31 37 37 43 43 40 36 36 35 35 36 39 38 35 35 16 16 16 17 17 17 16 16 0
                                                                                                                                17 19 35 37 37 36 36 35 36 37 28 30 32 32 33 32 28 28 28 25 25 21 20 20 19 18 19 19 19 19 19 13 11 11 11 11 11 11 12 16 16 14 14 15 14 14 13 13 12 12 12 12 13 16 12 12 11 12 18 21 24 24 24 23 23 25 25 24 23 26 26 28 31 31 31 28 28 28 28 29 29 17 16 16 16 15 16 16 16 0
                  17 17 19 21 32 33 33 26 26 23 23 22 32 32 33 32 28 28 27 26 26 21 20 20 19 19 19 18 18 12 12 11 11 11 12 12 12 14 14 14 16 14 15 19 19 22 22 22 20 20 20 20 16 16 12 11 11 9 9 10 11 11 11 19 24 27 29 23 22 26 26 28 31 31 31 28 28 28 28 29 29 26 17 17 17 15 16 16 16 0
                                                                                               16 18 18 18 19 20 20 22 22 22 22 20 17 17 21 20 20 21 21 21 18 17 17 19 19 18 17 19 12 12 12 11 11 10 10 10 12 14 14 12 12 14 15 19 21 22 22 22 20 20 20 20 19 19 16 8 8 7 12 12 10 10 11 11 14 25 27 27 24 24 27 27 56 56 56 53 51 49 52 50 50 42 20 15 15 15 15 18 18 13
                                                                                                                                                                            17 17 17 17 17 20 21 21 20 21 21 19 19 20 20 19 20 18 18 18 16 17 17 19 19 16 16 15 12 12 12 12 11 11 11 11 12 12 10 10 12 16 18 20 21 22 22 22 19 19 19 18 9 9 9 8 8 7 12 12 10 10 11 11 14 25 30 30 24 23 54 59 59 59 57 57 56 55 58 58 50 42 16 14 14 15 17 17 18 12
                                                         17 17 17 17 16 16 21 21 20 21 21 19 20 20 20 18 16 17 17 17 16 17 17 20 17 16 15 14 14 13 13 13 13 11 11 11 12 12 11 10 10 12 17 17 19 20 20 20 19 11 8 7 7 7 9 9 7 7 8 11 11 11 10 10 9 11 30 30 34 36 54 59 59 59 57 57 56 55 58 58 54 40 17 14 14 15 17 17 17 14
                                                                                                                               14 17 17 18 16 16 20 20 20 20 16 16 20 20 19 18 16 17 17 17 18 18 18 16 16 17 15 14 14 13 13 13 13 13 13 13 12 12 10 10 10 12 17 17 18 20 20 20 19 11 9 7 7 7 8 8 8 7 8 5 5 11 10 10 9 7 9 34 34 36 38 46 49 48 47 30 32 32 32 31 29 29 17 15 15 15 15 19 19 14
    14 16 18 18 17 17 17 16 16 17 17 16 19 19 19 18 17 17 17 17 18 18 18 16 16 15 15 13 12 12 14 13 12 12 13 13 12 10 10 10 10 12 9 9 13 13 18 18 14 11 9 7 7 8 8 7 7 7 6 5 5 5 6 5 4 4 7 5 5 6 8 10 14 20 20 26 29 29 30 28 29 29 25 21 18 15 15 19 17 18
                                                             14 16 16 16 16 16 17 16 16 16 16 17 17 15 15 15 14 13 12 12 12 12 13 15 15 15 15 15 12 12 12 12 12 12 13 12 12 11 10 7 7 7 7 9 13 13 14 3 3 3 8 7 6 5 5 7 7 9 9 4 4 7 7 5 4 4 7 5 5 6 8 12 20 20 27 29 29 29 30 28 15 15 17 18 18 18 16 16 17 18
                                                                                                                17 17 17 17 16 17 17 17 18 16 16 16 17 15 15 17 17 13 12 12 12 12 14 16 15 15 13 11 12 12 12 12 12 12 12 11 11 11 8 7 7 7 8 11 11 11 5 3 3 3 8 8 6 5 5 6 10 9 9 4 4 5 5 4 4 5 5 5 5 9 9 12 20 20 27 29 29 28 17 15 15 15 18 18 18 17 16 16 12 9
                                                                                                                                                                  15 16 16 17 16 17 17 17 18 16 16 16 17 18 18 17 17 15 16 16 14 14 14 16 15 13 13 13 12 12 12 12 12 12 12 12 8 8 11 11 7 7 7 8 12 12 6 6 6 3 2 2 8 8 6 6 5 4 4 4 5 5 5 4 4 3 5 5 3 3 4 9 12 12 14 18 28 28 29 15 15 15 18 17 17 17 16 16 13 9
                    15 16 16 16 16 16 17 17 17 17 17 16 17 18 18 17 17 15 16 16 13 13 15 16 13 13 13 13 13 13 13 13 12 12 12 12 8 8 11 11 11 7 7 8 11 11 6 6 6 5 2 2 4 4 6 6 6 6 6 4 4 3 3 4 4 3 3 2 3 3 4 9 11 12 12 14 29 29 29 17 15 15 16 17 17 17 18 18 13 9
                                                                    16 16 17 20 20 20 20 17 17 17 15 16 18 17 15 15 15 15 15 15 13 13 14 16 16 15 14 12 13 13 13 13 14 13 12 12 11 12 11 11 11 9 8 8 11 11 10 6 5 5 7 4 4 4 6 6 6 6 6 6 5 5 3 3 3 3 4 2 2 2 2 9 11 12 12 11 14 17 22 26 22 18 16 16 16 19 18 18 22 17
                                                                                                                        26 26 20 20 20 20 20 22 16 15 15 16 16 16 15 15 15 17 18 15 14 14 17 16 16 15 14 12 12 11 11 11 12 11 11 10 11 12 12 11 10 8 7 7 11 11 9 6 6 6 7 8 11 11 11 11 10 9 9 8 5 5 3 3 3 3 3 3 2 3 8 10 11 11 9 8 14 17 22 21 21 17 17 16 16 19 19 22 25 17
                                                                                                                                                                               26 26 21 20 21 21 21 22 23 23 16 16 16 16 16 16 16 17 18 19 19 18 17 15 16 16 15 15 12 11 11 11 11 11 11 10 11 12 13 13 13 12 7 7 8 8 8 8 6 6 7 8 11 11 11 12 12 9 9 8 9 9 10 10 4 4 3 3 2 3 7 10 10 10 9 8 10 11 18 21 19 19 17 16 16 16 22 22 25 20
                                          25 26 25 32 23 23 23 25 23 23 22 29 17 17 15 15 18 18 18 18 19 16 15 15 16 16 15 8 7 7 10 11 11 11 12 14 13 13 13 13 12 12 12 8 8 8 8 8 7 7 9 9 10 10 10 12 12 9 9 10 10 10 10 10 9 5 4 3 3 3 7 8 9 9 9 11 11 11 18 19 19 19 17 16 16 16 22 22 15 9
                                                                                                25 26 28 32 37 25 25 28 28 31 29 29 28 18 18 21 33 88 84 84 75 62 21 16 14 14 10 8 7 7 8 10 11 12 12 14 13 13 13 13 12 12 11 11 11 12 12 10 10 11 9 9 10 10 10 10 11 12 12 10 10 10 10 10 9 9 9 8 8 8 7 8 9 9 9 11 11 11 12 15 16 16 19 19 17 16 16 17 19 22
                                                                                                                                                               29 29 26 25 37 27 27 29 29 31 27 29 35 89 95 95 96 93 93 77 77 71 63 26 20 15 11 8 8 10 10 10 12 12 12 11 11 13 13 11 11 11 11 11 11 12 12 10 10 11 13 13 13 10 10 15 14 12 12 12 12 11 9 9 9 9 9 9 8 8 9 9 9 9 9 10 12 12 15 17 17 17 17 16 16 15 15 17 19 22
                                   19 21 27 27 21 23 22 22 20 20 27 38 75 89 95 95 96 93 93 82 82 80 69 67 66 66 61 14 10 10 10 11 12 12 9 11 11 11 11 11 11 11 10 11 12 12 12 11 11 12 13 13 13 14 14 15 14 13 13 12 11 11 12 9 9 8 9 9 11 10 10 9 12 12 10 10 10 14 14 17 17 17 17 17 17 15 15 16 18 14
                                                                                                            19 20 22 21 21 20 20 20 20 20 24 52 61 61 63 66 71 75 75 82 82 80 71 67 66 66 64 63 59 16 12 12 11 9 9 10 10 11 11 10 10 10 11 11 11 12 12 13 12 12 12 12 13 14 13 13 13 14 14 12 11 12 12 12 11 10 9 9 11 10 10 10 12 12 10 10 10 14 14 17 17 17 18 18 17 17 17 17 17 17
                                                                                                                                                                                        20 18 19 19 21 20 20 20 20 21 35 48 52 56 60 60 63 75 71 71 71 70 69 67 65 65 64 63 59 49 27 20 13 11 9 10 10 10 10 10 10 10 11 11 12 12 12 13 12 12 12 12 11 11 13 13 13 12 11 10 11 12 12 12 11 10 6 6 6 10 10 10 11 10 10 10 10 12 17 17 17 17 18 18 18 17 17 17 17 17
                                                                       20 17 17 17 19 18 18 21 31 37 35 48 52 56 60 60 63 65 66 66 71 70 69 69 70 81 68 60 21 21 19 17 12 11 11 11 12 11 11 11 13 25 24 22 21 21 20 14 13 13 12 12 11 11 11 11 12 12 10 10 10 9 7 6 8 8 8 6 10 10 10 10 13 16 16 16 15 15 17 17 14 17 18 18 17 17 17 17 17 17
                                                                                                                                                15 17 17 17 19 18 18 22 40 47 51 51 57 57 62 62 62 65 62 62 56 42 68 78 81 81 67 28 21 21 26 26 35 36 36 29 29 28 24 24 27 27 24 22 21 21 20 20 13 13 8 8 11 11 13 11 11 10 10 10 9 9 7 11 10 10 10 10 9 9 15 13 15 16 15 15 16 15 14 14 14 16 16 19 19 19 19 19 19 17
                            15 16 15 15 20 20 22 32 40 47 51 51 57 57 60 61 56 56 62 62 56 42 35 29 27 67 67 42 33 30 29 29 27 36 36 29 29 28 24 21 21 23 27 22 21 19 18 18 18 17 8 8 8 13 13 13 13 10 10 9 9 9 12 13 13 12 10 10 9 9 16 16 15 15 15 15 16 15 15 17 17 16 16 19 19 19 19 18 18 17
                                                                                                    15 17 43 43 43 66 64 64 35 35 31 36 36 41 44 44 52 50 35 55 55 62 62 29 22 21 21 42 33 30 29 29 23 21 21 26 25 25 25 21 21 22 22 28 25 19 18 18 17 17 16 8 10 12 13 13 13 13 13 9 9 9 12 13 13 12 10 11 10 10 16 16 15 15 14 15 17 15 15 17 19 19 19 18 16 18 17 18 18 18
                                                                                                                                                                                27 41 43 43 43 66 65 65 35 31 31 36 36 41 44 44 51 53 35 35 55 62 62 41 22 21 21 32 33 34 34 27 23 21 21 22 25 25 25 25 22 22 22 23 25 25 18 16 17 17 17 17 10 10 14 14 13 13 13 12 10 12 12 11 11 10 11 11 10 10 15 15 15 15 15 18 18 15 15 18 19 19 19 16 16 18 17 17 13 9
                                                                  16 21 29 34 33 37 65 65 66 69 69 36 30 27 27 27 29 29 32 39 55 56 39 37 37 37 36 31 25 25 24 26 26 27 22 19 18 18 19 25 25 24 24 23 25 25 19 19 19 17 17 17 17 16 13 13 15 15 15 15 13 13 13 11 11 10 11 11 11 13 12 12 15 14 14 15 18 18 17 16 16 19 19 19 19 17 17 17 18 13
                                                                                                                                                  16 23 23 34 37 27 27 59 66 69 69 44 35 29 25 22 22 22 23 24 24 25 30 37 26 22 22 22 24 27 29 22 22 17 16 18 18 18 18 17 16 16 16 16 22 17 19 19 16 16 17 17 17 16 13 13 15 15 15 14 14 13 13 13 13 13 13 14 14 14 14 13 16 14 14 15 15 16 16 16 16 19 19 19 18 18 18 18 18 0
                                    17 18 19 22 25 24 24 27 33 62 53 53 35 26 25 22 22 18 18 24 24 25 19 19 20 22 22 18 18 18 20 29 21 18 18 18 18 17 17 17 16 16 16 16 16 17 17 15 15 16 16 17 17 16 15 14 14 15 15 14 14 13 13 13 13 12 12 14 14 14 14 14 13 15 15 15 15 15 16 17 17 18 19 19 18 18 17 17 4 0
                                                                                                                  18 18 18 18 18 19 24 21 25 31 47 47 32 22 19 17 17 17 17 16 16 16 19 19 17 16 16 16 16 19 19 18 17 18 18 18 17 17 17 17 16 18 17 17 17 18 18 15 15 16 19 18 18 18 18 15 14 14 14 15 15 13 13 13 13 12 12 11 10 14 14 14 13 14 13 15 14 14 15 15 15 17 17 16 18 18 19 19 18 0
    16 18 18 18 18 19 18 18 19 31 47 47 20 22 17 17 17 17 17 16 16 17 17 17 16 16 16 16 16 16 19 18 17 18 18 14 13 13 14 16 16 16 17 17 17 18 18 18 18 18 19 18 18 18 18 15 14 14 14 12 15 14 14 13 12 12 12 11 10 13 14 14 15 14 14 14 14 14 15 15 15 15 16 16 17 18 19 19 18 0
                                                                                   16 16 18 19 23 21 18 18 19 17 17 18 17 17 17 18 18 17 17 17 17 17 17 17 17 17 16 16 16 15 14 14 14 14 14 14 13 13 13 16 16 16 17 17 17 18 18 18 18 18 18 17 16 13 13 13 12 12 12 12 10 10 12 12 13 13 13 12 12 12 15 15 15 14 14 16 16 16 16 17 17 17 16 16 17 18 13 5 0 0
                                                                                                                                                                16 15 15 15 15 19 19 21 19 17 17 18 18 18 17 18 18 17 17 17 17 17 17 17 17 17 18 18 15 16 16 14 14 14 14 14 14 13 13 13 13 14 15 15 15 17 18 18 18 17 16 17 17 13 13 13 12 12 10 10 10 10 12 12 11 11 10 12 12 12 11 14 14 14 14 16 16 19 19 17 17 17 18 18 16 16 16 16 0 0
                                                 16 15 15 15 15 19 19 19 16 17 17 18 18 18 17 17 18 18 17 18 17 17 17 18 17 17 18 18 16 16 16 16 15 15 14 13 13 13 13 13 13 13 13 15 15 13 13 18 18 17 17 17 15 15 15 13 12 12 10 10 10 10 7 11 11 11 10 10 10 11 11 11 11 14 14 15 17 19 19 17 17 16 18 18 16 16 16 16 11 11
                                                                                                                                15 14 14 14 15 18 18 19 16 16 16 13 13 17 17 17 17 17 16 16 17 17 17 17 16 16 16 13 13 15 15 15 15 15 13 13 13 12 13 13 13 13 13 11 11 11 13 17 17 17 11 11 15 15 14 6 6 3 2 2 3 7 7 1 1 1 2 2 6 13 12 11 11 12 13 13 14 15 4 3 2 2 1 1 2 2 3 11 11 11
                                                                                                                                                                                         11 11 11 11 3 3 4 12 12 12 13 13 13 13 14 13 13 3 3 4 4 12 12 12 12 12 12 13 13 13 13 12 11 11 11 12 12 12 11 11 11 11 11 11 11 11 12 13 15 15 11 11 11 3 2 6 6 1 2 1 1 0 0 0 0 0 0 0 4 0 0 0 0 0 0 0 0 0 0 0 0 0 0 0 0 0 0 0 0 0
                                0 0 0 0 0 0 0 0 0 0 0 0 0 0 0 0 0 0 0 0 0 0 0 0 0 0 0 0 0 0 0 0 0 0 0 0 0 0 0 0 0 0 0 0 0 0 0 0 0 0 0 0 0 0 0 0 0 0 0 0 0 0 0 0 0 0 0 0 0 0 0 0 0 0 0 0 0 0 0 0 0 0 0 0 0 0 0 0 0 0
                      0 0 0 0 0 0 0 0 0 0 0 0 0 0 0 0 0 0 0 0 0 0 0 0 0 0 0 0 0 0 0 0 0 0 0 0 0 0 0 0 0 0 0 0 0 0 0 0 0 0 0 0 0 0 0 0 0 0 0 0 0 0 0 0 0 0 0 0 0 0 0 0 0 0 0 0 0 0 0 0 0 0 0 0 0 0 0 0 0 0
            0 0 0 0 0 0 0 0 0 0 0 0 0 0 0 0 0 0 0 0 0 0 0 0 0 0 0 0 0 0 0 0 0 0 0 0 0 0 0 0 0 0 0 0 0 0 0 0 0 0 0 0 0 0 0 0 0 0 0 0 0 0 0 0 0 0 0 0 0 0 0 0 0 0 0 0 0 0 0 0 0 0 0 0 0 0 0 0 0 0
  0 0 0 0 0 0 0 0 0 0 0 0 0 0 0 0 0 0 0 0 0 0 0 0 0 0 0 0 0 0 0 0 0 0 0 0 0 0 0 0 0 0 0 0 0 0 0 0 0 0 0 0 0 0 0 0 0 0 0 0 0 0 0 0 0 0 0 0 0 0 0 0 0 0 0 0 0 0 0 0 0 0 0 0 0 0 0 0 0 0
                                                                                                                                                                                     0 0 0 0 0 0 0 0 0 0 0 0 0 0 0 0 0 0 0 0 0 0 0 0 0 0 0 0 0 0 0 0 0 0 0 0 0 0 0 0 0 0 0 0 0 0 0 0 0 0 0 0 0 0 0 0 0 0 0 0 0 0 0 0 0 0 0 0 0 0 0 0 0 0 0 0 0 0 0 0 0 0 0 0 0 0 0 0 0 0
                                                                                                                                                                           0 0 0 0 0 0 0 0 0 0 0 0 0 0 0 0 0 0 0 0 0 0 0 0 0 0 0 0 0 0 0 0 0 0 0 0 0 0 0 0 0 0 0 0 0 0 0 0 0 0 0 0 0 0 0 0 0 0 0 0 0 0 0 0 0 0 0 0 0 0 0 0 0 0 0 0 0 0 0 0 0 0 0 0 0 0 0 0 0 0
                                                                                                                                                                 0 0 0 0 0 0 0 0 0 0 0 0 0 0 0 0 0 0 0 0 0 0 0 0 0 0 0 0 0 0 0 0 0 0 0 0 0 0 0 0 0 0 0 0 0 0 0 0 0 0 0 0 0 0 0 0 0 0 0 0 0 0 0 0 0 0 0 0 0 0 0 0 0 0 0 0 0 0 0 0 0 0 0 0 0 0 0 0 0 0