P2
90 90
255
74 82 78 75 72 72 72 74 76 76 76 73 71 67 67 
170 170 182 80 103 145 145 201 201 209 212 214 213 210 201 
185 185 176 183 183 92 80 83 83 89 98 96 90 93 93 
189 207 209 211 211 211 211 211 211 215 215 103 103 210 210 
190 148 108 82 65 68 68 68 84 158 186 199 204 206 206 
208 210 210 124 89 93 93 156 156 165 173 186 198 202 198 
79 91 91 91 72 72 72 80 84 87 85 84 84 82 78 
85 170 209 209 182 169 169 225 239 243 243 242 239 239 235 
202 208 208 183 183 47 48 51 51 53 56 58 59 61 93 
197 235 244 241 240 241 241 240 238 242 215 103 103 237 237 
206 206 198 189 65 68 68 68 175 200 216 224 228 228 229 
235 235 238 233 89 93 93 166 181 198 213 223 223 224 219 
79 91 91 91 93 94 85 80 84 87 85 84 84 82 78 
73 74 209 209 181 169 169 221 239 243 243 242 239 239 235 
202 208 208 203 46 46 51 52 53 53 54 54 56 57 57 
69 235 244 241 240 238 238 240 231 242 137 137 224 239 239 
211 214 217 217 215 65 69 69 194 206 216 221 224 224 224 
230 232 232 236 213 96 96 166 181 204 214 214 217 212 212 
168 192 193 201 209 211 211 199 72 72 74 68 68 76 73 
73 74 46 57 98 157 157 221 221 61 49 47 47 49 61 
189 189 46 44 48 48 52 52 54 54 56 56 57 59 59 
57 57 224 245 245 238 238 235 231 217 137 137 224 239 239 
211 214 217 217 228 228 180 177 194 208 216 221 224 224 224 
226 231 231 233 213 81 81 182 188 201 214 214 217 212 212 
189 216 216 214 209 211 211 224 74 38 38 68 68 58 58 
56 46 30 30 63 63 95 127 36 29 35 38 38 38 38 
40 40 40 48 48 51 52 52 53 54 57 57 56 59 59 
60 60 56 65 239 239 229 229 215 146 111 111 197 197 204 
212 227 217 217 228 228 235 177 189 208 215 212 217 224 226 
228 231 231 233 208 76 176 182 181 181 190 188 189 189 194 
189 222 221 221 224 227 225 225 197 38 38 170 170 174 179 
180 41 30 30 63 63 95 42 31 37 40 41 41 42 40 
40 41 42 48 48 51 52 53 53 56 57 57 56 58 58 
58 59 59 57 57 217 205 205 148 148 129 129 197 197 200 
230 232 232 217 239 235 235 230 191 195 205 212 217 222 225 
226 226 226 227 70 70 195 194 181 177 182 182 189 189 194 
198 222 221 221 224 231 231 225 197 46 46 184 196 205 205 
208 210 194 32 32 98 98 32 34 34 39 41 41 39 40 
40 41 39 47 46 48 49 49 50 50 55 55 57 58 58 
57 57 57 59 60 60 68 64 159 159 119 119 197 197 206 
206 232 232 231 239 239 232 232 191 195 205 219 224 226 226 
226 226 226 219 64 64 200 200 197 177 181 181 186 210 210 
199 225 218 218 220 231 231 225 69 69 183 194 202 205 205 
208 211 213 30 30 98 98 32 34 34 38 38 39 39 40 
40 39 39 39 46 48 49 49 51 50 48 48 57 57 57 
57 56 56 57 60 56 56 61 159 159 108 108 183 199 206 
206 231 231 242 242 232 232 232 227 208 215 222 226 227 227 
226 225 222 204 64 64 200 196 196 196 182 182 189 210 210 
196 223 218 218 220 235 235 217 69 166 192 201 203 205 205 
211 211 213 48 48 108 45 32 34 34 38 38 39 39 39 
38 44 165 58 45 48 50 50 51 52 48 46 46 53 53 
56 56 56 56 56 54 55 59 63 69 108 108 139 208 219 
226 226 232 242 242 230 232 232 230 213 213 222 226 227 227 
226 220 212 25 25 170 199 196 196 196 182 182 200 211 211 
196 220 214 214 216 223 221 72 72 183 192 203 203 203 207 
242 224 187 47 144 144 38 33 34 34 34 39 39 39 39 
39 205 205 165 45 44 44 49 56 56 49 47 47 53 53 
53 56 56 56 56 54 55 55 54 55 109 109 139 208 217 
226 226 228 230 231 230 230 231 233 218 218 223 226 227 227 
223 210 179 3 3 175 197 191 191 196 182 182 202 213 213 
147 174 174 207 207 206 44 44 169 183 199 203 203 203 242 
242 210 45 45 144 144 37 34 34 34 34 37 37 39 39 
56 209 209 48 41 44 44 45 56 49 47 47 47 52 53 
53 54 59 59 59 55 55 55 56 56 55 56 66 202 217 
223 224 224 224 231 231 231 233 233 221 221 226 228 227 227 
212 25 2 0 0 175 198 191 191 195 197 194 194 214 214 
147 174 174 183 197 181 44 44 184 193 196 196 203 236 236 
28 21 21 54 45 44 37 35 35 34 34 34 32 37 50 
208 208 209 38 46 48 48 45 48 46 46 46 47 48 54 
54 58 59 59 63 63 60 56 57 57 57 55 51 55 213 
223 223 223 225 225 230 230 232 232 221 221 226 228 228 226 
20 0 0 0 0 170 198 190 190 184 197 197 197 214 214 
173 201 201 202 207 208 134 162 186 186 196 196 203 216 18 
13 13 40 40 45 44 37 35 34 34 34 34 32 38 74 
208 208 47 42 47 48 48 48 48 46 46 46 48 48 50 
52 58 60 60 61 61 62 58 57 57 57 57 56 53 56 
218 223 223 225 225 230 230 232 232 232 225 228 228 231 216 
1 0 0 0 0 42 198 189 189 184 197 198 198 218 218 
173 201 201 203 214 214 169 169 186 186 196 206 200 13 11 
11 52 37 37 60 60 36 35 34 34 32 32 30 47 199 
199 202 37 42 47 48 48 56 52 46 46 49 52 50 50 
55 55 60 60 61 61 61 59 59 57 58 58 57 58 54 
64 225 224 225 225 230 230 231 232 232 228 230 235 240 179 
1 0 0 0 0 42 188 190 190 171 171 198 198 222 222 
173 201 201 201 212 212 203 179 169 220 219 207 10 0 0 
73 73 38 38 60 39 36 36 34 34 33 30 34 185 199 
199 44 37 42 42 48 51 52 52 51 49 49 53 53 56 
55 57 57 58 61 61 61 59 59 57 58 58 57 58 60 
57 211 226 223 223 230 230 232 236 237 233 218 160 170 170 
22 6 6 21 178 192 188 190 190 171 171 196 196 222 222 
165 198 201 201 209 209 203 179 220 220 209 5 0 0 0 
77 77 35 35 33 33 35 35 35 33 33 28 52 213 213 
193 41 43 43 43 48 51 52 52 51 47 51 53 56 56 
56 57 57 58 59 63 62 62 60 60 58 58 57 58 62 
62 62 205 220 220 223 237 237 235 154 135 135 132 183 201 
201 204 178 184 198 204 204 209 209 209 194 191 191 221 221 
166 193 193 200 209 209 190 158 173 34 4 0 0 0 20 
77 41 32 30 30 29 35 35 35 34 31 30 190 218 218 
68 45 44 43 43 48 50 53 53 53 47 47 50 56 55 
55 58 58 57 57 61 62 63 63 60 60 57 56 56 61 
61 63 59 200 224 224 230 218 124 140 144 144 182 198 205 
205 217 217 202 200 204 204 209 209 212 212 191 191 197 215 
166 193 193 197 204 205 19 7 9 2 0 0 0 159 95 
38 34 32 31 31 31 33 32 34 34 28 45 206 218 218 
61 45 44 43 43 46 50 50 56 84 56 48 53 55 55 
55 58 58 57 57 61 61 63 63 60 60 57 56 56 61 
61 63 52 52 194 194 51 68 68 140 144 144 192 203 208 
208 217 218 218 200 206 206 217 216 212 213 213 209 200 200 
165 193 193 197 198 183 2 0 0 0 0 0 15 159 159 
29 33 32 31 31 31 31 31 31 29 29 178 216 215 215 
62 62 45 44 46 46 51 51 58 84 105 50 49 50 52 
54 54 56 55 55 61 59 59 61 60 60 57 57 59 59 
62 62 52 52 54 16 16 68 88 88 105 175 193 203 208 
214 218 220 220 220 217 219 226 231 231 213 213 209 205 205 
158 194 212 212 182 46 2 0 0 0 0 3 204 204 172 
29 33 33 32 30 30 31 31 31 29 47 193 193 228 228 
62 62 48 47 48 48 54 56 56 54 61 60 46 50 52 
54 54 57 57 55 61 59 59 70 61 59 59 69 80 72 
62 62 62 54 54 50 16 13 88 88 105 174 192 202 209 
214 218 220 223 223 220 224 224 231 231 226 221 213 205 205 
194 221 218 218 211 200 190 30 5 0 0 28 206 206 177 
30 32 32 32 30 30 31 31 29 44 181 201 222 237 237 
69 44 48 46 47 47 52 52 56 57 51 83 51 48 52 
52 58 57 57 57 57 58 58 198 198 88 88 207 207 192 
66 66 86 54 54 58 13 13 13 70 146 174 190 201 208 
214 214 222 223 223 220 224 224 202 202 231 249 249 212 212 
206 229 222 222 223 225 223 208 161 7 7 199 196 184 184 
35 31 32 32 30 27 27 32 36 148 181 201 222 237 237 
204 44 45 46 47 47 52 52 57 57 51 83 83 47 52 
52 58 58 60 60 59 59 60 198 240 240 218 238 238 216 
73 73 126 79 61 61 55 5 5 30 146 177 190 200 207 
207 213 233 233 224 217 226 226 197 197 210 249 249 215 215 
206 230 224 223 223 222 223 208 161 36 36 203 186 182 182 
47 27 32 32 28 35 50 77 153 148 148 179 179 212 208 
208 196 39 39 47 47 48 52 52 62 89 63 67 49 50 
53 53 59 59 58 58 59 60 202 239 239 213 238 238 216 
80 80 89 71 60 60 60 8 8 28 149 179 191 200 206 
206 214 238 238 216 212 212 213 197 197 229 229 156 176 176 
205 230 224 224 224 222 216 191 34 34 62 203 186 182 182 
183 27 28 28 44 167 160 160 177 175 176 176 178 212 208 
215 215 198 40 45 48 48 50 52 66 89 65 57 57 47 
53 53 59 59 58 58 60 66 199 239 239 213 213 231 98 
70 70 58 59 60 60 60 8 8 26 72 179 191 200 206 
206 215 238 238 216 212 212 213 213 211 206 135 156 196 196 
208 231 226 225 225 221 208 167 8 8 180 202 179 171 171 
183 38 31 31 188 167 160 160 177 175 182 182 187 219 219 
220 218 218 201 41 48 50 50 54 69 105 65 54 54 48 
48 51 59 59 59 60 60 74 181 229 229 183 207 207 81 
70 55 55 57 55 55 64 14 14 24 72 178 192 200 206 
206 238 244 244 216 211 211 210 202 199 130 130 195 203 203 
210 232 226 225 225 221 191 10 4 4 190 197 180 180 170 
196 196 128 179 179 167 167 189 195 195 182 182 187 219 219 
220 217 217 221 47 46 52 54 54 83 203 80 54 50 48 
48 50 57 58 58 60 60 72 105 181 99 92 92 76 73 
73 51 51 57 55 55 70 18 18 24 74 174 191 199 199 
206 240 244 244 215 211 211 203 108 108 130 130 195 203 203 
210 233 229 229 225 201 10 0 0 4 194 194 183 190 194 
194 203 171 177 177 175 167 193 195 195 205 217 217 213 214 
214 217 217 227 69 43 52 54 54 100 236 236 56 48 48 
48 50 56 58 58 57 57 64 83 82 81 81 64 63 63 
73 51 51 196 196 77 77 18 18 26 76 170 190 199 199 
206 240 244 244 212 211 211 195 108 108 224 224 192 202 202 
153 218 217 217 176 156 10 0 0 14 193 193 183 188 194 
194 203 177 177 177 181 183 193 205 208 208 217 217 213 213 
236 227 227 229 185 44 53 53 57 107 242 242 68 48 48 
46 53 54 54 57 58 58 60 69 69 81 81 60 59 59 
57 51 51 231 231 112 112 19 19 22 76 170 190 198 198 
206 240 244 244 212 210 210 131 131 226 224 177 191 204 204 
143 158 156 156 166 181 188 161 35 35 193 193 174 188 188 
192 202 165 165 181 186 186 204 208 208 208 217 217 213 218 
236 227 227 228 79 48 55 55 58 101 242 242 88 48 46 
46 52 54 54 54 58 58 60 66 66 63 63 62 59 59 
54 49 59 232 232 112 112 12 12 20 59 167 186 196 206 
208 208 243 243 215 215 201 169 220 226 153 153 195 205 205 
143 158 156 156 166 195 195 169 30 30 190 175 174 176 176 
182 202 159 159 193 186 186 204 208 208 223 223 213 213 224 
224 222 222 227 79 47 54 54 55 88 240 240 217 51 46 
46 52 53 54 54 58 58 64 64 66 63 63 62 61 54 
54 47 75 232 232 65 65 8 8 53 53 156 161 161 200 
202 202 240 241 241 219 185 182 225 127 153 182 195 205 205 
158 180 165 166 166 195 195 169 18 18 184 176 176 176 176 
173 175 159 159 193 192 192 204 209 209 223 223 213 213 219 
222 223 223 227 194 46 54 55 55 75 226 226 217 57 46 
46 51 53 53 53 57 57 64 64 67 64 62 57 56 56 
53 51 194 194 77 50 50 4 4 48 48 140 161 161 192 
202 202 239 241 241 185 185 236 128 117 146 182 195 206 206 
106 185 184 166 171 171 175 7 7 15 168 176 176 176 174 
173 175 159 159 191 192 192 190 206 211 211 217 217 213 219 
223 224 224 227 204 46 53 55 55 64 86 110 96 70 50 
43 43 43 45 47 53 60 63 63 61 60 60 57 56 56 
56 201 201 85 56 56 50 1 1 48 48 56 140 160 160 
187 187 204 220 181 181 243 243 128 117 146 162 192 205 205 
106 106 163 144 144 134 8 1 1 15 168 175 175 171 165 
157 146 159 178 180 184 184 187 205 208 208 217 217 214 215 
224 224 224 227 204 46 52 55 55 57 73 73 83 83 56 
56 50 56 71 181 65 55 59 58 59 59 59 60 56 56 
74 201 201 65 52 52 41 1 1 6 37 30 36 34 50 
151 151 143 160 181 233 242 242 242 239 231 162 175 200 200 
22 22 14 11 6 2 2 1 1 22 148 148 149 149 29 
7 7 154 184 182 184 184 187 205 208 208 217 217 225 224 
223 224 224 227 204 45 52 52 53 53 55 60 73 73 70 
73 102 132 207 237 237 60 51 58 59 59 60 60 59 62 
176 176 82 55 52 52 41 12 1 1 4 9 11 14 50 
213 213 196 210 224 236 242 242 242 239 246 246 175 175 190 
22 19 4 0 0 2 2 59 59 12 12 16 59 59 10 
5 5 171 184 182 185 185 187 199 199 203 210 223 225 224 
223 224 224 227 199 41 47 52 53 53 56 56 69 70 68 
68 72 82 114 237 237 218 51 58 60 60 60 60 61 87 
176 176 66 51 51 53 91 31 0 0 0 1 0 14 216 
219 219 224 225 217 234 238 238 235 235 245 245 241 169 169 
32 19 4 0 0 10 95 59 9 9 12 60 60 15 6 
5 5 181 185 181 183 183 187 198 198 203 218 222 224 224 
224 225 225 229 191 37 45 47 47 54 56 56 69 70 68 
68 64 61 114 229 234 234 51 56 60 60 60 61 67 87 
87 71 63 51 51 60 134 34 0 0 0 0 0 34 213 
213 228 233 233 230 235 238 238 240 242 244 244 242 158 158 
160 166 166 92 92 99 35 11 11 9 12 60 18 10 10 
6 9 189 191 181 183 183 184 198 198 201 219 223 224 225 
225 228 228 229 69 34 42 47 47 53 53 53 63 68 68 
68 64 61 157 216 235 235 66 41 56 55 55 56 56 55 
53 56 56 64 56 55 102 38 0 0 0 0 0 168 213 
213 228 233 233 233 233 241 243 244 244 243 244 242 158 158 
160 166 166 110 110 42 20 13 13 9 36 36 13 10 10 
5 15 197 197 197 181 181 179 196 196 201 219 224 225 225 
225 228 228 228 61 32 42 42 46 53 54 54 62 68 68 
68 62 53 156 156 235 235 219 41 52 55 55 56 56 55 
53 56 56 64 55 29 102 102 10 0 0 0 0 164 207 
207 226 231 232 233 233 241 243 244 244 244 245 241 140 140 
155 155 111 110 110 27 17 13 13 19 27 15 14 14 13 
6 28 197 199 199 180 180 179 183 189 200 220 224 225 225 
224 226 227 227 56 25 36 36 50 53 54 54 62 62 62 
62 68 75 173 173 225 230 230 44 45 55 55 66 111 70 
67 57 57 20 20 28 194 194 193 173 11 0 0 164 194 
194 221 226 223 223 231 240 243 244 244 244 247 237 120 120 
155 155 111 111 96 18 16 15 15 20 16 14 14 14 13 
5 40 208 199 195 195 192 186 186 189 211 219 224 224 224 
225 225 227 227 46 25 36 36 41 53 53 52 53 50 50 
163 194 202 202 181 181 231 231 67 47 47 125 115 115 178 
194 194 190 20 20 188 207 211 211 210 197 15 15 155 194 
194 191 221 223 223 227 238 242 244 244 244 249 227 48 48 
97 98 98 99 14 11 11 15 15 17 17 13 12 12 10 
6 171 206 206 194 194 193 190 190 191 211 221 224 224 225 
225 225 226 226 29 21 31 31 32 22 29 34 33 33 170 
189 200 205 205 174 174 231 231 225 93 93 125 106 106 177 
194 194 212 212 176 185 207 211 211 210 207 191 54 54 186 
186 186 213 218 222 222 227 239 244 244 244 250 203 48 48 
91 98 98 21 11 10 10 10 12 17 17 12 12 12 10 
6 188 206 206 194 194 191 191 190 209 209 222 224 224 225 
225 226 228 225 18 5 5 15 22 22 29 34 35 160 181 
189 200 205 205 173 173 225 225 233 93 93 111 106 106 174 
194 194 206 224 224 200 204 211 211 210 207 211 54 54 178 
186 186 194 209 215 220 220 226 240 242 242 240 147 147 108 
90 90 34 18 11 10 10 10 13 16 16 12 12 12 8 
12 199 206 197 194 194 191 191 197 209 209 224 226 226 224 
224 229 231 219 20 5 5 18 160 169 169 165 121 160 181 
181 200 211 211 173 173 183 233 233 114 111 111 105 149 174 
193 211 211 224 224 201 202 213 213 218 236 211 190 42 42 
174 182 182 188 195 207 207 224 224 228 217 217 147 147 54 
90 90 28 18 14 10 10 15 15 14 14 10 10 10 6 
22 203 203 197 194 194 195 193 207 207 221 224 226 226 226 
231 231 233 207 20 20 169 191 197 196 196 196 184 121 137 
67 67 208 208 173 173 186 230 230 230 206 146 116 150 174 
174 211 211 212 204 182 202 202 213 236 241 241 217 33 33 
148 166 172 172 177 178 177 180 109 185 188 188 40 37 37 
73 73 25 19 14 15 15 15 16 16 16 16 15 15 6 
30 203 203 198 196 195 195 196 208 208 221 221 226 226 226 
231 231 233 48 48 168 193 193 204 204 204 204 206 204 62 
62 41 41 170 190 190 192 230 238 238 228 155 168 152 152 
190 190 73 95 95 182 190 195 195 239 241 241 230 33 33 
119 143 143 146 145 76 66 59 59 66 54 42 39 42 42 
34 30 25 25 16 15 15 15 16 16 16 16 15 15 6 
35 201 201 197 196 196 196 206 206 208 221 221 226 226 226 
227 232 229 48 48 187 193 193 205 205 208 210 212 209 62 
62 41 41 187 190 190 197 228 238 238 235 175 168 152 152 
168 56 56 95 162 189 203 207 207 204 240 240 227 42 15 
15 72 71 71 62 40 41 45 45 36 35 41 44 44 44 
34 33 25 26 26 14 12 12 17 18 18 13 13 12 6 
37 200 200 197 195 195 197 206 206 210 221 221 226 226 226 
227 235 212 51 169 192 192 201 205 205 208 210 212 209 182 
182 33 33 187 195 201 201 209 235 235 233 224 169 193 193 
155 56 56 145 173 192 205 211 211 212 209 215 215 162 6 
6 46 49 49 26 25 25 36 36 35 41 43 43 46 46 
30 33 31 26 26 24 12 12 13 20 20 13 13 12 6 
41 201 201 197 195 195 197 211 211 221 224 224 226 226 226 
228 235 42 42 188 195 195 192 183 183 198 198 205 144 182 
182 154 154 188 202 201 201 224 235 235 233 224 203 193 193 
91 119 138 138 173 192 206 211 211 215 215 207 207 42 1 
1 28 49 49 19 25 32 32 36 40 40 43 43 46 46 
25 28 28 29 27 27 26 18 18 23 23 13 13 14 7 
45 203 203 196 196 196 199 211 211 222 224 224 226 226 226 
230 230 42 42 199 195 195 192 183 183 190 198 204 193 112 
131 166 166 169 194 194 215 224 232 232 175 175 203 203 192 
95 130 138 138 152 200 209 211 215 215 218 218 207 27 0 
0 3 31 31 19 30 32 32 41 41 39 39 39 41 46 
24 27 27 28 29 29 28 18 18 21 17 15 15 14 4 
161 203 203 196 196 196 199 212 219 222 223 223 226 226 226 
230 213 50 175 202 199 199 196 193 193 190 168 168 167 174 
174 166 166 169 200 200 200 208 221 221 175 175 175 170 158 
84 130 138 138 192 201 209 209 215 220 218 218 213 24 0 
0 0 1 7 35 34 34 35 41 41 39 39 39 40 47 
23 27 27 28 29 29 28 17 17 19 19 17 15 3 3 
170 203 203 196 197 197 199 215 221 222 222 223 226 226 226 
226 50 50 193 202 202 198 186 193 193 187 168 168 167 193 
199 199 195 193 199 199 200 175 82 118 149 149 165 198 203 
203 201 203 203 202 202 202 217 217 229 229 216 216 24 0 
0 0 1 36 37 36 38 38 42 42 42 40 40 40 60 
22 20 19 19 20 24 24 17 17 17 19 16 12 3 3 
176 204 204 196 197 197 209 216 221 222 222 224 225 225 224 
213 41 41 195 201 178 177 177 190 190 187 179 183 186 186 
195 195 201 202 202 202 213 213 82 118 149 149 189 202 207 
209 209 210 210 202 202 202 216 226 228 228 216 216 32 0 
0 0 2 35 34 37 39 41 41 49 49 45 41 50 102 
22 20 19 19 20 24 20 18 17 17 17 8 8 3 6 
182 204 204 195 195 197 210 216 221 222 222 223 223 223 219 
190 41 41 184 184 173 175 175 183 172 171 171 181 181 190 
195 195 202 202 202 202 213 213 215 137 153 173 185 185 207 
210 210 210 210 211 212 209 214 214 228 228 222 222 42 0 
0 0 30 29 29 37 39 42 42 49 49 47 47 222 222 
23 23 23 19 17 21 20 18 16 16 15 8 1 1 14 
188 201 201 195 195 198 211 217 220 220 219 223 223 220 209 
39 39 138 168 167 173 173 172 172 169 169 177 181 181 192 
192 193 202 199 199 204 242 242 237 143 143 170 185 185 206 
210 210 215 245 245 245 241 212 212 226 226 222 222 48 0 
0 27 30 28 28 38 41 42 42 45 45 49 67 237 237 
23 23 23 21 16 12 20 20 18 11 8 3 1 1 24 
190 199 197 195 195 205 205 217 220 220 218 217 220 214 192 
26 26 136 159 159 171 173 172 172 169 169 177 177 181 192 
192 194 194 195 199 208 244 247 247 143 143 160 160 178 202 
207 207 212 245 245 245 241 208 208 216 214 214 215 49 1 
1 27 27 28 28 34 47 43 43 46 45 53 217 237 237 
25 25 24 23 24 3 3 14 11 11 14 65 65 39 40 
190 198 197 197 197 206 206 215 219 218 218 217 214 203 174 
22 22 134 159 159 173 174 172 172 169 168 168 174 185 191 
191 194 194 195 220 220 244 247 247 148 138 160 160 168 195 
203 203 212 239 239 212 206 205 205 216 214 214 215 43 5 
18 27 27 36 38 38 47 48 48 46 46 61 215 215 228 
25 25 23 22 24 3 3 9 46 35 35 65 65 20 152 
191 197 197 197 197 207 207 214 214 216 210 214 207 184 159 
21 21 134 159 169 174 175 175 168 166 166 166 178 185 185 
185 192 199 199 220 220 210 239 239 208 133 133 151 151 179 
186 186 189 193 206 205 203 205 205 204 206 206 212 35 6 
14 14 23 36 40 40 48 48 48 48 50 76 215 215 180 
24 24 21 21 21 12 54 46 46 65 71 71 18 18 165 
194 197 197 197 197 207 207 214 214 207 207 209 201 178 145 
18 18 130 149 169 174 175 175 170 166 166 164 178 178 180 
168 188 194 196 196 199 199 201 204 194 133 133 152 152 162 
186 183 183 186 200 201 203 203 203 204 204 204 205 26 6 
14 14 29 35 40 40 49 48 48 49 56 171 171 186 71 
22 24 21 21 15 19 54 54 100 100 71 71 21 21 173 
197 198 197 197 198 209 211 212 212 207 207 205 172 172 145 
18 18 124 139 139 141 168 171 170 166 164 164 167 172 160 
160 188 188 196 196 199 199 201 191 180 133 133 152 152 157 
180 183 183 186 200 201 197 197 199 198 204 204 205 17 6 
14 14 29 35 35 46 49 48 48 49 65 154 154 53 53 
18 18 11 11 17 49 28 84 100 100 67 67 21 21 178 
198 199 196 196 206 209 209 211 211 202 202 201 168 168 137 
6 6 115 132 132 130 119 158 161 160 159 160 160 163 160 
160 181 188 187 187 183 183 183 182 171 135 135 151 151 154 
168 168 172 178 195 197 197 197 194 198 198 203 200 8 6 
16 16 29 29 34 45 45 48 49 49 71 154 154 46 46 
24 24 11 11 29 16 16 84 84 86 127 127 26 26 183 
197 199 196 196 206 209 211 211 210 202 202 197 170 170 137 
4 4 26 132 132 130 101 101 123 124 124 148 138 142 155 
155 155 182 187 187 183 183 183 182 153 147 147 151 151 154 
165 165 172 175 184 184 194 194 190 196 196 203 190 2 2 
16 26 29 35 35 45 45 46 51 51 66 136 136 40 40 
24 24 18 18 15 19 19 59 59 120 137 137 42 42 185 
196 197 196 196 207 207 211 211 201 202 202 195 173 173 140 
2 2 16 128 131 131 101 101 115 115 113 110 131 136 136 
155 155 177 184 180 178 178 180 177 153 147 155 154 154 159 
159 165 173 173 181 181 191 190 190 190 194 202 178 0 0 
19 28 28 35 40 41 41 44 51 51 59 75 45 40 40 
10 21 18 18 15 19 19 21 36 120 137 137 70 70 184 
196 198 195 195 207 207 211 211 197 197 197 194 175 175 142 
0 0 6 120 131 131 127 101 115 115 103 103 131 136 136 
134 148 159 181 180 180 180 177 170 147 148 155 158 158 160 
159 159 173 173 181 181 188 190 190 191 191 201 169 0 0 
6 28 33 33 41 41 41 42 50 50 51 54 54 35 35 
5 5 14 14 4 4 17 17 28 48 67 60 31 81 188 
196 199 199 199 208 208 212 211 196 195 195 192 175 175 138 
0 0 1 25 126 127 127 122 126 126 102 102 134 137 134 
134 130 151 177 180 180 180 176 163 134 134 154 158 158 161 
160 160 173 177 177 176 176 187 187 191 191 201 162 0 0 
5 31 33 33 41 42 42 41 42 45 46 49 49 33 33 
2 2 0 0 1 4 17 17 28 47 27 12 12 147 191 
191 199 199 199 209 211 211 211 196 195 195 192 177 177 34 
0 0 0 11 82 129 133 122 126 126 102 102 141 145 145 
124 124 130 172 173 175 175 175 159 122 122 123 157 159 161 
160 160 166 166 168 177 177 185 185 188 193 207 43 0 0 
3 31 33 33 34 42 42 42 42 44 44 44 49 29 29 
2 2 0 0 1 13 17 17 48 48 27 12 12 164 191 
191 199 199 199 209 211 211 210 196 196 196 186 186 179 25 
0 0 0 3 64 64 133 130 127 127 125 107 141 147 147 
124 124 125 166 173 175 175 171 110 112 113 113 134 134 156 
158 158 166 166 175 177 177 185 185 193 199 209 42 0 0 
3 28 32 34 34 38 40 42 42 43 42 42 40 34 29 
10 8 2 0 0 1 1 4 48 48 23 43 43 173 189 
189 200 200 207 209 211 211 210 196 196 199 189 189 179 16 
0 0 0 0 64 77 77 121 124 124 125 109 109 147 147 
147 125 125 126 168 171 171 165 108 100 110 110 134 133 133 
152 159 165 165 175 178 178 191 191 194 198 209 42 1 3 
3 4 33 35 36 38 39 39 41 43 42 42 40 23 23 
47 47 68 9 2 1 1 1 0 0 5 43 43 181 187 
187 200 200 207 210 211 211 203 203 207 207 198 198 177 6 
0 0 0 0 9 77 77 118 118 114 120 120 109 144 147 
147 143 121 121 150 165 169 169 108 105 105 110 145 145 133 
145 149 149 157 177 180 180 191 191 197 197 205 45 1 1 
5 4 5 38 40 41 39 39 39 39 39 25 25 25 23 
48 48 83 83 44 6 1 1 0 0 1 0 28 181 186 
191 191 198 208 211 212 212 203 203 210 210 200 200 173 1 
0 0 0 0 4 71 71 118 118 114 120 120 97 97 146 
143 143 119 119 150 163 170 170 158 109 109 113 145 145 159 
159 149 149 167 173 173 186 191 191 197 197 204 43 3 3 
15 5 2 2 38 41 41 39 37 25 22 22 25 25 24 
48 48 73 73 46 34 34 1 0 0 1 0 26 188 185 
191 191 197 208 211 211 213 207 207 211 211 200 200 162 0 
0 0 0 0 2 20 96 112 115 115 116 123 97 97 137 
139 139 119 119 117 162 170 170 158 109 109 116 146 146 162 
166 166 167 169 173 181 186 186 195 197 197 204 36 4 4 
68 68 2 0 0 1 5 20 20 25 22 22 25 25 24 
92 92 73 73 46 34 34 2 0 0 0 0 39 192 185 
192 198 203 208 211 211 211 203 203 211 211 209 202 22 0 
0 0 1 1 1 51 51 112 115 115 116 123 88 88 93 
139 139 136 113 113 149 154 154 102 106 116 116 141 141 161 
166 166 167 175 183 184 184 186 199 198 198 200 25 0 0 
68 68 84 0 0 1 5 20 20 27 27 26 22 22 25 
92 92 89 77 67 71 65 62 58 52 52 44 174 191 184 
192 198 203 207 210 211 211 203 203 211 211 211 198 5 0 
0 0 1 1 1 51 73 106 110 110 119 119 89 89 95 
136 136 136 113 113 145 149 149 95 89 89 129 140 153 161 
161 173 176 176 184 185 185 196 199 199 199 200 13 0 0 
1 13 84 5 1 1 22 24 27 27 27 26 22 22 22 
163 174 174 95 82 71 88 78 70 70 62 59 181 180 182 
192 197 197 209 211 211 211 208 213 212 211 211 182 0 0 
0 0 1 2 2 11 63 82 90 90 119 119 97 97 106 
141 141 121 115 115 145 149 149 93 90 90 126 141 153 161 
161 173 174 174 184 185 185 193 197 197 198 192 3 0 0 
0 0 5 3 3 4 19 35 35 31 28 28 20 20 22 
187 204 204 188 174 101 88 78 70 70 62 59 180 175 175 
190 197 197 211 212 212 211 210 216 216 213 213 27 0 0 
0 0 0 5 5 9 63 82 90 90 118 118 101 101 106 
141 141 128 119 119 148 148 146 90 90 90 95 118 146 156 
164 170 174 174 178 178 178 192 192 192 197 176 0 0 0 
0 0 0 0 1 19 19 39 39 31 28 28 20 20 23 
187 214 203 203 191 178 163 144 74 74 60 67 180 175 181 
190 190 206 212 212 212 211 210 218 218 217 211 8 0 0 
0 0 4 5 5 9 20 81 90 90 95 117 101 101 133 
145 145 128 132 132 149 149 141 90 90 90 95 102 115 100 
153 165 172 175 176 176 178 193 192 192 192 19 0 0 0 
0 0 0 0 0 22 22 39 39 35 26 26 21 21 30 
194 217 209 209 201 189 177 160 81 56 56 154 172 172 183 
183 187 207 212 212 212 212 218 219 219 219 200 0 0 0 
0 1 5 5 6 9 15 33 87 87 95 116 100 100 133 
147 153 153 134 134 149 149 140 80 63 65 67 67 88 88 
105 158 167 172 176 176 178 193 192 192 175 25 5 5 2 
0 0 0 0 0 3 25 29 29 28 28 26 23 34 34 
196 217 209 209 210 189 185 169 142 68 68 159 167 167 184 
184 186 208 213 213 212 212 218 219 219 222 39 0 0 2 
2 2 5 7 7 7 11 24 63 63 89 114 114 100 97 
149 159 159 134 134 143 143 136 75 55 55 57 67 88 88 
105 149 161 169 175 175 180 194 194 187 31 54 54 72 79 
17 8 1 0 0 3 25 29 27 27 31 31 34 36 36 
198 220 214 214 210 190 190 169 142 65 65 159 159 167 184 
184 186 208 214 215 212 212 218 218 220 222 13 0 0 2 
2 2 3 7 7 7 8 16 63 63 96 109 109 87 87 
147 159 159 137 137 143 143 136 59 55 55 57 62 91 91 
105 154 162 177 179 179 182 193 193 21 31 65 65 72 79 
74 38 58 12 4 4 5 23 27 27 31 31 37 38 38 
208 246 241 241 222 190 190 170 138 65 65 159 159 163 181 
181 185 209 214 215 215 215 215 221 228 211 1 0 0 0 
2 2 4 4 7 6 6 9 54 54 65 109 109 80 80 
87 154 154 139 139 139 139 127 48 34 34 55 55 52 101 
101 154 170 182 182 179 195 195 40 21 46 65 65 173 173 
188 81 58 58 72 72 11 13 13 28 32 32 38 38 38 
215 246 241 241 230 189 189 160 30 50 50 145 145 168 174 
174 182 209 214 215 215 215 221 221 228 27 0 0 0 0 
2 2 3 3 3 5 5 5 11 65 65 110 110 80 80 
73 87 99 126 127 127 128 98 48 34 34 33 33 38 46 
56 143 169 182 182 180 164 126 40 97 46 46 68 178 178 
226 226 218 85 72 72 59 26 19 24 31 35 38 38 38 
206 229 221 221 212 206 164 127 30 24 24 109 109 144 155 
169 184 205 211 213 215 219 219 224 220 4 0 0 0 0 
0 0 3 3 3 5 4 4 5 15 53 111 111 76 63 
63 75 78 78 84 113 113 98 37 25 27 33 33 28 31 
56 35 104 150 160 164 164 126 168 117 74 74 75 178 178 
236 248 248 244 230 221 220 218 208 43 29 30 28 35 35 
203 229 212 205 205 197 164 127 194 197 202 206 206 206 206 
169 184 198 198 201 205 210 210 219 58 4 0 0 0 0 
0 0 0 0 0 0 4 4 5 8 16 100 100 75 63 
63 62 68 74 74 78 96 15 3 3 6 26 28 28 19 
14 9 3 3 92 232 232 227 168 108 79 71 71 95 204 
236 248 248 242 242 245 249 251 251 139 102 38 28 28 28 
198 223 212 205 205 220 224 224 226 226 223 223 223 223 223 
223 222 222 221 218 205 210 210 204 58 58 34 26 16 5 
0 0 0 0 0 0 0 3 5 5 5 13 82 82 50 
55 62 62 62 74 78 12 1 0 0 2 8 10 10 10 
3 0 0 0 28 232 232 227 55 108 79 71 71 87 111 
220 236 241 242 242 245 249 251 251 139 102 102 56 29 29 
184 216 210 222 225 225 225 224 223 221 221 221 221 221 221 
222 222 222 222 221 221 221 221 220 222 224 223 223 220 216 
207 191 24 5 0 0 0 1 1 1 1 2 6 9 9 
10 52 62 62 67 61 2 1 0 0 0 1 2 3 1 
1 0 0 0 1 4 7 14 19 31 42 42 55 87 111 
81 198 211 218 219 219 238 246 246 215 74 49 56 49 49 
184 205 219 226 225 228 228 228 223 221 221 221 221 222 223 
224 224 222 222 221 221 221 221 222 222 222 222 222 222 224 
226 226 226 218 204 185 17 2 1 1 0 0 0 1 2 
2 11 55 55 17 8 2 1 0 0 0 0 0 0 0 
0 0 0 0 0 3 7 14 47 47 48 48 50 51 51 
50 50 51 53 55 58 63 70 78 76 64 49 49 49 49 
140 140 226 229 230 228 228 228 225 223 222 222 222 225 225 
226 225 224 224 224 223 223 222 222 222 222 222 222 222 224 
226 226 227 229 229 229 226 217 36 9 0 0 0 1 2 
2 11 34 34 17 8 8 6 2 0 0 0 0 0 0 
0 0 0 0 0 3 29 54 54 48 48 48 44 44 51 
50 50 44 44 43 44 42 42 42 50 50 64 64 57 57 
81 81 226 229 230 231 232 232 231 227 225 225 225 225 225 
226 225 224 224 224 223 223 223 224 222 222 222 223 232 232 
231 232 232 232 229 229 226 233 233 233 212 7 17 24 24 
35 35 45 48 49 49 57 58 58 57 55 51 47 10 7 
6 6 7 10 20 29 29 49 49 46 44 41 41 42 42 
43 39 42 45 45 50 48 48 49 56 50 71 194 194 186 
127 182 182 227 228 231 232 232 231 227 225 225 225 225 225 
226 227 227 222 222 224 224 230 231 231 231 233 234 232 232 
231 232 232 232 231 231 231 233 233 233 228 32 17 24 24 
35 35 45 48 49 49 56 58 61 61 60 58 56 50 49 
49 51 65 141 141 167 49 49 49 47 46 46 41 42 42 
42 39 42 45 45 50 48 48 49 56 70 194 194 194 207 
142 182 182 227 226 226 227 227 225 225 222 222 223 223 223 
224 227 227 221 221 224 229 230 231 231 231 206 206 207 212 
217 220 222 222 225 223 219 219 219 220 219 213 206 198 49 
35 35 35 54 54 55 56 56 61 61 57 57 49 49 49 
49 51 65 141 187 187 194 47 36 47 46 46 45 46 54 
130 51 46 46 49 56 57 57 54 63 96 210 210 198 222 
142 180 180 224 226 226 227 227 225 225 222 222 223 223 223 
224 225 226 221 221 222 225 225 221 216 207 206 206 207 212 
217 220 222 222 225 223 219 219 219 220 219 213 206 198 180 
150 84 55 51 60 60 62 63 63 63 57 57 49 49 50 
58 70 93 172 187 187 194 63 36 43 45 45 45 46 130 
130 51 46 46 49 56 57 57 61 76 183 210 210 222 222 
