P2
90 90
255
214 208 211 211 211 210 209 209 209 208 207 205 199 199 196 189 187 187 187 185 185 185 185 185 183 183 183 183 183 183 183 184 186 181 156 158 160 160 164 177 177 175 175 175 174 166 166 167 172 172 172 173 174 235 250 248 248 248 248 248 248 248 248 248 248 248 248 248 248 248 248 248 248 248 248 248 248 248 248 248 248 248 248 248 248 248 248 248 248 248 
203 203 211 211 211 210 210 210 209 209 208 207 201 201 200 189 187 186 185 185 185 185 185 184 183 183 183 181 181 181 181 183 185 160 152 156 159 159 171 175 175 175 175 175 173 166 166 171 172 172 172 173 173 190 250 248 248 248 248 248 248 248 248 248 248 248 248 248 248 248 248 248 248 248 248 248 248 248 248 248 248 248 248 248 248 248 248 248 248 248 
201 203 212 212 212 211 211 211 211 210 208 203 201 201 200 194 188 186 185 185 185 184 182 181 181 181 181 181 181 181 181 181 183 170 160 161 158 158 163 163 166 166 174 174 168 166 166 171 173 173 173 173 173 189 250 248 248 248 248 248 248 248 248 248 248 248 248 248 248 248 248 248 248 248 248 248 248 248 248 248 248 248 248 248 248 248 248 248 248 248 
200 203 212 212 211 211 211 211 203 143 137 135 135 139 193 194 194 187 186 185 185 182 181 181 181 181 181 181 181 180 173 168 168 170 178 186 184 184 163 163 164 164 169 169 169 166 166 167 173 173 173 177 175 189 250 248 248 248 248 248 248 248 248 248 248 248 248 248 248 248 248 248 248 248 248 248 248 248 248 248 248 248 248 248 248 248 248 248 248 248 
200 200 211 206 209 209 207 142 132 128 126 126 127 127 129 134 184 187 186 186 183 183 181 181 181 181 181 180 171 171 171 168 168 172 171 171 184 184 176 164 164 164 166 169 169 166 166 168 173 173 180 180 178 242 249 248 248 248 248 248 248 248 248 248 248 248 248 248 248 248 248 248 248 248 248 248 248 248 248 248 248 248 248 248 248 248 248 248 248 248 
199 198 204 206 206 203 140 130 125 125 121 126 127 127 129 133 131 133 183 184 183 183 180 180 179 180 179 171 171 171 171 174 172 172 163 158 159 159 176 173 164 164 164 164 166 166 166 168 174 174 181 181 182 247 249 248 248 248 248 248 248 248 248 248 248 248 248 248 248 248 248 248 248 248 248 248 248 248 248 248 248 248 248 248 248 248 248 248 248 248 
196 198 200 204 201 139 132 132 121 121 117 117 123 123 135 135 136 134 138 182 183 181 180 179 179 179 176 171 171 182 182 178 174 165 163 150 152 152 155 173 173 164 164 164 166 166 166 169 176 176 181 181 186 249 248 248 248 248 248 248 248 248 248 248 248 248 248 248 248 248 248 248 248 248 248 248 248 248 248 248 248 248 248 248 248 248 248 248 248 248 
196 196 200 202 140 131 126 123 120 117 117 117 124 124 125 137 137 141 147 181 183 180 178 178 178 176 166 172 188 182 182 178 170 163 147 146 146 151 151 152 171 171 164 164 165 164 164 173 176 176 181 180 192 249 248 248 248 248 248 248 248 248 248 248 248 248 248 248 248 248 248 248 248 248 248 248 248 248 248 248 248 248 248 248 248 248 248 248 248 248 
195 196 199 196 127 123 122 122 122 122 118 118 124 124 126 137 137 145 149 179 183 183 177 177 176 162 162 190 188 179 179 175 164 164 147 146 148 149 149 149 150 171 171 164 165 164 164 173 177 177 182 183 195 248 248 248 248 248 248 248 248 248 248 248 248 248 248 248 247 248 248 248 248 248 248 248 248 248 248 248 248 248 248 248 248 248 248 248 248 248 
194 195 197 187 119 117 122 122 123 123 118 118 118 126 126 139 147 148 148 149 180 178 175 175 160 160 160 167 184 179 179 169 165 165 161 153 148 149 149 149 148 150 171 166 165 165 165 173 178 178 182 187 195 248 248 248 248 248 248 248 248 248 248 248 246 244 244 244 244 246 248 248 248 248 248 248 248 248 248 248 248 248 248 248 248 248 248 248 248 248 
192 193 194 132 115 114 114 115 123 123 118 118 118 126 126 131 147 149 149 147 149 178 178 174 160 160 160 163 183 183 179 170 170 167 164 161 150 150 149 148 148 148 171 171 165 163 163 166 177 177 187 187 243 249 248 248 248 248 248 248 248 248 248 247 228 222 222 231 234 241 246 248 248 244 246 248 248 248 248 248 248 248 248 248 248 248 248 248 248 248 
190 192 194 128 115 114 115 115 115 121 115 115 115 118 125 152 153 149 149 148 146 175 175 162 160 160 160 163 183 183 180 170 170 170 164 161 152 151 151 148 148 148 150 177 164 163 163 165 167 176 183 191 248 248 248 248 248 248 248 248 248 248 248 246 228 222 222 212 158 158 230 233 232 236 242 246 248 248 248 248 248 248 248 248 248 248 248 248 248 248 
187 189 191 129 117 115 115 114 114 114 115 115 115 118 126 152 155 155 148 148 146 149 166 160 160 156 156 162 182 182 180 177 170 170 171 164 153 151 151 148 148 148 148 177 177 164 164 164 164 183 183 237 248 248 248 248 248 248 248 248 248 248 247 245 221 214 214 200 151 158 158 155 154 222 236 243 247 248 248 248 248 248 248 248 248 248 248 248 248 248 
187 187 186 129 117 117 113 114 114 114 119 119 118 119 127 151 155 155 154 150 147 148 162 160 156 156 156 162 182 182 180 177 172 172 171 167 157 151 149 149 146 148 148 178 178 164 164 164 164 171 184 237 245 243 243 244 246 247 248 248 247 246 245 238 156 144 144 149 153 157 150 150 163 163 223 223 244 247 247 248 248 248 248 248 248 248 248 248 248 248 
187 187 184 129 117 115 114 115 115 121 119 119 119 126 126 147 153 153 153 152 148 148 159 159 155 155 155 174 180 180 176 173 172 172 172 163 157 157 150 147 146 146 147 153 177 164 163 163 165 202 202 205 202 201 199 199 238 244 245 245 244 241 235 167 167 127 127 127 153 157 150 150 163 163 202 202 231 242 244 246 247 247 248 248 248 248 248 248 248 248 
190 184 184 129 117 115 114 114 121 121 122 119 119 126 126 134 153 153 153 152 148 148 159 159 154 154 155 174 174 160 160 159 159 161 172 172 157 157 149 149 147 147 147 154 179 164 162 162 168 205 198 196 196 197 198 195 195 233 233 234 207 207 217 156 156 127 127 127 127 149 147 147 156 156 144 150 150 156 232 225 241 244 246 247 248 248 248 248 248 248 
206 183 183 127 111 115 115 120 121 121 122 120 117 123 123 143 147 148 148 152 135 135 156 154 154 154 154 159 158 157 157 157 157 158 159 162 158 152 149 149 149 151 157 157 180 163 162 162 211 205 198 196 196 197 198 196 195 196 196 196 196 197 187 156 129 128 128 126 120 119 119 134 134 133 129 135 135 143 158 225 218 218 220 242 245 246 247 248 248 248 
208 185 185 125 110 110 109 120 120 121 152 140 140 140 128 151 147 148 148 139 139 139 152 152 153 153 153 155 155 155 155 157 157 156 159 155 158 158 148 148 151 151 157 157 177 164 164 203 211 210 210 212 219 220 220 196 195 196 196 196 195 195 188 173 129 132 134 126 114 114 114 134 134 129 125 128 128 143 144 215 218 215 215 216 219 239 243 246 248 248 
208 205 200 128 110 110 109 112 118 153 153 145 148 149 149 156 156 156 151 139 139 139 154 151 152 152 151 152 154 154 155 153 156 156 152 152 158 158 147 147 147 159 159 159 174 174 169 190 189 189 191 193 219 220 220 213 198 196 196 197 197 195 183 183 181 132 126 126 114 114 114 130 130 129 120 120 127 127 129 207 217 215 215 215 215 216 217 242 247 248 
205 205 201 188 113 112 114 114 118 152 152 145 148 149 149 156 156 156 153 135 134 134 151 151 150 150 151 151 154 154 152 152 155 155 152 152 158 158 146 146 146 169 169 162 176 182 184 184 187 189 189 191 198 199 199 200 213 212 198 197 198 198 192 192 197 137 126 120 120 118 118 130 130 118 120 123 125 125 127 136 216 215 215 215 215 215 215 224 247 248 
182 201 201 199 116 112 114 114 121 151 151 144 144 151 152 152 156 156 156 154 139 139 151 151 150 150 151 151 152 152 152 152 151 151 151 151 150 147 145 145 146 169 169 160 177 183 184 184 187 189 189 197 198 198 196 196 196 199 212 199 198 198 196 197 204 198 124 120 124 124 123 130 130 116 116 123 125 125 128 132 139 213 215 215 215 215 215 222 247 248 
180 180 206 206 119 105 105 109 143 147 147 145 145 155 153 153 155 155 157 157 139 139 151 151 150 150 150 150 148 151 151 151 151 151 148 148 148 147 144 144 146 167 167 160 179 183 183 186 189 198 198 198 197 196 196 196 195 195 196 206 199 196 196 197 204 196 130 125 124 124 123 127 116 116 116 118 128 127 127 142 142 151 215 214 214 215 214 222 247 248 
180 180 206 206 125 105 105 109 144 147 147 154 153 153 153 153 155 155 157 157 154 150 154 155 150 149 149 145 145 148 148 148 148 147 148 148 148 147 144 144 147 170 170 164 181 185 185 198 199 199 198 197 197 195 195 195 195 195 194 193 209 196 196 204 204 193 176 125 125 126 128 127 116 115 115 118 128 128 127 142 142 152 213 215 215 215 214 221 247 248 
214 195 210 210 194 108 108 110 144 148 143 143 153 153 153 153 154 154 154 154 154 150 149 155 155 152 152 145 144 144 148 148 148 147 147 148 148 144 144 144 147 170 170 164 182 182 186 198 199 199 197 197 197 195 195 195 195 195 193 191 192 207 201 201 202 193 180 126 126 126 124 124 116 116 116 120 128 128 127 129 143 152 212 216 215 215 214 221 247 248 
217 200 202 202 196 114 115 115 147 149 149 147 147 148 148 148 154 154 144 144 147 147 148 155 153 152 152 145 144 144 142 143 146 147 147 148 148 144 144 144 147 167 164 164 183 183 187 198 199 199 197 197 197 197 197 196 196 194 193 192 189 207 201 201 200 193 179 132 124 122 124 124 116 116 116 131 131 126 126 127 134 152 212 215 215 215 214 221 247 248 
217 214 195 195 195 123 119 119 151 149 148 148 148 148 148 145 146 148 148 142 142 147 186 159 153 153 149 149 147 141 141 143 144 145 145 146 142 142 142 143 147 157 157 179 183 183 191 191 199 199 200 199 197 197 197 196 196 193 193 193 189 188 183 165 175 175 174 140 125 122 125 120 116 116 126 131 131 126 126 127 134 153 209 213 215 215 214 221 247 248 
217 212 191 191 195 150 142 150 153 150 148 148 148 148 145 144 144 147 147 145 142 145 192 192 153 153 149 149 147 141 140 140 142 141 141 141 141 142 142 142 142 148 157 182 185 185 191 191 199 200 200 199 199 197 197 197 196 196 195 194 191 189 184 165 170 170 167 159 125 121 121 121 120 120 126 128 128 124 124 126 152 152 164 211 215 215 215 221 247 248 
211 212 191 191 202 154 149 154 153 153 148 148 147 145 143 144 144 147 147 145 139 144 194 194 155 151 149 148 148 146 140 140 139 139 141 141 141 138 140 140 141 148 177 184 187 187 192 192 199 201 203 203 199 199 199 197 197 196 195 194 191 189 184 165 170 164 164 161 127 121 123 123 120 120 124 119 119 117 118 125 152 152 164 206 214 215 215 222 247 248 
211 213 209 209 202 156 152 154 154 153 147 147 145 136 136 136 136 145 145 145 141 151 194 194 184 152 152 148 148 146 144 139 139 139 139 139 139 138 138 139 141 149 181 181 187 187 189 192 201 202 203 203 203 199 199 198 198 196 195 194 193 194 190 157 162 164 164 161 152 126 121 121 119 130 130 119 119 117 118 129 155 155 172 207 214 216 216 223 247 248 
211 215 209 209 215 156 152 154 154 148 146 146 143 136 134 134 133 135 141 141 140 151 188 185 185 154 150 148 148 146 144 141 137 137 137 137 134 134 136 137 142 175 181 185 187 187 189 192 202 202 203 203 204 200 198 198 198 197 195 195 197 194 190 198 178 165 161 161 152 123 121 121 118 130 124 124 117 124 124 128 137 156 172 206 215 218 218 225 247 248 
208 210 209 203 214 215 156 154 154 147 146 146 144 135 133 133 133 134 141 141 140 189 188 185 185 180 151 148 145 145 143 137 134 134 134 135 134 134 134 136 148 175 180 185 188 188 189 198 202 202 203 204 204 199 198 198 198 198 197 195 194 186 202 202 178 168 159 159 129 122 118 118 118 121 121 118 118 125 125 129 137 150 192 206 206 223 223 226 247 248 
208 210 209 143 143 230 230 155 149 147 146 146 142 135 133 133 133 133 136 136 139 189 194 186 186 185 155 149 146 146 143 140 134 134 134 133 133 133 134 145 146 146 147 152 158 188 193 195 197 197 198 204 204 199 198 198 198 198 197 193 169 169 202 202 169 169 146 146 129 122 118 118 119 121 117 116 116 125 125 130 136 150 192 207 217 223 223 226 247 248 
211 215 205 127 127 230 233 233 151 147 147 140 140 139 131 131 133 133 136 136 137 186 195 191 191 188 183 154 149 146 146 142 134 134 131 131 143 145 145 145 146 146 147 152 162 162 190 195 197 197 197 203 203 199 198 198 198 198 198 197 172 179 182 182 162 162 143 143 139 122 122 128 128 126 117 114 114 117 132 136 140 140 177 177 217 223 223 228 247 248 
211 215 138 125 125 125 233 230 230 148 142 140 140 131 129 129 132 132 132 132 132 190 195 193 193 191 187 170 170 166 144 144 134 132 132 146 147 147 145 147 147 147 161 162 162 162 183 183 195 197 198 199 199 198 197 198 198 198 199 197 172 179 182 168 168 160 143 143 133 133 134 128 128 126 116 114 114 117 133 136 141 141 177 177 190 219 219 227 247 248 
154 131 127 124 124 117 223 230 230 225 142 139 139 131 131 127 125 129 129 134 193 197 195 194 194 192 189 184 168 168 173 144 138 136 147 149 149 147 148 150 151 158 157 162 162 162 155 159 166 196 198 199 199 198 197 197 198 198 198 200 202 170 168 168 168 162 144 144 131 131 131 121 121 116 115 115 115 127 133 133 141 141 176 176 190 219 219 225 247 248 
137 122 122 121 124 116 118 230 226 226 220 139 134 134 132 133 199 201 202 202 202 197 195 194 194 193 190 187 168 168 177 175 151 150 150 149 149 150 164 162 162 159 151 148 148 148 148 150 155 162 197 197 197 197 196 196 198 198 198 200 202 170 168 171 171 162 144 144 128 128 130 121 116 115 115 115 116 129 129 140 139 139 180 199 217 219 219 223 247 248 
132 122 122 116 115 115 111 217 226 221 221 215 134 134 135 210 210 208 208 202 199 198 198 197 193 193 188 188 185 177 177 175 151 150 150 150 152 168 168 162 162 155 155 148 148 147 145 145 148 152 192 197 197 197 196 197 197 197 198 174 174 180 180 171 171 164 138 138 128 128 132 121 116 115 115 115 128 129 129 140 136 136 182 201 216 220 220 222 246 248 
129 121 121 114 114 114 112 117 223 221 218 218 206 144 205 207 206 207 207 206 199 198 198 197 194 194 188 188 190 177 177 174 160 160 160 160 158 168 168 164 158 155 155 148 147 147 145 145 143 146 153 195 196 196 197 197 197 197 198 174 174 178 178 170 170 147 138 138 129 129 132 119 118 117 115 115 131 131 132 123 123 133 190 204 216 222 224 224 244 247 
129 118 115 114 114 112 112 109 216 220 215 215 214 199 208 206 206 207 207 206 200 198 197 197 195 195 193 192 192 174 174 168 161 161 160 160 170 167 162 162 157 155 155 149 145 143 143 141 141 143 146 190 195 195 195 195 195 195 194 193 190 178 178 170 167 144 138 138 128 128 122 117 118 115 115 118 131 131 122 121 121 133 195 205 205 222 224 224 240 244 
127 118 115 115 110 112 112 108 124 219 215 215 214 205 208 206 206 208 208 206 200 199 199 198 195 195 194 192 192 188 166 164 161 161 158 161 170 166 162 162 157 157 155 149 145 143 141 140 140 142 142 152 194 194 195 195 195 195 194 193 190 176 170 170 164 144 138 136 136 122 118 117 117 115 115 123 123 123 122 121 121 184 195 205 205 225 224 224 232 234 
118 115 115 115 109 108 108 108 111 219 217 222 222 205 205 206 206 209 209 208 201 199 198 198 196 196 195 190 187 187 170 164 164 157 157 172 172 153 159 158 157 157 156 150 150 143 141 140 140 141 141 146 194 194 194 194 193 193 193 186 175 170 166 166 149 133 133 136 136 132 118 118 119 113 113 123 124 124 128 122 122 184 205 217 225 228 228 224 232 234 
114 115 114 114 109 107 107 108 105 213 222 223 223 176 176 208 206 209 209 208 202 199 198 198 196 196 195 189 187 187 170 165 158 157 157 172 172 151 151 158 157 157 156 150 150 148 144 143 143 141 141 143 193 194 190 190 190 189 191 189 160 160 149 142 142 133 133 133 135 133 117 117 113 113 117 126 126 126 129 122 122 133 206 217 225 228 228 225 225 229 
114 111 111 111 110 107 107 108 105 118 222 223 223 176 176 207 206 206 207 205 205 204 198 198 196 196 195 193 189 179 179 172 158 157 157 168 154 151 151 158 157 157 156 150 150 148 144 144 144 140 140 143 193 193 190 190 190 189 187 189 206 206 149 142 142 131 131 134 134 136 117 113 113 117 117 126 126 126 130 117 117 129 198 209 209 227 227 214 214 213 
109 111 111 110 110 106 107 107 106 108 214 218 218 157 157 202 204 202 202 204 204 204 199 197 196 196 197 195 190 179 179 160 157 157 158 168 153 153 153 159 157 157 157 158 149 149 145 144 144 140 140 143 197 197 185 188 188 185 185 189 208 200 194 194 195 200 136 136 136 136 117 113 113 117 117 128 128 128 130 117 117 129 198 209 209 229 229 210 209 208 
109 109 109 110 110 106 107 107 107 104 203 212 212 144 144 193 204 202 202 204 204 204 199 197 197 197 197 196 192 178 178 160 154 154 146 149 151 152 152 153 151 151 158 158 159 149 145 145 139 139 139 144 202 202 185 186 186 185 185 206 208 193 194 194 194 200 204 141 138 138 116 116 123 123 119 128 128 127 127 123 123 137 198 217 226 229 229 209 209 208 
112 109 109 109 110 106 107 107 107 104 119 209 209 189 136 136 200 201 201 200 199 199 199 198 196 197 197 196 193 176 176 152 145 141 141 141 151 152 152 152 151 151 152 153 159 156 146 144 144 139 139 147 214 214 180 182 182 183 188 204 180 193 194 194 194 196 204 149 138 123 122 124 124 123 120 110 114 114 121 132 143 161 210 221 221 228 228 209 209 212 
112 109 109 109 110 109 103 107 107 106 109 209 209 189 141 141 199 199 199 199 199 199 199 197 196 196 197 196 193 184 158 152 145 141 141 141 141 150 152 152 152 151 152 152 154 154 154 144 144 139 139 145 220 220 180 182 182 186 203 183 180 191 195 194 194 196 199 150 129 125 125 124 124 123 110 110 114 114 131 131 143 163 210 221 221 228 219 216 213 212 
112 112 109 109 109 109 107 99 106 106 104 204 204 192 147 147 199 199 199 199 199 199 197 197 197 197 197 196 192 184 158 158 137 134 137 137 139 141 152 153 152 152 152 152 154 155 155 145 145 139 139 143 216 216 180 180 199 203 183 183 196 196 193 156 158 158 123 126 130 125 125 124 112 112 120 122 123 123 123 131 157 157 207 215 215 226 219 216 213 212 
112 112 109 109 109 108 109 101 104 104 104 196 199 199 149 149 197 199 198 198 197 197 197 197 197 196 196 191 191 186 156 156 135 133 136 136 139 139 152 153 153 152 152 152 155 155 155 145 142 140 140 144 216 216 202 202 200 188 183 183 196 196 143 143 158 158 113 113 131 131 121 117 112 112 120 122 123 123 123 127 148 148 152 215 223 223 226 215 213 212 
111 108 108 107 107 108 108 103 103 105 104 113 198 198 148 148 194 198 197 197 197 197 197 197 197 196 196 191 191 186 156 156 136 133 136 136 137 138 140 153 153 152 152 152 152 152 151 144 142 140 140 144 200 204 200 200 194 194 195 195 194 139 143 154 154 152 113 113 131 131 115 115 105 105 107 122 122 121 116 134 148 148 151 213 223 223 228 214 211 211 
108 108 108 107 107 108 108 103 105 105 105 105 198 198 148 148 190 198 197 197 196 196 197 197 197 196 196 196 205 193 156 156 135 133 133 137 137 138 139 151 153 153 152 152 152 152 151 144 144 142 140 143 202 204 200 200 194 194 195 195 146 135 135 154 154 107 107 112 133 116 109 105 105 105 107 110 110 113 113 141 141 151 151 175 215 215 227 210 205 206 
108 110 110 107 108 108 108 103 105 105 105 102 194 194 149 149 151 198 196 196 196 196 197 197 197 196 197 205 205 172 157 157 135 133 133 134 134 139 139 138 151 152 152 152 152 152 151 143 141 141 138 144 206 206 170 170 174 174 176 150 140 135 135 147 148 106 106 154 154 116 109 109 107 107 107 110 110 114 149 149 147 147 158 213 215 215 226 223 180 180 
110 111 106 105 105 107 107 102 105 105 105 102 117 186 152 144 144 196 196 196 196 197 197 197 197 196 198 204 199 160 156 156 135 134 135 134 134 136 136 137 139 150 151 151 151 145 144 144 142 141 138 147 206 206 170 170 174 174 176 143 143 137 137 144 105 106 106 154 144 122 122 119 110 104 104 107 148 153 154 154 148 148 146 213 229 229 229 223 178 176 
107 108 107 105 105 107 107 99 104 105 105 104 108 183 152 144 144 192 197 196 197 197 197 197 197 197 198 191 137 137 156 156 135 134 135 134 134 136 136 136 137 139 150 150 149 145 144 144 142 141 137 151 204 184 179 180 182 182 172 140 140 137 137 144 99 99 109 158 150 150 146 146 141 134 141 150 155 155 154 154 148 148 144 149 229 227 227 189 179 178 
107 108 107 104 104 107 107 99 99 106 106 105 102 178 178 119 119 185 197 195 195 197 197 198 198 196 191 191 135 135 134 132 127 133 133 136 134 134 136 136 137 137 147 145 143 143 141 141 140 139 137 203 203 184 180 180 182 182 139 140 140 134 134 127 99 99 146 158 153 153 154 143 143 150 153 156 155 155 155 145 144 144 144 143 226 227 227 183 179 178 
109 104 102 102 105 107 107 107 100 106 106 106 102 178 178 119 119 131 197 195 195 196 197 197 189 191 198 198 135 135 134 132 127 127 138 142 135 135 135 135 136 136 137 145 143 141 141 141 140 137 139 211 211 203 180 180 181 178 130 130 133 133 133 127 108 102 144 142 153 153 158 143 143 155 157 158 158 156 143 145 144 144 144 143 211 199 189 183 181 181 
108 104 104 98 98 107 107 107 100 106 106 106 101 172 172 120 134 134 193 194 194 189 189 189 189 191 211 207 132 135 135 141 122 122 139 144 144 136 135 136 136 136 135 135 141 141 141 141 139 135 216 211 211 180 176 176 179 131 125 125 123 133 133 110 110 144 144 145 155 158 158 140 156 158 158 158 158 137 143 145 145 143 143 144 151 192 189 189 188 188 
104 104 104 97 97 106 107 107 100 100 105 105 103 108 174 150 134 134 185 192 192 189 189 189 206 204 211 96 96 135 142 142 115 126 139 144 144 143 137 136 136 136 134 134 141 143 143 140 135 137 223 223 218 180 176 176 132 126 124 124 123 144 144 116 116 148 150 147 145 145 132 132 158 158 158 159 156 137 142 145 145 143 143 144 146 192 201 201 201 206 
104 104 104 97 97 105 107 107 107 100 105 104 104 103 170 155 155 133 136 204 200 200 201 207 206 206 95 91 91 91 142 142 149 133 136 143 143 143 138 136 136 134 134 134 141 143 143 133 133 203 223 223 212 182 182 126 124 124 123 123 125 148 148 116 116 148 150 142 144 144 132 132 158 158 158 158 131 131 144 148 148 143 143 144 144 153 201 201 201 206 
113 100 100 92 92 105 107 107 107 98 98 104 104 103 158 154 154 127 127 203 200 200 201 207 201 96 94 93 93 89 140 155 155 197 197 146 141 139 139 133 129 129 135 135 143 143 133 133 145 203 213 212 212 131 121 122 122 122 123 123 144 148 148 121 121 146 138 138 148 148 151 155 155 157 157 155 130 130 145 148 148 143 143 144 144 149 199 201 201 206 
113 100 100 92 92 103 106 107 107 98 98 105 105 100 158 154 154 127 127 203 201 201 204 195 97 97 96 93 93 90 92 155 155 199 206 206 202 142 136 136 129 129 135 145 145 143 126 126 113 125 202 202 117 118 121 122 122 122 123 123 146 151 151 147 114 114 138 149 148 156 156 155 155 155 155 134 130 130 148 149 149 142 142 142 142 146 194 199 199 204 
110 98 90 91 91 103 106 106 106 105 98 105 105 101 149 150 150 142 129 198 204 204 194 99 97 97 96 92 92 90 88 157 181 199 206 209 209 209 205 150 147 151 150 150 113 111 111 109 108 116 134 118 114 114 121 122 122 120 120 123 149 152 152 149 114 114 152 155 156 156 156 152 153 153 153 132 132 130 149 150 150 138 138 141 141 142 188 196 196 200 
100 100 88 87 87 102 105 105 105 105 96 104 104 102 109 144 138 138 114 197 203 203 103 99 95 94 94 93 92 90 88 114 199 199 199 209 209 209 215 116 113 112 107 106 106 110 110 110 113 111 111 114 114 115 115 123 123 118 118 148 151 152 152 149 122 122 158 158 156 147 147 147 153 153 134 131 131 130 148 148 148 138 138 138 140 140 183 187 185 185 
98 98 87 86 86 100 105 105 105 105 95 95 103 103 105 138 115 115 105 108 123 115 97 93 95 94 94 94 94 92 88 114 212 195 195 192 217 217 215 102 100 104 106 106 106 110 110 110 111 111 111 114 114 115 115 121 121 113 117 153 152 153 153 149 139 159 158 158 148 148 147 147 152 152 133 131 131 130 148 148 148 139 138 138 140 140 147 187 182 182 
98 98 86 86 86 98 104 105 105 105 103 95 103 103 103 135 115 115 100 100 99 106 94 91 94 94 94 94 94 93 90 105 189 187 187 204 204 214 214 102 100 104 106 109 109 110 110 111 111 113 113 113 113 115 115 115 113 113 153 153 152 153 153 140 140 159 152 152 148 148 148 154 154 136 133 130 130 130 148 148 148 145 138 138 140 140 144 186 182 182 
98 98 85 86 86 98 102 105 105 105 104 93 103 103 103 125 121 121 100 100 99 101 93 91 94 94 94 95 94 94 93 100 178 178 197 201 201 214 214 196 101 102 107 109 109 113 111 111 111 112 113 113 112 112 117 117 111 112 154 150 152 152 154 140 140 154 152 152 152 159 159 158 156 134 132 132 129 130 148 148 145 142 142 137 137 143 143 187 187 190 
101 98 84 84 86 98 101 103 103 105 105 91 91 104 104 108 121 121 102 100 100 94 94 91 93 95 95 96 94 94 95 100 178 178 197 201 201 202 202 204 200 104 103 109 109 113 113 111 111 112 109 111 112 112 112 119 119 149 152 149 149 151 154 139 155 154 154 155 159 159 159 158 132 133 133 132 128 129 146 146 146 142 142 137 137 143 143 151 223 226 
101 87 84 84 86 97 101 103 104 104 104 91 91 102 102 106 145 145 106 99 99 93 93 91 93 93 97 94 94 95 95 102 177 183 183 189 211 211 202 204 190 190 107 103 112 112 112 112 112 113 116 111 112 112 112 112 119 150 150 149 149 155 151 139 158 159 159 159 159 156 129 127 129 133 133 132 126 126 145 146 146 142 142 141 137 138 143 150 223 226 
100 86 84 84 86 97 100 103 104 104 104 101 90 102 102 106 150 150 136 99 99 93 93 92 91 99 99 94 94 97 97 102 168 183 183 189 211 211 209 179 179 189 189 103 111 112 111 112 112 115 119 119 113 113 113 112 116 150 150 150 151 155 143 159 159 159 159 158 133 133 129 127 129 133 133 132 125 125 145 146 146 143 143 141 138 138 149 149 210 213 
98 85 84 84 87 97 99 99 102 103 103 103 87 87 104 104 150 150 135 100 106 95 92 92 92 99 95 95 97 97 100 169 169 169 179 202 202 209 209 179 179 189 189 106 104 112 111 111 115 117 119 119 119 120 120 118 120 150 150 150 151 151 156 160 159 159 157 140 133 133 136 134 134 133 133 132 124 124 145 146 146 143 143 142 137 137 149 149 174 180 
95 85 84 84 87 96 99 99 97 103 103 103 85 85 102 102 140 140 131 99 107 107 92 92 93 101 95 95 96 102 186 186 169 169 198 198 188 188 191 174 174 193 185 185 102 106 111 111 116 117 117 118 118 120 120 118 120 150 149 149 151 143 156 160 160 158 145 144 144 143 141 137 137 136 133 132 124 124 145 147 147 143 143 143 137 137 148 148 174 180 
95 86 84 84 93 96 96 96 97 103 102 102 85 85 102 102 140 140 133 98 107 107 91 91 101 101 95 95 103 172 186 176 176 175 199 193 188 188 191 175 215 215 183 183 196 202 106 106 106 116 117 118 118 119 120 117 120 151 150 150 149 142 154 154 156 143 145 144 144 143 140 137 137 136 133 125 125 124 145 147 147 143 143 143 137 137 137 146 158 216 
95 92 85 85 93 95 95 96 98 102 102 102 98 86 100 100 134 133 133 95 109 109 92 92 100 95 95 169 167 167 167 172 176 197 177 177 170 174 174 170 215 215 177 177 211 211 204 180 115 111 111 113 114 114 114 110 145 151 151 151 142 142 154 154 153 139 140 140 140 138 138 138 136 132 129 123 123 123 143 146 146 143 143 143 139 137 137 158 158 221 
96 86 85 85 92 95 95 96 97 102 102 102 98 84 84 96 134 140 140 92 92 110 96 100 100 99 179 179 165 165 167 172 193 193 172 172 170 174 174 162 162 162 177 177 198 198 186 185 185 188 189 120 117 117 119 122 145 150 151 151 141 154 154 154 136 139 140 140 140 138 138 132 131 131 129 123 123 121 141 146 146 145 142 142 140 140 136 141 160 221 
96 86 86 90 92 94 94 97 97 101 101 101 98 84 84 93 109 150 150 92 92 120 101 101 104 187 187 164 165 165 172 192 192 186 172 172 163 173 160 160 162 162 173 173 191 191 177 177 178 188 200 221 214 214 211 211 154 148 148 141 141 154 154 134 136 138 140 140 140 137 137 131 131 131 129 127 125 119 120 145 145 145 142 142 142 140 138 137 207 223 
96 86 86 90 92 94 94 97 97 101 101 101 99 83 83 87 109 160 160 92 92 120 120 115 191 191 187 162 162 168 193 192 192 186 178 171 164 177 160 160 170 170 154 154 191 191 171 171 178 171 182 214 215 215 204 204 155 148 148 141 141 143 134 134 134 143 141 141 130 134 133 131 131 131 129 125 125 118 118 145 145 145 142 142 142 138 138 137 202 223 
97 85 85 90 92 94 95 95 96 101 101 101 99 85 85 85 107 165 165 93 93 96 184 197 191 191 199 162 162 183 183 178 185 193 172 164 164 189 160 160 170 170 150 150 184 171 168 168 166 169 179 205 208 208 201 201 153 148 148 142 142 138 134 134 146 143 143 128 126 126 130 130 130 128 128 125 125 118 118 144 145 145 142 142 142 138 138 134 202 200 
100 85 85 90 92 92 95 95 100 100 101 101 99 87 83 83 103 171 171 93 91 91 184 201 200 199 199 165 165 183 183 182 215 215 178 178 196 196 163 163 169 169 150 150 171 171 168 168 166 169 179 205 208 208 201 201 149 146 140 140 145 145 146 147 147 146 144 124 126 126 123 127 127 128 128 123 123 111 111 141 141 144 142 142 142 138 138 135 189 198 
97 85 85 90 90 93 96 96 100 100 101 101 99 94 83 83 94 171 171 94 89 89 187 201 180 176 172 172 171 200 182 182 212 212 178 178 196 196 172 172 184 186 164 164 175 175 180 183 230 232 204 213 239 243 243 210 144 144 140 140 145 145 146 147 147 146 125 122 122 123 123 127 127 128 122 122 119 111 111 139 139 144 144 142 142 138 138 137 139 198 
96 85 89 89 93 93 94 94 95 100 101 101 98 91 91 84 89 174 174 95 89 89 111 187 180 176 172 172 198 200 200 194 212 212 205 197 209 209 237 240 242 242 244 245 246 248 248 249 250 250 251 251 251 251 253 169 144 144 139 139 141 144 145 146 146 143 123 122 122 123 128 127 128 128 122 122 121 115 128 132 132 144 144 142 142 138 138 137 136 197 
96 86 89 89 93 93 94 94 95 101 101 101 99 91 91 87 86 174 174 98 88 88 104 228 239 239 241 243 243 243 246 246 247 249 249 249 249 251 251 251 250 250 250 249 248 248 248 249 250 250 251 251 251 251 253 153 139 139 137 109 113 113 119 142 142 123 123 123 131 131 131 128 128 128 122 122 121 124 125 132 132 143 143 142 142 142 137 137 136 193 
94 86 90 92 93 93 94 94 100 101 101 100 99 93 93 90 84 170 170 101 87 87 99 228 253 251 251 250 250 249 248 246 247 249 249 249 249 251 251 251 250 250 250 249 248 247 245 244 242 240 237 233 230 226 160 142 134 134 133 105 113 113 119 139 124 123 124 124 131 131 131 130 129 129 125 125 126 135 121 121 127 141 144 142 142 142 136 136 134 188 
90 90 91 91 93 93 95 97 100 101 101 100 99 95 95 92 84 100 160 160 86 95 95 233 253 251 251 250 250 249 248 247 245 244 242 240 239 236 233 230 227 168 167 163 158 154 153 152 148 145 144 142 141 139 139 141 134 134 110 105 105 114 144 144 126 124 124 139 138 137 137 137 136 131 130 139 139 123 121 121 116 119 144 142 142 142 136 136 135 178 
90 92 92 92 95 95 95 97 100 100 100 100 99 97 95 93 87 93 157 157 87 95 95 118 231 231 225 165 163 162 159 157 153 153 172 172 176 142 143 142 142 142 143 144 140 138 138 139 141 138 138 141 141 139 139 141 132 132 111 111 117 144 144 129 129 138 141 141 138 137 138 138 139 143 143 139 139 123 123 120 114 115 144 144 142 142 136 136 135 141 
89 92 92 92 95 95 95 96 100 100 101 99 98 98 95 94 90 89 152 152 87 87 94 107 144 141 139 139 139 140 142 142 142 139 169 169 171 139 141 141 141 141 140 140 140 138 138 139 141 138 138 141 143 144 143 147 147 119 114 114 119 128 123 129 129 138 141 141 131 131 138 138 139 143 143 140 124 124 123 121 114 115 142 141 141 142 136 136 139 139 
89 90 92 92 95 95 96 96 100 101 101 99 98 98 98 96 93 88 144 144 88 88 92 102 135 135 139 139 139 140 142 142 142 139 169 169 171 139 141 141 141 141 140 140 141 143 144 183 183 186 159 180 180 183 183 183 187 120 114 114 126 126 116 116 138 138 139 122 131 131 139 139 143 143 124 124 124 124 123 121 115 115 127 141 141 143 143 136 139 139 
90 90 92 96 96 96 96 96 100 101 100 100 98 98 98 96 94 88 144 144 88 88 92 99 134 134 138 151 151 177 178 178 185 183 187 187 172 172 171 167 166 147 143 143 169 164 164 183 183 203 203 180 180 194 194 183 191 185 119 127 127 127 114 114 134 118 115 115 131 140 143 143 143 123 123 124 125 125 120 120 120 134 138 140 140 144 144 136 139 139 
90 93 93 96 96 97 97 97 99 101 100 99 99 99 97 97 96 89 137 137 88 88 91 97 134 134 197 205 197 197 181 181 199 199 192 192 172 172 171 170 177 177 176 168 179 179 164 166 166 172 203 180 180 194 194 191 184 184 182 127 127 127 114 114 112 114 114 115 136 140 140 120 124 123 123 130 128 120 120 120 131 139 140 140 140 145 145 137 137 141 
90 93 93 96 96 97 97 98 101 101 101 99 99 100 98 98 97 92 98 131 88 88 90 94 161 161 168 205 197 197 181 181 199 195 192 192 166 166 170 170 169 177 176 168 181 181 177 166 166 166 166 181 181 185 206 206 184 184 182 121 114 112 113 113 113 113 113 114 118 117 115 115 129 131 131 130 120 120 120 136 136 142 140 140 140 145 145 137 137 144 
90 94 94 95 98 97 97 100 102 102 100 99 99 100 100 99 98 94 97 125 89 89 89 93 161 161 168 178 183 183 181 180 199 194 194 172 166 171 171 168 168 170 170 165 181 179 179 187 187 164 164 181 181 185 209 209 178 178 141 141 114 110 110 110 114 114 113 114 114 115 113 115 131 131 131 130 119 119 121 139 139 142 138 139 139 140 145 140 140 144 
