P2
90 90
255
160 160 160 160 160 160 160 160 160 160 160 160 160 160 160 160 160 160 160 160 160 160 160 160 160 160 160 160 160 160 160 160 160 160 160 160 160 160 160 160 160 160 160 160 160 160 160 160 160 160 160 160 160 160 160 160 160 160 160 160 160 160 160 160 160 160 160 160 160 160 160 160 160 160 160 160 160 160 160 160 160 160 160 160 160 160 160 160 160 160 
160 160 160 160 160 160 160 160 160 160 160 160 160 160 160 160 160 160 160 160 160 160 160 160 160 160 160 160 160 160 160 160 160 160 160 160 160 160 160 160 160 160 160 160 160 160 160 160 160 160 160 160 160 160 160 160 160 160 160 160 160 160 160 160 160 160 160 160 160 160 160 160 160 160 160 160 160 160 160 160 160 160 160 160 160 160 160 160 160 160 
160 160 160 160 160 160 160 160 160 160 160 160 160 160 160 160 160 160 160 160 160 160 160 160 160 160 160 160 160 160 160 160 160 160 160 160 160 160 160 160 160 160 160 160 160 160 160 160 160 160 160 160 160 160 160 160 160 160 160 160 160 160 160 160 160 160 160 160 160 160 160 160 160 160 160 160 160 160 160 160 160 160 160 160 160 160 160 160 160 160 
160 160 160 160 160 160 160 160 160 160 160 160 160 160 160 160 160 160 160 160 160 160 160 160 160 160 160 160 160 160 160 160 160 160 160 160 160 160 160 160 160 160 160 160 160 160 160 160 160 160 160 160 160 160 160 160 160 160 160 160 160 160 160 160 160 160 160 160 160 160 160 160 160 160 160 160 160 160 160 160 160 160 160 160 160 160 160 160 160 160 
160 160 160 160 160 160 160 160 160 160 160 160 160 160 160 160 160 160 160 160 160 160 160 160 160 160 160 160 160 160 160 160 160 160 160 160 160 160 160 160 160 160 160 160 160 160 160 160 160 160 160 160 160 160 160 160 160 160 160 160 160 160 160 160 160 160 160 160 160 160 160 160 160 160 160 160 160 160 160 160 160 160 160 160 160 160 160 160 160 160 
160 160 160 160 160 160 160 160 160 160 160 160 160 160 160 160 160 160 160 160 160 160 160 160 160 160 160 160 160 160 160 160 160 160 160 160 160 160 160 160 160 160 160 160 160 160 160 160 160 160 160 160 160 160 160 160 160 160 160 160 160 160 160 160 160 160 160 160 160 160 160 160 160 160 160 160 160 160 160 160 160 160 160 160 160 160 160 160 160 160 
160 160 160 160 160 160 160 160 160 160 160 160 160 160 160 160 160 160 160 160 160 160 160 160 160 160 160 160 160 160 160 160 160 159 158 159 160 160 160 160 160 160 160 160 159 160 160 160 160 160 160 160 159 158 157 158 159 160 160 160 160 160 160 160 160 160 160 160 160 159 160 160 160 160 160 160 160 160 160 160 160 160 160 160 160 160 160 160 160 160 
160 160 160 160 160 160 160 160 160 160 160 160 160 160 160 160 160 160 160 160 160 160 160 160 160 160 160 160 162 161 161 159 159 161 165 166 162 160 160 159 158 161 161 161 162 160 159 159 160 159 159 161 198 198 214 168 160 158 160 160 161 160 160 160 160 160 160 160 163 161 159 159 160 160 160 160 160 160 160 160 160 160 160 160 160 160 160 160 160 160 
160 160 160 160 160 160 160 160 160 160 160 160 160 160 160 159 161 161 160 160 160 160 160 160 160 160 160 160 133 156 156 162 220 220 193 178 163 158 158 161 208 208 171 171 177 181 180 180 191 163 159 159 198 198 214 242 242 163 157 157 152 161 161 160 160 165 161 164 204 199 199 164 158 158 160 160 160 160 160 160 160 160 160 160 160 160 160 160 160 160 
160 160 160 160 160 160 160 160 160 160 160 160 160 160 158 158 194 194 164 163 161 160 160 161 160 161 161 160 133 133 153 219 219 168 166 166 175 170 167 227 208 208 192 239 239 236 180 180 191 203 164 164 168 171 171 242 242 230 165 142 142 165 151 151 167 167 174 208 208 199 199 207 209 209 163 159 160 160 160 160 160 160 160 160 160 160 160 160 160 160 
160 160 160 160 160 160 160 160 160 160 160 160 160 160 161 195 194 197 190 190 165 161 161 163 173 173 160 160 136 136 205 205 197 168 166 166 175 230 230 227 208 208 182 239 239 238 169 169 178 178 227 227 168 170 170 169 170 230 219 154 153 164 148 148 167 167 177 210 210 202 192 211 218 218 163 159 160 160 160 160 160 160 160 160 160 160 160 160 160 160 
160 160 160 160 160 160 160 160 160 160 160 160 160 160 216 216 196 196 190 190 172 172 162 162 173 173 172 170 220 220 221 189 189 184 179 207 207 211 230 180 193 185 185 230 230 238 209 170 178 178 227 228 228 170 170 169 170 170 186 208 208 158 188 187 170 170 177 210 203 203 196 212 218 218 162 160 160 160 160 160 160 160 160 160 160 160 160 160 160 160 
160 160 160 160 160 160 160 160 160 160 160 160 160 159 216 216 196 196 198 193 189 189 166 166 178 178 186 186 218 218 221 189 189 201 236 207 207 207 189 189 179 188 188 230 230 217 217 247 247 229 197 215 215 223 231 193 184 184 180 208 208 177 177 187 170 170 204 205 203 203 196 202 205 205 161 160 160 160 160 160 160 160 160 160 160 160 160 160 160 160 
160 160 160 160 160 160 160 160 160 160 160 160 160 159 202 202 195 194 197 197 189 189 167 167 202 202 184 184 218 218 229 191 191 201 236 228 207 207 189 201 201 197 197 230 230 234 217 234 234 213 214 203 203 232 232 193 184 184 173 173 198 201 201 195 195 171 204 212 211 209 209 196 196 200 160 160 160 160 160 160 160 160 160 160 160 160 160 160 160 160 
160 160 160 160 160 160 160 160 160 160 160 160 160 159 205 203 203 197 197 197 184 168 166 166 191 191 184 184 206 206 238 238 210 210 209 228 228 188 188 212 212 197 197 232 232 244 216 233 233 213 214 191 191 232 232 227 227 178 173 173 172 206 206 189 189 170 190 212 211 209 209 196 196 197 160 160 160 160 160 160 160 160 160 160 160 160 160 160 160 160 
160 160 160 160 160 160 160 160 160 160 160 160 160 159 208 203 203 197 197 205 205 168 166 166 191 191 186 188 208 198 198 238 210 210 209 192 192 192 188 212 212 205 191 236 244 244 216 238 238 190 190 191 170 170 182 197 192 192 189 189 172 206 206 189 189 165 190 193 193 203 203 201 197 197 159 160 160 160 160 160 160 160 160 160 160 160 160 160 160 160 
160 160 160 160 160 160 160 160 160 160 160 160 160 158 208 213 213 197 197 197 205 167 159 159 162 163 163 208 208 210 192 236 236 193 193 192 192 192 200 212 193 193 182 243 248 248 218 244 244 215 215 175 170 170 198 184 184 192 210 178 215 199 199 177 177 159 159 193 193 203 199 196 195 195 159 160 160 160 160 160 160 160 160 160 160 160 160 160 160 160 
160 160 160 160 160 160 160 160 160 160 160 160 160 158 209 213 213 208 189 189 171 171 159 159 158 158 163 183 208 210 192 199 232 193 193 188 183 225 225 183 193 193 182 243 248 248 219 251 251 215 215 178 171 213 213 184 184 194 210 178 228 201 201 188 188 158 158 187 187 193 199 196 196 195 158 160 160 160 160 160 160 160 160 160 160 160 160 160 160 160 
160 160 160 160 160 160 160 160 160 160 160 160 160 158 202 208 206 206 189 170 164 161 160 160 160 160 185 185 202 218 218 199 213 224 178 178 177 232 171 183 183 168 178 218 218 212 212 253 253 205 168 178 178 220 218 218 178 178 173 173 228 228 181 198 198 158 158 159 163 209 211 200 200 196 158 160 160 160 160 160 160 160 160 160 160 160 160 160 160 160 
160 160 160 160 160 160 160 160 160 160 160 160 160 158 203 203 188 198 198 167 164 160 160 160 160 160 185 185 182 218 218 157 157 196 184 184 230 166 157 157 157 159 171 218 218 212 212 253 253 230 168 168 238 220 218 218 178 178 188 188 187 145 145 198 198 159 159 159 161 209 209 206 206 198 157 160 160 160 160 160 160 160 160 160 160 160 160 160 160 160 
160 160 160 160 160 160 160 160 160 160 160 160 160 158 203 203 187 179 173 167 160 160 160 160 160 159 166 190 179 212 212 157 157 164 196 233 231 150 157 157 156 153 171 242 253 253 224 194 236 171 171 248 248 222 219 219 166 166 188 188 187 148 148 163 196 159 159 160 161 202 209 209 211 170 157 160 160 160 160 160 160 160 160 160 160 160 160 160 160 160 
160 160 160 160 160 160 160 160 160 160 160 160 160 158 167 204 187 179 173 161 160 160 160 160 160 160 163 203 203 200 212 156 156 164 233 233 149 150 150 156 156 153 154 242 254 254 194 194 176 176 239 250 247 247 216 216 148 148 148 197 166 148 148 199 199 160 160 160 164 204 204 195 194 194 158 160 160 160 160 160 160 160 160 160 160 160 160 160 160 160 
160 160 160 160 160 160 160 160 160 160 160 160 160 159 164 204 204 193 159 159 160 160 160 160 160 160 160 208 208 200 220 161 161 231 231 154 140 140 151 164 203 203 171 171 254 254 232 158 158 184 249 250 250 247 237 161 149 149 148 197 166 154 154 199 199 160 160 160 168 207 207 187 188 188 158 160 160 160 160 160 160 160 160 160 160 160 160 160 160 160 
160 160 160 160 160 160 160 160 160 160 160 160 160 159 163 204 204 167 160 160 160 160 160 160 160 160 160 208 208 187 229 229 220 231 161 154 140 140 188 225 225 203 169 169 251 251 232 158 158 238 249 249 251 248 237 154 149 149 163 174 184 225 170 199 199 161 161 161 172 206 206 187 188 166 158 160 160 160 160 160 160 160 160 160 160 160 160 160 160 160 
160 160 160 160 160 160 160 160 160 160 160 160 160 159 163 204 204 166 160 160 160 160 160 160 160 159 161 204 204 158 229 238 238 166 152 152 154 167 218 229 229 215 169 169 206 213 213 169 169 241 249 249 251 247 169 153 153 144 174 174 195 225 170 170 173 161 161 160 167 206 206 204 206 166 158 160 160 160 160 160 160 160 160 160 160 160 160 160 160 160 
160 160 160 160 160 160 160 160 160 160 160 160 160 160 163 201 201 183 160 160 160 160 160 160 160 160 159 199 199 159 159 238 238 151 151 152 167 167 218 229 229 219 147 147 233 234 234 161 161 241 249 249 247 176 154 150 150 147 237 237 195 222 222 164 173 161 160 160 167 206 206 204 206 168 158 160 160 160 160 160 160 160 160 160 160 160 160 160 160 160 
160 160 160 160 160 160 160 160 160 160 160 160 160 160 162 186 184 184 160 160 160 160 160 160 160 160 159 199 199 166 166 222 163 151 151 199 199 200 244 230 230 234 147 147 247 247 234 150 150 230 241 241 232 158 144 150 150 165 237 237 191 201 201 169 174 160 160 161 198 206 196 196 205 169 158 160 160 160 160 160 160 160 160 160 160 160 160 160 160 160 
160 160 160 160 160 160 160 160 160 160 160 160 160 160 161 186 184 184 160 160 160 160 160 160 160 160 158 169 201 166 166 193 155 155 151 199 199 200 250 250 250 245 140 140 252 252 245 150 150 203 178 178 157 148 142 142 147 237 237 234 163 201 162 162 175 160 160 162 204 208 196 196 209 167 158 160 160 160 160 160 160 160 160 160 160 160 160 160 160 160 
160 160 160 160 160 160 160 160 160 160 160 160 160 160 161 169 192 192 159 160 160 160 160 160 160 160 159 169 212 202 202 193 155 155 155 163 185 244 250 250 250 249 180 180 252 252 245 148 145 152 160 160 153 148 142 142 148 236 236 225 146 148 148 183 183 158 158 162 170 209 209 202 209 165 159 160 160 160 160 160 160 160 160 160 160 160 160 160 160 160 
160 160 160 160 160 160 160 160 160 160 160 160 160 160 162 169 176 181 168 161 160 160 160 160 160 160 159 198 198 202 202 158 158 154 161 161 224 244 249 249 250 249 180 180 252 252 245 173 165 165 160 160 153 156 224 224 242 242 236 161 146 148 148 183 166 158 158 162 170 209 209 203 204 165 159 160 160 160 160 160 160 160 160 160 160 160 160 160 160 160 
160 160 160 160 160 160 160 160 160 160 160 160 160 160 160 176 176 179 168 160 160 160 160 160 160 160 158 186 186 215 165 154 154 158 161 161 219 244 249 249 250 249 167 167 211 211 219 173 165 165 153 153 163 240 243 243 243 242 230 161 158 157 157 187 160 160 160 160 165 209 209 202 209 164 159 160 160 160 160 160 160 160 160 160 160 160 160 160 160 160 
160 160 160 160 160 160 160 160 160 160 160 160 160 160 159 194 194 190 167 160 160 160 160 160 160 160 158 174 174 187 159 154 154 175 175 198 215 215 247 250 250 247 160 160 211 239 239 190 190 186 168 235 247 248 248 243 243 243 168 168 186 186 176 176 158 160 160 160 165 207 206 206 210 163 159 160 160 160 160 160 160 160 160 160 160 160 160 160 160 160 
160 160 160 160 160 160 160 160 160 160 160 160 160 160 159 194 194 190 168 162 160 160 160 160 160 160 159 170 170 180 159 156 156 176 176 196 196 208 239 248 248 241 160 160 247 247 239 190 190 155 158 245 251 248 248 245 204 204 168 168 214 185 176 176 158 161 161 159 162 202 204 207 207 162 160 160 160 160 160 160 160 160 160 160 160 160 160 160 160 160 
160 160 160 160 160 160 160 160 160 160 160 160 160 160 159 197 197 203 168 163 160 160 160 160 160 160 159 170 170 179 159 157 157 176 176 191 199 199 202 226 236 225 152 152 247 247 245 169 169 155 158 247 251 251 248 238 204 204 170 170 228 173 175 175 159 161 161 159 162 198 204 207 207 161 160 160 160 160 160 160 160 160 160 160 160 160 160 160 160 160 
160 160 160 160 160 160 160 160 160 160 160 160 160 160 159 166 203 182 177 177 160 160 160 160 160 160 159 161 176 159 159 163 163 176 167 191 199 199 202 208 213 139 139 146 248 248 172 172 229 229 162 247 252 252 246 200 200 154 154 175 228 160 160 161 160 160 161 164 167 196 202 202 203 160 160 160 160 160 160 160 160 160 160 160 160 160 160 160 160 160 
160 160 160 160 160 160 160 160 160 160 160 160 160 160 159 164 202 182 177 177 161 160 160 160 160 160 160 159 177 161 161 174 174 174 167 167 186 186 184 150 150 145 148 172 243 243 172 227 247 247 232 246 252 252 244 185 148 148 154 188 186 154 159 160 160 160 160 164 167 194 194 197 197 160 160 160 160 160 160 160 160 160 160 160 160 160 160 160 160 160 
160 160 160 160 160 160 160 160 160 160 160 160 160 160 160 163 208 208 176 168 162 159 160 160 160 160 160 159 173 161 161 196 174 174 181 173 165 165 134 145 145 161 161 182 182 176 200 230 249 249 249 248 249 250 236 156 147 147 202 202 157 154 161 160 160 160 160 161 164 194 194 206 206 159 160 160 160 160 160 160 160 160 160 160 160 160 160 160 160 160 
160 160 160 160 160 160 160 160 160 160 160 160 160 160 160 162 208 208 173 166 166 159 160 160 160 160 160 159 170 170 161 210 177 177 185 241 241 157 134 145 145 161 161 182 182 214 223 223 249 249 249 249 249 244 223 148 147 147 202 202 162 158 160 160 160 160 160 165 165 187 187 206 206 158 160 160 160 160 160 160 160 160 160 160 160 160 160 160 160 160 
160 160 160 160 160 160 160 160 160 160 160 160 160 160 160 161 208 208 174 166 161 160 160 160 160 160 160 160 170 170 161 210 210 175 175 241 241 157 152 152 162 234 226 226 178 225 232 232 247 249 249 249 245 229 148 151 158 158 172 185 162 159 160 160 160 160 160 160 162 166 165 207 207 157 160 160 160 160 160 160 160 160 160 160 160 160 160 160 160 160 
160 160 160 160 160 160 160 160 160 160 160 160 160 160 160 161 205 205 165 163 161 160 160 160 160 160 160 160 160 159 158 219 219 163 163 196 196 178 229 245 248 250 250 242 207 226 232 232 232 243 243 241 226 149 151 159 159 156 173 189 164 159 160 160 160 160 160 160 161 166 165 191 191 158 160 160 160 160 160 160 160 160 160 160 160 160 160 160 160 160 
160 160 160 160 160 160 160 160 160 160 160 160 160 160 160 161 171 203 165 165 161 161 160 160 160 160 160 160 160 160 158 168 211 163 163 183 183 188 238 249 251 251 250 226 216 216 228 222 222 221 222 217 147 151 158 160 160 156 166 210 159 158 160 160 160 160 160 160 161 159 198 198 163 159 160 160 160 160 160 160 160 160 160 160 160 160 160 160 160 160 
160 160 160 160 160 160 160 160 160 160 160 160 160 160 160 161 168 197 167 158 162 162 161 160 160 160 160 160 160 160 160 165 199 184 184 183 183 188 238 249 251 251 250 226 216 216 216 215 205 198 148 146 146 151 158 160 160 162 167 183 159 159 160 160 160 160 160 160 160 154 211 211 159 159 160 160 160 160 160 160 160 160 160 160 160 160 160 160 160 160 
160 160 160 160 160 160 160 160 160 160 160 160 160 160 160 166 166 207 167 158 161 160 160 160 160 160 160 160 160 160 160 165 200 184 184 200 184 184 225 240 246 246 238 220 163 196 166 166 159 154 148 146 146 153 170 160 160 162 167 183 159 159 160 160 160 160 160 160 160 155 211 211 159 160 160 160 160 160 160 160 160 160 160 160 160 160 160 160 160 160 
160 160 160 160 160 160 160 160 160 160 160 160 160 160 160 165 165 180 207 162 158 160 160 160 160 160 160 160 160 160 160 162 194 192 192 219 179 179 184 183 183 167 167 163 163 168 166 166 159 154 163 154 154 162 213 159 159 156 230 230 163 158 160 160 160 160 160 160 159 155 217 217 159 160 160 160 160 160 160 160 160 160 160 160 160 160 160 160 160 160 
160 160 160 160 160 160 160 160 160 160 160 160 160 160 160 165 165 174 235 235 158 159 160 160 160 160 160 160 160 160 160 155 181 192 192 204 177 176 184 183 183 160 160 204 216 216 167 167 173 237 237 162 162 213 170 157 159 159 228 228 163 158 160 160 160 160 160 160 158 159 214 163 158 160 160 160 160 160 160 160 160 160 160 160 160 160 160 160 160 160 
160 160 160 160 160 160 160 160 160 160 160 160 160 160 160 161 164 171 235 235 166 157 160 160 160 160 160 160 160 160 160 159 162 192 197 197 194 240 251 251 242 160 160 204 223 223 177 177 228 237 237 162 162 202 153 157 159 159 230 230 163 158 160 160 160 160 160 161 157 208 208 151 158 160 160 160 160 160 160 160 160 160 160 160 160 160 160 160 160 160 
160 160 160 160 160 160 160 160 160 160 160 160 160 160 160 161 169 169 174 191 226 157 160 160 160 160 160 160 160 160 160 159 159 189 197 199 199 240 251 251 244 235 151 151 223 223 177 189 187 187 154 154 205 205 153 155 155 154 230 230 160 159 160 160 160 160 160 161 156 207 207 151 158 161 160 160 160 160 160 160 160 160 160 160 160 160 160 160 160 160 
160 160 160 160 160 160 160 160 160 160 160 160 160 160 160 160 167 167 170 167 224 162 158 160 160 160 160 160 160 160 160 160 157 153 193 199 199 234 246 248 248 247 151 151 212 212 220 189 187 187 154 154 206 206 236 236 163 163 212 212 158 159 160 160 160 160 160 160 155 207 207 148 158 161 160 160 160 160 160 160 160 160 160 160 160 160 160 160 160 160 
160 160 160 160 160 160 160 160 160 160 160 160 160 160 160 160 167 167 166 154 226 226 155 160 160 160 160 160 160 160 160 160 159 153 186 186 171 217 242 249 249 247 167 167 212 212 217 217 209 218 166 184 206 206 255 255 247 192 212 212 158 159 160 160 160 160 160 160 156 205 155 150 158 161 160 160 160 160 160 160 160 160 160 160 160 160 160 160 160 160 
160 160 160 160 160 160 160 160 160 160 160 160 160 160 160 160 163 165 166 154 158 226 159 158 160 160 160 160 160 160 160 160 159 153 160 160 211 214 214 248 248 248 165 165 183 212 217 217 182 182 198 184 184 252 255 255 247 169 180 165 158 160 160 160 160 160 160 160 156 201 153 153 159 160 160 160 160 160 160 160 160 160 160 160 160 160 160 160 160 160 
160 160 160 160 160 160 160 160 160 160 160 160 160 160 160 159 166 166 173 158 158 226 226 154 161 160 160 160 160 160 160 158 200 200 160 160 217 214 214 248 248 238 160 160 183 183 191 192 182 182 200 200 205 252 254 254 176 213 180 165 157 160 160 160 160 160 160 159 158 208 153 155 159 160 160 160 160 160 160 160 160 160 160 160 160 160 160 160 160 160 
160 160 160 160 160 160 160 160 160 160 160 160 160 160 160 160 160 170 192 206 154 154 226 157 158 160 160 160 160 160 158 160 200 200 159 199 216 207 207 242 242 238 148 148 191 225 223 223 175 175 200 206 206 250 250 245 178 239 239 165 167 162 160 160 160 160 160 157 164 215 156 157 160 160 160 160 160 160 160 160 160 160 160 160 160 160 160 160 160 160 
160 160 160 160 160 160 160 160 160 160 160 160 160 160 160 160 160 160 164 222 154 154 228 228 154 161 160 160 160 160 158 193 174 156 156 162 216 216 202 201 197 197 152 152 163 225 223 223 175 175 216 206 206 212 241 172 172 239 239 182 209 209 158 160 160 160 160 155 220 220 162 160 160 160 160 160 160 160 160 160 160 160 160 160 160 160 160 160 160 160 
160 160 160 160 160 160 160 160 160 160 160 160 160 160 160 160 160 160 157 177 221 161 228 228 160 158 160 160 160 158 166 181 175 175 156 186 186 226 226 201 197 197 152 164 164 165 219 219 173 200 200 192 192 212 245 167 167 242 242 187 220 220 158 160 160 160 161 154 226 226 163 160 160 160 160 160 160 160 160 160 160 160 160 160 160 160 160 160 160 160 
160 160 160 160 160 160 160 160 160 160 160 160 160 160 160 160 160 160 159 161 225 161 161 231 231 155 160 160 160 161 197 181 183 183 161 186 203 203 209 232 245 245 182 164 164 165 188 190 190 200 200 192 192 253 253 167 167 228 228 169 220 220 158 160 160 160 158 158 226 226 161 160 160 160 160 160 160 160 160 160 160 160 160 160 160 160 160 160 160 160 
160 160 160 160 160 160 160 160 160 160 160 160 160 160 160 160 160 160 160 157 174 225 163 163 231 162 158 161 161 161 198 174 183 183 155 155 203 201 201 199 245 245 182 182 164 174 188 190 190 191 192 192 193 253 253 163 163 205 163 163 222 222 154 160 160 160 158 229 229 229 160 160 160 160 160 160 160 160 160 160 160 160 160 160 160 160 160 160 160 160 
160 160 160 160 160 160 160 160 160 160 160 160 160 160 160 160 160 160 160 159 160 221 163 163 237 237 159 159 139 139 200 152 152 182 158 158 188 201 201 199 184 222 183 183 181 181 204 223 225 225 126 126 228 252 252 166 166 176 163 163 190 223 124 156 160 160 164 235 235 172 160 160 160 160 160 160 160 160 160 160 160 160 160 160 160 160 160 160 160 160 
160 160 160 160 160 160 160 160 160 160 160 160 160 160 160 160 160 160 160 160 157 175 221 168 237 237 240 72 72 105 201 145 145 175 167 167 171 196 196 188 184 189 156 156 181 181 173 139 225 225 126 126 131 92 92 146 146 161 161 171 190 225 124 124 160 160 171 235 235 158 161 160 160 160 160 160 160 160 160 160 160 160 160 160 160 160 160 160 160 160 
160 160 160 160 160 160 160 160 160 160 160 160 160 160 160 160 160 160 160 160 159 160 225 168 168 244 244 72 84 84 202 145 145 175 167 167 171 185 225 225 234 227 169 169 213 213 173 139 190 179 123 123 115 92 92 146 146 161 161 163 178 203 79 79 160 160 173 237 237 144 161 161 160 160 160 160 160 160 160 160 160 160 160 160 160 160 160 160 160 160 
160 160 160 160 160 160 160 160 160 160 160 160 160 160 160 160 160 160 160 160 160 157 176 225 173 244 247 247 84 84 209 141 141 165 162 176 176 192 225 225 234 227 169 169 213 213 193 193 197 197 106 100 111 111 96 234 234 141 141 82 86 77 77 79 154 154 236 236 231 144 144 161 160 160 160 160 160 160 160 160 160 160 160 160 160 160 160 160 160 160 
160 160 160 160 160 160 160 160 160 160 160 160 160 160 160 160 160 160 160 160 160 159 161 223 173 173 247 247 242 181 193 193 100 90 90 95 192 193 193 192 180 159 86 85 85 95 193 193 197 197 99 89 111 111 232 246 246 130 73 68 68 78 77 78 164 164 236 236 167 144 158 161 160 160 160 160 160 160 160 160 160 160 160 160 160 160 160 160 160 160 
160 160 160 160 160 160 160 160 160 160 160 160 160 160 160 160 160 160 160 160 160 160 157 175 218 149 246 252 252 238 193 193 75 75 75 78 176 193 193 192 173 155 74 74 94 94 88 89 111 100 88 83 83 201 229 246 246 104 73 68 68 78 96 218 218 210 236 236 166 159 161 160 160 160 160 160 160 160 160 160 160 160 160 160 160 160 160 160 160 160 
160 160 160 160 160 160 160 160 160 160 160 160 160 160 160 160 160 160 160 160 160 160 159 160 218 165 165 252 251 251 196 84 75 75 75 78 81 184 184 173 173 155 74 74 94 94 80 81 81 83 81 83 83 201 229 229 128 100 87 87 80 97 228 218 218 205 200 200 187 159 161 160 160 160 160 160 160 160 160 160 160 160 160 160 160 160 160 160 160 160 
160 160 160 160 160 160 160 160 160 160 160 160 160 160 160 160 160 160 160 160 160 160 160 158 171 211 201 247 250 250 246 84 77 77 80 81 81 99 99 164 164 76 84 94 101 101 89 89 79 79 88 88 82 82 82 76 118 118 87 87 93 218 228 208 206 205 200 200 187 161 161 160 160 160 160 160 160 160 160 160 160 160 160 160 160 160 160 160 160 160 
160 160 160 160 160 160 160 160 160 160 160 160 160 160 160 160 160 160 160 160 160 160 160 160 158 216 212 212 250 250 246 125 125 197 197 205 105 99 99 92 92 76 76 86 86 89 92 92 79 79 88 88 99 82 82 84 118 118 98 89 221 221 109 109 125 224 214 214 177 164 159 160 160 160 160 160 160 160 160 160 160 160 160 160 160 160 160 160 160 160 
160 160 160 160 160 160 160 160 160 160 160 160 160 160 160 160 160 160 160 160 160 160 160 160 158 216 212 212 206 246 246 239 204 224 224 244 244 234 100 92 92 87 87 99 99 89 92 92 88 86 105 105 102 88 84 84 119 98 98 233 233 111 100 100 193 219 220 220 177 162 159 160 160 160 160 160 160 160 160 160 160 160 160 160 160 160 160 160 160 160 
160 160 160 160 160 160 160 160 160 160 160 160 160 160 160 160 160 160 160 160 160 160 160 162 150 105 218 218 206 241 241 239 201 224 224 244 244 234 246 246 105 87 87 101 101 102 105 107 106 106 108 105 88 88 82 89 117 104 105 233 233 101 101 100 200 219 220 220 174 160 160 160 160 160 160 160 160 160 160 160 160 160 160 160 160 160 160 160 160 160 
160 160 160 160 160 160 160 160 160 160 160 160 160 160 160 160 160 160 160 160 160 160 160 163 144 105 142 142 222 241 241 221 228 228 207 101 101 238 246 246 227 96 96 101 98 100 100 98 106 106 108 90 87 87 84 117 117 106 230 230 125 101 101 112 217 220 220 220 166 159 160 160 160 160 160 160 160 160 160 160 160 160 160 160 160 160 160 160 160 160 
160 160 160 160 160 160 160 160 160 160 160 160 160 160 160 160 160 160 160 160 160 160 160 163 142 87 106 106 209 210 210 233 233 241 115 84 87 87 94 227 238 238 95 95 98 100 98 98 97 97 89 89 89 87 84 111 111 106 230 230 116 107 107 217 227 227 220 216 162 159 160 160 160 160 160 160 160 160 160 160 160 160 160 160 160 160 160 160 160 160 
160 160 160 160 160 160 160 160 160 160 160 160 160 160 160 160 160 160 160 160 160 160 160 163 90 82 101 101 209 210 210 233 233 244 107 84 101 101 88 93 238 238 223 93 92 97 98 98 97 92 88 88 89 84 84 97 100 215 215 135 116 109 109 225 227 227 219 169 160 160 160 160 160 160 160 160 160 160 160 160 160 160 160 160 160 160 160 160 160 160 
160 160 160 160 160 160 160 160 160 160 160 160 160 160 160 160 160 160 160 160 160 160 160 164 90 83 101 132 132 142 219 235 235 244 225 98 101 101 90 90 88 223 223 223 92 94 93 93 91 87 88 88 83 80 97 97 101 215 132 133 133 135 118 225 226 226 215 161 160 160 160 160 160 160 160 160 160 160 160 160 160 160 160 160 160 160 160 160 160 160 
160 160 160 160 160 160 160 160 160 160 160 160 160 160 160 160 160 160 160 160 160 160 160 164 92 82 82 133 133 131 206 232 232 225 225 212 97 97 103 103 78 78 223 223 106 90 93 93 91 87 87 83 83 80 84 92 224 224 120 130 130 135 217 223 223 223 163 160 160 160 160 160 160 160 160 160 160 160 160 160 160 160 160 160 160 160 160 160 160 160 
160 160 160 160 160 160 160 160 160 160 160 160 160 160 160 160 160 160 160 160 160 160 160 164 145 82 82 131 131 133 138 227 227 231 193 212 95 101 103 103 83 87 87 209 209 95 92 92 92 90 90 82 82 82 84 92 224 224 120 130 130 219 225 225 223 215 150 160 160 160 160 160 160 160 160 160 160 160 160 160 160 160 160 160 160 160 160 160 160 160 
160 160 160 160 160 160 160 160 160 160 160 160 160 160 160 160 160 160 160 160 160 160 160 163 147 83 83 131 131 141 135 227 247 247 182 218 218 93 97 93 84 84 87 84 186 186 90 92 92 90 90 78 78 95 95 190 190 92 109 109 217 222 222 225 225 114 150 162 160 160 160 160 160 160 160 160 160 160 160 160 160 160 160 160 160 160 160 160 160 160 
160 160 160 160 160 160 160 160 160 160 160 160 160 160 160 160 160 160 160 160 160 160 160 162 153 88 88 131 144 144 135 129 247 247 239 200 225 225 102 93 84 84 76 76 80 88 92 96 82 78 78 79 101 95 95 190 105 88 88 109 229 222 222 225 222 114 149 163 160 160 160 160 160 160 160 160 160 160 160 160 160 160 160 160 160 160 160 160 160 160 
160 160 160 160 160 160 160 160 160 160 160 160 160 160 160 160 160 160 160 160 160 160 160 161 159 92 92 129 144 144 142 129 233 239 239 193 193 239 239 125 102 83 76 76 80 88 128 128 79 78 78 97 101 101 104 94 90 90 88 224 229 223 229 229 205 102 149 163 160 160 160 160 160 160 160 160 160 160 160 160 160 160 160 160 160 160 160 160 160 160 
160 160 160 160 160 160 160 160 160 160 160 160 160 160 160 160 160 160 160 160 160 160 160 161 161 96 96 123 123 142 142 116 116 232 226 226 215 225 225 216 216 214 92 88 88 155 155 128 79 79 100 97 97 104 104 94 90 90 211 224 224 236 236 116 88 88 148 163 160 160 160 160 160 160 160 160 160 160 160 160 160 160 160 160 160 160 160 160 160 160 
160 160 160 160 160 160 160 160 160 160 160 160 160 160 160 160 160 160 160 160 160 160 160 161 161 96 96 123 123 141 141 112 112 119 226 226 233 220 220 213 223 223 215 214 214 164 164 139 93 99 99 120 120 104 104 86 86 209 211 197 242 242 236 104 104 88 147 163 160 160 160 160 160 160 160 160 160 160 160 160 160 160 160 160 160 160 160 160 160 160 
160 160 160 160 160 160 160 160 160 160 160 160 160 160 160 160 160 160 160 160 160 160 160 161 160 91 91 117 130 130 114 112 112 115 119 231 233 222 222 213 223 223 209 214 214 164 164 87 87 101 101 121 121 105 105 113 195 170 170 237 242 242 119 104 104 93 149 163 160 160 160 160 160 160 160 160 160 160 160 160 160 160 160 160 160 160 160 160 160 160 
160 160 160 160 160 160 160 160 160 160 160 160 160 160 160 160 160 160 160 160 160 160 160 161 160 91 91 120 131 131 120 120 115 115 119 109 221 222 222 239 239 237 224 204 204 86 79 79 87 101 101 121 121 145 162 179 179 170 230 230 237 138 118 107 107 90 151 163 160 160 160 160 160 160 160 160 160 160 160 160 160 160 160 160 160 160 160 160 160 160 
160 160 160 160 160 160 160 160 160 160 160 160 160 160 160 160 160 160 160 160 160 160 160 161 159 91 91 120 126 126 130 130 119 122 103 90 90 218 237 239 239 237 224 97 76 73 73 79 91 102 102 107 145 145 162 179 230 230 230 230 130 131 131 96 90 90 152 162 160 160 160 160 160 160 160 160 160 160 160 160 160 160 160 160 160 160 160 160 160 160 
160 160 160 160 160 160 160 160 160 160 160 160 160 160 160 160 160 160 160 160 160 160 160 161 157 92 92 104 126 126 130 130 125 125 128 90 85 85 103 125 210 133 102 83 76 73 73 91 91 100 113 109 125 160 179 207 230 230 230 120 120 131 131 96 87 87 152 162 160 160 160 160 160 160 160 160 160 160 160 160 160 160 160 160 160 160 160 160 160 160 
160 160 160 160 160 160 160 160 160 160 160 160 160 160 160 160 160 160 160 160 160 160 160 162 156 91 91 104 121 121 141 141 126 126 133 129 91 91 100 100 99 121 121 83 83 68 68 91 91 96 113 120 165 179 179 207 130 146 146 117 137 141 141 96 87 87 156 162 160 160 160 160 160 160 160 160 160 160 160 160 160 160 160 160 160 160 160 160 160 160 
160 160 160 160 160 160 160 160 160 160 160 160 160 160 160 160 160 160 160 160 160 160 160 163 152 87 104 115 116 116 146 146 126 126 133 129 91 91 100 108 108 121 80 80 87 88 88 96 96 96 91 105 100 97 131 89 89 134 134 117 136 136 136 127 90 90 160 161 160 160 160 160 160 160 160 160 160 160 160 160 160 160 160 160 160 160 160 160 160 160 
160 160 160 160 160 160 160 160 160 160 160 160 160 160 160 160 160 160 160 160 160 160 160 161 158 90 104 115 116 116 152 152 125 125 122 103 103 78 78 108 108 117 80 80 111 91 91 98 84 84 91 105 100 138 138 89 89 134 134 124 137 137 136 127 108 160 161 160 160 160 160 160 160 160 160 160 160 160 160 160 160 160 160 160 160 160 160 160 160 160 
160 160 160 160 160 160 160 160 160 160 160 160 160 160 160 160 160 160 160 160 160 160 160 160 163 90 90 112 112 114 153 153 144 120 125 103 103 78 78 115 115 117 96 157 157 91 91 104 84 84 151 151 155 152 152 86 112 121 121 126 137 137 133 108 108 161 160 160 160 160 160 160 160 160 160 160 160 160 160 160 160 160 160 160 160 160 160 160 160 160 
160 160 160 160 160 160 160 160 160 160 160 160 160 160 160 160 160 160 160 160 160 160 160 160 163 101 98 103 103 145 153 153 144 115 125 125 94 84 84 118 118 111 158 158 157 102 102 128 89 89 151 164 162 162 158 151 112 121 121 126 142 142 153 156 161 160 160 160 160 160 160 160 160 160 160 160 160 160 160 160 160 160 160 160 160 160 160 160 160 160 
160 160 160 160 160 160 160 160 160 160 160 160 160 160 160 160 160 160 160 160 160 160 160 160 162 154 99 99 99 145 151 143 143 106 106 109 93 93 95 136 115 161 163 163 100 110 135 135 90 90 156 164 160 160 160 162 162 158 159 160 160 159 160 161 160 160 160 160 160 160 160 160 160 160 160 160 160 160 160 160 160 160 160 160 160 160 160 160 160 160 
160 160 160 160 160 160 160 160 160 160 160 160 160 160 160 160 160 160 160 160 160 160 160 160 160 160 99 99 99 145 150 143 143 106 106 103 93 93 155 157 157 161 161 161 100 100 135 135 88 88 94 163 160 160 160 160 160 161 161 160 160 160 160 160 160 160 160 160 160 160 160 160 160 160 160 160 160 160 160 160 160 160 160 160 160 160 160 160 160 160 
160 160 160 160 160 160 160 160 160 160 160 160 160 160 160 160 160 160 160 160 160 160 160 160 160 161 163 153 111 137 143 138 138 104 101 102 102 108 162 163 163 160 160 160 164 156 127 143 143 98 98 163 160 160 160 160 160 160 160 160 160 160 160 160 160 160 160 160 160 160 160 160 160 160 160 160 160 160 160 160 160 160 160 160 160 160 160 160 160 160 
