P2
90 90
255
6 6 8 7 7 7 7 6 6 7 7 7 7 7 5 5 5 5 7 7 5 5 5 5 6 6 5 5 7 7 7 7 7 7 7 7 7 7 7 7 7 6 6 7 7 7 7 7 6 6 6 6 6 6 5 5 5 6 7 7 5 5 5 5 5 5 5 5 5 5 5 5 5 5 5 5 7 6 6 7 7 7 7 51 51 11 11 82 82 44 
4 4 7 7 7 7 7 6 6 6 6 6 6 7 6 5 5 5 5 6 6 5 5 5 6 6 7 7 7 7 7 7 7 7 7 7 6 6 5 4 3 3 3 3 4 4 3 3 3 3 3 3 4 5 6 6 6 6 7 7 5 5 5 5 5 5 5 5 5 5 5 5 5 5 5 5 5 5 7 6 7 7 7 6 5 6 6 5 4 4 
195 196 9 6 7 7 7 7 7 7 6 6 6 6 6 6 6 5 5 6 7 7 7 7 7 7 7 7 7 7 7 5 4 4 3 4 4 7 11 15 23 32 38 42 147 142 143 143 141 133 126 33 15 4 3 3 4 5 7 7 7 5 5 5 5 5 5 5 5 5 5 5 5 5 7 5 5 5 7 6 6 7 7 7 7 7 7 7 7 7 
195 196 9 6 7 7 7 7 7 7 7 6 6 6 5 5 5 6 6 6 7 7 7 7 7 7 7 7 5 3 3 7 20 103 103 98 98 101 108 121 137 147 152 153 147 142 143 143 141 133 126 125 166 181 181 40 18 5 3 3 5 6 6 5 5 5 6 6 5 5 5 5 5 5 7 7 5 5 6 5 5 5 6 6 6 6 7 7 7 7 
20 13 7 7 7 7 7 7 7 6 6 5 6 6 5 5 5 6 6 6 6 6 6 7 7 6 4 3 13 101 101 91 99 103 103 58 61 63 57 57 55 51 48 37 21 11 6 6 6 6 7 7 24 181 181 174 156 172 172 26 7 3 3 5 6 6 6 6 5 5 5 5 5 5 5 5 5 5 6 6 6 6 6 6 6 6 6 6 5 5 
4 5 7 7 7 7 6 6 6 6 6 5 5 6 6 6 6 6 6 6 6 6 7 6 4 5 23 112 106 101 101 74 70 64 58 58 61 63 57 57 126 126 48 37 21 11 6 6 3 4 4 4 10 22 44 49 49 172 172 156 137 140 26 6 3 5 6 6 5 5 5 5 5 5 5 5 5 5 6 6 6 6 6 5 6 6 5 5 5 5 
7 7 7 7 7 6 6 6 6 6 5 5 5 5 6 6 6 6 6 6 7 7 5 5 30 140 112 112 69 60 151 174 174 238 249 249 237 209 172 154 153 156 156 134 127 127 25 11 3 4 4 4 10 22 44 49 49 59 25 31 31 140 140 135 135 15 3 4 6 6 7 6 5 5 5 6 6 5 5 5 5 5 5 5 5 5 5 5 5 5 
7 7 7 5 5 5 5 5 6 6 5 5 5 6 6 6 6 6 6 6 6 4 15 151 140 52 52 136 150 150 156 140 140 238 249 249 237 131 137 137 141 156 156 131 131 127 145 126 13 5 5 17 122 153 190 204 205 205 25 31 31 50 33 33 135 136 130 17 3 5 7 7 6 6 6 6 6 6 6 6 5 5 5 5 5 5 5 5 5 5 
7 6 6 5 5 5 5 5 6 6 5 5 5 6 6 6 6 6 6 5 5 36 151 53 53 52 146 141 150 153 153 146 127 127 144 132 125 126 134 134 141 164 132 131 131 147 145 126 158 152 147 128 123 123 117 121 140 171 171 157 169 169 33 33 53 52 52 130 128 14 4 5 6 6 5 5 5 6 6 6 6 6 5 5 5 5 5 5 5 5 
5 6 6 6 5 5 5 5 6 6 6 5 5 5 5 5 6 7 5 5 48 158 48 48 158 162 162 118 118 153 153 149 126 136 136 121 119 119 134 134 145 164 132 133 133 147 156 144 163 163 147 123 123 123 117 122 122 131 126 120 120 146 195 205 205 52 52 57 128 128 36 5 5 6 5 5 5 6 5 5 5 6 6 6 5 5 5 5 5 5 
5 5 6 5 5 5 5 5 5 5 5 6 6 5 5 5 6 6 7 147 144 53 53 137 149 136 128 128 119 140 141 141 116 122 128 128 119 119 134 134 137 111 116 116 147 147 128 128 163 163 125 131 143 143 140 120 120 119 111 120 120 131 140 146 205 217 217 182 57 57 57 130 16 4 5 5 5 6 6 5 5 6 6 6 5 5 5 5 5 5 
5 5 5 5 5 5 5 5 5 5 5 5 6 6 6 6 5 4 147 147 55 108 128 128 128 131 130 130 123 123 136 136 114 114 128 128 138 152 134 134 137 103 103 145 157 157 128 128 203 203 136 128 134 134 129 120 120 114 108 121 121 123 128 128 183 183 217 165 165 57 50 50 130 24 3 5 6 6 6 6 5 5 6 6 5 5 5 5 5 5 
5 5 5 5 5 5 5 5 5 5 5 5 5 5 5 6 3 37 145 32 32 132 132 144 132 131 130 123 125 125 127 126 126 114 129 129 131 152 127 92 85 85 132 143 144 144 143 137 203 203 115 126 134 134 129 113 114 114 108 111 111 107 128 128 159 159 119 119 117 151 170 50 43 129 32 3 5 6 6 5 5 5 5 5 5 5 5 5 5 5 
5 5 5 5 5 5 5 5 5 5 5 5 5 5 5 4 23 141 28 28 126 132 132 144 132 115 116 116 125 125 120 126 126 107 107 125 125 130 126 80 85 85 134 143 144 144 129 181 181 100 100 128 128 126 124 88 88 108 108 109 109 107 102 120 135 135 109 109 109 134 163 149 23 23 136 34 4 6 5 5 5 5 5 5 5 5 5 5 5 5 
5 5 5 5 5 5 5 5 5 5 5 6 6 6 4 11 131 30 30 28 126 117 127 127 111 115 116 116 118 121 120 103 105 107 107 125 125 130 83 80 80 87 134 134 139 139 116 179 179 100 112 128 128 126 124 88 88 87 87 109 109 98 100 100 117 117 109 109 127 136 117 117 103 15 15 158 27 4 6 6 5 5 5 5 5 5 5 5 5 5 
5 5 5 5 5 5 5 5 5 5 6 6 6 5 4 116 44 30 30 211 145 119 122 119 119 111 107 109 109 110 111 103 105 107 107 107 106 106 83 83 120 120 138 139 139 132 116 212 212 115 108 119 119 121 121 83 74 74 87 100 100 98 100 103 103 106 106 114 127 109 109 108 113 15 15 23 158 13 3 6 5 5 5 5 5 5 5 5 5 5 
5 5 5 5 5 5 5 5 5 5 6 6 6 4 34 64 44 44 191 211 141 119 122 119 119 116 113 111 111 110 111 104 105 105 105 107 106 106 97 122 122 120 136 139 139 130 124 221 221 193 108 129 133 133 121 81 74 74 95 102 102 103 110 101 101 94 106 112 98 98 109 108 113 98 23 23 150 150 3 5 5 5 5 5 5 5 5 5 5 5 
5 5 5 5 5 5 5 5 5 5 5 6 4 19 120 64 189 176 137 132 137 136 138 138 138 133 113 111 111 113 101 101 107 107 119 119 120 119 128 122 137 137 135 135 139 161 244 244 185 185 125 130 133 133 129 98 76 76 92 102 95 99 99 101 101 94 88 88 98 98 95 104 126 167 25 14 14 151 21 3 5 5 5 5 5 5 5 5 5 5 
5 5 5 5 5 5 5 5 5 5 5 5 6 118 120 166 177 149 135 135 137 132 138 138 138 133 111 111 111 112 101 101 107 107 119 119 120 119 128 136 137 136 136 135 141 161 244 244 185 185 125 130 121 124 124 121 92 87 87 93 95 99 99 76 76 74 88 88 97 95 95 114 119 119 132 14 14 35 151 4 4 5 5 5 5 5 5 5 5 5 
5 5 5 5 5 5 5 5 5 5 5 3 37 72 72 153 134 139 138 138 137 129 129 129 117 115 115 112 87 87 101 101 109 109 92 92 78 100 159 159 144 138 138 137 129 148 238 238 113 121 121 128 121 124 127 127 92 87 87 110 108 100 100 76 76 74 82 107 107 92 92 97 105 105 132 21 8 8 143 24 4 5 5 5 5 5 5 5 5 5 
5 5 5 5 5 5 5 5 5 5 4 10 128 72 123 123 119 119 138 138 121 121 129 129 117 115 115 83 80 80 92 92 92 91 92 92 78 76 141 140 141 138 138 137 129 142 191 118 113 133 133 141 137 130 127 127 86 80 80 110 108 108 108 89 89 93 132 139 135 135 107 104 104 105 125 188 8 8 29 143 4 5 5 5 5 5 5 5 5 5 
5 5 5 5 5 5 5 5 5 5 3 122 122 47 123 123 119 124 124 103 121 121 106 106 111 111 82 78 78 77 92 94 94 91 109 109 71 71 141 140 141 141 131 131 135 139 123 136 148 133 133 141 139 130 130 125 62 62 64 70 70 106 95 89 89 88 132 139 135 135 116 104 104 98 112 188 80 23 23 128 22 4 5 5 5 5 5 5 5 5 
5 5 5 5 5 5 5 5 5 4 8 111 9 9 103 123 130 124 124 98 100 100 106 106 100 91 82 78 78 77 79 94 94 143 143 122 71 71 137 142 143 143 144 157 139 139 122 136 148 148 149 141 139 139 137 126 62 62 71 70 70 94 95 89 82 82 81 88 110 110 120 120 108 96 108 115 92 92 23 46 128 3 5 5 5 5 5 5 5 5 
5 5 5 5 5 5 5 5 5 3 105 105 5 5 27 133 149 149 103 98 100 100 98 75 73 70 70 83 83 101 127 123 123 143 143 69 55 55 31 160 160 183 183 135 128 128 84 84 141 144 144 133 155 155 146 52 60 60 115 115 88 96 95 87 82 82 81 88 110 110 121 121 126 108 108 97 92 92 81 43 112 9 4 5 5 5 5 5 5 5 
5 5 5 5 5 5 5 5 5 4 105 15 10 10 18 108 126 126 103 116 116 117 117 75 73 70 70 94 94 105 132 132 123 156 156 192 43 31 18 18 173 183 183 140 140 128 84 84 141 144 144 133 139 147 30 35 54 54 115 115 92 92 96 89 89 86 86 95 122 123 121 121 126 124 86 86 105 86 86 43 112 112 3 6 6 6 5 5 5 5 
5 5 5 5 5 5 5 5 3 14 78 5 10 10 18 108 126 126 121 116 116 117 117 111 120 111 86 94 94 105 132 132 120 178 228 228 239 26 18 13 13 25 155 140 140 124 114 115 158 146 146 124 23 12 12 35 35 59 125 113 92 92 99 89 89 86 80 57 63 64 107 107 75 79 85 85 90 86 86 36 36 112 4 5 6 6 5 5 5 5 
5 5 5 5 5 5 5 5 3 78 78 5 8 8 18 108 126 155 155 152 151 151 144 151 120 129 129 136 145 144 144 137 120 117 228 228 239 234 30 13 16 18 18 24 94 21 21 128 44 29 16 16 10 12 12 28 210 192 192 127 100 103 103 84 84 78 61 57 57 59 66 65 67 67 85 85 88 88 93 36 36 119 20 4 6 6 6 5 5 5 
5 5 5 5 5 5 5 5 5 75 31 18 14 14 31 209 159 155 132 141 149 149 120 120 148 135 135 139 154 154 144 135 90 90 117 204 234 234 214 38 16 18 22 22 21 17 13 13 14 15 16 16 10 14 224 250 250 192 192 131 129 129 114 115 110 110 56 57 57 59 66 65 67 67 105 105 98 98 114 19 19 119 119 4 6 6 5 5 5 5 
5 5 5 5 5 5 5 3 23 72 49 60 14 14 210 210 110 110 110 141 149 149 120 120 148 135 135 139 154 154 147 135 73 73 97 102 102 113 145 195 41 16 22 22 20 20 14 14 14 15 12 12 37 248 248 250 250 226 107 131 125 120 120 121 123 113 113 114 112 112 126 126 119 117 105 105 98 98 114 17 9 9 81 9 3 5 5 5 5 5 
5 5 5 5 5 5 6 4 72 23 30 30 50 203 203 127 110 110 110 113 114 82 82 177 187 187 181 136 136 150 150 131 73 73 97 105 105 103 107 128 218 218 28 22 20 20 14 14 13 14 30 239 239 248 248 247 232 106 92 92 125 120 120 121 123 113 113 115 115 112 126 126 121 117 108 104 104 98 113 16 6 6 63 63 3 5 5 5 5 5 
5 5 5 5 5 6 5 34 34 4 4 30 184 203 126 129 123 126 133 123 123 82 82 177 187 187 152 136 136 135 103 103 66 58 58 105 105 103 96 96 124 245 245 64 48 41 41 40 47 237 247 247 239 238 97 86 86 79 92 92 127 130 130 117 122 135 115 115 115 111 107 119 111 103 98 95 95 93 84 10 6 6 12 63 5 5 5 5 5 5 
5 5 5 5 5 6 5 24 7 4 4 197 184 112 112 124 165 165 155 120 120 122 140 141 141 141 144 147 147 135 90 90 67 58 58 58 84 89 93 93 105 245 255 255 240 236 236 237 255 255 247 247 105 88 80 80 74 68 68 107 117 130 130 135 117 117 125 125 124 124 127 124 124 103 98 95 95 87 76 6 5 5 4 60 15 4 5 5 5 5 
5 5 5 5 5 5 24 9 7 7 230 230 152 112 112 124 165 165 144 120 120 122 140 141 141 141 144 148 145 120 90 90 82 61 57 57 84 89 95 95 102 241 255 255 255 243 243 255 255 255 247 86 87 88 88 80 61 61 68 107 117 117 137 137 117 117 125 125 124 124 127 124 124 130 130 95 95 88 76 6 5 5 4 60 60 3 5 5 5 5 
5 6 5 5 5 7 33 9 9 33 221 196 184 184 124 124 137 143 146 146 149 138 133 133 146 144 144 131 131 88 85 85 91 61 59 64 64 69 95 95 102 250 255 255 255 243 243 255 255 255 104 78 84 88 88 81 61 60 60 88 112 112 135 135 127 127 121 117 136 136 142 150 133 130 130 102 102 122 166 10 6 6 5 21 61 3 6 5 5 5 
5 6 6 6 4 57 22 15 15 207 207 164 184 184 180 153 149 143 146 146 149 140 133 133 142 166 166 139 84 84 100 100 91 61 59 64 64 69 85 85 107 255 255 254 254 242 242 255 255 251 98 78 84 84 84 51 56 60 60 81 81 128 135 135 127 127 122 117 136 136 119 119 141 141 113 102 102 113 166 27 7 7 7 39 39 3 5 5 5 5 
5 5 5 5 8 56 22 22 204 207 207 164 164 127 122 122 149 149 165 148 140 140 146 147 147 166 166 92 77 77 100 100 79 79 48 39 39 40 85 85 240 255 255 255 254 236 249 255 255 251 98 88 88 75 75 46 46 63 63 81 81 88 145 145 130 130 129 78 78 134 133 133 108 107 107 109 106 106 117 174 12 8 8 13 24 3 5 5 5 5 
5 5 5 3 56 56 30 173 204 218 218 232 228 127 122 122 120 127 136 151 136 136 146 147 147 166 166 92 77 77 98 98 79 79 52 39 33 33 60 93 255 255 254 254 249 223 246 255 255 255 107 88 88 38 40 40 46 80 88 88 83 87 122 122 145 156 164 78 78 140 137 137 108 107 107 98 96 96 117 174 170 8 11 11 24 5 5 5 5 5 
5 5 5 4 51 51 30 169 157 157 232 232 234 157 124 124 139 139 146 139 120 185 185 145 141 143 143 76 75 90 90 60 60 53 47 47 33 33 54 208 255 255 252 250 231 193 240 255 255 255 239 79 43 35 40 40 48 85 88 88 87 87 104 117 156 156 140 140 128 140 137 137 113 113 130 99 99 96 80 79 124 124 11 11 39 39 4 5 5 5 
5 5 5 43 43 32 126 169 157 157 223 234 234 157 151 151 138 138 146 145 158 185 185 157 156 143 143 69 65 65 85 53 53 42 47 47 29 29 51 208 244 252 252 249 151 151 226 255 255 255 240 84 42 37 40 40 51 85 85 82 82 104 104 117 143 143 140 140 128 128 120 118 118 130 130 99 99 90 65 65 67 124 16 8 8 39 4 5 5 5 
5 6 4 43 43 32 126 92 92 108 105 105 105 115 128 128 138 138 113 113 157 157 133 133 159 159 146 70 65 65 57 53 53 42 42 42 46 61 61 60 76 102 232 232 208 208 235 255 255 254 240 156 42 37 37 70 76 76 85 63 63 71 71 132 143 143 124 124 121 133 133 114 114 118 128 90 90 90 65 65 67 61 12 3 3 23 6 5 5 5 
5 6 4 41 41 41 135 92 92 108 105 105 128 128 128 112 112 124 113 113 157 157 133 133 159 159 98 76 67 65 65 65 39 39 42 42 62 62 55 55 56 64 72 86 208 208 235 250 250 235 101 76 38 35 35 70 76 76 75 62 62 62 64 77 118 118 124 124 121 129 129 114 114 118 82 90 90 85 80 95 61 61 12 3 3 16 16 5 5 5 
6 6 6 57 37 194 194 108 108 108 111 119 128 128 128 112 112 111 121 121 94 157 157 127 119 119 111 76 67 65 65 65 39 39 52 57 57 64 64 58 56 56 72 72 102 225 225 93 89 74 65 63 63 35 39 50 50 75 75 63 62 62 64 73 115 115 128 113 113 129 129 103 103 97 97 82 85 85 95 95 81 81 35 16 8 16 16 5 5 5 
6 4 67 67 37 220 235 235 130 141 141 136 135 135 137 135 154 97 121 121 124 157 146 135 119 119 111 72 57 57 54 26 24 24 53 57 57 64 64 58 54 54 72 72 102 123 59 58 62 62 63 63 54 54 39 50 50 69 61 63 63 56 59 73 115 115 127 113 113 115 127 141 118 97 97 84 84 110 110 105 209 208 223 223 8 8 16 5 5 5 
6 3 67 67 33 224 224 235 186 189 206 206 152 152 157 150 154 84 84 177 177 143 144 144 135 128 118 68 58 58 54 19 19 44 53 53 57 64 64 65 54 54 62 76 96 76 76 66 62 62 63 73 54 54 33 32 34 34 57 59 59 55 55 68 91 135 137 133 121 116 116 108 110 114 114 101 101 110 110 123 209 208 223 223 22 8 12 5 5 5 
6 3 68 33 33 224 224 125 123 123 206 206 175 175 140 147 147 116 138 177 177 129 144 144 152 152 93 70 58 58 52 19 19 45 45 48 43 60 58 58 55 55 62 76 96 76 76 69 69 76 76 66 54 54 54 32 29 29 57 59 59 55 55 68 111 116 121 121 121 116 106 106 107 114 114 94 91 91 91 90 75 75 73 104 104 10 12 7 5 5 
6 5 72 42 99 110 104 104 114 119 112 112 199 199 157 157 122 123 115 115 126 100 100 130 152 152 127 70 58 58 21 21 36 45 45 39 49 53 58 58 57 60 69 82 104 82 73 68 68 68 70 66 66 54 54 53 29 29 51 57 53 53 55 108 123 123 120 120 126 115 106 106 107 92 92 94 91 91 91 74 74 71 73 83 101 10 10 18 4 5 
2 9 61 33 99 122 120 124 137 137 118 118 114 114 157 157 187 123 115 115 113 90 90 131 130 129 129 76 56 56 23 23 39 39 41 39 49 53 58 58 64 65 68 91 136 93 71 68 68 67 67 75 65 65 51 51 23 15 15 23 36 74 74 108 123 123 120 120 119 120 120 104 104 101 101 107 98 89 89 74 74 71 73 83 101 18 23 23 4 6 
2 15 68 33 33 141 141 122 137 137 118 118 111 111 120 163 187 121 106 106 113 90 90 108 159 129 129 90 60 60 23 23 39 39 41 72 56 56 78 84 84 72 72 223 223 215 76 68 69 67 67 60 55 55 51 51 46 15 15 23 36 74 74 92 140 140 139 133 119 132 132 69 69 101 101 107 98 98 92 85 92 175 166 166 183 30 19 19 5 6 
0 77 77 48 151 141 141 129 129 114 111 111 110 111 121 119 137 137 106 106 101 88 88 115 115 159 113 90 90 73 34 34 44 44 71 71 74 73 81 84 84 88 232 223 223 215 98 75 77 77 74 60 55 55 55 55 42 18 18 27 60 60 69 116 140 140 139 117 119 126 126 69 69 105 105 116 128 142 142 160 179 175 166 166 183 28 21 26 5 4 
0 77 77 42 151 158 138 138 138 114 111 111 110 121 121 126 126 122 136 112 91 84 84 103 100 100 91 83 73 70 70 76 55 55 71 71 66 73 81 81 95 215 232 232 192 248 248 94 77 77 69 66 67 67 58 42 42 33 33 34 60 60 106 105 105 69 69 124 142 127 127 128 84 109 109 100 107 107 124 121 83 80 87 87 92 25 18 22 6 4 
0 77 77 31 31 126 126 138 138 117 109 103 103 134 136 129 129 122 123 158 162 84 84 103 100 100 80 83 73 70 70 75 55 55 64 66 66 73 93 232 249 249 205 208 208 253 253 248 82 69 69 68 70 70 49 42 42 33 33 34 66 66 104 105 105 69 69 156 142 127 127 128 81 81 103 100 107 107 124 78 78 78 82 81 81 79 17 19 6 4 
0 91 91 31 91 126 145 147 147 115 109 109 106 123 123 129 129 122 123 114 139 166 166 107 98 98 80 66 66 63 75 75 75 73 78 89 196 213 235 250 250 249 160 243 250 254 255 255 243 94 74 68 70 70 49 49 49 46 38 38 66 82 104 104 101 82 82 116 116 127 127 106 106 81 70 89 173 173 91 78 91 85 85 82 81 78 17 19 6 4 
0 91 91 34 91 126 138 138 146 146 145 138 138 123 123 102 98 88 88 86 102 166 166 160 99 99 89 66 66 63 219 237 245 245 229 229 236 236 238 250 250 249 241 243 251 255 255 255 254 245 225 198 83 66 59 58 58 56 58 66 66 76 110 110 123 82 82 116 116 144 144 106 106 128 143 95 173 173 107 100 100 85 85 82 69 69 23 24 7 4 
0 100 100 40 96 96 131 131 146 146 147 138 124 124 94 89 91 91 90 96 106 93 88 88 84 77 81 85 97 243 255 255 255 255 252 248 248 236 238 235 243 243 241 243 251 255 255 255 254 245 227 227 223 224 220 83 59 54 58 66 66 92 92 110 93 93 72 72 159 175 175 122 122 128 143 132 83 83 107 100 100 82 90 82 69 69 26 28 6 4 
0 107 107 49 108 108 131 131 131 141 130 130 124 124 113 89 91 97 97 98 96 93 87 87 87 77 88 246 255 255 255 255 254 255 255 252 248 237 39 30 24 15 12 12 15 22 39 213 220 227 227 227 245 251 253 253 238 50 50 70 84 92 77 77 79 122 118 107 107 100 92 94 105 105 105 99 110 110 94 81 82 82 95 82 88 88 25 28 6 4 
0 99 99 53 108 108 129 120 120 139 130 130 103 103 113 92 95 97 97 98 78 78 87 87 92 94 240 255 255 255 254 254 254 255 255 252 227 14 9 8 6 6 6 6 7 5 5 5 9 23 224 240 250 251 254 255 255 248 68 70 81 81 74 74 91 125 118 103 103 101 101 106 115 114 114 123 110 110 123 112 69 69 75 78 88 88 34 37 6 4 
0 31 106 40 106 106 174 174 132 139 139 133 103 103 129 121 121 99 99 98 78 78 90 92 92 111 253 255 255 255 255 255 255 246 216 22 17 20 9 8 6 6 6 6 8 8 8 7 7 6 10 230 250 252 255 255 255 255 255 237 81 81 74 74 91 125 111 103 105 101 101 106 111 114 114 123 132 76 76 79 76 76 75 76 89 89 48 48 3 5 
0 20 120 33 90 90 174 174 132 112 117 117 100 100 130 121 121 107 105 105 86 86 101 94 94 125 255 255 255 255 249 222 49 49 42 22 17 20 19 19 18 16 11 8 8 8 8 7 7 7 5 5 29 251 255 255 254 255 255 255 228 86 72 64 64 71 111 108 105 105 113 116 111 106 106 114 71 68 68 72 76 76 95 78 78 36 36 55 3 5 
4 8 100 34 34 73 132 132 111 112 117 117 109 129 130 127 127 150 150 109 89 89 101 101 101 135 255 255 243 52 52 51 49 102 102 97 47 42 42 98 99 88 80 80 72 66 26 21 14 7 5 5 7 13 234 254 254 255 255 255 235 111 76 64 64 71 67 100 103 113 113 116 82 75 74 74 72 68 68 82 80 80 89 89 45 36 65 65 3 5 
5 3 112 34 34 113 118 118 117 142 146 146 146 130 130 136 149 150 150 109 109 123 126 126 136 129 100 51 51 52 108 130 132 126 126 130 116 116 114 114 112 112 80 80 72 66 117 117 84 84 16 7 7 13 13 18 235 255 255 255 235 121 131 131 74 67 52 52 60 60 64 75 82 75 74 74 72 79 79 81 125 125 89 89 76 35 65 65 3 5 
5 3 118 118 41 113 118 118 117 142 146 146 137 137 133 130 130 126 126 131 131 129 126 126 133 129 69 51 114 131 131 144 151 126 126 135 130 134 130 130 112 112 105 14 14 90 117 117 102 95 89 89 80 13 13 18 21 23 207 109 112 121 146 146 149 134 52 52 60 60 64 75 102 107 107 72 72 76 76 81 104 104 135 176 144 39 68 13 4 5 
5 3 118 118 28 28 153 122 122 132 132 132 137 137 133 130 146 139 139 131 131 129 125 125 133 100 92 143 114 131 157 143 143 126 131 130 130 134 130 130 123 108 105 14 14 100 133 133 106 108 108 102 102 100 107 21 21 24 27 27 112 112 146 146 149 93 93 105 105 111 111 100 100 107 107 87 76 76 76 82 97 97 102 132 23 23 42 4 5 5 
5 3 11 114 28 28 153 153 117 136 136 132 137 137 141 158 146 139 139 135 130 103 109 109 92 92 145 145 154 157 157 143 143 133 131 130 130 119 117 117 123 118 118 34 34 105 113 113 106 108 108 102 102 117 117 114 114 93 27 27 60 139 139 123 123 85 85 105 105 111 111 100 100 105 105 90 90 89 85 86 93 93 102 87 23 55 55 4 5 5 
5 5 3 140 31 19 19 134 134 136 136 134 135 143 145 142 142 145 145 138 75 75 109 109 80 80 145 145 109 106 118 118 118 118 118 111 112 119 117 117 135 135 120 34 34 117 117 113 96 90 90 92 117 117 117 114 114 93 68 79 79 139 139 123 123 85 86 86 87 118 118 112 83 94 94 90 90 89 85 89 93 93 85 20 20 55 55 3 5 5 
5 7 3 140 140 19 19 131 131 129 124 128 131 131 126 142 142 142 137 78 75 75 94 94 71 71 74 140 109 112 118 118 127 118 118 111 112 118 114 114 124 124 120 41 94 117 127 127 104 104 90 92 117 117 154 154 189 189 192 79 84 84 122 122 84 95 86 86 87 113 113 112 83 83 101 96 90 88 89 89 91 90 85 14 14 65 6 5 5 5 
7 7 4 21 143 19 19 131 131 132 125 127 130 129 129 119 120 120 90 84 84 75 94 94 71 71 64 151 151 112 124 127 127 91 88 88 107 118 115 131 124 124 127 67 99 120 127 127 104 104 97 107 117 117 154 154 189 189 192 119 84 75 75 67 84 95 107 107 109 97 71 71 93 101 101 101 95 82 86 86 103 145 146 14 14 48 3 5 5 5 
6 6 6 5 164 164 21 21 125 127 123 123 130 129 129 119 120 120 90 85 85 94 128 128 68 59 59 68 158 158 101 95 95 84 84 81 78 63 121 124 108 108 138 91 99 129 129 114 114 109 119 129 117 117 121 121 127 119 123 123 88 88 56 56 70 106 107 107 109 108 71 71 81 81 102 113 109 109 86 86 102 95 29 24 48 11 4 5 5 5 
6 7 7 4 30 164 21 21 132 127 123 123 130 130 131 120 120 97 85 85 85 96 132 132 126 59 59 63 127 123 110 95 81 80 80 80 78 56 77 83 83 74 69 85 110 129 129 114 114 117 119 79 79 84 121 121 121 100 100 106 88 88 51 51 75 115 161 161 97 90 93 93 82 82 100 100 109 109 105 134 102 20 20 76 76 4 5 5 5 3 
7 7 7 6 7 167 41 29 29 133 137 133 133 128 132 132 98 98 90 91 100 100 111 132 139 62 63 63 108 119 119 118 81 80 80 80 69 78 85 85 83 58 58 85 123 117 117 126 135 135 78 73 73 130 130 121 121 100 100 106 89 89 51 51 89 89 161 161 114 112 93 93 82 99 100 100 105 157 157 134 61 21 21 76 17 4 5 5 9 30 
5 7 7 7 4 28 167 29 29 128 137 137 137 135 122 111 98 98 127 127 100 114 114 144 144 67 70 70 74 119 122 122 77 67 67 77 66 88 88 85 53 53 58 86 100 105 119 119 111 82 75 73 73 130 130 115 116 116 105 49 49 60 48 48 89 89 117 117 86 86 112 136 136 99 84 84 105 157 157 99 99 21 21 72 3 6 6 4 21 186 
171 6 6 6 6 6 178 178 30 30 127 127 164 164 133 125 125 127 127 127 107 114 114 144 144 94 70 70 74 61 122 122 77 67 67 68 66 89 89 59 53 53 86 74 77 77 119 119 111 71 71 75 89 93 93 125 120 100 100 49 49 60 53 48 48 72 77 117 86 77 77 136 136 98 84 79 79 86 86 66 39 32 72 10 3 6 6 5 18 153 
171 4 6 7 7 5 21 192 39 25 25 136 162 151 151 125 125 146 126 126 132 132 134 157 123 94 81 81 44 44 115 115 84 84 85 83 83 89 89 68 68 121 121 72 77 77 107 107 77 71 71 90 90 93 93 96 76 59 54 54 100 98 98 48 48 72 72 127 127 77 85 85 88 95 104 79 79 81 86 66 22 32 25 3 5 5 6 5 19 193 
12 7 7 7 7 7 3 192 192 25 24 24 138 151 151 145 125 125 132 122 127 127 134 157 119 119 134 128 44 41 41 50 84 84 77 83 83 70 70 76 76 121 121 72 84 84 82 78 96 96 91 90 90 91 91 73 68 57 57 55 100 98 79 79 48 72 72 89 89 108 85 88 88 106 106 103 81 81 67 20 22 73 3 5 5 5 6 5 20 193 
5 7 7 7 7 7 6 8 193 193 24 17 17 126 136 129 125 125 120 115 115 118 106 106 106 119 134 100 100 41 41 55 55 80 77 77 63 70 70 80 80 138 138 90 92 92 87 94 96 96 108 119 98 98 74 58 65 65 57 55 97 96 85 84 84 81 101 101 86 86 96 88 88 95 106 103 87 17 17 20 77 6 3 5 5 5 6 5 20 161 
7 7 7 7 7 7 7 5 15 191 191 17 11 11 109 129 129 144 120 115 115 110 105 106 106 80 80 104 104 104 94 55 55 77 77 58 58 95 90 80 80 148 102 91 95 95 142 142 76 76 68 68 66 45 45 58 65 65 67 67 154 154 85 84 84 81 101 86 86 88 93 90 95 95 93 16 16 17 17 80 8 4 5 5 5 5 6 4 22 176 
7 7 7 7 7 7 7 7 5 19 198 198 11 11 11 11 137 144 144 119 115 110 105 106 106 80 80 104 104 104 101 81 68 68 53 58 58 71 71 79 79 91 102 91 95 95 114 84 76 76 68 68 66 45 45 123 123 74 67 67 154 154 74 74 76 76 90 86 86 96 96 88 97 124 47 16 16 15 51 10 4 5 5 5 5 5 5 5 14 38 
6 7 7 7 7 7 7 7 7 4 22 203 203 10 11 7 7 23 143 143 126 126 121 121 139 74 71 84 102 102 101 105 107 66 50 50 54 71 71 86 83 91 95 131 131 129 121 121 74 43 43 60 60 92 92 123 123 85 102 102 93 82 74 74 94 91 94 94 94 96 96 28 28 15 15 18 18 86 9 4 5 5 5 5 5 5 5 6 1 0 
8 7 7 7 7 7 7 7 7 6 4 27 203 196 11 7 3 3 14 150 135 135 121 121 139 74 71 84 84 123 119 73 56 56 50 50 56 64 90 90 92 108 133 131 131 129 121 121 52 43 43 100 102 92 69 71 71 71 102 84 84 90 92 92 99 91 94 94 94 90 15 6 6 9 15 32 99 5 4 5 5 5 5 5 5 5 5 5 1 0 
131 5 7 7 7 7 7 7 7 7 7 5 23 196 179 18 3 2 2 7 22 37 141 136 100 111 111 91 97 97 86 86 56 56 58 123 123 90 90 90 104 112 133 133 85 85 87 54 50 50 65 100 72 72 69 71 71 71 96 84 84 90 92 92 99 119 134 86 86 8 2 2 6 9 108 99 4 4 5 5 5 5 5 5 5 5 5 5 11 27 
86 5 7 7 7 7 7 7 7 7 7 7 5 11 53 170 32 2 2 3 3 5 130 112 100 111 111 134 113 93 86 86 92 70 114 123 123 68 68 88 99 22 132 132 86 96 96 57 50 50 62 64 72 92 92 86 78 78 101 101 83 83 97 109 119 119 134 15 4 4 2 2 23 116 23 3 5 5 5 5 5 5 5 5 5 5 5 4 19 187 
86 5 7 7 7 7 6 6 7 7 7 7 7 6 3 23 170 130 7 3 3 3 3 3 5 11 134 134 101 93 109 109 92 128 115 79 79 68 68 13 5 5 9 98 85 85 96 57 53 53 62 91 91 92 92 86 76 79 79 122 200 200 140 140 12 2 1 1 1 4 13 113 116 13 4 5 5 5 5 5 5 5 5 5 5 5 5 5 9 40 
91 5 7 7 7 7 7 7 7 7 7 7 7 7 7 5 8 40 113 20 3 3 4 4 4 5 5 12 130 130 109 109 111 79 67 71 71 66 57 5 5 6 5 20 85 85 86 85 85 89 90 91 79 79 71 58 59 79 79 193 200 200 162 5 2 2 1 1 1 22 113 26 3 4 5 5 5 5 5 5 5 5 5 5 5 5 5 5 5 4 
79 5 7 7 7 7 7 7 7 7 7 7 7 7 7 7 6 4 13 113 101 19 4 4 4 5 5 3 3 14 96 96 97 79 67 71 71 66 6 6 7 7 6 5 16 90 91 85 85 89 128 99 79 79 71 58 59 59 67 26 14 3 1 1 2 3 3 21 115 36 7 3 4 5 5 5 5 5 5 5 5 5 5 5 5 5 5 5 5 5 
104 5 7 7 7 7 7 7 7 7 7 7 7 7 7 7 7 7 5 3 16 101 92 28 9 4 3 3 2 0 0 1 5 5 7 8 8 6 6 6 7 7 7 6 7 13 82 82 96 136 136 23 15 15 18 15 11 6 3 1 1 1 1 1 3 23 110 115 18 2 4 5 5 5 5 5 5 5 5 5 5 5 5 5 5 5 5 5 5 5 
104 6 7 7 7 7 7 7 7 7 7 7 7 7 7 7 7 7 7 7 5 4 11 86 86 94 24 8 2 0 0 1 5 5 7 2 2 6 6 8 7 7 7 6 5 5 5 10 21 12 3 4 5 5 1 1 1 1 3 1 1 1 8 106 106 110 17 3 3 5 5 5 5 5 5 5 5 5 5 5 5 5 5 5 5 5 5 5 5 5 
10 8 7 7 7 7 7 7 7 7 7 7 7 7 7 7 7 7 7 7 7 7 5 5 5 18 94 85 85 85 16 7 3 3 3 2 2 5 7 8 8 8 10 7 5 5 5 1 0 0 1 4 5 5 1 1 1 1 3 8 22 87 102 106 14 2 3 5 5 5 5 5 5 5 5 5 5 5 5 5 5 5 5 5 5 5 5 5 5 5 
10 7 7 7 7 7 7 7 7 7 7 7 7 7 7 7 7 7 7 7 7 7 7 7 7 5 4 6 17 85 86 80 86 93 96 96 22 14 10 7 7 6 6 5 4 3 2 1 0 0 1 4 4 7 13 80 78 78 73 73 87 19 6 3 4 5 5 5 5 5 5 5 5 5 5 5 5 5 5 5 5 5 5 5 5 5 5 5 5 5 
10 7 7 7 7 7 7 7 7 7 7 7 7 7 7 7 7 7 7 7 7 7 7 7 7 7 7 7 5 3 3 7 16 93 96 96 93 89 85 81 79 82 86 90 90 85 77 77 69 69 72 73 73 66 74 80 78 78 10 4 4 3 5 5 5 5 5 5 5 5 5 5 5 5 5 5 5 5 5 5 5 5 5 5 5 5 5 5 5 5 
8 7 7 7 7 7 7 7 7 7 7 7 7 7 7 7 7 7 7 7 7 7 7 7 7 7 7 7 7 8 7 6 5 4 4 4 6 6 10 13 16 19 22 90 90 85 77 77 69 22 21 17 12 6 4 4 4 4 5 6 6 6 6 5 5 5 5 5 5 5 5 5 5 5 5 5 5 5 5 5 5 5 5 5 5 5 5 5 5 5 
8 8 8 7 8 8 7 8 8 8 8 8 8 7 7 8 8 7 7 7 7 8 8 8 7 8 8 7 8 8 7 7 7 8 8 8 8 7 4 4 1 1 0 0 0 0 0 0 0 0 0 1 2 4 7 7 7 7 7 7 7 7 7 7 7 7 5 5 5 6 5 5 6 5 5 6 6 5 7 6 5 5 5 5 5 5 5 5 5 5 
