P2
90 90
255
49 49 49 49 49 49 49 50 50 50 50 51 51 51 51 52 52 51 52 52 52 52 52 52 52 52 51 51 52 53 53 52 52 52 54 54 54 54 55 56 56 56 56 55 55 56 56 57 56 56 57 58 58 57 58 58 58 58 58 57 57 57 58 57 57 57 57 57 57 57 56 56 56 56 56 58 58 57 57 57 57 57 57 57 57 58 58 57 56 56 
49 49 49 49 49 49 49 50 50 50 50 51 51 51 51 52 51 51 52 52 52 52 52 52 52 52 52 52 53 53 53 54 54 53 54 54 54 54 55 56 56 55 53 55 55 55 53 55 56 56 58 58 57 57 57 58 58 58 58 58 57 57 58 57 57 57 57 58 57 57 57 56 56 56 58 58 58 57 57 57 57 57 57 57 57 57 57 57 56 56 
50 49 49 49 49 50 50 50 50 50 50 51 51 52 52 52 51 51 51 52 52 53 52 52 52 52 52 52 53 54 54 54 54 54 54 54 54 55 55 55 54 58 75 183 176 176 70 57 54 57 58 58 57 59 59 59 59 59 58 58 59 58 58 59 58 58 57 58 58 57 57 56 56 57 58 58 59 57 56 58 57 57 57 57 57 57 57 57 57 57 
50 50 49 49 50 50 50 50 50 50 51 51 51 52 52 52 52 52 53 53 53 53 53 53 53 53 53 53 53 54 54 54 54 54 55 55 55 55 54 55 73 210 210 201 197 193 193 182 164 54 54 58 59 59 59 59 59 59 59 59 58 58 58 59 57 57 57 58 58 57 57 58 57 57 58 59 59 56 58 58 58 58 58 58 58 57 57 57 58 58 
49 49 49 49 51 50 50 50 50 50 51 51 51 52 52 52 54 54 53 53 53 53 53 54 54 54 53 55 54 54 54 54 54 55 55 56 56 55 56 203 210 210 188 184 184 184 185 183 183 186 56 55 59 59 59 59 59 59 59 59 58 58 59 58 58 57 57 58 58 58 58 58 58 59 59 59 59 58 58 58 58 58 58 58 58 58 57 57 58 58 
49 49 49 50 50 50 51 51 51 51 51 51 51 52 52 54 54 54 54 54 53 53 53 54 54 54 54 55 55 54 54 55 55 55 56 56 56 56 196 197 210 186 184 184 184 183 182 182 183 190 195 55 58 59 59 60 60 59 59 59 59 59 59 58 58 57 57 58 58 58 58 58 58 59 59 59 58 58 58 58 58 57 57 57 58 58 59 59 58 58 
49 49 49 50 50 50 51 51 51 52 52 52 53 53 53 54 54 54 54 54 54 55 54 54 54 54 55 55 55 55 55 55 55 55 56 57 55 72 199 181 176 186 184 184 184 183 181 181 182 184 195 184 55 59 59 60 60 60 59 59 59 59 59 59 59 59 58 58 58 58 58 58 59 59 59 59 58 58 59 58 58 58 57 57 60 59 59 59 59 59 
51 51 51 50 50 50 51 52 52 52 52 52 53 53 53 54 54 54 54 55 55 55 55 55 55 54 55 55 55 55 55 55 56 56 56 56 59 190 190 181 181 179 167 182 182 180 181 181 182 184 183 187 57 58 60 60 60 60 59 59 59 59 59 59 59 59 59 58 59 59 59 59 59 59 58 58 58 58 59 58 58 58 58 60 60 59 59 59 59 60 
50 51 51 50 50 51 51 52 52 53 53 54 53 53 52 51 51 51 51 54 55 55 55 55 55 55 55 55 55 56 56 56 57 58 58 55 75 190 180 181 181 184 167 167 166 166 163 179 183 183 179 183 165 54 59 60 60 60 60 60 60 60 60 59 59 59 59 59 59 59 59 59 60 60 58 58 58 58 59 58 58 58 60 60 60 60 60 60 60 60 
50 50 51 50 50 51 51 51 52 53 53 54 52 52 61 77 176 84 69 55 52 55 55 55 55 55 56 56 56 56 56 57 57 58 58 56 182 198 180 181 184 184 189 186 176 174 174 163 177 180 180 183 175 54 58 60 60 60 60 60 60 60 60 60 60 60 60 59 59 59 59 59 60 60 59 58 58 58 59 59 61 60 60 60 60 60 60 60 60 61 
51 51 51 51 51 51 51 51 52 53 53 52 57 199 217 217 215 215 218 213 67 52 54 55 55 56 56 56 56 56 56 57 57 58 57 62 183 183 200 186 187 187 189 185 187 174 174 175 177 180 180 183 181 58 57 60 60 60 60 60 60 60 60 60 60 60 60 59 59 60 60 60 60 60 59 59 60 59 59 59 60 60 60 60 60 60 60 60 60 61 
51 51 51 51 51 51 51 53 53 53 52 58 206 209 217 217 215 215 218 213 208 200 52 55 56 56 56 56 56 56 57 58 58 59 56 68 183 183 186 200 197 184 185 185 188 175 175 175 177 178 178 184 184 62 56 60 61 61 61 61 60 60 60 60 61 61 61 60 60 60 60 60 60 60 60 60 60 59 59 60 60 61 61 61 60 60 61 62 62 62 
52 51 52 52 52 52 52 53 53 52 55 199 206 206 167 165 175 175 178 195 195 207 67 52 56 56 56 57 57 57 57 58 58 59 56 71 183 183 186 182 183 196 183 183 188 187 188 168 168 178 178 184 184 65 56 60 60 61 61 61 60 61 61 61 61 61 61 60 60 60 61 61 61 62 60 60 60 60 61 61 61 61 61 61 61 61 61 62 62 62 
52 52 52 52 52 52 52 54 54 51 181 200 192 192 167 165 175 175 180 180 197 197 203 55 54 56 56 57 57 57 57 58 60 60 57 71 176 176 180 179 179 196 200 185 185 190 190 185 173 180 183 183 181 63 58 60 60 60 61 61 61 61 61 61 61 61 61 61 61 61 61 62 62 62 62 60 60 61 61 61 61 62 62 62 62 62 62 62 62 62 
52 52 52 52 53 54 54 54 53 57 193 193 192 192 208 208 180 191 191 190 197 197 203 179 52 56 56 56 57 59 59 59 60 60 58 67 175 175 180 179 181 181 200 188 187 185 185 181 181 180 183 183 175 59 59 61 61 61 61 62 61 61 61 59 58 57 58 60 61 61 61 62 62 62 62 62 61 61 61 61 61 62 62 62 62 62 62 62 61 61 
52 52 52 53 53 54 54 54 50 71 193 193 181 181 208 208 184 191 191 190 189 191 191 186 52 56 58 58 58 59 59 59 60 60 60 60 175 175 180 180 181 181 179 200 200 185 185 181 181 182 179 179 168 56 61 61 61 61 61 62 61 59 62 71 83 88 77 64 57 60 62 62 62 62 62 62 62 61 62 62 62 62 62 62 62 62 61 61 61 61 
52 52 52 53 53 54 54 54 53 170 183 184 184 180 187 206 178 178 189 189 182 186 189 189 58 55 58 58 58 58 60 60 60 60 60 57 174 178 178 183 180 180 179 177 175 189 183 183 196 196 179 179 69 56 61 61 61 62 62 61 62 80 192 193 193 205 202 202 191 62 60 62 62 62 62 62 62 62 62 62 63 63 63 63 63 62 61 61 61 61 
52 52 52 52 53 54 54 54 56 173 183 183 188 201 201 199 197 196 196 198 188 186 189 189 64 54 58 58 59 60 60 60 60 60 61 60 70 182 177 183 180 178 178 179 174 174 192 193 196 196 177 174 57 60 61 61 61 62 61 66 207 201 192 193 189 189 196 196 202 200 65 59 62 62 62 62 62 62 62 62 63 63 63 63 62 62 62 62 61 61 
52 52 52 52 54 54 56 56 56 169 181 181 180 201 201 199 197 196 196 198 193 189 189 189 66 55 59 59 59 60 60 60 61 61 61 62 59 180 172 167 180 180 183 183 178 178 178 194 175 175 177 63 57 62 62 62 62 62 66 192 195 187 187 178 189 189 196 196 195 186 186 64 60 63 63 63 63 62 62 63 63 63 63 63 62 62 62 62 62 62 
53 53 53 54 54 54 56 56 56 169 181 181 180 185 198 198 209 193 193 201 201 186 186 185 60 57 59 59 59 60 60 60 61 61 61 62 62 63 176 169 169 181 183 183 178 178 178 171 174 175 159 57 62 63 62 62 62 63 184 196 184 185 185 189 172 187 188 188 188 188 183 175 61 63 63 63 63 62 62 64 64 63 63 63 63 63 63 62 62 62 
53 53 55 54 54 57 57 57 55 164 181 181 182 187 192 192 196 195 198 201 201 186 186 177 55 59 59 59 59 59 60 60 61 61 62 62 62 62 65 169 169 164 166 167 167 168 169 171 174 162 56 62 63 63 63 63 61 75 195 207 207 185 195 195 172 172 188 188 187 187 178 178 155 60 64 63 63 62 62 63 63 63 63 63 63 63 63 64 64 64 
56 56 55 55 55 57 57 57 56 66 180 180 177 177 192 192 190 206 188 190 194 188 188 166 55 61 60 60 60 59 58 60 61 61 60 61 61 61 62 62 156 164 166 167 167 168 169 164 57 56 63 64 63 63 63 63 63 180 194 194 207 190 196 196 196 170 170 184 187 187 189 178 168 61 63 63 63 63 64 64 64 63 63 63 63 63 64 64 64 64 
56 56 56 56 57 57 57 58 58 57 180 182 179 179 192 192 190 185 192 190 194 194 189 58 59 61 61 61 59 59 65 113 113 116 116 68 61 61 61 61 61 61 66 71 69 62 54 54 60 64 64 64 63 63 63 61 71 188 195 195 190 200 196 196 196 188 170 168 172 188 188 175 175 68 61 64 64 64 64 64 64 64 63 63 63 63 64 64 64 64 
56 56 57 57 57 57 58 58 59 57 65 182 179 179 174 172 186 185 188 188 197 197 64 57 61 61 61 60 62 118 118 106 108 108 116 130 130 63 61 63 64 64 61 56 54 55 60 65 66 65 64 64 64 64 64 62 159 187 195 195 184 197 188 181 181 189 187 187 172 187 187 175 175 146 59 64 64 64 64 64 64 64 64 64 65 65 64 64 64 64 
57 57 57 57 57 59 59 59 60 60 58 70 176 176 174 169 165 165 167 188 190 66 55 60 61 61 60 63 118 113 113 106 108 108 103 103 112 135 63 63 64 64 65 65 65 65 65 65 65 65 65 65 65 66 65 64 169 186 186 182 182 188 197 181 181 191 190 190 197 188 188 184 173 152 60 64 64 64 65 65 64 64 64 64 65 65 64 64 64 65 
57 58 58 59 59 59 59 59 60 60 61 59 66 165 169 169 165 165 167 171 60 56 60 61 61 60 60 123 118 113 113 134 130 130 103 103 111 117 143 61 64 64 64 64 65 65 65 65 65 65 65 65 65 64 64 65 170 186 186 182 182 185 203 183 183 191 190 190 197 188 188 184 181 157 61 65 65 65 65 65 65 66 66 66 65 65 65 65 65 66 
57 58 58 59 59 59 60 60 60 61 61 58 55 54 63 74 141 141 65 54 54 61 62 61 61 59 118 120 120 115 143 134 130 130 125 111 115 115 138 138 60 64 64 64 66 66 66 65 65 65 67 66 66 64 64 65 167 177 177 179 184 184 192 192 190 201 201 190 180 192 192 181 181 157 61 65 66 66 66 66 66 66 66 66 66 66 66 66 66 66 
58 58 59 59 59 61 61 61 60 58 58 58 55 54 52 52 52 53 57 60 61 61 62 62 61 60 120 118 118 147 147 135 135 155 155 136 115 115 127 139 60 64 64 66 66 66 66 66 66 66 67 66 66 64 64 64 167 177 177 181 184 184 185 212 201 201 201 195 180 180 193 193 191 158 61 66 66 66 64 63 63 65 66 66 67 66 66 66 66 66 
58 58 60 60 61 61 60 59 62 71 78 85 76 61 52 52 52 60 61 61 61 61 61 62 60 67 120 118 118 129 147 135 135 155 155 148 148 127 127 139 64 63 66 66 66 66 66 66 66 66 66 66 66 65 65 62 168 174 174 181 181 185 185 212 201 190 190 190 190 180 192 192 191 76 61 65 65 68 77 85 79 68 63 66 67 66 66 66 66 64 
58 58 60 60 61 60 61 167 178 178 190 186 186 184 184 63 57 60 61 61 61 61 61 62 59 118 117 117 129 129 131 131 143 145 151 151 149 163 163 149 71 62 66 66 66 66 66 66 66 66 66 66 66 67 67 65 165 174 170 181 181 181 183 187 211 190 190 196 196 186 192 192 190 67 63 63 83 218 228 223 209 209 194 66 64 67 66 66 66 64 
60 60 60 61 59 63 177 183 178 178 197 186 186 200 200 200 69 57 60 62 62 62 62 63 59 123 123 118 118 147 131 131 132 142 151 151 146 163 163 149 75 61 66 66 66 66 66 66 66 67 67 67 67 67 67 68 67 179 170 181 181 181 182 188 191 208 192 196 196 194 195 195 178 67 67 224 235 235 248 248 226 214 213 213 70 64 66 66 66 64 
60 60 60 59 64 203 177 183 195 198 198 197 207 197 195 195 196 70 57 61 62 62 62 62 60 123 123 112 112 147 135 132 132 141 141 141 146 151 142 142 73 62 66 66 67 67 66 66 66 68 67 67 67 67 68 68 64 178 185 175 183 190 193 193 192 209 209 209 208 194 194 193 79 79 228 242 235 235 248 248 241 214 213 213 223 67 61 66 66 65 
60 60 60 59 204 223 223 190 195 198 198 212 212 197 195 194 194 194 63 56 61 61 62 62 60 125 125 111 111 127 127 142 133 141 141 141 143 147 147 144 67 64 66 66 67 67 67 67 67 67 65 64 65 65 66 66 64 64 185 172 179 190 193 193 192 209 209 209 208 194 194 71 71 79 247 247 236 236 236 241 241 219 219 213 223 222 61 65 65 65 
60 61 59 71 203 223 223 216 187 187 207 212 212 212 192 194 194 194 183 56 61 62 62 63 61 73 125 115 115 119 127 145 133 138 138 127 128 147 147 144 62 66 67 67 67 67 67 66 65 68 79 163 158 87 76 67 64 64 65 180 180 171 171 171 166 166 184 184 184 184 67 71 71 236 247 247 240 197 197 194 194 220 232 232 216 222 73 62 65 65 
60 60 62 180 191 191 216 216 190 203 203 207 218 218 187 193 193 192 191 64 58 62 63 63 63 64 142 115 115 119 125 146 146 137 127 127 128 129 142 131 62 67 67 67 67 67 67 66 79 184 190 190 183 183 185 183 75 65 63 63 169 171 171 171 166 166 184 184 170 65 60 60 77 241 241 201 196 196 209 209 194 230 232 232 217 215 202 62 65 65 
60 58 74 187 187 191 197 224 224 203 203 205 208 169 171 185 191 191 197 173 56 62 63 64 64 61 142 120 112 113 113 146 146 118 113 113 124 129 132 62 66 67 67 67 67 66 69 176 184 184 190 190 183 183 185 186 186 177 63 63 61 63 72 147 148 148 150 65 60 60 68 68 204 241 241 195 195 196 209 209 203 199 196 217 206 197 197 62 65 65 
60 61 165 187 187 191 197 224 224 209 209 187 180 191 195 195 192 197 197 180 58 62 64 64 64 65 64 138 115 113 113 107 112 112 113 113 115 123 123 63 67 67 68 68 67 68 178 179 184 178 178 178 180 177 179 186 186 188 177 61 64 64 62 58 57 57 56 63 69 70 70 70 205 226 226 195 195 212 217 235 235 233 218 192 199 196 196 67 63 65 
60 61 170 180 178 178 184 200 219 219 187 187 208 201 199 199 192 193 193 180 58 58 64 65 65 66 64 66 139 116 107 107 112 112 112 112 116 121 61 67 67 69 68 68 66 174 178 174 174 176 178 186 184 184 181 176 188 188 177 74 65 68 69 70 70 69 69 71 70 70 70 70 203 227 227 226 207 238 238 235 235 233 218 192 199 196 196 71 63 65 
58 63 172 180 180 180 179 176 166 169 169 184 208 201 199 199 188 192 192 180 60 60 64 65 65 66 66 64 65 133 133 114 116 116 117 120 64 62 67 68 68 68 69 67 72 182 176 174 174 184 184 187 184 184 181 176 164 168 168 169 65 68 68 69 69 69 69 70 70 70 70 70 203 227 227 234 234 238 238 207 205 205 206 221 199 199 196 68 65 65 
58 64 170 180 181 181 179 174 166 169 180 178 178 196 205 205 193 192 192 179 60 62 64 64 65 66 66 66 66 63 66 113 113 112 63 61 64 67 67 67 68 68 69 66 167 182 176 176 181 184 184 187 182 157 157 161 164 168 168 167 75 64 68 69 69 69 69 70 70 70 70 68 203 228 216 222 222 202 202 198 219 217 217 224 203 203 187 65 67 67 
58 62 171 171 181 181 177 174 180 184 180 178 178 189 192 204 193 190 190 172 57 63 64 65 65 66 66 66 66 63 63 62 61 61 64 67 67 67 67 67 68 69 69 70 177 182 182 185 185 181 177 156 158 157 157 180 180 180 169 167 151 66 68 69 69 70 70 70 70 71 71 66 93 215 208 222 222 202 202 198 219 217 217 233 224 205 172 65 67 67 
60 58 171 171 179 179 183 177 180 184 187 187 187 182 177 183 183 181 181 162 55 64 64 64 66 66 66 65 64 63 63 64 64 67 67 67 67 67 67 68 68 69 67 77 180 182 182 184 180 157 156 156 188 188 184 184 180 180 174 162 151 66 68 70 70 70 70 70 70 71 71 70 75 215 208 208 216 222 217 217 213 223 235 235 197 197 68 67 67 67 
60 58 167 173 173 166 216 216 197 197 187 187 187 182 191 191 180 180 181 66 60 64 64 65 65 64 65 70 77 75 68 64 64 67 67 67 67 67 67 68 68 69 66 85 180 180 177 160 159 182 187 187 188 188 184 184 183 183 185 176 176 70 66 69 70 70 70 71 71 71 71 72 69 203 207 199 199 222 225 225 213 213 235 235 215 76 65 69 69 69 
62 60 70 181 166 166 216 216 198 198 198 190 189 203 191 191 180 180 177 57 64 65 65 64 65 78 163 163 162 162 168 168 72 64 66 68 68 68 68 68 68 70 67 146 167 162 160 160 181 181 187 187 176 176 180 180 187 188 174 176 176 72 65 69 70 70 71 71 71 71 71 72 72 71 203 199 198 198 225 225 222 228 228 219 190 64 68 69 69 69 
62 62 59 181 165 165 164 207 198 198 198 196 200 203 193 182 180 180 64 57 65 65 64 69 171 170 161 161 157 152 152 168 171 175 66 66 68 68 68 68 69 70 66 146 173 173 184 185 185 177 175 175 176 176 187 186 188 169 182 182 174 69 66 69 69 71 71 71 71 71 71 72 72 69 69 187 198 198 207 218 218 207 207 184 66 66 70 69 69 69 
62 62 59 65 175 164 164 198 193 193 185 185 192 192 180 180 180 172 57 65 65 65 70 175 175 173 168 161 172 172 152 157 157 175 181 65 67 68 68 69 69 70 67 85 167 167 184 185 185 177 175 175 186 187 188 167 167 184 183 183 173 66 67 69 69 70 71 71 71 72 72 71 71 72 71 68 71 172 181 181 183 174 69 65 69 70 70 70 69 69 
61 61 62 60 71 168 168 168 197 189 185 185 192 192 180 180 173 57 64 65 65 67 169 175 175 172 171 176 173 173 177 158 158 182 182 180 64 68 69 69 69 70 68 78 167 167 193 191 189 189 185 186 186 187 188 171 182 182 183 183 170 66 68 69 69 72 72 72 72 72 72 71 71 71 72 72 70 66 66 66 66 65 67 70 70 70 70 70 69 69 
61 61 62 63 61 69 168 168 203 203 204 188 188 188 178 161 55 57 66 66 65 159 169 168 168 170 170 175 169 169 177 158 158 177 188 188 72 63 68 68 70 70 70 70 168 168 199 199 152 152 150 194 198 198 171 178 182 182 179 179 160 64 69 69 69 72 72 72 72 72 72 72 71 71 72 72 72 73 72 71 72 72 72 70 70 70 70 69 69 70 
61 61 62 63 65 63 64 158 158 195 189 174 174 160 55 56 65 68 68 66 71 164 166 168 168 170 170 186 169 169 179 179 160 160 183 183 177 63 68 69 70 70 70 67 166 166 157 157 152 152 150 165 165 165 168 179 179 180 172 171 66 68 69 70 70 70 72 72 72 72 72 72 72 72 72 72 72 72 72 72 72 72 72 70 70 70 70 69 69 70 
62 62 63 63 65 65 64 63 65 65 63 59 59 56 63 67 68 68 68 65 155 167 167 167 167 169 191 190 190 184 179 179 160 160 178 178 185 69 66 69 70 70 70 69 72 165 157 168 168 173 171 165 174 174 174 179 179 175 172 158 64 70 70 70 70 71 71 72 72 72 72 72 72 72 73 73 73 72 72 72 72 72 71 70 70 70 69 69 69 70 
62 62 63 63 63 65 64 65 65 65 64 64 66 68 68 68 68 68 68 66 166 170 170 172 190 188 191 190 193 193 187 187 186 175 175 177 187 81 64 69 69 70 70 70 68 160 166 168 168 173 171 176 176 176 174 174 175 175 169 64 69 70 70 70 70 71 71 72 72 72 72 72 72 72 72 73 72 72 72 72 72 71 71 71 71 69 69 69 70 71 
62 62 62 63 63 64 64 64 64 67 68 68 68 68 68 68 68 68 67 71 167 170 170 171 190 190 182 191 193 193 187 183 181 175 181 181 184 163 63 69 70 70 69 69 70 69 160 161 161 161 165 176 176 176 170 168 170 171 65 64 70 70 70 71 71 71 71 73 73 73 73 72 72 72 72 73 73 73 73 72 72 71 71 71 70 70 70 70 70 71 
61 62 62 62 62 64 64 64 65 65 68 67 67 67 68 68 68 68 66 75 167 167 171 171 169 185 185 186 191 191 190 185 185 177 182 182 183 163 64 69 70 70 69 69 70 70 69 77 160 162 165 160 160 170 170 168 163 64 64 71 70 70 71 71 71 71 71 73 73 74 73 73 73 73 73 73 73 73 73 74 74 71 71 71 71 72 72 71 71 71 
61 61 61 62 62 64 64 64 65 65 65 67 67 68 68 68 68 68 66 78 160 160 177 177 177 180 180 174 174 186 185 185 185 178 182 183 183 163 64 69 70 71 71 71 71 71 71 70 70 149 157 160 160 159 153 65 64 70 71 71 70 70 71 71 71 71 73 73 72 71 71 70 71 73 73 74 74 73 73 74 72 72 71 71 71 72 72 71 71 71 
61 61 61 62 62 64 64 64 64 65 65 67 68 68 68 68 68 68 66 77 160 160 177 177 177 180 180 191 191 167 165 165 183 178 178 183 183 162 63 69 69 71 71 70 71 71 71 71 70 67 63 63 63 63 62 68 72 72 71 72 72 73 72 72 72 72 71 71 76 84 92 87 77 70 70 74 74 73 73 73 72 72 72 72 72 72 72 71 71 71 
62 62 62 63 63 63 64 64 64 65 65 68 68 68 68 68 69 69 66 73 163 163 183 183 180 184 187 191 170 172 174 174 167 179 178 182 182 81 64 69 69 69 70 71 71 71 71 71 71 73 73 72 72 73 73 72 72 72 72 72 72 72 72 72 72 71 74 93 218 218 204 190 190 192 77 71 74 73 73 73 73 73 72 72 72 72 72 72 72 72 
62 62 62 63 63 63 64 64 64 66 66 66 68 68 69 69 69 69 69 68 161 161 182 183 183 179 162 162 170 178 178 174 167 181 177 177 178 68 66 69 69 69 70 71 71 71 71 71 72 72 72 73 73 73 73 72 72 72 71 71 72 72 72 72 71 75 230 230 218 181 179 180 180 187 207 81 70 74 73 73 73 73 72 72 73 73 72 73 72 72 
61 62 63 63 63 64 64 64 64 66 66 66 67 70 69 69 69 69 70 66 159 159 163 183 183 171 171 178 176 178 178 189 169 163 166 166 166 63 68 69 69 70 70 71 71 71 71 71 72 72 72 73 73 73 73 72 72 72 72 71 72 72 72 71 73 220 238 238 180 180 179 180 180 187 221 221 78 71 74 73 73 72 72 72 73 73 74 73 73 72 
61 63 63 63 64 64 64 64 64 66 66 66 68 70 69 69 69 70 70 69 75 162 159 180 180 171 171 181 174 174 177 189 169 163 166 166 70 63 70 69 69 70 71 71 71 71 71 71 71 71 71 72 74 74 74 73 72 72 72 72 72 72 72 70 89 230 230 238 196 204 210 216 216 221 214 212 224 71 73 74 74 73 73 73 73 73 73 73 72 73 
63 63 63 63 64 64 64 64 66 66 66 67 67 70 70 70 70 70 70 70 68 162 159 154 154 173 181 181 174 174 175 175 175 173 165 160 63 70 70 70 70 70 71 71 71 71 72 72 72 71 71 72 73 74 74 73 73 72 72 72 73 73 71 75 210 230 230 196 196 204 210 216 216 221 222 216 223 87 69 74 74 73 73 73 73 73 73 73 73 73 
63 63 63 63 65 65 66 66 66 66 67 67 67 70 70 70 70 70 70 71 70 71 161 154 154 158 178 181 181 176 175 175 175 173 167 62 68 71 70 70 70 71 71 71 71 71 72 72 72 71 71 72 72 74 74 74 74 74 73 73 73 73 70 87 217 225 225 212 227 227 210 210 212 219 221 219 219 215 69 74 74 73 73 73 73 73 73 73 72 72 
64 64 64 65 65 65 66 66 66 67 67 67 67 69 70 70 70 70 70 71 71 70 73 157 150 150 178 181 181 176 176 174 171 165 63 62 71 71 71 70 70 71 71 72 72 72 72 71 71 72 72 74 74 74 74 74 74 73 74 73 73 73 71 182 218 224 224 222 227 227 229 227 227 236 221 216 215 215 74 72 74 73 73 73 73 72 72 72 72 72 
64 64 64 65 65 65 66 66 66 67 67 67 69 69 70 70 70 70 70 71 71 72 71 72 146 146 167 171 171 171 171 167 152 61 69 72 71 71 71 71 71 71 71 71 72 71 71 71 71 72 72 74 74 74 74 74 74 75 74 74 73 73 73 189 216 224 224 222 206 206 231 231 227 238 238 216 215 215 80 71 73 73 73 73 73 72 72 72 72 72 
64 64 64 65 65 66 66 66 67 67 67 67 69 69 70 70 70 72 72 72 71 72 72 72 69 72 79 139 139 143 68 61 61 68 68 72 71 71 71 71 71 70 70 72 72 71 71 71 72 72 72 74 74 75 74 74 74 75 74 74 74 74 73 192 216 217 217 205 206 230 231 231 227 238 238 214 212 212 81 69 73 73 72 71 71 71 72 72 72 72 
64 64 65 65 65 66 66 66 67 67 69 69 69 69 72 72 72 72 72 72 72 72 72 72 73 72 69 67 65 63 65 68 68 68 68 67 66 68 70 71 71 71 71 71 72 72 71 71 71 72 72 74 74 75 74 74 75 75 74 73 74 74 72 192 216 216 216 205 233 234 231 231 219 219 222 213 213 207 76 70 72 72 72 71 71 71 72 72 72 72 
65 65 65 65 65 66 66 66 68 68 68 69 69 71 72 72 72 72 73 73 72 72 72 72 73 73 74 73 73 73 72 68 68 74 84 94 96 86 73 67 69 71 71 71 72 72 72 71 73 73 73 73 74 74 74 74 75 74 74 73 74 74 70 192 216 216 222 222 226 228 243 243 218 218 222 212 212 199 70 72 72 72 72 71 71 71 72 72 71 71 
65 65 65 65 65 67 67 67 68 68 68 70 70 71 71 72 72 72 73 73 73 73 73 73 73 73 73 73 73 73 72 73 167 189 198 200 202 202 197 186 71 68 70 70 72 72 71 72 72 72 73 73 74 74 74 75 75 75 75 75 74 74 71 89 215 213 222 219 219 224 243 243 218 218 217 198 198 185 67 72 72 72 72 71 71 72 73 73 71 71 
65 65 65 65 67 67 69 69 69 70 70 70 70 70 70 71 71 71 71 71 72 72 73 73 73 73 73 73 73 71 75 177 176 176 193 197 197 194 187 193 193 75 68 71 72 72 73 72 72 72 72 73 74 74 75 74 74 75 75 75 74 75 75 74 213 213 219 219 219 224 246 246 217 217 201 198 198 73 70 72 72 72 71 71 72 72 73 73 73 71 
65 65 65 65 67 67 69 69 69 70 70 70 70 70 70 71 71 71 71 72 72 72 72 73 74 74 74 74 72 75 183 186 186 176 193 197 197 183 183 193 193 194 75 69 72 72 72 73 73 73 73 74 74 74 75 74 74 74 74 74 74 75 75 73 85 217 213 213 193 193 193 212 213 213 205 202 186 68 72 72 72 72 72 72 72 72 72 73 73 72 
65 65 65 66 67 67 69 69 69 71 71 71 71 71 70 72 72 72 72 72 72 72 72 73 73 74 74 74 74 180 185 185 185 167 167 195 191 191 183 196 196 190 190 71 70 72 72 73 73 73 73 73 74 75 75 75 75 74 74 74 75 75 76 76 73 205 211 211 193 193 193 193 209 205 205 198 69 72 72 72 73 73 72 72 71 72 72 71 71 72 
67 66 67 67 67 68 69 69 71 71 71 71 71 71 71 72 72 72 72 72 72 72 73 73 73 73 74 72 86 184 185 185 181 181 167 169 191 191 195 194 210 210 190 176 68 72 72 73 73 73 73 74 75 75 75 75 75 75 74 74 75 75 75 76 75 73 85 202 202 201 193 193 201 199 184 69 69 73 72 72 73 73 72 72 71 71 71 71 71 73 
66 67 66 66 68 68 69 69 71 71 71 72 71 71 71 71 72 72 72 71 72 72 73 73 73 74 74 75 177 184 184 181 181 181 189 165 186 195 195 210 210 212 184 184 73 70 73 73 73 73 74 74 75 75 75 74 74 74 75 75 75 75 75 76 76 76 74 74 182 187 182 182 172 73 69 72 73 72 72 72 73 73 73 72 72 70 71 71 72 72 
66 67 66 66 68 68 69 70 70 71 72 72 72 72 71 71 71 72 73 71 71 73 73 73 73 74 72 86 188 179 179 187 184 184 198 198 162 189 203 210 210 197 184 184 173 68 73 74 73 73 74 74 74 74 75 74 74 74 75 75 75 74 75 76 76 76 76 75 70 67 67 67 66 71 74 74 73 72 72 72 72 73 73 72 72 71 71 72 72 72 
67 67 67 67 69 69 70 70 70 72 72 72 72 72 72 72 72 73 72 72 72 73 73 73 73 74 71 177 191 191 173 191 188 188 198 198 198 157 157 210 210 192 192 194 184 70 73 73 73 74 73 74 74 74 75 75 74 75 75 75 75 74 74 76 76 76 76 76 77 76 74 74 75 75 75 74 73 72 72 72 72 72 72 72 72 71 71 72 72 72 
67 67 67 67 68 70 70 70 71 71 72 72 72 72 72 72 72 73 72 72 73 73 73 73 73 73 74 180 191 179 179 181 195 183 185 199 199 157 157 203 204 192 186 186 183 70 72 73 73 74 73 73 74 75 74 74 74 74 74 75 75 74 74 76 76 76 76 76 76 76 75 75 74 74 74 74 73 73 73 72 72 72 71 72 72 71 71 72 72 71 
67 67 67 67 70 70 70 72 72 72 72 72 72 71 72 72 72 72 72 72 73 73 74 74 74 73 78 177 177 180 180 178 199 199 187 199 199 201 164 164 204 191 186 181 181 73 71 73 73 73 73 74 74 75 74 74 74 74 75 75 75 75 74 75 75 76 76 76 76 76 75 75 74 74 74 74 74 73 73 73 71 71 71 73 73 71 71 71 71 71 
67 68 68 68 70 70 70 72 72 73 73 73 71 71 73 72 72 72 72 72 74 74 74 74 74 73 80 175 175 180 180 176 195 200 200 194 191 191 196 172 200 196 184 181 181 73 72 74 74 74 74 74 74 75 75 75 75 75 75 74 75 75 75 76 76 75 75 75 75 76 75 75 74 74 74 74 74 73 73 73 71 71 72 71 71 71 71 71 71 71 
67 69 69 68 70 71 71 72 72 73 73 73 72 72 73 72 72 72 72 72 74 74 74 74 74 73 78 175 176 178 178 177 195 200 203 203 183 183 196 191 165 165 183 180 180 70 73 74 74 75 74 74 75 75 75 75 75 75 74 74 75 75 75 76 75 75 75 75 75 75 75 75 74 74 74 74 73 73 73 73 72 72 71 71 71 71 70 71 71 71 
68 69 70 70 70 70 71 73 73 73 73 73 72 72 72 72 72 72 74 74 74 74 74 74 74 74 74 178 176 178 178 177 208 203 203 203 183 183 191 191 189 160 182 182 177 70 73 73 75 75 74 74 76 75 75 75 76 76 76 76 74 74 75 75 75 75 75 75 75 75 75 74 74 74 74 74 73 73 73 73 73 72 71 71 72 72 72 72 71 73 
68 70 70 70 72 72 73 74 74 73 73 73 74 74 74 73 73 73 74 74 74 74 74 74 74 74 71 178 176 176 176 175 208 202 202 200 197 181 193 193 192 162 162 167 84 69 73 73 75 75 75 75 76 75 75 76 76 75 76 76 74 74 75 75 75 75 75 75 75 75 74 74 74 74 73 73 73 73 73 73 73 72 72 71 72 72 72 72 72 73 
69 71 71 71 72 72 73 74 74 73 73 74 74 74 74 74 73 73 73 74 74 74 74 74 74 76 72 173 179 166 166 171 171 171 169 167 195 199 198 198 192 162 162 167 70 72 73 73 75 75 75 75 76 75 75 75 75 75 76 76 76 76 76 75 75 75 75 75 75 74 74 75 74 74 73 73 73 73 73 73 73 73 72 72 72 72 72 72 72 71 
69 69 71 71 72 72 74 74 74 74 74 74 74 74 74 74 74 74 74 73 73 75 75 75 75 76 75 75 181 166 166 171 171 174 174 172 178 177 198 198 189 153 153 158 68 73 73 73 74 75 75 76 75 75 75 75 75 75 75 76 76 75 75 76 75 75 75 75 75 75 75 75 75 74 74 74 74 74 74 73 73 73 73 72 72 72 72 72 72 71 
69 71 71 71 72 72 73 73 74 74 74 74 74 74 74 74 74 74 74 74 74 75 75 75 75 75 75 72 175 177 160 160 173 174 168 168 174 167 167 171 160 160 153 67 73 73 73 73 74 75 75 75 75 75 75 75 75 75 75 76 76 75 75 74 75 75 75 75 74 74 75 75 74 74 74 74 73 74 74 72 71 71 72 73 73 72 72 71 71 72 
70 71 71 71 73 73 73 73 74 74 74 74 74 74 74 74 74 74 74 74 74 74 74 75 75 75 75 75 74 177 171 160 157 161 168 168 172 172 160 160 160 160 70 67 75 74 74 74 75 74 74 75 75 75 75 75 75 75 76 76 76 76 76 74 75 75 74 74 74 74 75 75 74 74 74 74 73 73 73 73 71 71 72 73 73 72 72 71 71 72 
70 71 71 71 73 73 73 74 74 74 74 74 75 74 74 74 74 75 73 73 73 74 74 75 75 75 75 76 74 74 171 171 157 161 163 163 164 165 160 160 160 69 69 75 75 74 74 74 74 74 74 75 75 75 75 75 75 75 76 76 76 76 76 77 77 77 74 74 74 75 75 75 74 74 74 73 73 74 74 72 72 72 72 73 73 72 72 72 71 72 
70 71 71 71 72 73 73 73 74 74 74 74 75 74 74 74 74 75 75 73 73 74 74 74 75 75 75 75 76 74 74 157 160 162 163 163 164 165 165 158 67 69 75 75 75 74 74 74 74 74 74 75 75 75 74 74 75 75 75 76 76 76 76 76 76 77 76 75 75 75 75 73 73 73 73 73 73 74 74 72 72 72 73 73 72 72 72 72 72 72 
70 71 71 71 72 72 73 73 74 74 75 75 74 74 74 74 74 75 74 74 74 74 74 74 75 75 75 75 75 76 76 73 74 83 152 152 152 146 69 66 72 76 75 75 75 74 74 74 74 74 74 74 75 74 74 75 76 76 76 76 75 75 76 76 75 75 75 75 75 75 74 73 73 73 73 73 73 73 73 73 73 74 73 73 72 72 72 72 72 72 
70 70 71 71 72 72 72 72 75 74 74 75 74 74 74 74 74 74 74 74 74 73 74 74 75 75 75 75 75 76 76 76 75 72 70 69 67 66 71 76 76 75 75 75 75 75 74 74 74 74 74 74 74 74 74 75 77 77 76 76 75 75 76 76 75 75 75 75 75 75 74 74 73 73 73 73 73 73 73 73 74 73 73 72 72 72 72 73 72 70 
70 70 71 70 70 72 72 72 74 74 74 74 74 74 74 74 74 74 74 73 73 73 74 74 74 74 74 76 76 76 76 76 75 76 77 76 76 76 76 75 75 75 75 75 75 75 74 74 74 74 74 75 75 75 74 75 77 76 76 76 75 75 75 76 75 75 76 75 75 75 74 74 74 73 73 73 73 73 73 73 72 72 73 72 72 72 72 72 72 70 
69 70 70 70 70 72 72 72 72 74 74 74 74 75 75 75 74 74 74 74 73 73 74 74 74 74 74 74 76 75 75 75 75 76 76 76 75 75 75 75 75 74 74 74 75 75 74 74 74 75 75 75 75 74 74 75 77 76 76 76 76 75 75 76 76 75 76 76 75 75 74 74 73 73 73 72 72 74 74 72 72 72 73 72 72 73 72 71 71 71 
