P2
90 90
255
106 98 98 90 90 99 97 97 89 89 89 86 86 82 82 83 87 86 86 87 83 83 91 91 88 90 90 90 96 96 97 97 94 94 89 91 91 96 96 97 102 102 87 88 88 89 94 94 95 86 86 86 86 86 85 80 80 80 80 82 88 88 88 79 79 78 74 74 74 79 79 81 79 81 81 76 76 82 84 84 76 76 69 69 70 70 74 74 69 70 
109 107 95 95 92 99 99 96 96 95 87 85 85 85 93 94 94 87 87 90 87 90 90 99 99 101 101 102 99 97 97 97 105 105 101 93 95 100 100 117 117 105 107 119 119 134 129 129 122 121 121 120 91 88 83 80 80 80 82 86 86 88 88 80 80 87 87 85 86 86 89 89 89 94 82 84 81 81 82 77 75 75 69 69 70 71 71 73 70 70 
107 106 95 95 88 88 96 96 96 95 82 80 80 82 92 92 94 97 110 110 110 92 92 96 96 101 105 105 108 117 117 117 105 105 101 119 119 123 129 117 117 109 107 129 129 134 128 125 125 126 128 129 120 120 91 103 103 90 95 95 83 83 87 83 83 87 87 85 86 86 84 89 89 94 91 91 81 81 78 78 75 75 77 73 73 71 71 77 77 73 
107 106 97 97 88 88 96 96 94 91 82 80 80 82 92 92 95 97 110 110 110 92 92 96 96 97 105 108 108 117 117 116 116 116 114 115 119 123 129 135 132 120 127 129 129 134 128 125 125 126 128 129 120 128 128 113 110 110 95 95 85 87 87 78 78 78 84 84 82 80 80 81 85 85 91 91 81 81 78 78 77 77 77 76 73 72 72 77 77 73 
111 108 109 109 95 98 95 91 91 91 99 85 88 86 86 86 89 99 99 99 102 101 101 102 102 99 104 108 108 115 115 116 116 116 114 116 123 142 142 137 124 35 29 26 24 24 23 23 24 27 32 114 124 128 128 113 110 110 100 98 100 100 84 78 78 78 84 84 82 80 80 86 86 85 89 89 82 80 80 78 78 81 85 81 77 75 76 77 77 74 
109 105 109 109 113 115 99 91 91 103 103 105 88 86 86 86 89 97 97 99 102 101 99 99 99 102 104 104 109 115 115 117 116 114 114 116 123 124 25 22 22 19 17 17 17 17 16 14 15 16 15 14 14 21 114 124 124 109 100 98 100 100 84 80 80 92 88 88 90 84 84 86 86 90 92 88 88 93 82 82 82 97 97 90 88 88 77 77 78 82 
118 105 105 113 112 112 99 93 93 103 103 111 96 96 90 92 113 97 97 99 107 103 99 98 98 99 102 119 121 121 121 124 124 134 123 114 21 15 15 16 22 19 17 17 17 17 16 16 18 18 18 17 16 14 13 16 124 125 137 137 107 107 100 103 101 100 101 101 103 102 104 104 122 124 124 94 93 93 103 99 95 97 97 90 88 88 88 85 84 80 
118 108 106 106 112 112 110 106 114 116 116 111 96 96 117 120 120 119 121 113 113 103 103 98 98 99 102 123 121 121 121 124 134 134 25 19 19 15 15 16 25 19 17 16 16 16 16 16 18 18 18 17 17 16 16 15 13 21 137 147 143 127 116 111 107 107 101 101 103 102 104 104 124 124 124 99 99 103 104 104 95 95 93 100 100 101 108 108 86 80 
123 140 140 140 131 123 123 124 127 116 116 111 96 96 122 120 120 119 131 131 130 121 121 118 102 102 120 123 123 143 146 146 140 28 28 19 19 23 29 38 49 37 30 27 24 21 19 17 16 16 16 19 19 16 16 16 16 15 17 147 145 145 116 111 107 107 124 124 103 103 103 125 124 124 118 105 110 110 101 101 107 107 100 100 100 105 108 108 104 84 
123 140 140 140 131 119 119 124 128 122 122 112 104 127 122 122 123 128 131 134 134 131 121 118 126 113 139 144 144 149 149 146 33 28 28 28 51 197 209 217 217 215 200 71 59 47 35 26 22 19 18 19 19 19 19 16 16 17 16 18 145 144 144 122 116 116 124 124 131 134 134 134 124 124 123 111 111 110 101 101 104 106 106 104 105 105 119 123 123 102 
143 142 142 136 129 119 119 121 128 151 146 146 143 138 139 141 141 138 136 134 134 131 123 123 132 132 139 144 149 149 149 133 31 31 39 206 231 239 246 251 250 250 243 230 211 185 99 65 45 27 23 22 20 19 19 16 17 18 18 15 22 144 144 122 116 116 118 120 130 134 134 139 139 123 123 115 115 114 122 102 104 106 106 104 107 107 119 123 123 102 
153 151 142 136 129 129 128 134 134 151 146 146 143 138 139 141 141 138 138 141 153 145 147 147 132 132 131 133 149 149 138 20 20 31 100 214 231 239 246 251 250 250 243 231 213 185 98 69 54 35 30 29 29 19 19 16 18 18 18 17 12 138 144 144 94 95 95 120 130 134 134 139 139 135 120 118 118 120 126 126 123 113 113 112 131 131 130 130 121 108 
153 151 168 168 146 151 151 183 183 178 178 176 182 151 151 150 152 143 143 161 161 145 147 147 141 141 131 133 140 136 21 20 20 46 158 195 229 229 233 237 240 223 223 217 213 117 94 69 54 44 35 29 29 26 17 16 18 18 18 17 13 19 135 82 82 95 95 110 118 130 137 137 136 136 120 118 118 120 126 126 128 141 141 140 139 139 138 136 129 108 
149 149 168 168 146 151 151 183 168 178 178 191 182 168 168 195 195 164 165 166 166 158 150 150 141 141 144 184 148 24 18 18 24 119 161 191 204 204 198 197 197 223 223 217 193 117 94 78 67 67 57 37 30 25 25 18 18 18 18 15 15 14 53 62 82 82 87 67 70 70 126 97 126 127 121 122 122 123 127 128 128 141 141 140 139 139 138 136 129 107 
114 105 92 99 102 102 99 166 168 168 191 191 184 117 117 195 195 197 180 166 166 172 158 158 155 215 184 184 35 19 17 17 32 130 163 191 204 204 198 197 197 222 222 222 200 148 140 140 128 110 69 69 34 25 25 18 18 18 17 15 15 14 23 62 62 60 62 62 62 65 74 82 88 83 83 136 142 142 146 144 142 142 140 136 143 143 144 140 127 100 
114 71 69 69 102 92 92 89 147 147 163 110 98 88 88 89 187 188 189 189 199 200 203 203 206 211 216 197 24 19 17 17 33 130 163 163 181 200 204 204 207 211 206 189 159 148 140 140 128 110 69 69 36 30 30 18 18 18 18 15 15 17 21 39 39 60 62 62 62 62 59 61 88 69 69 137 142 142 146 144 142 142 142 136 141 142 138 90 90 74 
72 70 69 69 87 92 92 85 85 91 80 80 79 64 64 62 62 62 69 80 199 189 203 203 206 211 216 53 22 22 21 18 26 112 62 51 51 50 193 193 198 39 27 27 51 51 48 33 29 29 34 37 37 30 30 18 17 18 18 18 18 17 19 35 35 37 40 61 62 62 59 58 73 69 63 63 136 145 145 140 141 142 142 141 141 105 94 88 88 66 
67 70 69 69 87 82 82 82 85 73 69 69 67 53 53 53 53 67 67 62 149 189 189 192 182 136 136 112 22 22 21 19 26 41 58 51 33 33 56 125 125 26 26 27 51 39 27 27 29 29 34 37 37 30 30 18 17 17 17 18 18 17 17 35 35 35 36 36 39 54 54 58 40 40 63 63 73 147 147 124 124 135 137 135 101 97 92 92 88 66 
67 75 75 83 82 81 85 85 74 74 69 69 69 53 53 53 53 67 67 64 130 173 173 78 129 136 136 101 21 21 19 18 28 41 58 58 33 33 56 125 58 26 26 111 111 39 27 27 29 116 97 51 37 29 29 18 18 18 17 18 18 17 17 34 35 35 36 36 37 40 42 42 39 39 40 46 62 146 146 124 124 111 103 96 94 94 93 92 71 66 
75 75 75 83 82 81 85 85 74 74 70 69 69 48 52 52 51 61 64 64 64 71 61 58 58 55 69 34 21 21 18 18 46 171 171 101 79 165 170 170 65 65 44 111 111 103 84 166 143 143 97 56 34 25 25 18 18 18 16 16 18 18 17 32 33 34 35 35 37 44 41 39 39 39 40 46 49 137 133 118 118 96 97 97 94 94 93 86 71 69 
75 70 72 75 74 75 75 73 68 68 62 62 50 50 52 52 40 40 44 44 44 43 61 58 58 49 45 24 22 20 18 18 45 171 204 208 208 191 190 190 74 74 85 193 211 219 219 210 143 143 64 47 32 25 25 18 19 19 18 15 15 17 17 22 38 36 37 37 44 44 41 39 39 37 36 39 49 70 124 105 98 93 93 93 99 92 88 88 89 74 
66 41 72 75 74 75 75 73 53 53 64 64 50 53 53 44 40 40 44 44 44 38 38 49 49 49 24 21 21 20 20 18 30 179 204 208 208 191 193 193 74 74 78 174 174 219 219 210 96 66 50 39 31 26 26 19 19 19 18 17 17 17 16 21 57 57 53 69 72 72 62 62 67 70 74 79 79 83 88 105 98 93 93 93 97 92 88 88 89 80 
36 34 38 71 71 59 59 59 54 54 64 64 62 53 53 44 43 43 45 45 44 43 43 46 46 41 22 20 19 19 19 18 22 154 190 190 160 133 193 193 79 79 78 174 174 168 153 173 71 52 41 34 31 31 27 19 17 18 18 17 17 17 16 17 30 30 33 39 44 43 41 41 42 70 74 79 79 83 88 107 107 91 91 58 53 53 53 96 96 76 
36 34 34 68 68 59 58 58 54 54 56 62 57 57 60 59 51 52 52 45 43 43 43 46 46 41 22 20 19 19 19 17 18 39 77 160 160 133 134 53 36 36 41 165 165 168 153 72 57 46 37 33 32 32 30 18 16 16 16 16 18 18 16 16 30 30 33 37 37 34 34 33 33 32 37 37 42 49 53 52 54 55 56 56 53 51 54 51 49 49 
33 34 33 36 69 69 58 58 58 56 53 53 53 54 60 53 51 51 51 49 54 48 48 49 43 43 23 20 20 19 19 17 17 30 83 83 135 160 102 50 36 36 50 63 81 82 82 78 57 57 37 33 32 32 30 18 16 16 16 16 18 18 16 16 30 37 37 40 38 38 34 33 33 32 38 38 42 48 51 50 54 55 56 56 53 55 58 51 49 49 
33 34 34 36 68 68 61 58 58 55 53 53 53 55 54 53 51 51 51 51 54 48 48 49 42 42 24 20 20 20 22 16 16 21 83 83 95 121 121 72 55 52 52 54 77 82 82 78 57 48 48 34 31 31 25 18 18 18 16 16 16 16 18 18 20 37 37 40 38 38 38 43 34 34 38 38 41 48 61 62 62 62 61 61 55 55 58 43 40 39 
36 34 34 39 68 68 61 61 56 56 56 55 55 55 46 47 47 51 51 51 44 47 47 45 42 42 37 20 20 22 22 17 17 16 80 80 95 138 138 76 55 52 52 54 86 86 81 81 56 44 44 32 27 27 24 18 18 20 20 17 16 16 18 18 18 38 38 43 43 41 43 43 45 45 48 48 49 61 61 62 62 62 61 39 38 38 46 43 40 39 
34 33 34 38 63 63 61 61 56 56 56 55 55 47 46 47 47 46 46 46 44 45 45 45 44 45 28 21 20 19 19 19 19 16 16 22 130 138 138 76 61 61 58 81 81 86 84 45 41 39 39 30 27 23 23 19 19 20 20 18 16 16 17 18 18 40 43 43 43 56 56 55 45 46 46 48 47 49 49 43 43 42 40 39 38 38 61 61 43 41 
34 32 31 31 31 57 60 60 55 52 52 50 50 47 46 46 47 47 54 54 54 54 58 59 59 60 55 22 22 19 19 19 19 19 15 15 18 38 140 171 142 102 83 81 81 77 42 37 37 39 39 28 26 23 23 19 19 20 17 17 17 18 17 16 16 43 54 54 54 54 58 58 47 46 46 47 47 52 52 43 43 50 50 50 50 49 63 63 60 45 
30 32 30 29 29 28 30 58 58 52 52 50 50 44 44 46 47 47 52 52 53 53 58 59 59 60 55 22 22 20 20 20 20 19 17 17 15 16 31 171 142 102 80 45 40 38 36 37 37 28 28 28 26 26 24 18 18 18 18 17 17 18 20 16 16 24 54 54 54 54 58 58 54 50 49 49 51 52 52 50 52 50 50 50 50 45 62 62 60 43 
30 31 31 31 30 28 28 56 57 58 58 51 51 44 44 46 46 46 52 52 53 53 55 60 73 73 75 23 20 20 20 19 20 20 17 17 17 15 14 16 30 33 33 29 29 29 31 31 31 26 26 28 34 34 27 18 18 18 18 18 20 20 20 17 17 22 39 39 38 38 40 40 40 39 39 36 36 37 37 36 52 51 30 30 45 45 62 62 60 43 
26 27 31 31 28 28 28 28 57 59 58 58 58 57 57 59 60 60 64 67 72 75 75 71 75 75 76 68 19 20 20 19 19 19 19 17 15 15 13 13 30 33 33 29 29 29 30 31 31 26 26 33 34 34 30 19 18 18 18 17 20 20 18 17 17 21 38 39 38 38 40 40 38 38 35 35 35 37 37 30 30 30 30 33 38 42 42 42 44 57 
26 27 29 29 28 28 28 28 53 59 58 58 58 57 65 59 60 60 64 75 75 75 81 81 75 74 74 74 21 19 20 20 19 19 19 16 15 15 15 15 20 59 33 30 30 29 30 35 35 37 32 37 36 36 31 19 19 18 18 17 20 20 18 17 17 21 38 39 39 39 41 40 38 38 35 35 35 38 35 30 30 30 30 33 38 42 42 42 44 57 
56 57 57 56 31 31 32 59 61 58 58 60 65 64 65 65 66 71 76 75 74 74 81 81 75 74 74 74 59 19 20 20 20 20 20 16 16 15 15 15 16 59 68 68 62 37 34 35 35 37 41 47 47 31 22 19 19 19 20 18 18 18 18 18 17 18 41 41 45 48 54 54 54 62 66 66 67 68 68 65 65 66 66 67 66 51 49 49 48 62 
62 65 65 65 66 67 67 67 69 71 62 51 51 65 65 65 43 43 76 76 74 74 75 79 76 76 73 68 59 21 20 21 21 20 19 18 18 18 16 16 16 62 70 72 72 69 42 41 41 45 70 72 72 67 26 20 20 21 20 20 20 22 22 17 17 17 18 24 23 23 24 26 28 62 66 66 67 68 68 65 65 66 66 61 44 44 49 49 39 39 
62 68 68 69 69 69 69 69 69 71 56 56 50 38 38 38 40 42 39 38 40 45 43 43 45 36 37 35 35 21 21 21 21 18 18 18 18 18 18 20 23 34 70 72 72 78 74 72 59 65 70 72 72 67 53 22 20 20 20 20 20 22 22 18 18 17 16 21 21 23 24 24 25 34 34 32 27 25 32 73 72 65 65 61 41 41 49 49 39 34 
64 68 68 69 69 69 69 69 55 56 56 56 50 38 38 38 46 46 35 35 37 37 37 37 39 32 32 31 24 22 23 21 21 18 18 18 19 24 30 38 111 69 78 82 78 78 74 72 74 79 87 111 107 107 90 27 20 20 20 21 22 22 22 18 18 17 16 17 21 31 24 24 25 34 34 32 27 25 32 73 78 78 43 41 41 41 53 53 37 34 
47 66 69 69 67 50 50 46 46 56 56 49 46 39 39 44 46 46 37 37 37 37 37 36 40 32 28 28 21 21 23 23 22 19 19 24 35 48 59 133 144 144 145 133 133 93 93 142 146 141 132 121 121 107 90 31 21 20 20 21 25 22 22 18 18 18 17 17 18 31 31 34 38 48 107 114 96 96 64 73 73 43 44 44 42 44 44 43 37 35 
47 49 49 49 43 43 50 46 47 47 47 49 46 52 56 52 52 40 37 37 45 36 36 36 40 39 28 23 22 22 22 22 20 20 26 47 131 143 155 160 163 165 165 163 147 146 146 161 163 163 156 121 121 83 83 31 23 23 20 25 25 22 18 18 19 17 17 18 18 16 17 25 25 28 107 114 92 92 61 57 51 43 44 44 43 44 44 43 50 47 
50 51 49 49 43 43 47 48 47 47 47 47 57 56 56 48 48 45 37 37 44 44 36 36 42 39 26 23 22 22 22 21 21 23 43 149 155 155 170 172 172 173 173 173 159 156 156 167 167 166 158 148 131 83 83 35 25 25 21 21 21 17 17 18 19 19 17 18 18 16 17 25 25 27 35 50 92 92 75 74 73 73 55 60 60 61 65 65 50 47 
50 51 50 52 52 43 43 53 52 52 48 48 57 55 55 48 44 44 37 37 44 44 39 42 42 40 24 22 22 22 22 22 29 34 143 164 164 176 178 177 177 172 172 173 171 162 162 167 167 166 158 148 129 82 82 30 25 25 21 21 20 17 17 18 18 18 17 18 19 19 18 17 27 27 35 30 51 51 74 74 73 73 56 60 60 61 65 65 47 45 
49 51 50 52 52 40 40 51 61 66 76 76 59 55 55 53 44 44 42 42 47 47 44 44 26 23 23 22 22 22 24 29 29 46 159 169 176 180 180 180 177 172 172 173 173 166 167 167 164 157 148 137 125 105 78 28 25 25 21 21 20 17 17 18 18 18 19 20 19 19 18 14 14 14 16 19 51 51 74 74 84 92 92 92 94 102 102 104 103 68 
47 44 44 45 41 40 40 39 40 41 76 76 73 70 70 66 45 43 42 42 47 47 44 24 23 23 23 22 21 22 30 38 42 155 168 171 175 180 180 180 177 171 171 173 173 168 167 167 164 160 148 137 125 103 77 28 25 20 19 19 19 20 21 23 24 26 26 27 27 22 22 14 14 14 14 15 15 16 19 24 30 92 92 92 94 102 102 104 103 68 
47 44 44 45 41 42 42 39 33 33 33 34 73 70 70 66 51 45 45 47 47 23 21 21 23 23 23 20 20 28 49 67 159 173 174 174 175 177 177 177 171 171 179 179 175 168 168 166 164 166 160 140 125 103 40 27 23 20 19 19 21 27 47 47 47 37 36 33 27 22 22 15 14 14 16 16 15 14 17 17 22 22 22 24 26 28 39 58 68 52 
42 39 39 43 42 42 42 39 33 33 33 28 28 34 39 58 58 69 69 54 20 20 20 20 21 22 17 20 23 35 135 165 176 180 180 174 172 169 169 158 168 175 179 179 183 182 168 173 170 170 163 150 122 59 37 27 23 23 22 32 36 44 47 47 47 17 16 14 13 13 12 12 12 12 16 16 14 13 13 17 22 22 19 20 20 22 39 58 79 85 
41 39 39 37 37 38 38 34 33 33 32 28 28 34 39 39 45 69 69 19 18 20 20 20 21 17 17 23 23 26 135 165 176 180 180 176 166 154 150 158 179 184 186 187 187 186 183 173 170 170 165 150 126 59 30 27 26 26 28 32 36 15 12 11 11 12 12 12 12 12 11 12 12 12 12 15 12 13 13 12 19 19 19 20 20 20 21 24 79 85 
41 40 39 37 37 38 38 42 42 42 42 42 43 45 48 49 54 25 18 16 17 20 20 20 20 16 26 25 25 29 29 37 154 170 171 171 127 130 153 180 184 184 186 187 187 186 183 179 170 170 165 149 35 26 21 24 24 16 13 11 11 11 12 11 12 12 12 12 12 12 11 12 12 11 11 11 11 12 12 12 19 19 20 20 20 20 21 23 23 23 
40 40 37 37 37 38 42 42 42 42 42 42 43 45 32 30 16 15 15 16 17 17 19 19 16 16 26 26 37 37 34 31 32 32 35 38 38 43 159 180 184 184 186 189 192 192 189 170 170 163 144 23 20 20 19 14 14 14 13 11 11 11 10 11 12 12 12 12 11 12 12 12 12 11 12 12 11 11 12 12 17 17 21 26 26 26 24 24 25 23 
39 38 34 37 37 45 45 42 32 35 35 35 33 33 32 16 15 17 17 18 16 16 15 15 16 18 35 35 36 36 35 38 38 35 27 25 27 29 29 34 40 45 49 57 159 161 151 151 38 23 18 18 19 19 19 14 14 14 11 11 11 11 10 9 13 13 13 13 12 12 12 12 12 11 12 12 12 11 11 12 17 17 18 26 26 26 24 24 25 29 
26 34 35 37 37 38 44 44 42 42 50 52 52 52 24 15 15 17 17 18 16 16 14 15 18 33 35 35 36 36 35 38 38 31 31 35 35 29 29 30 29 25 25 25 21 20 20 18 17 18 18 18 19 19 11 10 10 11 11 11 10 11 17 17 13 13 15 15 12 12 11 11 11 12 12 12 12 11 11 11 17 17 17 17 20 20 20 20 28 29 
26 26 35 35 36 38 44 44 42 42 50 52 52 52 45 15 15 17 17 14 15 14 14 17 21 33 29 29 34 34 28 28 27 31 33 33 37 37 33 33 34 29 29 29 22 20 20 19 20 20 17 17 17 10 10 12 12 11 11 14 14 13 17 17 13 13 15 15 14 13 12 11 12 12 12 12 16 11 11 11 16 17 17 17 20 20 20 20 22 20 
28 24 24 26 26 26 26 27 26 26 26 26 27 27 17 15 15 14 14 14 16 16 17 17 20 26 29 29 28 26 26 25 23 22 30 30 34 34 33 33 34 29 29 29 19 19 19 19 20 20 18 12 12 12 11 12 12 12 12 15 15 18 16 16 13 13 22 22 22 21 18 18 17 16 16 16 16 12 12 8 8 11 11 13 28 31 31 23 22 20 
28 24 24 26 26 26 26 26 26 26 26 26 27 27 18 15 16 16 15 14 16 17 17 17 20 26 26 24 24 23 26 25 23 22 30 30 34 34 29 24 24 26 19 18 19 19 19 18 16 13 11 12 12 12 11 13 13 13 14 15 15 14 16 16 19 19 22 22 20 20 20 18 17 16 16 16 8 11 11 8 8 10 10 11 28 31 31 31 21 17 
27 26 25 29 28 27 26 26 26 26 27 26 26 17 17 16 16 16 15 14 14 17 17 17 19 20 20 24 24 21 21 19 17 17 20 20 20 20 21 21 20 16 17 18 18 18 18 18 12 11 11 11 11 9 9 10 10 14 14 14 11 11 14 18 20 21 21 21 20 20 20 20 19 18 16 7 7 7 9 11 11 10 10 11 12 22 22 26 26 19 
26 26 56 56 56 54 51 48 50 52 52 48 21 15 14 14 14 17 17 17 17 17 17 16 16 20 20 20 20 20 20 18 19 19 19 18 20 18 18 18 16 16 16 18 19 19 15 15 14 11 11 11 11 11 10 10 10 13 13 9 9 11 17 17 20 21 21 21 21 19 19 19 18 10 10 7 7 7 6 11 11 10 10 10 10 22 29 29 26 19 
26 56 59 59 57 57 55 55 56 57 56 50 19 14 14 14 14 17 17 17 17 17 17 16 15 15 20 20 20 20 20 18 19 19 19 17 15 17 17 17 17 17 17 18 17 17 15 14 14 13 13 12 12 11 10 10 10 11 10 10 9 11 17 18 18 21 21 21 20 9 7 6 6 7 9 7 7 6 6 11 11 10 10 9 10 12 29 29 36 23 
44 56 59 59 57 57 55 55 56 57 56 50 16 14 14 14 17 17 13 13 14 17 18 18 15 15 20 20 19 19 15 15 18 18 17 17 15 16 17 17 18 17 17 16 16 17 15 14 14 13 13 12 12 12 11 11 11 9 10 10 10 17 17 18 18 20 20 19 10 8 7 6 6 7 7 9 8 8 6 6 11 11 9 9 9 10 32 36 36 35 
44 31 32 31 31 31 31 31 30 24 19 16 16 16 16 15 19 19 13 13 14 15 18 18 18 16 16 16 16 16 16 17 18 18 17 17 16 16 16 16 18 16 16 16 16 16 12 12 13 13 13 12 12 10 11 11 11 9 10 10 11 17 17 16 12 11 9 9 9 8 8 5 5 4 7 7 8 8 6 6 11 11 8 7 7 9 12 21 21 21 
27 26 26 26 26 26 26 25 18 15 16 16 16 16 16 16 17 16 16 17 17 15 15 18 18 16 16 15 15 17 17 16 17 16 16 16 12 12 12 12 14 16 16 16 16 12 12 12 13 13 13 9 9 9 11 11 11 9 9 10 15 15 13 12 6 5 5 8 8 5 5 4 4 4 3 3 3 5 5 4 7 7 6 7 7 9 13 18 19 19 
27 27 26 26 26 26 26 25 17 16 16 18 17 16 16 18 18 16 15 15 15 15 15 17 17 16 16 15 15 17 17 16 14 12 12 12 12 12 12 12 14 14 14 16 16 11 12 12 12 12 11 9 9 9 9 7 7 9 9 11 15 15 10 4 4 4 5 8 8 5 5 4 4 3 3 3 3 5 5 4 7 7 6 6 7 9 13 18 19 19 
27 27 26 27 27 25 24 16 17 17 18 18 18 18 18 19 19 18 15 15 15 15 17 17 17 17 16 15 15 15 15 15 14 12 12 12 12 12 12 13 14 14 14 11 11 11 12 12 12 12 11 11 9 9 6 6 6 6 8 13 13 14 3 2 2 4 5 7 7 5 5 9 9 10 3 3 6 6 4 4 4 7 4 4 8 8 10 20 21 22 
29 28 29 28 28 14 14 16 17 18 18 15 15 15 18 19 19 18 17 17 15 15 17 17 17 17 16 17 17 15 15 16 16 12 12 12 12 12 14 15 14 14 11 11 11 12 12 12 12 12 11 11 10 10 7 6 6 6 11 11 13 5 3 2 2 3 9 9 5 4 4 9 9 10 8 4 4 4 3 4 4 5 4 4 8 9 9 12 21 21 
29 28 29 29 14 14 14 17 17 18 18 15 15 15 15 15 15 17 17 17 17 17 17 17 16 16 16 17 17 15 15 16 16 15 12 12 13 14 14 13 12 12 12 11 11 12 12 12 12 12 9 9 10 10 7 6 6 7 11 11 6 6 5 1 1 2 9 9 6 4 4 4 3 3 4 4 4 4 3 4 4 5 3 3 5 9 12 12 20 21 
29 29 28 15 15 15 17 17 17 18 16 16 18 18 15 15 15 16 15 15 17 17 17 18 18 15 17 17 17 16 16 15 15 15 14 16 16 12 11 11 12 13 13 12 12 12 11 12 12 10 10 11 11 11 7 7 7 8 10 4 4 6 5 1 1 4 6 6 6 6 5 5 3 2 3 3 4 3 2 1 1 1 3 3 5 11 12 12 21 23 
32 30 18 15 15 15 17 17 16 17 16 16 18 18 17 20 20 20 16 16 16 16 16 18 18 15 15 15 15 16 14 13 13 14 16 16 15 14 11 11 13 13 13 13 14 12 11 11 11 11 11 11 11 7 7 8 11 11 5 4 4 7 7 3 3 4 6 6 6 6 5 5 4 2 3 3 3 3 3 1 1 1 2 10 11 11 12 12 19 23 
32 22 22 15 15 15 17 17 18 19 24 24 26 21 20 20 20 20 22 22 15 15 15 15 16 15 15 15 15 17 19 14 14 14 16 16 16 14 14 13 13 10 10 11 11 10 10 10 11 12 12 10 8 6 6 7 11 11 8 5 5 7 7 10 10 11 11 10 9 8 8 8 5 3 3 3 3 3 3 2 1 1 9 10 11 11 8 8 17 21 
29 20 20 16 16 16 16 18 18 25 25 25 26 21 20 20 20 21 22 22 23 15 15 15 16 15 15 15 15 17 19 19 17 16 15 15 15 15 14 12 12 10 11 11 11 10 10 10 11 12 12 12 11 6 6 8 8 7 7 5 5 7 7 10 10 11 12 12 9 8 8 8 6 9 9 3 3 3 3 2 2 7 9 9 9 8 8 8 11 17 
18 18 18 16 16 16 16 20 20 25 25 25 26 25 29 23 23 23 25 23 23 21 22 16 16 15 15 17 17 17 18 18 16 12 15 15 15 14 8 8 8 9 11 11 11 13 13 13 13 12 12 12 11 11 8 8 8 7 7 7 6 8 9 9 9 10 12 12 9 9 10 10 9 9 9 9 6 3 3 3 3 7 8 8 9 9 10 10 11 17 
15 18 18 17 16 16 16 21 21 27 31 31 32 35 29 24 28 30 30 30 30 26 22 22 22 82 89 90 90 84 28 20 15 12 12 12 11 8 8 8 8 9 11 11 13 13 13 13 13 12 12 11 11 11 11 11 11 11 11 10 10 11 9 9 9 10 12 12 9 11 10 10 9 8 9 9 6 8 8 7 8 8 8 8 9 9 10 10 11 14 
15 19 19 17 16 16 17 19 17 22 31 31 32 23 23 28 28 26 26 30 30 26 26 29 87 92 95 95 93 93 88 79 72 66 57 17 13 10 8 9 10 11 11 11 11 11 10 10 12 11 11 11 11 10 11 11 11 11 11 10 10 12 12 12 12 11 11 14 14 11 11 11 8 8 9 9 9 8 8 8 8 8 9 9 9 9 10 11 11 14 
15 17 17 17 16 15 15 15 15 19 30 30 22 22 25 21 21 23 21 19 19 20 26 70 87 92 95 95 93 93 84 81 81 78 66 65 65 65 60 14 10 10 10 11 11 11 9 9 12 12 10 10 10 10 10 11 11 11 11 10 10 12 12 12 12 13 13 14 14 14 12 11 11 11 11 9 9 8 9 9 10 9 9 9 12 12 10 10 10 13 
13 17 17 17 16 17 17 15 15 16 18 19 19 22 19 19 20 21 21 19 19 20 27 60 62 62 64 67 69 86 84 81 81 73 66 65 65 65 63 58 16 11 10 10 10 9 9 9 11 11 10 10 10 10 10 10 12 12 12 11 11 11 12 12 12 13 13 12 12 14 14 11 11 11 12 12 11 10 9 9 10 9 9 9 12 12 10 10 10 13 
13 16 16 16 18 17 17 16 17 17 17 17 18 17 19 19 19 21 21 19 19 19 20 60 62 62 64 67 54 61 66 78 76 73 73 68 65 65 63 65 65 66 66 62 17 11 9 10 10 8 9 9 10 10 10 10 12 12 12 11 11 11 11 12 12 11 12 12 12 12 12 11 8 8 12 12 11 10 10 5 4 4 9 9 8 10 9 9 9 11 
13 16 16 16 18 18 17 17 17 17 17 17 16 16 16 19 19 16 16 17 19 19 17 19 26 24 24 26 44 44 57 60 62 64 65 68 68 67 66 66 65 66 66 78 78 24 15 12 10 8 8 9 10 11 11 11 12 12 22 25 27 27 20 20 19 12 12 13 12 12 12 11 8 8 11 11 10 10 10 5 4 4 7 8 8 8 9 9 9 11 
13 16 16 15 15 15 17 17 14 17 17 17 16 16 16 17 17 16 16 17 17 15 15 15 20 20 22 32 39 46 50 50 57 64 65 65 56 65 62 62 55 41 70 78 78 66 66 18 18 25 26 26 35 35 35 28 28 28 22 25 27 27 20 20 21 21 19 19 12 12 8 9 9 10 12 10 10 10 10 8 8 8 7 8 8 9 9 10 10 9 
13 13 14 15 15 15 16 15 14 14 16 16 16 17 17 18 18 18 18 17 15 15 15 15 20 20 22 32 39 46 50 50 57 57 59 60 56 56 62 62 55 41 34 29 27 66 66 41 33 30 28 28 27 35 35 28 28 28 24 21 21 23 27 22 21 19 18 18 18 16 8 8 8 12 13 13 13 10 10 8 9 9 12 12 12 11 9 9 9 9 
16 15 15 14 15 15 16 15 15 17 17 16 16 18 18 18 18 17 17 18 15 17 42 42 42 65 64 64 34 34 30 36 36 40 43 43 51 50 35 54 54 61 61 29 22 21 21 41 33 30 28 28 22 20 20 26 24 25 25 21 21 21 22 28 25 19 18 18 16 16 16 7 9 11 13 13 13 12 12 8 9 9 12 12 12 11 9 10 10 10 
16 15 15 14 14 14 17 15 15 17 18 18 18 17 15 17 17 17 17 18 38 38 42 42 42 67 67 69 34 30 26 26 32 35 35 43 50 52 35 35 35 61 61 55 55 21 18 18 20 33 33 28 24 24 18 18 24 24 24 26 21 21 22 21 21 25 17 16 16 17 17 15 11 11 15 15 13 12 13 13 11 11 11 11 10 10 11 11 10 10 
15 15 14 14 18 18 18 15 15 17 18 18 18 15 15 17 17 17 17 19 30 30 38 38 44 67 67 69 69 59 26 26 32 35 35 30 30 52 54 57 35 31 31 55 55 38 18 18 18 18 31 28 24 24 17 17 21 24 24 26 26 26 23 23 23 19 19 16 16 17 17 12 12 12 15 15 15 16 13 13 11 11 11 11 10 10 11 11 11 11 
15 14 14 14 18 18 18 17 15 18 18 18 18 15 15 17 17 17 16 26 26 30 32 52 39 39 69 67 67 59 37 25 24 24 25 24 24 24 26 57 54 54 24 22 22 28 36 20 18 17 17 17 17 17 17 17 21 21 21 26 26 26 23 23 23 19 19 16 16 16 16 12 12 12 14 15 15 16 14 13 13 13 12 12 13 13 13 12 13 12 
15 13 13 14 14 16 16 15 14 17 18 18 18 18 18 17 17 17 17 26 26 31 36 29 29 49 65 67 67 59 37 27 24 20 20 24 24 24 24 23 54 54 25 20 20 20 22 32 32 17 17 17 16 17 18 18 18 15 15 15 15 16 21 21 16 16 15 15 16 16 16 15 13 13 15 15 13 13 13 12 12 13 12 12 13 13 14 14 13 12 
16 14 14 15 15 16 16 15 14 18 18 18 18 18 18 17 17 17 17 19 25 27 26 26 29 48 48 59 60 26 23 27 23 20 20 17 25 24 24 18 18 18 20 20 19 17 17 18 32 21 17 17 17 17 17 18 18 18 15 15 15 15 15 15 15 15 15 15 16 16 14 14 13 13 15 15 13 13 13 12 12 12 12 12 13 13 14 14 13 12 
14 14 14 15 15 15 17 17 17 18 18 17 18 15 15 18 17 17 17 18 18 19 28 28 43 48 48 25 20 18 17 17 17 15 16 16 16 17 17 16 15 15 16 16 18 17 17 17 17 17 17 17 17 17 16 18 18 18 17 17 18 18 15 15 15 18 18 18 18 15 14 13 13 13 16 15 13 13 13 12 11 12 11 11 13 13 13 13 13 12 
14 14 14 15 15 15 16 16 16 17 17 17 18 15 15 18 17 17 17 18 15 15 28 28 43 43 21 18 17 17 16 17 17 14 14 16 16 17 16 16 15 15 16 16 17 17 15 17 17 13 12 12 13 16 16 16 17 17 17 17 18 18 18 18 18 18 18 18 18 15 15 13 13 13 13 14 14 13 13 11 11 9 9 10 13 13 14 14 13 12 
14 14 14 14 15 14 16 16 16 18 18 18 18 15 15 18 18 17 17 17 14 14 16 20 25 21 17 17 17 17 17 17 15 14 14 17 17 17 17 17 15 15 16 16 17 17 15 15 15 13 12 12 13 13 13 13 13 13 13 13 17 17 18 18 18 18 18 18 18 17 17 17 13 12 12 12 12 13 13 11 11 9 9 11 11 14 14 14 12 12 
13 14 15 14 14 14 16 16 16 16 16 18 18 15 15 17 16 16 14 14 14 14 18 18 21 18 16 16 17 17 17 17 17 18 18 17 17 17 17 17 16 16 16 16 18 18 15 15 15 13 13 13 13 13 13 13 13 13 12 12 14 14 15 16 17 17 17 18 15 15 17 17 14 12 12 12 12 9 9 11 11 11 11 11 11 11 10 11 12 11 
13 14 14 14 14 15 17 17 16 16 16 17 17 15 15 17 16 15 14 14 14 15 18 18 18 15 16 16 17 17 17 17 17 18 18 17 17 17 17 17 17 16 16 16 18 18 15 15 15 15 14 14 12 13 13 13 13 13 12 12 14 14 13 13 17 17 17 18 15 15 15 15 14 12 11 11 9 9 9 9 11 11 9 9 6 9 10 11 11 11 
14 14 17 17 17 17 15 15 16 17 17 16 16 14 14 15 15 14 13 13 14 14 18 18 18 12 16 16 16 12 16 16 16 17 16 16 16 16 16 16 17 15 13 13 13 12 14 14 13 13 13 12 12 12 11 13 13 11 12 12 13 13 13 13 12 17 18 18 16 16 15 15 14 14 14 11 9 9 9 7 10 10 9 9 6 6 9 9 10 10 
16 16 17 17 17 12 15 15 10 10 10 7 7 10 11 12 12 8 9 9 9 9 10 11 13 12 12 13 12 10 10 15 13 13 13 12 11 11 13 8 8 8 13 13 13 9 9 9 13 13 13 12 12 12 11 12 12 11 11 11 13 13 13 13 10 11 11 12 16 16 14 14 13 14 14 13 8 8 3 2 2 2 7 7 0 1 1 1 1 6 
16 15 12 12 11 11 11 11 9 9 6 4 4 2 2 3 4 5 6 8 8 8 8 9 9 6 6 8 8 9 9 9 12 12 12 11 10 10 6 6 7 7 8 8 8 9 9 8 11 12 12 11 10 8 8 10 10 11 11 8 9 9 8 9 9 9 11 11 11 13 13 9 9 9 8 4 4 4 2 2 1 1 1 0 0 0 1 1 0 6 
