P2
90 90
255
106 98 98 91 91 100 97 97 89 89 90 86 86 83 83 84 87 86 86 87 84 84 92 92 89 90 90 91 96 96 98 98 94 94 90 91 91 96 96 97 102 102 87 88 88 90 94 94 95 87 86 86 86 86 85 81 80 80 81 83 88 88 88 79 79 79 75 75 75 79 79 82 79 82 82 76 76 83 85 85 76 76 70 70 70 70 75 75 70 70 
110 107 95 95 92 100 100 97 97 96 88 86 86 86 93 95 95 87 87 91 87 91 91 99 100 101 101 102 99 97 97 97 106 106 101 93 95 101 101 117 117 105 107 120 120 134 129 129 122 122 122 120 91 88 83 81 81 81 82 87 87 88 88 80 80 88 88 86 87 87 90 90 90 94 82 84 82 82 83 78 76 76 70 70 71 71 71 73 71 70 
108 107 95 95 89 89 96 96 97 96 82 80 80 83 93 93 95 98 111 111 110 93 93 96 96 101 105 105 108 117 117 117 106 106 101 120 120 123 130 117 117 109 107 129 129 134 128 125 125 126 128 129 120 120 91 104 104 90 95 95 84 84 87 83 83 88 88 86 87 87 84 90 90 94 92 92 82 82 79 79 76 76 78 73 73 71 71 78 78 73 
108 107 97 97 89 89 96 96 94 92 82 80 80 83 93 93 95 98 111 111 110 93 93 96 96 97 105 109 109 118 117 116 116 116 114 115 120 123 130 135 133 121 128 129 129 134 128 125 125 126 128 129 120 129 129 114 110 110 95 95 85 88 88 78 78 78 84 84 82 81 81 81 86 86 92 92 82 82 79 79 77 77 78 77 74 72 72 78 78 73 
111 109 110 110 96 99 95 92 92 92 100 85 89 86 87 87 89 100 100 100 102 102 102 102 102 100 105 109 109 116 116 116 116 116 115 117 124 142 142 138 125 35 30 27 24 24 24 24 25 28 33 114 124 129 129 114 110 110 100 98 101 101 85 78 78 78 84 84 82 81 81 87 87 86 90 90 82 80 80 78 78 81 85 82 78 75 76 78 78 75 
109 105 110 110 113 115 100 92 92 103 103 105 89 86 87 87 89 97 97 100 102 102 99 99 100 103 105 105 110 116 116 118 117 115 115 117 124 124 25 22 22 19 18 18 17 17 16 15 15 16 16 14 14 21 114 124 124 109 100 98 101 101 85 81 81 93 88 88 90 85 85 87 87 90 93 89 89 93 82 82 82 97 97 91 89 89 78 78 79 82 
118 105 105 113 113 113 100 94 94 103 103 111 97 97 90 93 113 97 97 100 108 104 99 99 99 99 103 120 121 122 122 124 124 134 123 114 21 15 15 16 22 19 18 18 17 17 16 16 18 18 18 17 16 15 13 17 125 125 137 137 108 108 100 104 102 100 102 102 103 102 104 104 122 124 124 94 93 93 103 99 96 97 97 91 89 89 88 85 84 81 
118 108 107 107 113 113 111 107 114 116 116 111 97 97 118 120 120 119 122 113 113 104 104 99 99 99 102 123 121 122 122 124 134 134 26 20 20 15 15 16 26 19 17 17 16 16 16 16 18 18 18 17 18 16 16 15 13 22 137 148 144 128 116 111 108 108 102 102 103 102 104 104 125 124 124 100 100 104 104 104 96 96 93 101 101 102 108 108 86 81 
124 140 140 140 132 124 124 125 128 116 116 111 96 96 123 120 120 119 131 131 131 122 122 119 103 103 120 123 123 143 147 147 141 29 29 20 20 24 30 39 49 38 31 28 24 21 19 17 17 17 17 19 19 16 16 17 17 15 18 148 146 146 116 111 108 108 124 124 104 103 103 125 125 125 118 105 111 111 101 101 107 107 100 101 101 105 108 108 104 85 
124 140 140 140 132 120 120 125 129 123 123 113 105 128 123 123 124 129 131 134 134 131 122 119 127 113 140 144 144 149 149 147 34 29 29 29 52 197 209 217 217 215 201 71 60 48 35 27 22 19 18 19 19 19 19 17 17 18 16 19 146 145 145 123 117 117 124 124 131 135 135 134 124 124 124 111 111 111 101 101 104 106 106 104 105 105 119 123 123 102 
144 143 143 136 130 120 120 121 129 151 146 146 144 139 140 141 141 138 136 134 134 131 124 124 133 133 140 144 150 150 149 133 32 32 40 206 231 239 247 251 250 250 244 231 212 186 100 65 46 27 24 22 21 19 19 16 18 19 19 15 22 145 145 123 117 117 119 121 130 134 134 140 140 124 124 116 116 114 123 102 104 106 106 104 107 107 119 123 123 102 
153 151 143 136 130 130 128 134 134 151 146 146 144 139 140 141 141 138 138 142 153 145 148 148 133 133 132 133 150 150 138 20 20 32 101 214 231 239 247 251 250 250 244 231 214 186 98 70 54 36 31 30 30 20 20 17 18 19 19 17 13 138 145 145 94 95 95 121 130 134 134 140 140 136 121 118 118 120 126 126 123 113 113 113 132 131 130 130 121 109 
153 151 168 168 147 151 151 184 184 178 178 176 182 152 152 151 152 144 144 161 161 145 148 148 141 141 132 133 140 137 21 20 20 46 158 195 229 229 233 238 241 223 223 218 214 118 95 70 54 45 36 30 30 26 17 17 19 19 19 17 14 20 135 82 83 95 95 110 118 130 137 137 137 137 121 118 118 120 126 126 129 142 142 140 140 140 138 137 130 109 
150 150 168 168 147 151 151 184 169 178 178 191 182 169 169 196 196 164 165 167 167 159 150 150 141 141 144 185 148 25 19 19 24 120 162 192 204 204 198 197 197 223 223 218 193 118 95 78 67 67 57 37 30 26 26 19 18 19 19 15 15 15 54 62 83 83 88 68 71 71 127 98 126 127 121 123 123 123 128 129 129 142 142 140 140 140 138 137 130 107 
115 105 93 100 102 102 99 167 169 169 191 191 184 117 117 196 196 198 181 167 167 172 158 158 155 216 185 185 36 19 18 18 32 130 164 192 204 204 198 197 197 223 223 223 200 149 140 140 129 110 70 70 34 26 26 19 18 18 18 16 16 15 24 62 62 61 63 63 63 66 74 83 88 84 84 136 142 142 147 144 143 143 140 137 144 144 144 140 127 100 
115 72 70 70 102 92 92 89 148 148 163 110 99 88 88 89 188 189 190 190 200 201 203 203 206 211 217 198 24 19 18 18 34 130 164 164 181 200 205 205 208 211 206 190 159 149 140 140 129 110 70 70 36 30 30 19 18 18 18 16 16 17 22 39 39 61 63 63 62 62 59 62 88 70 70 137 142 142 147 144 143 143 142 137 142 142 138 90 90 74 
72 71 70 70 88 92 92 86 86 92 81 81 79 65 65 63 62 62 69 81 200 190 203 203 206 211 217 54 22 22 22 18 27 113 62 52 52 50 194 194 198 40 28 28 52 52 48 34 30 29 34 38 38 30 30 18 18 18 18 19 19 17 19 35 35 37 41 62 62 62 59 59 73 70 64 64 137 146 146 141 141 142 142 142 142 106 95 89 89 67 
67 71 70 70 87 82 82 82 86 74 69 69 68 53 53 53 53 67 67 63 150 190 190 192 182 137 137 112 22 22 22 19 27 41 58 52 33 33 56 125 125 27 27 28 52 39 28 28 29 29 34 38 38 30 30 19 17 18 18 19 19 17 17 35 36 36 36 36 39 55 55 59 41 41 64 64 74 148 148 125 125 135 137 136 101 98 92 92 89 66 
67 76 76 84 83 82 86 86 74 74 69 69 70 53 53 53 53 67 67 64 130 173 173 78 130 137 137 101 21 21 20 18 29 41 58 58 33 33 56 125 59 27 27 111 111 39 28 28 29 116 98 51 38 30 30 19 18 18 17 19 19 17 17 35 36 36 36 36 37 40 42 42 39 39 41 47 62 146 146 125 125 112 104 96 94 94 94 92 71 66 
75 76 76 84 83 82 86 86 74 74 70 70 70 49 53 53 52 62 64 64 64 71 62 58 58 56 69 35 21 21 18 18 47 172 172 101 80 165 171 171 66 66 44 111 111 104 84 167 144 144 98 56 34 25 25 19 18 18 17 17 18 18 17 32 33 34 36 36 37 45 42 40 40 39 41 47 49 137 134 118 118 96 97 97 94 94 94 87 71 69 
75 71 72 76 75 75 75 74 69 69 62 62 50 50 53 53 41 41 45 45 45 44 62 58 58 50 46 25 23 20 18 18 45 172 205 209 209 192 191 191 75 75 86 193 211 220 220 211 144 144 64 47 33 25 25 19 19 19 18 16 16 18 17 22 39 37 38 38 45 45 42 40 40 37 36 40 49 71 124 105 98 93 93 93 100 93 89 89 89 74 
67 41 72 76 75 75 75 74 53 53 64 64 50 54 54 45 41 41 45 45 44 39 39 49 50 50 25 21 21 21 21 19 31 179 205 209 209 192 194 194 75 75 79 175 175 220 220 211 97 66 51 39 32 26 26 19 19 19 18 17 18 18 17 22 58 58 54 69 72 72 62 62 67 70 74 79 79 84 89 105 98 93 93 93 97 93 89 89 89 81 
37 35 38 72 72 59 59 59 54 54 64 64 62 54 54 45 43 43 45 45 44 44 44 46 46 42 22 20 20 20 20 19 22 154 190 190 161 133 194 194 80 80 79 175 175 168 154 174 71 53 41 34 31 31 28 19 17 18 18 17 18 18 17 17 30 30 34 39 44 43 42 42 43 70 74 79 79 84 89 108 108 91 91 58 54 54 53 96 96 77 
37 34 35 69 69 59 59 59 54 54 56 62 57 57 60 60 51 52 52 45 44 44 44 46 46 42 22 20 20 20 20 17 18 40 78 161 161 133 135 54 36 36 42 166 166 168 154 72 58 47 38 34 32 32 30 19 17 16 16 16 18 18 16 16 30 30 34 37 38 34 34 34 34 33 38 38 42 49 53 52 54 56 56 56 54 52 54 52 49 49 
34 34 34 37 69 69 59 59 59 56 54 54 54 55 60 54 51 52 52 50 54 48 48 49 43 43 23 20 20 19 19 18 18 31 83 83 135 161 103 51 36 36 50 64 82 83 83 79 57 57 38 34 32 32 30 19 17 16 16 17 19 19 16 16 30 38 38 41 39 39 34 34 34 33 38 38 42 49 51 51 54 56 56 56 54 56 58 52 49 49 
34 34 34 37 68 68 61 59 59 56 54 54 54 55 54 54 51 52 52 52 54 48 48 49 43 43 24 20 20 20 22 17 17 22 83 83 96 121 121 72 56 53 53 55 78 83 83 79 57 49 49 35 32 32 25 18 18 19 17 17 16 16 18 18 20 38 38 41 39 39 38 44 34 34 38 38 42 49 61 63 62 62 61 61 56 56 58 44 40 39 
36 34 34 39 68 68 61 61 56 56 57 56 55 55 47 47 47 51 51 52 44 48 48 46 43 43 38 20 20 22 22 18 18 17 80 80 96 139 139 76 56 53 53 55 86 86 82 82 57 45 45 32 28 28 24 18 18 20 20 18 16 16 18 18 19 38 38 43 43 41 44 44 45 45 49 49 49 61 61 63 62 62 61 40 38 38 46 44 40 39 
35 33 35 39 64 64 61 61 56 56 57 56 56 47 46 47 47 47 47 47 44 46 46 46 45 46 28 21 21 20 19 19 19 17 16 23 130 139 139 76 62 62 58 81 81 86 84 45 41 39 39 30 28 24 24 19 19 20 20 19 16 16 17 18 19 41 43 43 43 56 56 56 45 47 47 49 48 50 50 43 43 43 40 40 38 38 61 61 44 41 
35 33 32 31 31 58 60 60 56 52 52 51 51 47 46 47 48 48 54 54 54 54 59 59 59 61 56 23 23 20 19 19 19 19 15 15 19 39 141 172 143 103 83 81 81 78 43 38 38 39 39 28 27 24 24 19 19 20 18 18 18 19 18 17 17 44 54 54 54 54 59 59 47 47 47 47 48 52 52 43 43 50 51 51 51 50 63 63 61 45 
31 33 30 30 30 28 31 59 59 52 52 51 51 44 44 47 48 48 52 52 54 54 59 59 59 61 56 23 23 21 21 20 20 19 17 17 16 17 31 172 143 103 81 46 41 38 37 38 38 29 28 28 27 27 25 19 18 18 19 18 18 19 20 17 17 24 54 54 54 54 59 59 55 51 50 50 51 52 52 51 52 50 51 51 51 46 63 63 60 43 
31 31 31 31 31 28 28 57 57 59 59 52 52 44 44 47 47 47 52 52 54 54 56 61 74 74 76 24 20 21 21 19 20 20 17 17 17 16 14 16 31 33 33 30 30 30 31 31 31 27 27 28 34 34 27 19 18 18 18 18 21 21 20 17 17 22 40 40 38 38 40 40 40 39 39 36 36 37 37 37 53 52 31 31 46 46 63 63 60 43 
27 27 31 31 28 28 28 29 57 59 59 59 58 57 57 59 61 61 64 67 73 75 75 71 76 76 77 69 19 20 20 19 19 19 19 17 16 16 14 14 31 33 33 30 30 30 31 31 31 27 27 33 34 34 31 19 18 18 18 18 21 21 18 17 17 22 38 40 38 38 40 40 39 39 36 36 36 37 37 31 31 30 31 34 39 42 42 42 44 58 
27 27 29 29 28 28 28 29 54 59 59 59 58 57 66 59 61 61 64 75 76 76 82 82 76 75 75 74 22 19 21 21 19 19 19 16 16 16 15 15 20 59 34 31 30 30 31 35 35 38 32 38 37 37 32 19 19 18 18 18 20 20 18 17 17 21 38 40 39 39 42 40 39 39 36 36 36 39 35 31 31 30 31 34 39 42 42 42 44 58 
56 58 58 57 31 31 32 59 62 58 58 60 65 65 66 66 67 71 77 75 74 74 82 82 76 75 75 74 59 20 21 21 21 21 20 16 16 16 15 15 17 59 69 69 62 37 35 35 35 38 41 47 47 32 23 19 19 20 21 18 18 18 18 18 18 19 41 41 46 48 55 55 54 62 67 67 67 68 68 66 66 66 66 68 66 51 49 49 48 62 
63 66 66 66 66 67 68 68 69 72 63 51 51 65 65 65 44 44 77 77 74 74 76 79 77 77 73 68 59 21 21 21 21 21 20 19 19 19 16 16 17 62 71 73 73 70 43 42 42 45 71 72 72 67 26 20 21 21 21 21 21 22 22 18 18 17 18 24 23 23 24 27 28 62 67 67 67 68 68 66 66 66 66 61 44 44 49 49 39 39 
63 68 69 70 70 69 70 70 69 72 56 56 50 39 38 38 40 43 40 39 40 45 43 43 45 37 37 35 35 21 21 21 21 19 19 19 19 19 19 20 24 35 71 73 73 78 75 73 59 65 71 72 72 67 54 23 21 21 21 21 21 22 22 18 18 17 17 21 21 23 25 25 26 34 34 33 28 26 33 73 73 65 65 61 42 42 50 50 39 35 
64 68 69 70 70 69 70 70 55 56 56 56 50 39 38 38 47 47 36 36 37 38 38 37 39 33 33 32 24 23 23 21 21 19 19 19 20 24 30 38 112 69 78 83 78 78 75 73 74 80 88 111 108 108 90 27 21 21 21 21 23 22 22 18 18 18 17 17 21 32 25 25 26 34 34 33 28 26 33 74 78 78 43 41 42 42 53 53 37 35 
47 66 70 70 68 50 50 47 47 56 56 49 47 40 40 44 47 47 38 38 37 38 38 36 41 33 29 29 22 22 23 23 22 19 19 24 36 48 60 133 144 144 145 134 134 93 93 142 146 142 132 122 122 108 90 32 22 20 20 21 26 23 23 18 18 18 18 18 19 32 32 34 38 48 107 114 97 97 65 74 74 44 45 45 43 45 45 43 38 36 
47 49 50 50 44 44 50 47 47 48 48 49 47 52 56 53 53 41 37 37 45 37 36 36 40 40 29 23 22 22 22 23 20 20 27 48 131 144 155 160 164 166 166 164 147 147 147 161 163 163 157 122 122 84 84 32 23 23 21 26 26 22 19 19 20 18 18 18 18 17 17 26 26 28 107 114 92 92 62 58 52 44 45 45 44 45 45 43 51 47 
51 52 50 49 44 44 47 48 47 48 48 47 57 56 56 49 49 46 37 37 45 45 36 36 42 40 27 23 22 22 22 22 22 23 44 150 156 156 171 173 173 173 173 173 160 157 157 168 168 166 159 149 132 84 84 35 26 26 21 22 22 18 18 18 20 20 17 18 18 17 17 26 26 28 35 51 92 92 76 74 73 73 55 60 60 62 65 65 51 47 
51 52 51 52 52 43 43 53 53 52 49 49 57 56 56 49 45 45 38 38 45 45 39 42 42 40 24 23 22 22 22 22 29 34 144 164 164 177 179 178 178 173 173 174 172 162 162 168 168 166 159 149 130 83 83 30 25 25 21 21 21 18 18 18 18 18 17 18 19 19 19 18 28 28 35 31 52 52 75 74 73 73 56 60 60 62 65 65 48 45 
50 51 51 52 52 40 40 51 61 67 77 77 60 56 56 53 45 45 42 42 48 48 44 44 26 24 24 23 22 22 25 29 29 46 159 169 176 180 180 180 178 173 173 174 173 167 167 167 164 157 149 138 126 105 79 28 25 25 21 21 21 17 17 18 18 19 20 21 19 19 19 15 14 14 16 19 52 52 75 75 84 92 93 93 94 103 103 104 103 68 
48 44 44 45 41 40 40 40 40 41 77 77 74 70 70 66 46 43 42 42 48 48 44 25 23 23 23 23 21 23 31 38 42 156 169 171 175 180 180 180 178 171 171 173 173 169 167 167 164 161 149 138 126 104 77 28 26 21 20 20 20 20 22 24 24 26 26 28 27 23 23 15 14 14 15 15 15 16 20 24 30 92 93 93 94 103 103 104 103 68 
48 44 44 45 41 42 42 40 34 34 34 35 74 70 70 66 51 45 45 47 47 23 22 22 23 23 23 21 21 29 50 67 159 173 174 174 175 178 178 178 172 172 180 180 176 169 169 166 164 167 160 141 126 104 40 27 24 21 20 20 22 27 47 47 47 38 37 34 27 23 23 16 14 14 16 16 15 14 17 17 22 22 23 25 26 29 40 58 69 53 
43 40 40 44 43 42 42 40 34 34 34 29 29 34 39 58 58 70 70 54 21 20 21 21 21 22 18 21 24 36 135 165 177 180 180 174 172 170 169 158 169 176 180 180 184 182 169 174 171 171 163 150 123 59 37 27 24 24 22 33 36 45 47 47 47 18 16 15 13 13 12 12 12 12 16 16 14 13 13 17 22 22 20 21 21 23 40 58 79 85 
41 39 39 37 38 38 38 35 34 34 33 29 29 34 39 39 46 70 70 19 18 20 21 21 21 18 18 24 24 26 135 165 177 180 180 176 166 155 151 158 179 185 186 187 187 186 184 174 171 171 166 150 126 59 30 27 26 26 28 33 36 15 12 11 11 13 13 13 12 12 12 12 12 12 12 15 12 13 13 12 20 20 20 21 21 21 21 24 79 85 
41 41 39 37 37 38 38 43 43 42 43 43 44 46 49 49 55 25 19 17 18 20 21 21 20 17 27 26 26 29 29 38 154 170 171 171 128 131 153 180 184 184 186 187 187 186 184 179 171 171 166 149 36 26 21 24 24 16 14 12 12 12 12 11 12 13 12 12 12 12 12 12 12 12 12 12 11 13 13 12 20 20 20 21 21 21 21 24 24 24 
41 41 38 38 38 39 43 43 43 42 43 43 44 46 32 30 17 16 16 17 17 17 19 20 17 17 27 27 38 38 34 32 33 33 36 38 38 43 159 180 184 184 186 189 192 192 189 171 171 163 145 24 20 20 20 14 14 14 14 12 12 12 10 11 12 13 12 12 12 12 12 12 12 12 12 12 11 11 13 13 17 17 22 27 27 27 25 25 26 24 
40 39 35 38 38 46 46 42 32 35 35 36 33 33 32 16 16 17 17 18 17 17 16 16 17 19 36 36 36 37 36 39 39 36 28 25 27 29 29 34 41 46 50 57 160 161 151 151 38 24 19 19 20 20 20 14 14 14 11 11 11 11 10 10 14 14 14 13 12 12 12 12 12 12 12 12 12 11 11 13 17 17 18 27 27 27 25 25 26 29 
27 35 36 38 38 39 44 44 42 42 51 53 53 53 25 16 16 17 17 18 17 17 15 16 18 33 36 36 36 37 36 39 39 32 32 36 36 29 29 31 30 25 25 25 22 20 20 19 17 19 19 19 20 20 11 11 11 12 12 11 11 12 18 18 14 14 16 16 12 12 12 12 12 12 12 12 12 11 11 12 17 17 17 18 21 20 20 20 28 29 
27 27 36 36 37 39 44 44 42 42 51 53 53 53 45 16 16 17 17 15 15 15 15 18 21 33 30 30 35 35 29 29 28 32 34 34 38 38 33 33 34 30 30 29 22 20 20 19 20 20 18 18 18 11 11 12 13 12 12 14 14 14 18 18 13 13 16 16 14 13 12 12 12 12 12 13 16 12 12 12 17 17 17 18 21 20 20 20 22 21 
28 25 25 26 26 26 27 28 26 26 26 26 27 27 18 16 16 15 15 15 16 16 18 18 20 26 30 30 28 26 26 26 23 22 30 30 34 34 33 33 34 30 30 29 19 19 19 19 20 20 19 12 12 12 11 12 13 13 13 15 15 18 17 17 14 14 22 22 22 21 18 18 18 16 16 16 16 12 12 8 8 12 12 13 29 31 31 24 22 21 
28 25 25 26 26 26 27 26 26 26 26 26 27 27 18 16 16 16 16 15 16 17 17 18 20 26 26 25 25 24 26 26 23 22 30 30 34 34 29 25 25 26 19 19 19 19 19 18 17 13 12 12 12 12 11 13 14 14 14 15 15 14 17 17 20 20 22 22 20 20 20 18 18 16 16 16 9 11 11 8 8 10 10 11 29 31 31 32 21 18 
28 26 26 29 28 28 27 26 26 27 28 26 26 17 17 17 16 16 16 15 15 17 17 18 19 20 20 25 25 22 22 20 17 17 21 20 20 21 21 21 21 17 17 19 19 19 19 18 13 12 11 11 11 10 10 11 11 14 14 14 12 12 14 19 20 22 22 22 20 20 20 20 20 19 17 8 8 8 10 12 12 10 10 11 13 23 23 27 27 20 
26 26 56 56 56 54 51 49 51 53 53 49 22 15 15 15 15 18 18 17 17 17 17 17 17 20 21 21 20 21 21 19 19 20 20 19 20 18 19 19 17 16 16 19 19 19 16 16 14 12 11 11 11 11 11 11 11 13 13 10 10 12 17 17 20 22 22 22 21 20 19 19 18 11 11 8 8 8 7 12 12 10 10 11 11 23 30 30 27 20 
27 57 60 60 57 57 56 56 56 57 57 50 19 14 14 14 15 18 18 17 17 17 17 17 16 16 21 21 20 21 21 19 20 20 20 18 16 17 17 17 18 18 18 19 17 17 15 14 14 13 13 13 13 11 11 11 11 11 10 10 10 12 17 19 19 21 21 21 21 10 8 7 7 7 9 7 7 7 7 11 11 10 10 9 11 13 30 30 37 24 
44 57 60 60 57 57 56 56 56 57 57 50 17 14 14 14 17 17 14 14 14 17 19 19 16 16 20 20 20 20 16 16 19 19 18 18 16 17 17 17 18 18 18 16 16 17 15 14 14 13 13 12 12 13 12 12 12 10 10 10 11 17 17 19 19 20 20 19 11 9 8 7 7 7 8 9 9 9 6 6 12 12 9 9 10 10 32 37 37 36 
44 32 32 32 32 31 31 31 30 24 20 17 17 17 17 15 19 19 14 14 14 16 19 18 18 17 17 16 17 17 16 18 19 19 18 18 17 17 17 17 18 17 17 16 16 17 12 12 13 13 14 12 12 10 12 12 12 10 10 10 12 17 17 16 12 11 10 10 10 9 9 5 5 5 8 8 9 9 6 6 11 11 8 8 8 9 13 21 22 22 
27 26 27 26 26 26 26 26 19 16 16 17 17 17 17 16 17 16 16 17 17 16 16 18 18 17 17 16 16 17 17 16 18 17 17 17 13 13 12 12 15 17 17 17 17 13 12 12 13 13 13 10 10 10 12 12 12 10 10 11 16 16 14 12 7 6 6 9 9 6 6 4 4 5 3 3 3 5 5 4 8 8 6 8 8 9 13 19 19 19 
27 27 27 26 26 26 26 26 18 16 16 18 17 17 17 19 19 16 15 15 15 16 16 18 18 17 17 16 16 17 17 16 14 13 13 12 12 12 12 12 14 15 15 17 17 11 12 12 13 13 12 10 10 10 10 8 7 9 9 11 16 16 10 4 5 5 6 9 9 5 5 4 4 4 3 3 3 5 5 4 8 8 6 6 8 10 13 19 19 19 
27 27 27 27 27 26 25 17 18 18 18 18 18 18 19 19 19 19 15 15 15 15 18 18 18 18 16 15 15 16 16 15 14 12 12 12 12 12 12 14 14 15 15 11 11 11 12 13 13 13 12 11 10 10 7 7 7 7 8 13 13 14 3 3 3 5 6 7 7 6 5 10 10 10 4 4 7 7 5 4 4 7 4 4 9 9 11 20 22 22 
29 29 29 28 28 15 15 17 18 19 19 16 16 16 19 19 19 19 17 17 15 15 18 18 18 18 17 18 18 16 16 16 17 12 12 12 12 12 14 16 15 15 11 11 12 12 12 13 13 13 12 11 11 11 7 7 7 7 12 12 13 6 3 3 3 4 9 9 6 4 4 10 10 10 9 4 4 4 4 4 4 5 4 4 9 10 10 12 22 22 
29 29 29 29 15 15 15 17 17 19 19 16 16 16 15 16 16 18 17 17 17 17 17 17 17 17 17 18 18 16 16 16 17 16 13 13 13 14 14 13 13 13 13 11 12 12 12 12 12 12 9 9 11 11 7 7 7 7 12 12 6 6 5 2 2 2 9 9 6 4 4 4 4 3 4 4 4 4 4 4 4 5 4 4 6 10 12 12 21 22 
30 29 28 15 15 15 18 18 17 18 17 17 18 18 15 16 16 16 16 16 17 17 17 18 18 15 17 18 18 17 17 15 16 16 14 16 16 12 12 12 13 13 13 12 13 12 12 12 12 10 11 11 11 11 7 7 7 9 11 5 5 6 5 2 2 5 6 7 6 6 5 5 4 3 3 3 4 4 3 1 1 1 4 4 6 12 13 13 21 24 
33 31 19 16 15 15 18 18 17 18 17 17 18 18 17 21 20 20 16 16 16 16 16 18 18 15 15 15 16 16 14 14 14 14 17 17 16 14 12 12 13 13 13 14 15 12 11 11 12 12 12 11 11 7 7 8 11 11 6 5 5 7 7 3 3 5 6 7 6 6 5 5 4 3 3 3 3 4 4 1 1 1 3 11 11 11 13 13 19 24 
33 23 23 16 15 15 18 18 19 20 25 25 27 21 21 21 20 20 23 23 16 15 16 16 16 15 15 15 16 17 19 15 14 14 17 17 16 14 15 13 13 11 11 11 12 11 10 10 11 13 13 11 8 7 7 7 11 11 8 6 6 7 7 11 11 11 11 11 10 9 9 8 5 4 3 3 3 3 3 3 1 1 9 10 11 11 8 9 17 22 
30 20 20 17 16 16 16 19 19 26 26 26 27 22 20 21 21 21 23 23 23 15 16 16 16 15 16 16 16 17 19 20 17 16 15 16 16 15 15 12 12 11 11 11 11 11 10 10 11 13 13 13 12 7 7 8 8 8 8 6 6 7 7 11 11 11 12 12 10 9 9 8 7 10 10 4 4 3 3 3 2 7 9 10 10 9 8 9 11 17 
19 19 19 17 16 16 16 20 20 26 26 26 26 25 29 23 23 23 25 23 23 22 22 17 17 15 15 18 18 18 18 19 16 13 15 16 16 15 9 9 9 9 11 11 11 13 13 13 13 12 12 13 11 11 8 8 8 8 8 7 7 8 9 9 9 10 12 12 9 9 10 10 10 10 10 10 6 4 3 3 3 8 8 8 10 10 11 11 11 17 
16 19 19 17 16 16 16 22 22 27 32 32 33 35 29 24 29 30 30 30 30 27 22 22 22 83 90 91 91 84 28 21 15 13 13 12 12 9 9 9 9 9 11 11 13 13 13 13 13 12 12 11 11 11 12 12 11 11 11 10 10 11 9 9 9 10 12 12 9 11 10 10 10 8 9 9 6 9 9 7 8 8 8 8 10 10 11 11 11 15 
16 20 19 18 17 17 17 19 18 22 32 32 33 24 24 29 29 27 27 30 30 26 26 30 87 93 96 96 94 94 89 80 73 67 58 18 13 10 9 10 10 11 12 12 12 12 10 10 12 12 12 11 11 11 12 12 12 12 12 11 11 13 13 13 12 12 12 15 15 11 11 11 8 8 9 9 9 9 9 9 8 8 10 10 10 10 10 12 12 15 
16 17 17 17 16 16 16 16 15 20 30 30 23 23 25 22 22 23 21 19 19 21 26 70 87 93 96 96 94 94 85 81 81 78 66 66 65 65 60 14 10 10 10 11 12 12 10 10 12 12 11 11 11 11 10 11 12 12 12 11 11 13 13 13 13 14 14 15 14 14 12 12 11 11 12 9 9 8 9 9 11 10 10 10 12 12 10 10 10 14 
14 17 17 17 16 17 17 16 15 16 18 19 19 22 20 20 21 22 22 19 19 20 27 60 63 63 64 67 69 87 85 81 81 74 66 66 65 65 64 58 17 12 11 10 10 9 10 10 12 12 10 10 11 11 10 10 13 13 13 12 12 12 13 13 13 14 14 13 13 14 14 12 11 11 12 12 12 10 9 9 11 10 10 10 12 12 10 10 10 14 
13 17 17 17 18 17 17 16 17 17 17 17 18 18 20 20 20 22 22 19 19 19 21 60 63 63 64 67 55 61 67 79 77 74 74 68 66 66 64 66 66 67 66 63 17 12 10 10 10 9 10 10 11 10 10 10 13 13 13 12 12 12 12 12 12 12 12 13 13 13 12 11 9 9 12 12 12 11 11 5 4 4 10 10 8 10 10 10 10 12 
13 17 17 17 18 18 18 18 17 17 18 18 17 17 17 20 20 17 17 18 19 19 18 19 27 24 24 27 44 44 57 60 63 65 66 68 68 67 66 66 66 67 66 78 78 25 15 13 10 9 9 9 10 11 12 12 12 12 23 26 27 27 21 21 20 13 13 13 13 13 12 11 9 9 12 12 10 11 11 5 4 4 7 8 8 8 10 10 10 12 
13 17 16 15 15 15 18 18 14 17 18 18 17 17 17 17 17 17 17 18 17 16 15 15 20 20 22 32 40 47 51 51 57 65 66 66 56 66 62 62 56 42 71 78 78 67 67 19 19 26 26 26 35 36 36 29 29 28 23 26 27 27 21 21 21 21 20 20 13 13 8 10 10 11 13 10 10 10 10 9 9 9 7 8 8 10 10 10 10 10 
13 14 15 15 15 15 16 16 14 14 16 16 16 18 18 19 19 19 19 18 16 16 15 15 20 20 22 32 40 47 51 51 57 57 60 61 56 56 62 62 56 42 35 29 27 67 67 42 33 30 29 29 27 36 36 29 29 28 24 21 21 23 27 22 21 19 18 18 18 17 8 8 8 13 13 13 13 10 10 9 9 9 12 13 13 12 10 10 9 10 
16 16 15 15 15 15 16 15 15 17 17 16 16 19 19 19 19 18 18 18 16 17 43 43 43 66 64 64 35 35 31 36 36 41 44 44 52 50 35 55 55 62 62 29 22 21 21 42 33 30 29 29 23 21 21 26 25 25 25 21 21 22 22 28 25 19 18 18 17 17 16 8 10 12 13 13 13 13 13 9 9 9 12 13 13 12 10 11 10 11 
16 16 15 15 14 15 17 15 15 17 19 19 19 18 16 17 17 18 18 18 39 39 43 43 43 68 68 69 35 31 26 26 32 35 35 44 51 53 35 35 36 62 62 55 55 21 19 19 20 34 34 28 25 25 19 19 25 25 25 26 22 22 22 22 22 25 18 16 17 17 17 15 11 11 15 15 13 13 13 13 12 11 11 11 11 10 12 12 10 10 
15 15 15 15 18 19 19 15 15 18 19 19 18 16 16 17 17 17 17 20 30 30 39 39 45 68 68 70 70 59 26 26 32 35 35 31 30 52 55 57 36 32 32 55 55 39 19 19 18 18 32 28 25 25 18 18 22 25 25 26 27 27 23 23 23 20 20 17 17 17 17 13 12 12 15 15 16 17 13 13 12 11 11 11 11 10 12 12 11 12 
16 14 14 15 18 19 19 17 16 18 19 19 18 16 16 18 18 18 17 27 27 30 32 52 40 40 70 67 67 60 37 25 24 24 25 25 25 24 27 57 55 55 24 22 22 28 37 21 18 18 17 17 17 18 18 18 22 22 22 26 27 27 23 23 23 20 20 17 17 17 17 13 12 12 14 16 16 17 14 14 14 14 13 13 13 13 13 13 14 12 
16 14 14 15 15 16 16 16 15 18 18 18 18 19 18 18 18 18 18 27 27 32 37 29 29 50 66 67 67 60 37 28 24 21 21 25 25 25 25 24 55 55 26 21 21 20 23 33 33 18 17 17 16 18 18 18 18 16 15 15 16 16 21 21 17 17 16 16 17 17 17 16 13 13 15 15 14 14 14 13 13 14 13 13 13 13 14 14 14 12 
16 15 15 15 15 16 16 16 15 18 18 19 19 19 18 18 17 18 18 19 26 27 27 27 29 49 49 60 61 27 23 28 24 21 21 18 25 25 25 19 19 19 21 21 19 17 17 19 33 21 17 17 18 18 18 18 18 18 15 15 16 16 15 15 15 16 16 16 17 17 15 15 13 13 15 15 13 13 13 13 13 13 13 13 13 13 14 14 14 13 
14 14 15 15 15 15 17 17 17 18 18 18 18 16 16 19 18 18 18 18 19 20 28 28 43 49 49 26 20 18 18 17 17 16 16 17 17 17 17 17 16 16 17 17 19 17 17 18 18 17 18 17 18 18 16 18 18 18 17 18 18 18 15 15 15 18 18 18 18 15 15 14 13 13 16 15 13 13 13 13 12 13 12 12 14 14 14 14 13 12 
14 14 14 15 15 15 16 17 17 18 18 18 18 16 16 19 18 18 18 18 16 16 28 28 43 43 22 19 17 17 17 17 17 15 15 17 17 17 16 17 16 16 17 17 18 18 16 18 18 13 13 13 13 16 16 16 17 17 17 18 18 18 18 18 18 18 18 18 18 15 15 14 13 13 13 14 14 13 13 12 12 10 10 10 14 14 14 15 14 12 
14 14 14 15 15 15 16 17 17 18 18 19 19 16 16 19 19 17 17 18 15 15 17 20 26 21 18 18 17 18 18 18 15 15 15 18 18 17 17 17 16 16 17 17 18 18 15 15 16 13 13 13 13 14 14 13 13 13 13 13 17 17 18 18 18 18 18 18 19 17 18 18 13 12 12 12 13 13 13 12 12 10 10 11 11 14 15 15 12 12 
14 14 15 15 15 15 16 17 17 17 17 18 18 16 16 18 17 17 15 15 15 15 19 19 21 18 17 17 18 18 18 17 17 18 18 18 18 17 17 17 17 17 17 17 18 18 15 15 16 14 13 14 14 14 14 13 13 13 13 13 15 15 16 17 17 18 18 18 15 15 18 18 14 12 12 12 13 10 10 11 11 11 11 11 11 12 11 11 12 11 
14 14 15 15 15 15 18 17 17 17 17 18 18 16 16 18 17 15 15 15 15 15 19 19 19 16 17 17 18 18 18 17 17 18 18 17 18 17 17 17 18 17 17 17 18 18 15 15 16 15 15 14 13 14 14 13 13 13 13 13 15 15 14 14 17 18 18 18 15 15 15 15 15 13 12 12 10 10 9 9 11 11 10 10 6 10 11 11 11 11 
15 14 17 17 18 18 15 15 16 17 17 17 17 14 14 15 16 14 14 14 14 15 18 18 19 13 16 16 16 13 17 17 17 17 17 16 16 17 17 17 17 16 13 13 13 13 15 15 14 13 13 12 13 13 12 13 13 12 13 13 13 13 13 13 13 18 18 18 17 17 15 15 15 15 15 11 10 10 9 8 11 11 10 10 6 6 9 10 10 11 
17 17 17 17 18 13 15 15 11 11 10 7 7 11 11 12 12 8 9 9 9 9 10 12 13 13 13 14 13 10 10 16 13 13 13 13 11 11 14 9 8 8 13 13 13 10 10 10 14 13 13 12 12 12 12 13 13 11 11 12 13 13 13 13 10 11 11 12 17 17 14 14 13 15 15 13 8 8 3 2 2 3 8 8 1 1 1 2 2 6 
16 16 12 12 11 11 12 12 10 10 6 5 5 3 3 4 5 6 7 9 8 8 9 10 9 6 6 9 9 9 9 9 12 12 12 12 10 10 7 7 8 8 9 8 8 9 9 9 12 12 12 12 11 9 9 10 10 11 11 9 10 10 9 10 10 10 11 11 12 13 13 10 9 9 8 5 5 5 2 2 1 1 1 0 0 0 1 1 1 6 
