P2
90 90
255
226 226 226 226 226 226 226 226 226 226 226 226 226 226 226 226 226 226 226 226 226 226 226 226 226 226 226 226 226 226 226 226 226 226 226 226 226 226 226 226 226 226 226 226 226 226 226 226 226 226 226 226 226 226 226 226 226 226 226 226 226 226 226 226 226 226 226 226 226 226 226 226 226 226 226 226 226 226 226 226 226 226 226 226 226 226 226 226 226 226 
226 226 226 226 226 226 226 226 226 226 226 226 226 226 226 226 226 226 226 226 226 226 226 226 226 226 226 226 226 226 226 226 226 226 226 226 226 226 226 226 226 226 226 226 226 226 226 226 227 229 230 230 229 227 226 226 226 226 226 226 226 226 226 226 226 226 226 226 226 226 226 226 226 226 226 226 226 226 226 226 226 226 226 226 226 226 226 226 226 226 
226 226 226 226 226 226 226 226 226 226 226 226 226 226 226 226 226 226 226 226 226 226 226 226 226 226 226 226 226 226 226 226 226 226 226 226 226 226 226 226 226 226 226 226 226 227 229 232 231 222 219 219 221 229 232 230 227 226 226 226 226 226 226 226 226 226 226 226 226 226 226 226 226 226 226 226 226 226 226 226 226 226 226 226 226 226 226 226 226 226 
226 226 226 226 226 226 226 226 226 226 226 226 226 226 226 226 226 226 226 226 226 226 226 226 226 226 226 226 226 226 226 226 226 226 226 226 226 226 226 226 226 226 226 227 230 230 222 203 23 8 8 8 8 18 203 214 228 231 228 226 226 226 226 226 226 226 226 226 226 226 226 226 226 226 226 226 226 226 226 226 226 226 226 226 226 226 226 226 226 226 
226 226 226 226 226 226 226 226 226 226 226 226 226 226 226 226 226 226 226 226 226 226 226 226 226 226 226 226 226 226 226 226 226 226 226 226 226 226 226 226 226 226 227 229 216 20 6 0 0 0 0 0 0 0 0 3 13 209 228 229 226 226 226 226 226 226 226 226 226 226 226 226 226 226 226 226 226 226 226 226 226 226 226 226 226 226 226 226 226 226 
226 226 226 226 226 226 226 226 226 226 226 226 226 226 226 226 226 226 226 226 226 226 226 226 226 226 226 226 226 226 226 226 226 226 226 226 226 226 226 226 226 227 231 28 0 0 0 0 0 0 0 0 0 0 0 3 11 11 15 217 232 227 226 226 226 226 226 226 226 226 226 226 226 226 226 226 226 226 226 226 226 226 226 226 226 226 226 226 226 226 
226 226 226 226 226 226 226 226 226 226 226 226 226 226 226 226 226 226 226 226 226 226 226 226 226 226 226 226 226 226 226 226 226 226 226 226 226 226 226 226 229 231 28 0 0 0 0 0 0 0 0 0 0 0 0 4 11 11 10 10 27 226 230 226 226 226 226 226 226 226 226 226 226 226 226 226 226 226 226 226 226 226 226 226 226 226 226 226 226 226 
226 226 226 226 226 226 226 226 226 226 226 226 226 226 226 226 226 226 226 226 226 226 226 226 226 226 226 226 226 226 226 226 226 226 226 226 226 226 226 227 229 29 0 0 0 0 0 0 0 0 0 0 0 0 1 14 99 99 10 6 6 18 230 227 226 226 226 226 226 226 226 226 226 226 226 226 226 226 226 226 226 226 226 226 226 226 226 226 226 226 
226 226 226 226 226 226 226 226 226 226 226 226 226 226 226 226 226 226 226 226 226 226 226 226 226 226 226 226 226 226 226 226 226 226 226 226 226 226 226 231 213 0 0 0 0 0 0 0 0 0 0 0 0 0 1 21 104 104 42 6 3 3 212 230 226 226 226 226 226 226 226 226 226 226 226 226 226 226 226 226 226 226 226 226 226 226 226 226 226 226 
226 226 226 226 226 226 226 226 226 226 226 226 226 226 226 226 226 226 226 226 226 226 226 226 226 226 226 226 226 226 226 226 226 226 226 226 226 226 227 231 16 0 0 0 0 0 0 0 0 0 0 0 0 0 2 23 104 104 23 12 3 3 4 225 228 226 226 226 226 226 226 226 226 226 226 226 226 226 226 226 226 226 226 226 226 226 226 226 226 226 
226 226 226 226 226 226 226 226 226 226 226 226 226 226 226 226 226 226 226 226 226 226 226 226 226 226 226 226 226 226 226 226 226 226 226 226 226 226 230 213 1 0 0 0 0 0 0 0 0 0 0 0 0 0 2 13 22 8 4 2 1 0 0 210 232 226 226 226 226 226 226 226 226 226 226 226 226 226 226 226 226 226 226 226 226 226 226 226 226 226 
226 226 226 226 226 226 226 226 226 226 226 226 226 226 226 226 226 226 226 226 226 226 226 226 226 226 226 226 226 226 226 226 226 226 226 226 226 226 234 189 0 0 0 0 0 0 0 0 0 0 0 0 0 0 1 3 1 0 0 0 0 0 0 7 225 231 226 226 226 226 226 226 226 226 226 226 226 226 226 226 226 226 226 226 226 226 226 226 226 226 
226 226 226 226 226 226 226 226 226 226 226 226 226 226 226 226 226 226 226 226 226 226 226 226 226 226 226 226 226 226 226 226 226 226 226 226 226 226 230 47 0 0 0 0 0 0 0 0 0 0 0 0 0 0 0 1 1 0 0 0 0 0 0 0 32 228 227 226 226 226 226 226 226 226 226 226 226 226 226 226 226 226 226 226 226 226 226 226 226 226 
226 226 226 226 226 226 226 226 226 226 226 226 226 226 226 226 226 226 226 226 226 226 226 226 226 226 226 226 226 226 226 226 226 226 226 226 226 227 226 36 0 0 0 0 2 1 0 0 0 0 0 0 0 0 0 1 4 1 0 0 0 0 0 0 19 227 228 226 226 226 226 226 226 226 226 226 226 226 226 226 226 226 226 226 226 226 226 226 226 226 
226 226 226 226 226 226 226 226 226 226 226 226 226 226 226 226 226 226 226 226 226 226 226 226 226 226 226 226 226 226 226 226 226 226 226 226 226 228 226 34 0 0 0 1 3 25 3 0 0 0 0 0 0 0 3 11 11 35 5 0 0 0 0 0 15 227 228 226 226 226 226 226 226 226 226 226 226 226 226 226 226 226 226 226 226 226 226 226 226 226 
226 226 226 226 226 226 226 226 226 226 226 226 226 226 226 226 226 226 226 226 226 226 226 226 226 226 226 226 226 226 226 226 226 226 226 226 226 228 226 34 0 0 2 13 29 25 25 3 0 0 0 0 5 25 156 156 48 35 35 1 0 0 0 0 8 217 229 226 226 226 226 226 226 226 226 226 226 226 226 226 226 226 226 226 226 226 226 226 226 226 
226 226 226 226 226 226 226 226 226 226 226 226 226 226 226 226 226 226 226 226 226 226 226 226 226 226 226 226 226 226 226 226 226 226 226 226 226 228 226 34 1 1 21 199 199 47 20 2 0 0 0 6 39 206 213 214 214 46 15 4 0 0 0 0 3 203 231 226 226 226 226 226 226 226 226 226 226 226 226 226 226 226 226 226 226 226 226 226 226 226 
226 226 226 226 226 226 226 226 226 226 226 226 226 226 226 226 226 226 226 226 226 226 226 226 226 226 226 226 226 226 226 226 226 226 226 226 226 228 226 35 10 10 182 199 199 211 33 2 0 0 1 33 229 229 213 214 214 207 16 0 0 0 0 0 0 191 233 226 226 226 226 226 226 226 226 226 226 226 226 226 226 226 226 226 226 226 226 226 226 226 
226 226 226 226 226 226 226 226 226 226 226 226 226 226 226 226 226 226 226 226 226 226 226 226 226 226 226 226 226 226 226 226 226 226 226 226 226 228 228 36 29 29 182 182 211 211 214 6 0 0 8 222 229 229 81 202 207 207 40 0 0 0 0 0 0 185 234 226 226 226 226 226 226 226 226 226 226 226 226 226 226 226 226 226 226 226 226 226 226 226 
226 226 226 226 226 226 226 226 226 226 226 226 226 226 226 226 226 226 226 226 226 226 226 226 226 226 226 226 226 226 226 226 226 226 226 226 226 227 228 41 41 113 113 33 92 92 214 28 5 5 25 212 212 12 12 23 57 223 223 7 0 0 0 0 0 185 234 226 226 226 226 226 226 226 226 226 226 226 226 226 226 226 226 226 226 226 226 226 226 226 
226 226 226 226 226 226 226 226 226 226 226 226 226 226 226 226 226 226 226 226 226 226 226 226 226 226 226 226 226 226 226 226 226 226 226 226 226 226 232 55 55 106 106 25 62 62 145 55 10 10 25 212 212 2 2 5 13 223 223 20 0 0 0 0 0 185 234 226 226 226 226 226 226 226 226 226 226 226 226 226 226 226 226 226 226 226 226 226 226 226 
226 226 226 226 226 226 226 226 226 226 226 226 226 226 226 226 226 226 226 226 226 226 226 226 226 226 226 226 226 226 226 226 226 226 226 226 226 226 234 184 36 106 106 17 17 33 145 145 25 34 34 152 152 2 0 0 13 216 216 26 0 0 0 0 0 185 233 226 226 226 226 226 226 226 226 226 226 226 226 226 226 226 226 226 226 226 226 226 226 226 
226 226 226 226 226 226 226 226 226 226 226 226 226 226 226 226 226 226 226 226 226 226 226 226 226 226 226 226 226 226 226 226 226 226 226 226 226 226 234 183 12 12 107 17 17 33 171 181 181 178 158 158 152 7 0 0 8 216 216 15 0 0 0 0 0 52 231 226 226 226 226 226 226 226 226 226 226 226 226 226 226 226 226 226 226 226 226 226 226 226 
226 226 226 226 226 226 226 226 226 226 226 226 226 226 226 226 226 226 226 226 226 226 226 226 226 226 226 226 226 226 226 226 226 226 226 226 226 226 233 191 4 4 143 143 137 171 184 190 190 189 182 187 187 179 34 34 201 201 214 2 0 0 0 0 0 37 228 227 226 226 226 226 226 226 226 226 226 226 226 226 226 226 226 226 226 226 226 226 226 226 
226 226 226 226 226 226 226 226 226 226 226 226 226 226 226 226 226 227 227 227 227 227 227 227 227 227 226 226 226 226 226 226 226 226 226 226 226 226 231 202 4 4 39 157 173 183 186 188 189 189 189 188 188 188 186 180 181 181 46 2 0 0 0 0 0 21 228 228 226 226 226 226 226 226 226 226 226 226 226 226 226 226 226 226 226 226 226 226 226 226 
226 226 226 226 226 226 226 226 226 226 226 226 226 226 227 226 211 210 211 211 211 211 211 211 211 211 213 226 226 227 226 226 226 226 226 226 226 226 231 205 8 8 125 157 177 182 182 188 189 189 187 187 188 188 182 178 181 181 158 3 0 0 0 0 0 12 224 229 226 226 226 226 226 226 226 226 226 226 226 226 226 226 226 226 226 226 226 226 226 226 
226 226 226 226 226 226 226 226 226 226 226 226 226 227 225 211 211 211 211 211 211 215 215 211 211 212 212 212 221 224 226 226 226 226 226 226 226 226 231 206 22 22 148 166 177 182 182 189 188 188 187 187 188 185 182 178 154 154 156 9 0 0 0 0 0 11 224 229 226 226 226 226 226 226 226 226 226 226 226 226 226 226 226 226 226 226 226 226 226 226 
226 226 226 226 226 226 226 226 226 226 226 226 227 197 195 211 211 211 211 216 216 215 215 215 215 212 212 212 201 195 195 227 226 226 226 226 226 226 231 206 29 29 148 166 179 183 183 189 188 188 187 187 187 185 151 154 154 156 156 5 0 0 0 0 0 4 218 230 226 226 226 226 226 226 226 226 226 226 226 226 226 226 226 226 226 226 226 226 226 226 
226 226 226 226 226 226 226 226 226 226 226 226 227 197 197 197 197 196 197 198 198 196 196 197 199 195 197 197 197 196 195 227 226 226 226 226 226 226 231 205 12 12 41 167 182 186 188 187 187 187 186 184 176 139 151 155 155 156 126 4 4 6 9 0 0 4 22 232 227 226 226 226 226 226 226 226 226 226 226 226 226 226 226 226 226 226 226 226 226 226 
226 226 226 226 226 226 226 226 226 226 226 226 226 227 205 197 197 196 197 198 198 196 196 197 199 195 197 197 197 201 225 227 226 226 226 226 226 226 230 209 12 12 41 107 174 186 186 186 184 179 123 123 130 145 151 155 155 152 126 4 4 15 116 116 8 6 6 221 229 226 226 226 226 226 226 226 226 226 226 226 226 226 226 226 226 226 226 226 226 226 
226 226 226 226 226 226 226 226 226 226 226 226 226 227 223 196 196 176 176 191 174 174 174 189 177 175 175 195 195 201 227 226 226 226 226 226 226 226 229 223 32 32 167 107 108 108 147 147 149 141 138 141 144 144 144 151 197 197 197 15 3 3 116 122 122 6 6 23 231 226 226 226 226 226 226 226 226 226 226 226 226 226 226 226 226 226 226 226 226 226 
226 226 226 226 226 226 226 226 226 226 226 226 226 227 224 191 176 173 173 173 171 168 169 169 173 173 173 176 189 201 227 226 226 226 226 226 226 226 229 223 32 32 188 188 108 108 147 147 149 141 138 141 144 144 144 182 197 197 197 187 3 3 9 122 122 10 2 2 220 229 226 226 226 226 226 226 226 226 226 226 226 226 226 226 226 226 226 226 226 226 
226 226 226 226 226 226 226 226 226 226 226 226 226 226 225 217 178 172 173 173 171 167 167 168 173 173 173 176 215 225 226 226 226 226 226 226 226 226 232 213 28 28 188 188 193 113 113 117 117 116 116 132 132 186 186 204 243 245 245 233 10 0 0 7 8 0 0 0 25 233 227 226 226 226 226 226 226 226 226 226 226 226 226 226 226 226 226 226 226 226 
226 226 226 226 226 226 226 226 226 226 226 226 226 226 227 217 178 172 172 172 170 167 167 168 172 172 172 177 221 227 226 226 226 226 226 226 226 228 227 12 12 23 197 197 187 187 117 117 117 116 116 182 196 186 186 245 249 249 250 251 41 0 0 0 0 0 0 0 4 217 229 226 226 226 226 226 226 226 226 226 226 226 226 226 226 226 226 226 226 226 
226 226 226 226 226 226 226 226 226 226 226 226 226 226 227 220 178 169 169 167 165 165 165 165 167 167 167 176 221 227 226 226 226 226 226 226 227 234 33 3 3 27 242 242 187 187 187 185 184 184 184 190 196 196 244 249 248 248 248 250 244 10 0 0 0 0 0 0 0 12 227 228 226 226 226 226 226 226 226 226 226 226 226 226 226 226 226 226 226 226 
226 226 226 226 226 226 226 226 226 226 226 226 226 226 227 224 164 160 149 149 149 150 151 150 150 150 158 162 221 227 226 226 226 226 226 228 231 214 8 3 3 223 250 250 244 187 187 185 184 184 184 190 242 248 249 248 248 248 248 248 252 213 0 0 0 0 0 0 0 1 205 233 226 226 226 226 226 226 226 226 226 226 226 226 226 226 226 226 226 226 
226 226 226 226 226 226 226 226 226 226 226 226 226 226 227 224 109 109 144 149 149 145 145 145 145 145 107 107 228 228 226 226 226 227 231 227 19 1 1 8 29 248 250 249 249 192 187 187 184 185 193 247 249 248 248 248 248 248 248 248 251 242 7 0 0 0 0 0 0 0 7 223 229 226 226 226 226 226 226 226 226 226 226 226 226 226 226 226 226 226 
226 226 226 226 226 226 226 226 226 226 226 226 226 226 226 231 109 109 142 142 142 142 143 142 142 145 107 107 228 230 230 230 231 232 222 13 0 0 1 14 246 250 248 248 249 248 243 197 236 244 248 249 248 248 248 248 248 248 248 248 249 251 31 0 0 0 0 0 0 0 0 18 233 227 226 226 226 226 226 226 226 226 226 226 226 226 226 226 226 226 
226 226 226 226 226 226 226 226 226 226 226 226 226 226 226 231 115 115 143 142 142 142 144 142 142 146 100 100 233 233 221 218 215 23 1 0 0 0 1 222 251 249 248 248 248 248 249 247 249 249 248 248 248 248 248 248 248 248 248 248 248 251 227 1 0 0 0 0 0 0 0 0 27 230 227 226 226 226 226 226 226 226 226 226 226 226 226 226 226 226 
226 226 226 226 226 226 226 226 226 226 226 226 226 226 226 231 120 117 143 143 141 143 143 142 145 145 100 100 70 19 8 8 3 0 0 0 0 0 17 244 250 248 248 248 248 248 249 249 249 248 248 248 248 248 248 248 248 248 248 248 248 252 243 9 0 0 0 0 0 0 0 0 0 32 230 226 226 226 226 226 226 226 226 226 226 226 226 226 226 226 
226 226 226 226 226 226 226 226 226 226 226 226 226 226 226 230 125 119 143 143 141 143 143 142 145 145 127 89 0 0 0 0 0 0 0 0 0 0 46 244 249 248 248 248 248 248 249 249 249 248 248 248 248 248 248 248 249 249 249 249 247 249 241 31 0 0 0 0 0 0 0 0 0 4 223 229 226 226 226 226 226 226 226 226 226 226 226 226 226 226 
226 226 226 226 226 226 226 226 226 226 226 226 226 226 226 230 129 121 137 136 136 135 135 136 136 137 128 86 0 0 0 0 0 0 0 0 0 5 171 239 249 248 248 248 248 248 246 228 228 247 248 248 248 248 248 247 247 247 245 241 236 241 241 213 0 0 0 0 0 0 0 0 0 0 12 230 228 226 226 226 226 226 226 226 226 226 226 226 226 226 
226 226 226 226 226 226 226 226 226 226 226 226 226 226 226 230 129 118 137 136 136 135 135 136 136 137 124 90 0 0 0 0 0 0 0 0 0 20 168 168 223 238 246 248 248 245 230 228 228 244 248 248 248 248 246 237 213 205 198 195 195 192 197 218 13 1 1 2 0 0 0 0 0 0 0 206 231 227 226 226 226 226 226 226 226 226 226 226 226 226 
226 226 226 226 226 226 226 226 226 226 226 226 226 226 226 232 129 115 120 118 119 114 114 118 117 118 118 89 0 0 0 0 0 0 0 0 0 38 168 168 223 245 248 248 248 248 237 237 248 248 248 248 248 248 248 246 213 205 198 195 195 192 194 218 211 2 2 26 6 0 0 0 0 0 0 0 209 229 226 226 226 226 226 226 226 226 226 226 226 226 
226 226 226 226 226 226 226 226 226 226 226 226 226 226 229 213 72 115 120 119 117 113 113 116 118 118 118 83 0 0 0 0 0 0 1 1 3 200 237 248 249 249 248 248 248 248 237 237 248 248 248 248 248 248 248 249 249 249 248 245 239 194 194 203 213 19 3 3 9 22 2 0 0 0 0 0 20 233 227 226 226 226 226 226 226 226 226 226 226 226 
226 226 226 226 226 226 226 226 226 226 226 226 226 231 222 19 19 114 122 119 117 113 113 116 118 120 115 72 3 4 1 0 0 4 12 10 18 239 248 249 248 248 248 248 248 248 248 248 248 248 248 248 248 248 248 248 248 249 249 249 249 247 240 203 211 204 3 0 0 5 22 1 0 0 0 0 4 214 230 226 226 226 226 226 226 226 226 226 226 226 
226 226 226 226 226 226 226 226 226 226 226 226 227 230 37 19 19 92 92 85 84 76 76 85 85 87 88 71 8 11 3 0 0 24 10 10 224 251 249 248 248 248 248 248 248 248 248 248 248 248 248 248 248 248 248 248 248 248 248 248 248 249 249 243 218 218 18 0 0 5 26 26 0 0 0 0 0 15 230 227 226 226 226 226 226 226 226 226 226 226 
226 226 226 226 226 226 226 226 226 226 226 226 227 230 37 24 68 86 82 82 83 75 75 83 83 83 85 72 18 17 1 1 4 9 9 17 250 251 248 248 248 248 248 248 248 248 248 248 248 248 248 248 248 248 248 248 248 248 248 248 248 248 248 249 218 218 216 2 2 22 26 26 3 0 0 0 0 4 219 229 226 226 226 226 226 226 226 226 226 226 
226 226 226 226 226 226 226 226 226 226 226 226 226 230 216 26 60 86 82 82 83 75 75 83 83 83 85 72 32 6 1 1 23 9 9 228 251 248 248 248 248 248 248 248 248 248 248 248 248 248 248 248 248 248 248 248 248 248 248 248 248 248 248 249 248 248 245 17 17 44 33 33 25 1 0 0 0 0 201 232 226 226 226 226 226 226 226 226 226 226 
226 226 226 226 226 226 226 226 226 226 226 226 226 226 229 50 60 79 79 70 70 57 57 70 70 74 74 82 80 0 0 4 19 10 18 249 249 248 248 248 248 248 248 248 248 247 248 248 248 248 248 248 248 248 248 248 248 248 248 248 248 248 248 248 248 249 252 46 13 43 7 7 30 6 0 0 0 0 34 228 227 226 226 226 226 226 226 226 226 226 
226 226 226 226 226 226 226 226 226 226 226 226 226 226 229 228 71 76 76 70 71 61 61 70 70 74 74 49 17 0 0 19 19 10 223 251 248 248 248 248 248 248 248 248 248 242 247 248 248 248 248 248 248 248 248 248 248 248 248 248 248 248 248 248 248 248 252 213 2 0 0 0 7 30 0 0 0 0 9 228 228 226 226 226 226 226 226 226 226 226 
226 226 226 226 226 226 226 226 226 226 226 226 226 226 228 228 57 57 57 60 71 57 57 70 54 54 54 50 50 0 0 1 1 15 248 250 248 248 248 248 248 248 248 248 247 238 246 249 248 248 248 248 248 248 248 248 248 248 248 248 248 248 248 248 248 248 252 226 2 0 0 0 1 23 1 0 0 0 2 211 230 226 226 226 226 226 226 226 226 226 
226 226 226 226 226 226 226 226 226 226 226 226 226 226 228 223 61 61 87 82 69 57 57 68 80 84 66 66 50 0 0 0 1 206 252 248 248 248 248 248 248 248 248 249 246 237 247 249 248 248 248 248 248 248 248 248 248 248 248 248 248 248 248 248 248 248 252 233 9 0 0 0 0 20 3 0 0 0 0 33 233 226 226 226 226 226 226 226 226 226 
226 226 226 226 226 226 226 226 226 226 226 226 226 226 229 208 38 38 87 82 82 69 69 78 80 84 66 66 58 2 0 0 2 230 252 248 248 248 248 248 248 248 248 249 245 235 247 249 248 248 248 248 248 248 248 248 248 248 248 248 248 248 248 248 248 248 251 239 15 0 0 0 0 18 2 0 0 0 0 11 227 228 226 226 226 226 226 226 226 226 
226 226 226 226 226 226 226 226 226 226 226 226 226 226 230 201 38 38 66 83 82 49 49 80 81 71 49 49 51 3 0 0 10 244 251 248 248 248 248 248 248 248 248 249 244 231 247 249 248 248 248 248 248 248 248 248 248 248 248 248 248 248 248 248 248 248 250 248 22 0 0 0 1 14 1 0 0 0 0 5 219 229 226 226 226 226 226 226 226 226 
226 226 226 226 226 226 226 226 226 226 226 226 226 226 227 222 47 47 66 64 70 49 49 66 57 71 71 62 11 1 0 0 26 249 250 248 248 248 248 248 248 248 248 249 230 230 247 249 248 248 248 248 248 248 248 248 248 248 248 248 248 248 248 248 248 248 252 252 31 0 0 0 3 16 0 0 0 0 0 2 207 230 226 226 226 226 226 226 226 226 
226 226 226 226 226 226 226 226 226 226 226 226 226 226 226 228 224 213 73 73 84 84 66 83 68 71 71 62 0 0 0 0 43 249 250 248 248 248 248 248 248 248 248 249 230 230 248 248 248 248 248 248 248 248 248 248 248 248 248 248 248 248 248 248 248 248 252 252 34 0 0 0 19 19 0 0 0 0 0 1 188 231 226 226 226 226 226 226 226 226 
226 226 226 226 226 226 226 226 226 226 226 226 226 226 226 226 227 229 227 227 226 227 227 226 231 203 6 1 0 0 0 0 46 247 250 248 248 248 248 248 248 248 248 249 233 233 248 248 248 248 248 248 248 248 248 248 248 248 248 248 248 248 248 248 248 248 252 252 34 0 0 0 19 19 0 0 0 0 0 0 39 232 226 226 226 226 226 226 226 226 
226 226 226 226 226 226 226 226 226 226 226 226 226 226 226 226 226 226 227 227 228 228 228 228 235 203 1 1 1 5 0 0 192 247 249 248 248 248 248 248 248 248 248 248 233 233 248 248 248 248 248 248 248 248 248 248 248 248 248 248 248 248 248 248 248 248 249 252 43 0 0 1 18 2 0 0 0 0 0 0 39 233 227 226 226 226 226 226 226 226 
226 226 226 226 226 226 226 226 226 226 226 226 226 226 226 226 226 226 226 226 226 226 226 226 235 53 0 0 0 2 0 0 203 250 249 248 248 248 248 248 248 248 248 248 233 233 248 248 248 248 248 248 248 248 248 248 248 248 248 248 248 248 248 248 248 248 249 252 47 0 0 3 21 2 0 0 0 0 0 1 49 232 226 226 226 226 226 226 226 226 
226 226 226 226 226 226 226 226 226 226 226 226 226 226 226 226 226 226 226 226 226 226 226 226 233 53 0 0 0 2 0 0 209 250 249 248 248 248 248 248 248 248 248 249 228 228 248 248 248 248 248 248 248 248 248 248 248 248 248 248 248 248 248 248 248 248 249 252 33 3 3 21 10 14 16 3 1 0 0 2 188 231 226 226 226 226 226 226 226 226 
226 226 226 226 226 226 226 226 226 226 226 226 226 226 226 226 226 226 226 226 226 226 226 226 231 194 15 15 158 28 3 3 209 252 249 248 248 248 248 248 248 248 248 249 228 228 249 248 248 248 248 248 248 248 248 248 248 248 248 248 248 248 248 248 248 249 251 249 22 8 8 3 2 2 16 16 17 10 2 2 200 231 226 226 226 226 226 226 226 226 
226 226 226 226 226 226 226 226 226 226 226 226 226 226 226 226 226 226 226 226 226 226 226 226 229 207 164 188 193 193 179 69 69 250 249 248 248 248 248 248 248 248 248 248 231 231 248 248 248 248 248 248 248 248 248 248 248 248 248 248 248 248 248 248 249 245 242 190 22 2 0 0 0 0 0 0 4 33 8 8 215 229 226 226 226 226 226 226 226 226 
226 226 226 226 226 226 226 226 226 226 226 226 226 226 226 226 226 226 226 226 226 226 226 226 229 165 177 187 187 187 189 174 69 244 250 248 248 248 248 248 248 248 248 248 231 231 248 248 248 248 248 248 248 248 248 248 248 248 248 248 248 248 248 249 184 179 179 181 147 0 0 0 0 0 0 0 3 12 33 38 215 229 226 226 226 226 226 226 226 226 
226 226 226 226 226 226 226 226 226 226 226 226 226 226 226 226 226 226 226 226 226 226 226 228 152 155 175 186 187 187 185 188 180 178 251 248 248 248 248 248 248 248 248 248 232 232 248 248 248 248 248 248 248 248 248 248 248 248 248 248 248 248 249 246 173 179 179 181 147 0 0 0 0 0 0 0 3 12 157 163 163 223 227 226 226 226 226 226 226 226 
226 226 226 226 226 226 226 226 226 226 226 226 226 226 226 226 226 226 226 226 226 226 228 225 146 146 178 185 185 185 186 186 187 179 245 249 248 248 248 248 248 248 248 248 233 233 248 248 248 248 248 248 248 248 248 248 248 248 248 248 248 248 250 243 173 182 182 182 130 0 0 0 0 0 0 0 2 17 180 180 169 216 229 226 226 226 226 226 226 226 
226 226 226 226 226 226 226 226 226 226 226 226 226 226 226 226 226 226 226 228 230 230 224 141 141 174 183 185 185 186 186 185 185 183 175 251 248 248 248 248 248 248 248 248 248 248 248 248 248 248 248 248 248 248 248 248 248 248 248 248 248 248 250 240 173 182 182 178 133 3 0 0 0 0 0 0 8 176 187 187 169 216 229 226 226 226 226 226 226 226 
226 226 226 226 226 226 226 226 226 226 226 226 226 226 226 226 227 228 228 218 149 143 143 141 171 180 184 185 185 186 186 185 184 186 175 171 250 248 248 248 248 248 248 248 248 248 248 248 248 248 248 248 248 248 248 248 248 248 248 248 248 248 202 202 172 182 182 167 142 113 5 0 0 0 2 12 154 179 187 187 177 216 228 226 226 226 226 226 226 226 
226 226 226 226 226 226 226 226 226 226 226 226 226 226 226 227 223 165 164 164 149 143 166 174 179 183 184 185 186 186 185 185 184 184 186 171 248 249 248 248 248 248 248 248 248 248 248 248 248 248 248 248 248 248 248 248 248 248 248 248 249 245 197 197 167 179 179 149 133 133 118 104 30 30 123 148 168 178 183 183 183 178 228 226 226 226 226 226 226 226 
226 226 226 226 226 226 226 226 226 226 226 226 226 226 227 226 153 153 176 177 178 178 180 181 182 183 183 184 186 186 185 185 184 184 187 181 155 250 248 248 248 248 248 248 248 248 248 248 248 248 248 248 248 248 248 248 248 248 248 248 249 243 199 199 161 161 174 155 155 145 137 137 137 138 141 169 181 184 184 186 186 177 223 228 226 226 226 226 226 226 
226 226 226 226 226 226 226 226 226 226 226 226 226 226 227 224 166 166 182 183 183 185 185 184 184 183 183 187 184 184 184 185 185 184 185 187 155 243 250 248 248 248 248 248 248 248 248 248 248 248 248 248 248 248 248 248 248 248 248 248 249 244 199 199 161 161 163 159 159 156 149 137 137 138 169 179 185 185 184 187 187 185 178 228 227 226 226 226 226 226 
226 226 226 226 226 226 226 226 226 226 226 226 226 226 227 223 166 179 184 184 187 187 185 185 185 184 185 185 185 184 184 184 185 186 186 187 183 174 251 248 248 248 248 248 248 248 248 248 248 248 248 248 248 248 248 248 248 248 248 248 249 246 201 201 129 129 161 159 159 167 149 149 169 173 177 177 184 184 185 187 187 186 178 175 228 228 226 226 226 226 
226 226 226 226 226 226 226 226 226 226 226 226 226 226 228 220 165 179 184 184 187 187 185 186 186 186 185 185 185 185 185 184 185 186 185 185 187 174 242 249 248 248 248 248 248 248 248 248 248 248 248 248 248 248 248 248 248 248 248 248 249 250 201 201 129 129 161 173 173 176 175 176 177 178 178 184 184 184 185 184 185 185 187 179 179 222 227 226 226 226 
226 226 226 226 226 226 226 226 226 226 226 226 226 226 227 224 153 177 184 185 185 186 186 186 186 187 187 187 186 185 185 186 184 185 185 185 187 186 174 248 250 248 248 248 248 248 248 248 248 248 248 248 248 248 248 248 248 248 248 248 249 250 229 123 120 150 164 176 176 176 181 180 177 178 178 185 185 185 185 184 185 186 186 187 186 177 223 227 226 226 
226 226 226 226 226 226 226 226 226 226 226 226 226 226 226 229 153 153 183 185 185 186 186 184 184 187 187 185 185 185 185 186 184 185 184 184 184 185 182 169 250 249 248 248 248 248 248 248 248 248 248 248 248 248 248 248 248 248 248 248 250 245 28 28 126 150 169 176 176 186 186 180 184 185 186 186 185 185 185 185 185 186 186 186 187 184 184 226 227 226 
226 226 226 226 226 226 226 226 226 226 226 226 226 226 226 229 155 155 181 185 186 186 184 185 185 187 187 185 185 184 185 185 186 186 184 184 184 183 185 169 169 250 248 248 248 248 248 248 248 248 248 248 248 248 248 248 248 248 249 251 244 14 18 18 130 157 171 179 185 186 186 186 185 185 186 186 185 185 185 185 185 185 186 186 186 186 184 222 227 226 
226 226 226 226 226 226 226 226 226 226 226 226 226 226 226 229 157 157 179 184 185 186 185 185 185 185 186 185 185 184 186 186 186 186 184 184 184 183 185 184 163 248 250 248 248 248 248 248 248 248 248 248 248 248 248 248 249 252 252 230 9 0 0 18 130 157 171 181 185 185 185 186 185 185 185 186 186 185 185 185 186 186 186 185 186 186 182 219 228 226 
226 226 226 226 226 226 226 226 226 226 226 226 226 226 226 229 157 159 178 185 185 186 185 185 186 185 185 185 185 187 186 186 185 185 185 184 184 183 182 180 163 132 251 250 249 248 248 248 248 248 248 248 249 250 251 252 252 242 22 0 0 0 0 21 134 156 170 181 185 185 186 186 185 185 186 186 185 185 185 186 186 186 186 186 185 172 169 225 227 226 
226 226 226 226 226 226 226 226 226 226 226 226 226 226 227 228 152 152 180 185 185 185 185 185 185 185 185 185 186 187 185 185 185 185 186 184 184 183 180 173 161 132 91 242 252 252 252 252 252 252 252 252 252 249 242 225 26 5 0 0 0 0 0 23 138 156 156 183 186 186 186 186 185 185 186 186 184 184 186 186 186 186 185 181 176 172 225 227 226 226 
226 226 226 226 226 226 226 226 226 226 226 226 226 226 227 220 152 152 178 182 183 184 184 184 185 185 185 186 185 187 187 185 185 185 186 185 185 185 180 173 160 137 33 33 36 215 225 228 228 223 213 200 43 22 6 0 0 0 0 0 0 0 2 28 138 157 157 184 186 186 184 186 186 186 185 185 184 184 186 186 184 178 175 175 225 228 227 226 226 226 
226 226 226 226 226 226 226 226 226 226 226 226 226 226 227 212 152 152 160 171 174 178 180 181 181 184 186 186 185 187 187 186 186 184 184 186 186 185 182 174 160 133 33 5 0 0 2 6 5 2 0 0 0 0 0 0 0 0 0 0 0 0 5 96 138 157 157 184 186 186 185 186 186 186 185 185 184 184 184 178 166 166 226 228 227 226 226 226 226 226 
226 226 226 226 226 226 226 226 226 226 226 226 226 226 227 225 148 130 130 153 153 163 166 148 152 152 178 180 182 185 186 186 184 186 186 185 186 186 183 172 155 121 94 5 0 0 0 0 0 0 0 0 0 0 0 0 0 0 0 0 0 0 6 90 124 142 142 182 186 186 185 185 184 184 184 183 180 176 160 160 226 228 227 226 226 226 226 226 226 226 
226 226 226 226 226 226 226 226 226 226 226 226 226 226 226 228 224 130 130 124 132 119 119 122 152 152 153 164 168 168 178 182 184 186 186 185 185 184 177 123 107 107 94 7 0 0 0 0 0 0 0 0 0 0 0 0 0 0 0 0 0 0 6 90 124 142 142 142 180 182 181 179 179 176 173 169 160 125 139 229 229 226 226 226 226 226 226 226 226 226 
226 226 226 226 226 226 226 226 226 226 226 226 226 226 226 226 227 227 223 129 123 119 119 122 124 130 130 132 145 145 149 170 175 175 177 177 175 170 120 107 107 107 25 7 0 0 1 4 10 13 13 13 13 13 13 13 13 12 12 18 45 20 30 68 103 118 118 128 145 148 148 143 143 137 151 112 126 125 229 227 226 226 226 226 226 226 226 226 226 226 
226 226 226 226 226 226 226 226 226 226 226 226 226 226 226 226 226 226 227 231 231 223 223 213 114 104 104 104 111 120 131 131 118 125 127 127 120 113 113 107 107 91 25 25 28 49 200 213 221 221 220 220 220 220 220 220 220 220 222 222 233 233 45 58 103 118 117 117 121 148 129 129 143 137 112 112 225 229 227 226 226 226 226 226 226 226 226 226 226 226 
226 226 226 226 226 226 226 226 226 226 226 226 226 226 226 226 226 226 226 226 226 227 228 230 230 223 215 116 111 107 107 101 96 125 127 127 120 113 113 101 87 69 62 221 233 233 231 230 229 229 229 229 229 229 229 229 229 229 229 227 227 229 225 58 58 108 117 117 121 110 129 129 124 103 103 227 229 226 226 226 226 226 226 226 226 226 226 226 226 226 
226 226 226 226 226 226 226 226 226 226 226 226 226 226 226 226 226 226 226 226 226 226 226 226 226 228 229 230 230 230 221 108 96 96 85 85 85 84 76 67 62 218 233 229 227 226 226 226 226 226 226 226 226 226 226 226 226 226 226 226 226 226 229 214 56 69 77 107 110 110 89 87 95 97 226 228 226 226 226 226 226 226 226 226 226 226 226 226 226 226 
226 226 226 226 226 226 226 226 226 226 226 226 226 226 226 226 226 226 226 226 226 226 226 226 226 226 226 226 226 226 229 231 227 210 85 85 85 84 76 67 217 230 226 226 226 226 226 226 226 226 226 226 226 226 226 226 226 226 226 226 226 226 227 229 220 69 77 90 90 93 89 87 219 229 227 226 226 226 226 226 226 226 226 226 226 226 226 226 226 226 
226 226 226 226 226 226 226 226 226 226 226 226 226 226 226 226 226 226 226 226 226 226 226 226 226 226 226 226 226 226 226 226 227 229 228 224 222 222 223 227 228 226 226 226 226 226 226 226 226 226 226 226 226 226 226 226 226 226 226 226 226 226 226 226 230 230 225 222 221 221 224 229 229 226 226 226 226 226 226 226 226 226 226 226 226 226 226 226 226 226 
226 226 226 226 226 226 226 226 226 226 226 226 226 226 226 226 226 226 226 226 226 226 226 226 226 226 226 226 226 226 226 226 226 226 230 230 230 230 231 231 226 226 226 226 226 226 226 226 226 226 226 226 226 226 226 226 226 226 226 226 226 226 226 226 226 227 231 230 230 230 231 230 226 226 226 226 226 226 226 226 226 226 226 226 226 226 226 226 226 226 
