P2
90 90
255
226 226 226 226 226 226 226 226 226 226 226 226 226 226 226 226 226 226 226 226 226 226 226 226 226 226 226 226 226 226 226 226 226 226 226 226 226 226 226 226 226 226 226 226 226 226 226 226 226 228 229 229 228 227 226 226 226 226 226 226 226 226 226 226 226 226 226 226 226 226 226 226 226 226 226 226 226 226 226 226 226 226 226 226 226 226 226 226 226 226 
226 226 226 226 226 226 226 226 226 226 226 226 226 226 226 226 226 226 226 226 226 226 226 226 226 226 226 226 226 226 226 226 226 226 226 226 226 226 226 226 226 226 226 226 226 226 226 226 226 228 229 229 228 227 226 226 226 226 226 226 226 226 226 226 226 226 226 226 226 226 226 226 226 226 226 226 226 226 226 226 226 226 226 226 226 226 226 226 226 226 
226 226 226 226 226 226 226 226 226 226 226 226 226 226 226 226 226 226 226 226 226 226 226 226 226 226 226 226 226 226 226 226 226 226 226 226 226 226 226 226 226 226 226 226 226 226 228 232 230 222 218 218 221 228 231 229 227 226 226 226 226 226 226 226 226 226 226 226 226 226 226 226 226 226 226 226 226 226 226 226 226 226 226 226 226 226 226 226 226 226 
226 226 226 226 226 226 226 226 226 226 226 226 226 226 226 226 226 226 226 226 226 226 226 226 226 226 226 226 226 226 226 226 226 226 226 226 226 226 226 226 226 226 226 226 230 230 222 202 22 8 8 8 8 18 203 214 227 231 227 226 226 226 226 226 226 226 226 226 226 226 226 226 226 226 226 226 226 226 226 226 226 226 226 226 226 226 226 226 226 226 
226 226 226 226 226 226 226 226 226 226 226 226 226 226 226 226 226 226 226 226 226 226 226 226 226 226 226 226 226 226 226 226 226 226 226 226 226 226 226 226 226 226 227 228 215 20 5 0 0 0 0 0 0 0 0 3 12 209 228 228 226 226 226 226 226 226 226 226 226 226 226 226 226 226 226 226 226 226 226 226 226 226 226 226 226 226 226 226 226 226 
226 226 226 226 226 226 226 226 226 226 226 226 226 226 226 226 226 226 226 226 226 226 226 226 226 226 226 226 226 226 226 226 226 226 226 226 226 226 226 226 225 227 231 27 0 0 0 0 0 0 0 0 0 0 0 3 10 10 14 217 232 227 225 226 226 226 226 226 226 226 226 226 226 226 226 226 226 226 226 226 226 226 226 226 226 226 226 226 226 226 
226 226 226 226 226 226 226 226 226 226 226 226 226 226 226 226 226 226 226 226 226 226 226 226 226 226 226 226 226 226 226 226 226 226 226 226 226 226 226 226 228 230 28 0 0 0 0 0 0 0 0 0 0 0 0 4 10 10 10 10 27 225 229 225 226 226 226 226 226 226 226 226 226 226 226 226 226 226 226 226 226 226 226 226 226 226 226 226 226 226 
226 226 226 226 226 226 226 226 226 226 226 226 226 226 226 226 226 226 226 226 226 226 226 226 226 226 226 226 226 226 226 226 226 226 226 226 226 226 226 226 228 28 0 0 0 0 0 0 0 0 0 0 0 0 0 14 98 98 10 6 6 17 229 226 226 226 226 226 226 226 226 226 226 226 226 226 226 226 226 226 226 226 226 226 226 226 226 226 226 226 
226 226 226 226 226 226 226 226 226 226 226 226 226 226 226 226 226 226 226 226 226 226 226 226 226 226 226 226 226 226 226 226 226 226 226 226 226 226 226 231 213 0 0 0 0 0 0 0 0 0 0 0 0 0 1 20 104 104 41 6 2 2 212 229 226 226 226 226 226 226 226 226 226 226 226 226 226 226 226 226 226 226 226 226 226 226 226 226 226 226 
226 226 226 226 226 226 226 226 226 226 226 226 226 226 226 226 226 226 226 226 226 226 226 226 226 226 226 226 226 226 226 226 226 226 226 226 226 226 226 231 16 0 0 0 0 0 0 0 0 0 0 0 0 0 1 23 104 104 23 12 3 3 3 224 228 226 226 226 226 226 226 226 226 226 226 226 226 226 226 226 226 226 226 226 226 226 226 226 226 226 
226 226 226 226 226 226 226 226 226 226 226 226 226 226 226 226 226 226 226 226 226 226 226 226 226 226 226 226 226 226 226 226 226 226 226 226 226 226 229 212 1 0 0 0 0 0 0 0 0 0 0 0 0 0 2 12 22 8 4 2 0 0 0 209 232 226 226 226 226 226 226 226 226 226 226 226 226 226 226 226 226 226 226 226 226 226 226 226 226 226 
226 226 226 226 226 226 226 226 226 226 226 226 226 226 226 226 226 226 226 226 226 226 226 226 226 226 226 226 226 226 226 226 226 226 226 226 226 226 233 188 0 0 0 0 0 0 0 0 0 0 0 0 0 0 0 2 0 0 0 0 0 0 0 6 225 230 226 226 226 226 226 226 226 226 226 226 226 226 226 226 226 226 226 226 226 226 226 226 226 226 
226 226 226 226 226 226 226 226 226 226 226 226 226 226 226 226 226 226 226 226 226 226 226 226 226 226 226 226 226 226 226 226 226 226 226 226 226 226 229 46 0 0 0 0 0 0 0 0 0 0 0 0 0 0 0 0 0 0 0 0 0 0 0 0 32 228 226 226 226 226 226 226 226 226 226 226 226 226 226 226 226 226 226 226 226 226 226 226 226 226 
226 226 226 226 226 226 226 226 226 226 226 226 226 226 226 226 226 226 226 226 226 226 226 226 226 226 226 226 226 226 226 226 226 226 226 226 226 227 226 35 0 0 0 0 1 1 0 0 0 0 0 0 0 0 0 0 3 1 0 0 0 0 0 0 18 226 227 226 226 226 226 226 226 226 226 226 226 226 226 226 226 226 226 226 226 226 226 226 226 226 
226 226 226 226 226 226 226 226 226 226 226 226 226 226 226 226 226 226 226 226 226 226 226 226 226 226 226 226 226 226 226 226 226 226 226 226 226 228 226 34 0 0 0 0 3 25 3 0 0 0 0 0 0 0 3 11 11 34 4 0 0 0 0 0 15 226 228 226 226 226 226 226 226 226 226 226 226 226 226 226 226 226 226 226 226 226 226 226 226 226 
226 226 226 226 226 226 226 226 226 226 226 226 226 226 226 226 226 226 226 226 226 226 226 226 226 226 226 226 226 226 226 226 226 226 226 226 226 228 225 33 0 0 2 13 29 25 25 2 0 0 0 0 4 24 155 155 48 34 34 1 0 0 0 0 7 217 229 226 226 226 226 226 226 226 226 226 226 226 226 226 226 226 226 226 226 226 226 226 226 226 
226 226 226 226 226 226 226 226 226 226 226 226 226 226 226 226 226 226 226 226 226 226 226 226 226 226 226 226 226 226 226 226 226 226 226 226 226 228 225 33 0 0 21 199 199 47 20 2 0 0 0 5 39 206 213 213 213 46 15 3 0 0 0 0 2 203 231 226 226 226 226 226 226 226 226 226 226 226 226 226 226 226 226 226 226 226 226 226 226 226 
226 226 226 226 226 226 226 226 226 226 226 226 226 226 226 226 226 226 226 226 226 226 226 226 226 226 226 226 226 226 226 226 226 226 226 226 226 228 226 34 9 9 181 199 199 210 32 2 0 0 0 33 228 228 213 213 213 207 16 0 0 0 0 0 0 191 232 226 226 226 226 226 226 226 226 226 226 226 226 226 226 226 226 226 226 226 226 226 226 226 
226 226 226 226 226 226 226 226 226 226 226 226 226 226 226 226 226 226 226 226 226 226 226 226 226 226 226 226 226 226 226 226 226 226 226 226 226 227 227 35 28 28 181 181 210 210 213 6 0 0 7 221 228 228 80 202 207 207 40 0 0 0 0 0 0 184 233 226 226 226 226 226 226 226 226 226 226 226 226 226 226 226 226 226 226 226 226 226 226 226 
226 226 226 226 226 226 226 226 226 226 226 226 226 226 226 226 226 226 226 226 226 226 226 226 226 226 226 226 226 226 226 226 226 226 226 226 226 226 227 41 41 113 113 32 92 92 213 28 4 4 24 212 212 12 12 23 57 222 222 6 0 0 0 0 0 184 233 226 226 226 226 226 226 226 226 226 226 226 226 226 226 226 226 226 226 226 226 226 226 226 
226 226 226 226 226 226 226 226 226 226 226 226 226 226 226 226 226 226 226 226 226 226 226 226 226 226 226 226 226 226 226 226 226 226 226 226 226 226 232 55 55 105 105 25 62 62 145 54 9 9 24 212 212 1 1 4 13 222 222 19 0 0 0 0 0 184 233 226 226 226 226 226 226 226 226 226 226 226 226 226 226 226 226 226 226 226 226 226 226 226 
226 226 226 226 226 226 226 226 226 226 226 226 226 226 226 226 226 226 226 226 226 226 226 226 226 226 226 226 226 226 226 226 226 226 226 226 226 226 234 184 35 105 105 16 16 32 145 145 24 34 34 152 152 1 0 0 13 215 215 25 0 0 0 0 0 184 233 226 226 226 226 226 226 226 226 226 226 226 226 226 226 226 226 226 226 226 226 226 226 226 
226 226 226 226 226 226 226 226 226 226 226 226 226 226 226 226 226 226 226 226 226 226 226 226 226 226 226 226 226 226 226 226 226 226 226 226 226 226 234 182 11 11 106 16 16 32 170 181 181 177 157 157 152 7 0 0 8 215 215 14 0 0 0 0 0 52 230 226 226 226 226 226 226 226 226 226 226 226 226 226 226 226 226 226 226 226 226 226 226 226 
226 226 226 226 226 226 226 226 226 226 226 226 226 226 226 226 226 226 226 226 226 226 226 226 226 226 226 226 226 226 226 226 226 226 226 226 226 226 232 190 4 4 142 142 136 171 184 189 189 188 182 186 186 179 33 33 200 200 213 2 0 0 0 0 0 37 227 226 226 226 226 226 226 226 226 226 226 226 226 226 226 226 226 226 226 226 226 226 226 226 
226 226 226 226 226 226 226 226 226 226 226 226 226 226 226 226 226 226 227 227 227 227 227 227 227 226 226 226 226 226 226 226 226 226 226 226 226 226 231 202 4 4 39 157 172 182 186 188 188 188 188 188 188 188 185 180 181 181 46 2 0 0 0 0 0 21 227 227 226 226 226 226 226 226 226 226 226 226 226 226 226 226 226 226 226 226 226 226 226 226 
226 226 226 226 226 226 226 226 226 226 226 226 226 226 226 226 210 209 211 211 211 211 211 211 211 210 212 225 225 226 226 226 226 226 226 226 226 226 231 205 8 8 125 157 176 181 181 188 188 188 187 186 187 188 181 178 181 181 158 3 0 0 0 0 0 12 224 228 226 226 226 226 226 226 226 226 226 226 226 226 226 226 226 226 226 226 226 226 226 226 
226 226 226 226 226 226 226 226 226 226 226 226 226 226 225 210 211 211 211 211 211 214 214 211 211 212 212 212 221 224 225 226 226 226 226 226 226 226 231 205 22 22 148 166 176 181 181 188 187 187 187 186 187 184 181 178 154 154 155 9 0 0 0 0 0 10 223 229 226 226 226 226 226 226 226 226 226 226 226 226 226 226 226 226 226 226 226 226 226 226 
226 226 226 226 226 226 226 226 226 226 226 226 226 197 195 210 211 211 211 216 215 214 214 215 215 212 212 212 201 195 195 226 226 226 226 226 226 226 231 205 28 28 148 166 178 183 183 188 187 187 187 186 186 184 150 153 153 155 155 4 0 0 0 0 0 3 217 230 226 226 226 226 226 226 226 226 226 226 226 226 226 226 226 226 226 226 226 226 226 226 
226 226 226 226 226 226 226 226 226 226 226 226 226 197 197 196 196 196 197 198 198 196 196 197 198 195 196 196 197 195 195 227 226 226 226 226 226 226 231 204 12 12 41 166 182 186 187 187 186 186 186 183 175 139 150 154 154 155 125 3 3 5 8 0 0 3 21 231 226 226 226 226 226 226 226 226 226 226 226 226 226 226 226 226 226 226 226 226 226 226 
226 226 226 226 226 226 226 226 226 226 226 226 226 226 204 196 196 196 197 198 198 196 196 197 198 195 196 196 197 201 224 226 226 226 226 226 226 226 230 209 12 12 41 107 174 185 186 186 183 178 122 122 130 145 150 154 154 151 125 3 3 14 115 115 7 6 6 220 229 226 226 226 226 226 226 226 226 226 226 226 226 226 226 226 226 226 226 226 226 226 
226 226 226 226 226 226 226 226 226 226 226 226 226 226 222 195 195 176 176 190 174 174 174 188 177 174 174 195 195 201 227 226 226 226 226 226 226 226 228 223 32 32 166 107 108 108 147 147 148 141 138 140 144 143 143 150 196 196 196 14 3 3 115 121 121 6 6 23 231 226 226 226 226 226 226 226 226 226 226 226 226 226 226 226 226 226 226 226 226 226 
226 226 226 226 226 226 226 226 226 226 226 226 226 226 223 190 176 172 173 173 170 168 168 168 173 173 172 176 189 201 227 226 226 226 226 226 226 226 228 223 32 32 188 188 108 108 147 147 148 141 138 140 144 143 143 182 196 196 196 187 3 3 9 121 121 10 2 2 219 229 226 226 226 226 226 226 226 226 226 226 226 226 226 226 226 226 226 226 226 226 
226 226 226 226 226 226 226 226 226 226 226 226 226 226 225 217 178 172 173 173 170 166 166 167 173 173 172 176 214 224 226 226 226 226 226 226 226 225 231 212 28 28 188 188 192 112 112 117 117 116 116 132 132 185 185 204 243 244 244 232 10 0 0 6 7 0 0 0 25 233 226 226 226 226 226 226 226 226 226 226 226 226 226 226 226 226 226 226 226 226 
226 226 226 226 226 226 226 226 226 226 226 226 226 226 226 217 178 172 172 171 170 166 166 167 171 171 172 177 220 226 226 226 226 226 226 226 226 227 227 11 11 22 197 197 186 186 117 117 117 116 116 182 195 185 185 244 249 249 249 250 41 0 0 0 0 0 0 0 4 217 228 226 226 226 226 226 226 226 226 226 226 226 226 226 226 226 226 226 226 226 
226 226 226 226 226 226 226 226 226 226 226 226 226 226 226 220 177 168 168 167 164 164 164 165 166 167 167 175 220 226 226 226 226 226 226 226 227 233 32 2 2 26 242 242 186 186 186 185 184 184 183 189 195 195 243 248 248 248 248 250 243 10 0 0 0 0 0 0 0 11 226 227 226 226 226 226 226 226 226 226 226 226 226 226 226 226 226 226 226 226 
226 226 226 226 226 226 226 226 226 226 226 226 226 226 226 223 164 159 149 149 149 149 150 150 150 149 157 161 221 227 226 226 226 226 226 227 230 214 8 2 2 223 250 250 244 186 186 185 184 184 183 189 242 247 248 248 248 248 248 248 251 213 0 0 0 0 0 0 0 0 204 232 226 226 226 226 226 226 226 226 226 226 226 226 226 226 226 226 226 226 
226 226 226 226 226 226 226 226 226 226 226 226 226 226 227 223 109 109 143 149 149 144 144 144 144 144 106 106 227 227 226 226 226 226 230 226 18 1 1 8 29 247 250 248 248 192 186 186 184 184 192 247 248 248 248 248 248 248 248 248 250 242 6 0 0 0 0 0 0 0 6 223 228 225 226 226 226 226 226 226 226 226 226 226 226 226 226 226 226 226 
226 226 226 226 226 226 226 226 226 226 226 226 226 226 226 231 109 109 142 142 142 142 143 142 142 144 106 106 227 230 230 229 230 231 222 13 0 0 1 13 245 249 248 248 248 248 243 196 235 243 248 248 248 248 248 248 248 248 248 248 248 251 30 0 0 0 0 0 0 0 0 17 233 227 225 226 226 226 226 226 226 226 226 226 226 226 226 226 226 226 
226 226 226 226 226 226 226 226 226 226 226 226 226 226 226 230 115 115 143 142 142 142 143 142 142 145 100 100 232 232 220 217 215 22 0 0 0 0 1 222 251 248 248 248 248 248 248 247 248 248 248 248 248 248 248 248 248 248 248 248 248 251 227 1 0 0 0 0 0 0 0 0 26 230 226 226 226 226 226 226 226 226 226 226 226 226 226 226 226 226 
226 226 226 226 226 226 226 226 226 226 226 226 226 226 226 230 119 116 143 143 141 142 142 141 144 144 100 100 70 18 8 7 2 0 0 0 0 0 17 244 249 248 248 248 248 248 248 248 248 248 248 248 248 248 248 248 248 248 248 248 248 251 242 9 0 0 0 0 0 0 0 0 0 31 230 226 226 226 226 226 226 226 226 226 226 226 226 226 226 226 
226 226 226 226 226 226 226 226 226 226 226 226 226 226 226 230 124 118 142 142 141 142 142 141 144 144 126 88 0 0 0 0 0 0 0 0 0 0 45 244 248 248 248 248 248 248 248 248 248 248 248 248 248 248 248 248 248 248 248 248 247 249 241 31 0 0 0 0 0 0 0 0 0 3 223 228 226 226 226 226 226 226 226 226 226 226 226 226 226 226 
226 226 226 226 226 226 226 226 226 226 226 226 226 226 226 230 128 121 137 136 135 134 134 135 135 137 128 85 0 0 0 0 0 0 0 0 0 5 170 239 248 248 247 248 248 247 245 228 228 246 247 248 248 248 247 246 246 246 244 241 236 241 241 213 0 0 0 0 0 0 0 0 0 0 11 230 227 226 226 226 226 226 226 226 226 226 226 226 226 226 
226 226 226 226 226 226 226 226 226 226 226 226 226 226 226 230 128 117 137 136 135 134 134 135 135 137 124 89 0 0 0 0 0 0 0 0 0 20 167 167 222 237 245 248 248 245 229 228 228 243 248 248 248 248 245 236 213 205 198 195 195 192 197 217 12 0 0 1 0 0 0 0 0 0 0 205 231 226 226 226 226 226 226 226 226 226 226 226 226 226 
226 226 226 226 226 226 226 226 226 226 226 226 226 226 226 232 129 115 119 118 118 113 113 117 117 118 118 88 0 0 0 0 0 0 0 0 0 38 167 167 222 245 247 248 248 248 237 237 248 248 248 248 248 248 247 246 213 205 198 195 195 192 193 217 211 1 1 25 6 0 0 0 0 0 0 0 208 229 226 226 226 226 226 226 226 226 226 226 226 226 
226 226 226 226 226 226 226 226 226 226 226 226 226 226 228 213 72 115 119 118 117 112 112 116 117 118 118 82 0 0 0 0 0 0 1 1 3 200 236 247 249 249 248 248 248 248 237 237 248 248 248 248 248 248 248 248 248 248 248 245 239 193 193 202 213 19 3 3 8 22 2 0 0 0 0 0 20 233 226 226 226 226 226 226 226 226 226 226 226 226 
226 226 226 226 226 226 226 226 226 226 226 226 226 230 222 19 19 113 122 118 117 112 112 116 117 120 114 71 3 4 1 0 0 4 12 9 18 238 248 249 248 248 248 248 248 248 248 247 248 248 248 248 248 248 248 248 248 248 248 248 248 246 240 202 210 203 3 0 0 5 22 0 0 0 0 0 3 213 230 226 226 226 226 226 226 226 226 226 226 226 
226 226 226 226 226 226 226 226 226 226 226 226 226 230 36 19 19 91 91 84 83 75 75 84 84 87 87 71 8 11 2 0 0 23 9 9 224 251 248 248 248 248 248 248 248 248 248 248 248 248 248 248 248 248 248 248 248 248 248 248 248 249 249 242 217 217 18 0 0 5 25 25 0 0 0 0 0 15 230 226 226 226 226 226 226 226 226 226 226 226 
226 226 226 226 226 226 226 226 226 226 226 226 226 230 36 24 68 86 82 82 82 75 75 82 82 82 84 72 18 17 1 1 4 9 9 17 249 251 248 248 248 248 248 248 248 248 248 248 248 248 248 248 248 248 248 248 248 248 248 248 248 248 248 248 217 217 216 2 2 22 25 25 2 0 0 0 0 4 218 229 226 226 226 226 226 226 226 226 226 226 
226 226 226 226 226 226 226 226 226 226 226 226 226 230 215 25 60 86 82 82 82 75 75 82 82 82 84 72 32 5 1 1 22 9 9 228 251 248 248 248 248 248 248 248 248 248 248 248 248 248 248 248 248 248 248 248 248 248 248 248 248 248 248 248 248 247 245 16 16 43 32 32 24 0 0 0 0 0 200 232 226 226 226 226 226 226 226 226 226 226 
226 226 226 226 226 226 226 226 226 226 226 226 226 226 228 49 60 79 79 69 69 56 56 70 70 73 73 82 79 0 0 4 19 10 17 249 249 248 248 248 248 248 248 248 248 247 247 248 248 248 248 248 248 248 248 248 248 248 248 248 248 248 248 248 248 249 252 46 13 43 7 7 30 5 0 0 0 0 33 228 226 226 226 226 226 226 226 226 226 226 
226 226 226 226 226 226 226 226 226 226 226 226 226 225 228 227 71 75 75 69 71 61 61 70 70 73 73 48 17 0 0 19 19 10 223 251 248 248 248 248 248 248 248 248 248 242 246 248 248 248 248 248 248 248 248 248 248 248 248 248 248 248 248 248 248 248 252 212 2 0 0 0 7 30 0 0 0 0 8 228 227 226 226 226 226 226 226 226 226 226 
226 226 226 226 226 226 226 226 226 226 226 226 226 226 227 227 57 57 56 59 71 56 56 70 54 54 54 49 49 0 0 1 1 15 247 249 248 248 248 248 248 248 248 248 247 237 246 248 248 248 248 248 248 248 248 248 248 248 248 248 248 248 248 248 248 248 251 226 2 0 0 0 1 22 1 0 0 0 2 211 230 226 226 226 226 226 226 226 226 226 
226 226 226 226 226 226 226 226 226 226 226 226 226 226 227 223 60 60 87 81 68 56 56 67 79 83 66 66 49 0 0 0 1 206 251 248 248 248 248 248 248 248 248 248 245 237 246 248 248 248 248 248 248 248 248 248 248 248 248 248 248 248 248 248 248 248 251 232 9 0 0 0 0 20 3 0 0 0 0 32 232 226 226 226 226 226 226 226 226 226 
226 226 226 226 226 226 226 226 226 226 226 226 226 226 229 207 38 38 87 81 82 68 68 77 79 83 66 66 58 2 0 0 1 229 251 248 248 248 248 248 248 248 248 248 244 234 247 248 248 248 248 248 248 248 248 248 248 248 248 248 248 248 248 248 248 248 250 238 15 0 0 0 0 18 2 0 0 0 0 10 226 227 226 226 226 226 226 226 226 226 
226 226 226 226 226 226 226 226 226 226 226 226 226 226 230 201 38 38 66 82 82 48 48 79 80 71 49 49 51 3 0 0 9 244 250 248 248 248 248 248 248 248 248 248 244 230 247 248 248 248 248 248 248 248 248 248 248 248 248 248 248 248 248 248 248 248 249 248 21 0 0 0 1 14 0 0 0 0 0 5 219 229 226 226 226 226 226 226 226 226 
226 226 226 226 226 226 226 226 226 226 226 226 226 226 227 222 47 47 66 63 69 48 48 65 57 71 71 61 11 0 0 0 26 248 250 248 248 248 248 248 248 248 248 248 229 229 247 248 248 248 248 248 248 248 248 248 248 248 248 248 248 248 248 248 248 248 252 252 30 0 0 0 3 16 0 0 0 0 0 2 206 230 226 226 226 226 226 226 226 226 
226 226 226 226 226 226 226 226 226 226 226 226 226 226 226 227 224 212 72 72 84 84 66 82 68 71 71 61 0 0 0 0 42 248 250 248 248 248 248 248 248 248 248 249 230 230 248 248 248 248 248 248 248 248 248 248 248 248 248 248 248 248 248 248 248 248 251 251 33 0 0 0 18 18 0 0 0 0 0 0 188 231 226 226 226 226 226 226 226 226 
226 226 226 226 226 226 226 226 226 226 226 226 226 226 226 226 227 228 226 226 226 226 226 226 230 203 5 1 0 0 0 0 46 247 249 248 248 248 248 248 248 248 248 248 232 232 248 248 248 248 248 248 248 248 248 248 248 248 248 248 248 248 248 248 248 248 251 251 33 0 0 0 18 18 0 0 0 0 0 0 39 232 226 226 226 226 226 226 226 226 
226 226 226 226 226 226 226 226 226 226 226 226 226 226 226 226 226 226 226 227 227 227 227 227 234 203 0 0 1 4 0 0 191 247 249 248 248 248 248 248 248 248 248 248 233 233 248 248 248 248 248 248 248 248 248 248 248 248 248 248 248 248 248 248 248 248 248 252 43 0 0 0 17 1 0 0 0 0 0 0 39 232 226 226 226 226 226 226 226 226 
226 226 226 226 226 226 226 226 226 226 226 226 226 226 226 226 226 226 226 226 226 226 226 226 234 53 0 0 0 1 0 0 203 250 248 248 248 248 248 248 248 248 248 248 233 233 248 248 248 248 248 248 248 248 248 248 248 248 248 248 248 248 248 248 248 248 248 252 47 0 0 3 20 1 0 0 0 0 0 0 48 231 226 226 226 226 226 226 226 226 
226 226 226 226 226 226 226 226 226 226 226 226 226 226 226 226 226 226 226 226 226 226 226 226 233 53 0 0 0 1 0 0 208 250 248 248 248 248 248 248 248 248 248 248 228 228 248 248 248 248 248 248 248 248 248 248 248 248 248 248 248 248 248 248 248 248 248 252 32 3 3 20 9 14 16 3 0 0 0 2 188 231 226 226 226 226 226 226 226 226 
226 226 226 226 226 226 226 226 226 226 226 226 226 226 226 226 226 226 226 226 226 226 226 226 231 193 15 15 157 28 3 3 208 252 248 248 248 248 248 248 248 248 248 248 228 228 248 248 248 248 248 248 248 248 248 248 248 248 248 248 248 248 248 248 248 249 251 248 21 7 7 2 1 1 16 16 16 9 2 2 199 230 226 226 226 226 226 226 226 226 
226 226 226 226 226 226 226 226 226 226 226 226 226 226 226 226 226 226 226 226 226 226 226 226 228 207 164 188 193 193 179 69 69 250 249 248 248 248 248 248 248 248 248 248 231 231 248 248 248 248 248 248 248 248 248 248 248 248 248 248 248 248 248 248 248 244 242 190 21 1 0 0 0 0 0 0 3 33 8 8 215 229 226 226 226 226 226 226 226 226 
226 226 226 226 226 226 226 226 226 226 226 226 226 226 226 226 226 226 226 226 226 226 226 226 228 165 177 186 186 186 188 174 69 243 250 248 248 248 248 248 248 248 248 248 231 231 248 248 248 248 248 248 248 248 248 248 248 248 248 248 248 248 248 248 184 178 178 180 146 0 0 0 0 0 0 0 3 11 33 37 215 229 226 226 226 226 226 226 226 226 
226 226 226 226 226 226 226 226 226 226 226 226 226 226 226 226 226 226 226 226 226 226 226 228 151 155 174 185 186 186 185 187 180 177 251 248 248 248 248 248 248 248 248 248 231 231 247 248 248 248 248 248 248 248 248 248 248 248 248 248 248 248 248 245 172 178 178 180 146 0 0 0 0 0 0 0 3 11 156 162 162 222 227 226 226 226 226 226 226 226 
226 226 226 226 226 226 226 226 226 226 226 226 226 226 226 226 226 226 226 226 226 226 228 225 145 145 178 185 185 184 185 185 187 178 244 249 248 248 248 248 248 248 248 248 233 233 247 248 248 248 248 248 248 248 248 248 248 248 248 248 248 248 250 242 172 182 182 181 130 0 0 0 0 0 0 0 2 16 180 180 169 215 228 226 226 226 226 226 226 226 
226 226 226 226 226 226 226 226 226 226 226 226 226 226 226 226 226 226 226 228 229 229 224 140 140 174 182 184 184 185 185 185 185 182 174 250 248 248 248 248 248 248 248 248 248 248 248 248 248 248 248 248 248 248 248 248 248 248 248 248 248 248 250 239 173 181 181 177 133 2 0 0 0 0 0 0 7 176 186 186 169 216 228 226 226 226 226 226 226 226 
226 226 226 226 226 226 226 226 226 226 226 226 226 226 226 226 227 227 227 218 148 142 142 140 170 180 184 184 184 185 185 185 183 186 174 171 250 248 248 248 248 248 248 248 248 248 248 248 248 248 248 248 248 248 248 248 248 248 248 248 248 247 202 202 172 181 181 167 141 113 4 0 0 0 1 11 154 178 186 186 176 216 228 226 226 226 226 226 226 226 
226 226 226 226 226 226 226 226 226 226 226 226 226 226 226 226 223 164 164 164 148 142 166 173 178 182 184 185 186 186 184 184 183 184 185 171 247 249 248 248 248 248 248 248 248 248 248 248 248 248 248 248 248 248 248 248 248 248 248 248 248 245 197 197 166 178 178 148 133 133 118 104 29 29 123 147 168 178 182 182 183 178 228 226 226 226 226 226 226 226 
226 226 226 226 226 226 226 226 226 226 226 226 226 226 226 226 152 152 176 177 177 177 180 180 182 183 183 184 186 186 184 184 183 183 186 180 155 250 248 248 248 248 248 248 248 248 248 248 248 248 248 248 248 248 248 248 248 248 248 248 249 243 199 199 160 160 173 154 154 144 136 137 137 137 140 168 180 183 184 186 186 177 222 227 226 226 226 226 226 226 
226 226 226 226 226 226 226 226 226 226 226 226 226 226 227 223 166 166 182 182 182 184 184 183 183 183 183 186 184 183 183 185 185 183 184 187 155 242 249 248 248 248 248 248 248 248 248 248 248 248 248 248 248 248 248 248 248 248 248 248 249 244 199 199 160 160 163 158 158 156 149 137 137 137 168 179 185 185 184 186 186 185 177 227 226 226 226 226 226 226 
226 226 226 226 226 226 226 226 226 226 226 226 226 226 227 222 166 179 184 184 187 187 185 184 184 183 185 185 185 183 184 184 185 185 185 187 183 174 251 248 248 248 248 248 248 248 248 248 248 248 248 248 248 248 248 248 248 248 248 248 248 246 201 201 128 128 160 158 158 167 149 149 168 172 176 176 184 184 184 186 186 186 177 174 227 227 226 226 226 226 
226 226 226 226 226 226 226 226 226 226 226 226 226 226 227 220 164 179 184 184 187 187 184 185 185 185 185 185 185 185 185 184 184 185 185 185 187 174 241 249 248 248 248 248 248 248 248 248 248 248 248 248 248 248 248 248 248 248 248 248 248 249 200 200 128 128 160 172 172 175 175 175 176 177 177 183 184 184 184 183 185 185 187 179 179 222 226 226 226 226 
226 226 226 226 226 226 226 226 226 226 226 226 226 226 227 224 152 176 183 185 185 186 186 185 185 186 186 186 186 185 185 186 184 185 185 185 187 185 174 247 250 248 248 248 248 248 248 248 248 248 248 248 248 248 248 248 248 248 248 248 248 249 229 123 119 149 164 176 176 175 180 179 176 177 177 185 185 185 185 183 185 186 186 186 185 176 222 227 226 226 
226 226 226 226 226 226 226 226 226 226 226 226 226 226 226 229 152 152 183 185 185 186 186 183 183 186 186 185 185 185 185 186 184 185 184 184 183 185 181 169 250 248 248 248 248 248 248 248 248 248 248 248 248 248 248 248 248 248 248 248 250 244 27 27 125 149 169 176 176 186 186 179 184 185 185 185 185 185 184 185 185 186 186 186 186 184 184 225 226 226 
226 226 226 226 226 226 226 226 226 226 226 226 226 226 226 229 155 155 181 184 186 186 184 184 184 186 186 185 185 184 185 185 186 186 184 184 183 183 184 169 169 250 248 248 248 248 248 248 248 248 248 248 248 248 248 248 248 248 249 251 244 13 18 18 129 156 171 178 185 186 186 185 185 185 185 185 185 185 184 185 185 185 185 186 185 185 184 221 227 227 
226 226 226 226 226 226 226 226 226 226 226 226 226 226 226 228 156 156 178 183 184 185 185 184 184 184 185 185 185 184 186 186 186 186 184 184 184 182 184 184 162 247 249 248 248 248 248 248 248 248 248 248 248 248 248 248 248 251 251 229 8 0 0 18 129 157 171 180 184 184 185 185 185 185 184 186 186 185 184 184 185 185 186 185 185 185 182 218 227 227 
226 226 226 226 226 226 226 226 226 226 226 226 226 226 226 228 157 159 178 185 185 185 185 185 185 184 185 185 185 186 186 186 185 185 185 183 183 183 182 180 162 131 250 250 248 248 248 248 248 248 248 248 248 249 251 251 251 242 22 0 0 0 0 21 134 155 170 180 184 184 186 185 184 184 185 185 184 184 185 186 186 185 185 186 185 172 168 225 226 226 
226 226 226 226 226 226 226 226 226 226 226 226 226 226 226 227 151 151 180 185 185 185 185 185 185 184 185 185 185 186 184 184 185 185 185 183 183 183 180 173 160 131 90 242 252 252 251 251 251 251 251 252 252 249 242 225 26 4 0 0 0 0 0 22 137 155 155 182 185 185 186 185 184 184 185 185 184 184 185 186 186 186 185 181 175 172 225 227 226 226 
226 226 226 226 226 226 226 226 226 226 226 226 226 226 227 219 151 151 177 182 182 183 184 184 185 185 185 185 185 186 186 184 185 185 186 184 184 184 180 173 160 137 32 32 35 214 224 227 227 223 213 199 43 22 6 0 0 0 0 0 0 0 2 27 137 157 157 183 185 185 184 185 185 185 185 185 184 184 185 185 183 178 174 174 224 227 226 226 226 226 
226 226 226 226 226 226 226 226 226 226 226 226 226 226 227 212 151 151 159 170 174 177 179 181 181 184 185 185 184 186 186 185 185 184 184 185 185 184 182 174 160 133 32 5 0 0 2 5 5 1 0 0 0 0 0 0 0 0 0 0 0 0 5 96 137 157 157 183 186 186 184 185 185 185 185 185 184 184 183 178 166 166 225 228 226 226 226 226 226 226 
226 226 226 226 226 226 226 226 226 226 226 226 226 226 226 224 148 129 129 153 153 162 166 148 151 151 178 180 182 185 185 185 184 185 185 185 185 185 182 172 155 121 93 5 0 0 0 0 0 0 0 0 0 0 0 0 0 0 0 0 0 0 6 90 124 142 142 181 186 186 184 184 184 183 183 182 179 176 159 159 226 228 226 226 226 226 226 226 226 226 
226 226 226 226 226 226 226 226 226 226 226 226 226 226 226 227 223 129 129 123 131 118 118 122 151 151 153 164 168 168 178 181 184 185 185 185 185 183 176 123 107 107 93 6 0 0 0 0 0 0 0 0 0 0 0 0 0 0 0 0 0 0 6 90 124 142 142 142 180 182 180 178 178 175 172 168 159 125 139 229 229 226 226 226 226 226 226 226 226 226 
226 226 226 226 226 226 226 226 226 226 226 226 226 226 226 226 227 227 222 128 123 118 118 122 123 130 130 131 145 145 148 169 175 175 177 177 175 170 119 106 106 107 24 6 0 0 1 3 9 12 12 12 12 12 12 12 12 11 11 17 45 20 30 68 102 118 118 127 144 148 148 142 142 136 150 112 125 125 228 226 226 226 226 226 226 226 226 226 226 226 
226 226 226 226 226 226 226 226 226 226 226 226 226 226 226 226 226 226 227 231 231 222 222 212 113 103 103 104 111 120 131 131 118 124 127 127 120 112 112 106 106 91 24 24 28 49 199 213 221 221 220 220 220 220 220 220 220 220 221 221 233 233 45 57 102 118 116 116 121 148 128 128 142 136 112 112 224 228 226 226 226 226 226 226 226 226 226 226 226 226 
226 226 226 226 226 226 226 226 226 226 226 226 226 226 226 226 226 226 226 226 226 227 227 229 229 222 215 115 111 106 106 100 95 124 127 127 120 112 112 101 87 69 62 220 233 233 231 229 229 229 229 229 229 229 229 229 229 229 229 227 227 229 225 57 57 107 116 116 121 110 128 128 124 103 103 227 228 226 226 226 226 226 226 226 226 226 226 226 226 226 
226 226 226 226 226 226 226 226 226 226 226 226 226 226 226 226 226 226 226 226 226 226 226 226 226 227 229 229 229 229 220 107 95 95 84 84 84 83 76 66 62 217 233 229 226 226 226 226 226 226 226 226 226 226 226 226 226 226 226 226 226 226 228 214 56 69 77 106 110 110 88 87 94 96 226 228 226 226 226 226 226 226 226 226 226 226 226 226 226 226 
226 226 226 226 226 226 226 226 226 226 226 226 226 226 226 226 226 226 226 226 226 226 226 226 226 226 226 226 226 226 228 230 227 210 84 84 84 83 76 66 217 229 226 226 226 226 226 226 226 226 226 226 226 226 226 226 226 226 226 226 226 226 226 228 220 69 77 89 89 93 88 87 219 228 227 226 226 226 226 226 226 226 226 226 226 226 226 226 226 226 
226 226 226 226 226 226 226 226 226 226 226 226 226 226 226 226 226 226 226 226 226 226 226 226 226 226 226 226 226 226 226 226 227 229 227 223 222 221 223 227 228 226 226 226 226 226 226 226 226 226 226 226 226 226 226 226 226 226 226 226 226 226 226 226 229 229 224 221 221 221 223 229 229 226 226 226 226 226 226 226 226 226 226 226 226 226 226 226 226 226 
226 226 226 226 226 226 226 226 226 226 226 226 226 226 226 226 226 226 226 226 226 226 226 226 226 226 226 226 226 226 226 226 227 229 227 223 222 221 223 227 228 226 226 226 226 226 226 226 226 226 226 226 226 226 226 226 226 226 226 226 226 226 226 226 229 229 224 221 221 221 223 229 229 226 226 226 226 226 226 226 226 226 226 226 226 226 226 226 226 226 
