P2
90 90
255
59 72 72 67 67 66 67 67 64 64 64 58 58 54 67 175 175 48 15 15 124 155 174 180 180 181 180 180 180 179 177 171 147 147 168 168 114 114 126 133 133 133 127 113 94 99 171 177 180 181 180 180 180 181 185 192 92 92 185 185 169 56 56 54 51 79 79 60 60 84 155 171 176 178 178 179 181 179 83 74 81 81 140 147 147 151 173 175 175 169 
69 91 91 91 73 73 73 81 85 87 86 84 84 82 79 85 170 209 209 183 170 170 225 240 244 244 243 240 240 236 202 209 209 183 183 47 48 51 51 53 56 58 59 61 93 198 236 245 241 240 240 241 241 239 242 216 104 104 238 238 206 206 199 189 66 69 69 69 176 201 216 224 228 228 230 235 235 238 233 90 93 93 166 182 198 214 223 223 224 217 
69 91 91 91 93 95 86 81 85 87 86 84 84 82 79 73 74 209 209 181 170 170 221 240 244 244 243 240 240 236 202 209 209 203 47 47 51 51 52 54 55 55 57 58 58 69 236 245 241 240 240 241 241 231 242 138 138 224 240 240 212 215 217 217 215 66 70 70 194 207 216 222 224 225 225 227 233 233 236 214 97 97 166 182 204 215 215 217 212 210 
142 193 194 201 209 212 212 200 73 73 75 69 69 77 73 73 74 46 57 99 158 158 221 221 62 49 47 47 50 62 190 190 46 45 49 49 52 52 53 54 57 57 57 60 60 57 57 225 246 246 238 238 236 231 218 138 138 224 240 240 212 215 218 218 229 229 180 178 194 208 216 222 224 225 225 227 231 231 234 214 81 81 182 189 202 215 215 217 212 210 
161 216 216 214 209 212 212 224 75 39 39 69 69 59 59 56 46 30 30 63 63 96 127 36 30 35 39 39 39 39 41 41 41 49 49 51 52 52 54 54 57 57 57 60 60 61 61 57 65 240 239 229 229 216 146 112 112 198 198 205 212 228 218 218 229 229 235 178 190 208 215 212 217 224 227 228 231 231 234 209 76 176 182 182 182 191 189 190 190 199 
161 223 222 222 224 227 225 225 198 39 39 171 171 175 180 181 41 30 30 63 63 96 42 31 38 40 42 42 42 40 40 41 43 49 49 51 51 54 54 55 57 57 57 58 58 58 59 59 58 58 217 206 206 149 149 129 129 198 198 200 230 232 232 218 239 235 235 230 191 195 206 212 217 222 225 227 227 226 228 71 71 195 194 182 178 182 182 190 190 199 
169 223 222 222 224 231 231 225 198 46 46 184 197 205 205 209 210 195 33 33 99 99 32 34 34 39 42 42 40 40 40 41 40 47 50 49 49 50 51 51 55 56 57 58 58 58 57 57 59 60 61 68 65 160 160 119 119 197 197 207 207 232 232 231 240 240 233 233 191 195 206 220 225 226 226 226 227 226 219 65 65 200 200 197 178 182 182 187 210 214 
171 225 218 218 220 231 231 225 70 70 183 195 202 206 206 209 211 213 31 31 99 99 32 35 35 39 39 39 40 40 40 40 40 40 46 49 49 50 51 51 48 48 57 58 58 58 56 56 58 60 57 57 62 160 160 108 108 184 200 207 207 231 231 242 242 233 232 232 227 209 215 222 227 228 228 226 225 222 205 65 65 200 197 197 196 182 182 189 210 214 
171 224 218 218 220 235 235 218 70 167 193 202 204 206 206 211 211 213 48 48 108 45 33 35 35 39 39 39 40 40 39 45 166 59 46 49 50 50 51 52 48 46 46 53 53 57 56 56 57 56 55 56 59 64 69 108 108 139 209 219 226 226 232 242 242 230 232 232 231 214 214 222 227 228 228 226 221 212 25 25 170 200 197 197 197 182 182 201 212 219 
169 220 215 215 217 223 222 73 73 183 193 203 203 204 208 242 225 187 47 144 144 39 34 34 34 34 39 39 39 39 40 206 206 166 45 45 45 50 57 57 49 47 47 53 54 54 56 56 57 56 55 56 56 55 55 110 110 139 209 218 226 226 229 231 231 230 230 232 233 218 218 223 226 228 228 224 211 180 3 3 175 198 192 192 197 182 182 203 213 219 
123 174 174 207 207 206 44 44 169 183 200 203 203 204 242 242 210 46 46 144 144 37 34 34 34 34 37 37 40 40 56 209 209 49 42 45 45 46 57 49 47 47 47 53 54 54 55 59 59 60 55 56 56 56 56 56 56 66 203 218 224 225 225 225 231 232 232 233 233 222 222 226 226 228 228 212 26 3 1 1 175 198 192 192 196 197 195 195 214 218 
123 174 174 184 197 181 44 44 185 194 197 197 203 236 236 28 22 22 54 45 44 38 35 35 34 34 34 33 37 51 208 208 209 39 47 48 48 46 48 47 46 46 47 48 55 55 59 59 59 63 63 61 57 56 56 57 55 51 55 213 224 223 223 224 225 231 231 231 232 222 222 226 226 228 226 20 0 0 0 0 171 199 191 191 185 197 198 198 214 218 
145 201 201 202 207 208 135 163 187 187 197 197 204 216 19 13 13 40 40 45 44 37 35 35 35 34 34 33 39 74 208 208 48 42 48 49 49 48 48 47 46 46 48 48 50 52 59 60 60 61 62 62 59 57 58 58 57 56 53 57 219 223 223 225 225 231 231 231 232 232 225 229 229 232 217 2 0 0 0 0 43 199 190 190 185 197 198 198 219 227 
145 201 201 203 215 215 169 169 187 187 197 206 200 13 11 11 53 37 37 61 61 37 35 34 34 33 33 30 48 199 199 202 38 43 48 49 49 57 52 47 47 49 52 50 50 55 55 60 60 61 61 61 59 59 58 58 59 58 58 54 65 225 225 225 225 231 231 231 232 232 229 230 236 241 179 2 0 0 0 1 43 188 190 190 172 172 198 198 222 227 
138 201 202 202 212 212 203 179 170 221 219 207 10 0 0 73 73 39 39 61 39 36 36 34 34 33 31 34 185 199 199 44 38 42 42 48 51 53 53 52 49 49 53 53 56 55 55 57 59 62 61 61 59 59 58 59 59 58 58 61 58 211 226 223 223 231 231 233 236 238 233 218 160 171 171 22 7 7 22 179 193 188 190 190 172 172 196 196 222 228 
138 198 202 202 210 210 203 179 221 221 210 6 0 0 0 78 78 35 35 34 34 35 35 36 33 33 28 53 214 214 194 41 44 42 42 48 51 53 53 52 48 51 53 56 57 57 57 57 59 59 63 63 63 60 61 59 59 58 59 62 62 63 206 221 221 224 238 238 235 154 135 135 132 184 201 201 204 178 185 199 204 204 210 210 210 194 192 192 221 227 
142 194 194 200 210 210 191 159 174 35 5 0 0 0 20 78 41 32 31 31 30 35 35 36 34 31 31 191 219 219 68 46 44 44 44 48 50 53 53 53 48 48 51 56 56 56 58 58 58 58 63 63 63 63 61 61 57 57 57 61 61 63 59 201 224 224 230 218 124 140 144 144 183 199 205 205 217 217 202 200 204 204 210 210 213 213 192 192 198 222 
142 193 193 197 205 206 19 7 9 2 0 0 0 159 95 38 35 32 32 32 32 34 34 34 34 29 46 207 219 219 62 46 45 44 44 46 50 50 56 84 57 49 53 56 56 56 59 59 58 58 61 61 63 63 61 61 57 57 57 61 61 63 52 52 195 195 52 69 69 140 144 144 192 203 208 208 217 218 218 200 206 206 217 217 213 213 213 210 201 201 
139 193 193 197 199 184 3 0 0 0 0 0 15 159 159 29 33 32 32 32 32 31 31 33 29 30 179 217 215 215 62 62 45 45 46 46 52 52 59 84 106 50 50 51 53 54 54 57 56 56 61 59 59 61 60 60 57 57 60 60 62 62 52 52 54 17 17 69 89 89 105 176 194 203 208 214 218 221 221 221 218 220 226 232 232 213 213 210 206 201 
130 195 212 212 183 47 3 0 0 0 0 3 205 205 172 29 33 33 32 32 30 31 31 31 29 47 194 194 228 228 62 62 48 48 49 49 54 56 56 55 61 61 46 51 53 54 54 58 58 56 61 59 59 70 62 59 59 70 81 72 62 62 62 55 55 50 17 13 89 89 105 175 192 203 209 214 218 221 223 223 220 225 225 232 232 227 222 214 206 202 
167 221 219 219 211 201 190 31 6 0 0 28 206 206 177 30 33 32 32 30 30 31 31 29 44 181 202 222 238 238 70 44 48 46 47 47 53 53 56 57 51 84 52 49 53 53 58 58 58 57 58 59 59 199 199 89 89 207 207 192 66 66 86 55 55 59 13 13 14 70 147 175 191 202 208 214 214 222 223 223 220 225 225 202 202 232 250 250 213 208 
178 229 223 223 224 225 223 208 162 8 8 200 196 185 185 35 32 32 32 30 28 28 32 37 148 181 202 222 238 238 205 44 46 46 47 47 53 53 57 57 51 84 84 48 53 53 58 58 61 61 59 60 59 199 240 240 219 238 238 216 74 74 126 79 61 61 55 6 6 31 147 178 191 201 207 207 214 233 233 224 218 226 226 198 198 211 250 250 215 206 
177 230 225 224 224 223 223 208 162 37 37 203 187 182 182 47 28 32 32 28 36 50 78 154 148 148 179 179 213 209 209 197 40 40 47 47 48 53 53 63 90 63 68 50 51 53 53 60 60 59 59 60 61 203 239 239 213 238 238 216 80 80 90 72 60 60 60 8 8 28 149 179 192 200 207 207 214 238 238 217 213 213 214 198 198 230 230 157 176 187 
177 230 225 224 224 223 216 192 35 35 63 203 187 182 182 184 28 28 28 45 168 160 160 177 176 176 176 178 213 209 215 215 198 41 46 48 48 51 53 67 90 66 58 58 48 53 53 59 59 59 59 60 67 199 239 239 213 213 231 98 70 70 59 60 60 60 60 8 8 27 73 179 192 200 207 207 216 238 238 217 213 213 214 213 211 206 135 157 196 204 
179 232 226 224 224 222 209 168 9 9 181 203 179 172 172 184 38 32 32 188 167 160 160 177 176 182 182 188 219 219 221 219 219 202 41 48 51 51 54 70 105 66 54 54 49 49 52 59 59 59 61 61 74 181 230 230 183 208 208 82 70 55 55 58 56 56 65 14 14 27 73 179 192 201 207 207 238 244 244 216 211 211 210 202 200 131 131 195 204 204 
179 232 226 225 225 221 192 10 4 4 191 198 181 181 170 197 197 128 179 179 168 168 190 196 196 182 182 188 219 219 221 218 218 221 48 46 53 53 55 84 204 81 54 50 49 49 51 58 58 58 61 61 73 106 181 100 93 93 77 74 74 52 52 58 56 56 70 19 19 25 74 174 191 199 199 206 241 244 244 216 211 211 204 108 108 131 131 195 204 209 
182 234 229 229 225 201 11 0 0 4 195 195 183 191 194 194 203 172 177 177 175 168 193 196 196 205 217 217 214 214 214 218 218 227 69 43 53 53 55 100 236 236 57 48 48 49 51 57 58 58 58 58 64 84 82 82 82 64 64 64 74 52 52 196 196 78 78 19 19 26 77 170 191 199 199 207 241 244 244 213 212 212 195 108 108 225 225 193 203 207 
168 218 217 217 177 156 11 0 0 15 194 194 183 189 194 194 203 177 177 177 182 184 193 205 208 208 217 217 214 214 236 227 227 229 185 44 54 54 57 108 242 242 68 48 48 47 53 55 55 58 59 59 60 69 69 82 82 60 60 60 57 51 51 231 231 112 112 19 19 23 77 171 191 199 199 207 240 244 244 213 210 210 132 132 226 225 177 191 204 207 
124 159 157 157 166 181 188 162 36 36 194 194 174 189 189 193 202 165 165 182 187 187 204 208 208 208 218 218 214 218 236 227 227 228 80 49 56 56 58 102 242 242 88 49 47 47 53 55 55 55 59 59 60 67 67 63 63 62 60 60 54 50 59 232 232 112 112 13 13 20 60 167 187 197 207 208 208 243 243 215 215 202 169 221 226 153 153 196 206 209 
128 159 157 157 166 195 195 170 30 30 190 176 174 177 177 183 202 159 159 193 187 187 204 208 208 223 223 214 214 224 225 223 223 227 80 47 55 55 56 88 241 241 217 52 47 47 53 53 55 55 58 58 65 65 67 63 63 62 61 54 54 47 75 232 232 65 65 8 8 53 53 156 162 162 201 203 203 241 242 242 220 186 182 226 128 153 182 196 206 209 
128 181 166 166 166 195 195 170 18 18 185 176 176 176 177 174 176 159 159 193 193 193 204 210 210 223 223 214 214 219 222 223 223 227 195 47 55 55 55 75 227 227 217 58 47 47 51 53 53 54 57 57 65 65 67 64 63 57 57 56 53 52 194 194 77 50 50 4 4 48 48 140 162 162 192 203 203 240 242 242 186 186 236 129 118 147 182 196 206 210 
85 186 184 166 172 172 175 8 8 15 169 176 176 176 174 174 176 160 160 192 193 193 191 207 211 211 217 217 213 219 224 223 223 227 205 47 54 55 55 65 86 110 96 71 50 44 44 44 46 48 53 60 64 64 61 61 61 57 57 56 57 202 202 86 56 56 50 2 2 48 48 57 141 161 161 187 187 205 221 182 182 243 243 129 118 147 163 192 205 210 
85 106 164 145 145 134 8 1 1 15 169 176 176 171 165 158 147 159 178 180 185 185 188 205 209 209 217 217 215 215 224 224 224 227 205 47 52 55 55 57 73 73 83 83 57 57 51 56 71 182 65 55 60 58 59 59 60 61 57 57 74 202 202 66 52 52 41 2 2 7 38 31 36 34 50 151 151 143 160 182 233 243 242 242 239 231 163 175 201 209 
15 23 15 11 7 3 3 1 1 23 148 148 149 149 29 7 7 155 184 182 185 185 188 205 209 209 217 217 226 224 224 224 224 228 205 45 52 53 53 53 56 60 73 73 70 73 103 132 207 238 238 61 51 58 59 59 60 60 59 62 177 177 83 56 52 52 41 13 1 1 4 10 12 15 50 214 214 197 211 225 236 243 242 242 239 247 247 175 175 204 
15 19 4 0 0 3 3 60 60 12 12 17 59 59 10 5 5 171 184 182 186 186 188 199 199 203 211 223 226 224 224 224 224 228 199 41 47 53 53 53 56 56 69 71 69 69 73 83 114 238 238 218 52 59 61 60 60 60 61 88 177 177 67 51 51 54 92 32 0 0 1 1 1 15 216 220 220 224 225 218 235 238 238 236 236 245 245 241 170 196 
33 19 4 0 0 10 95 60 9 9 12 60 60 15 7 5 5 182 185 181 183 183 188 199 199 203 218 223 225 225 225 225 225 229 191 37 45 48 48 55 56 56 69 71 68 68 65 62 114 229 234 234 52 56 60 60 60 61 67 88 87 72 63 51 51 60 135 35 0 0 0 0 0 35 213 213 228 233 233 231 236 238 238 241 242 244 244 243 158 167 
142 166 166 93 93 100 35 12 12 10 13 60 19 10 10 7 9 190 192 181 183 183 185 199 199 202 220 224 225 225 225 229 229 230 70 35 43 48 48 53 54 54 63 68 68 68 65 62 157 217 236 236 67 42 57 58 58 56 57 56 53 57 57 64 56 55 102 39 0 0 0 0 0 169 213 213 228 233 233 234 234 241 243 244 244 244 244 243 158 167 
142 166 166 111 111 43 20 13 13 10 36 36 13 10 10 6 16 198 197 197 181 181 180 197 197 201 220 224 226 225 225 229 229 229 62 32 43 43 47 53 55 55 63 68 68 69 63 53 157 157 236 236 219 42 53 55 55 56 57 56 53 57 57 64 55 30 102 102 10 0 0 0 0 164 207 207 226 232 233 234 234 241 243 244 244 244 245 241 140 142 
142 156 111 111 111 28 17 13 13 20 27 16 15 15 13 6 29 198 200 200 180 180 180 183 190 201 220 225 226 226 225 227 228 228 56 26 37 37 50 53 55 55 63 63 63 63 68 76 173 173 225 231 231 44 46 56 56 67 111 71 68 57 57 20 20 28 194 194 194 174 11 0 0 164 194 194 222 227 224 224 231 241 243 244 244 244 247 237 120 142 
145 156 111 111 96 19 16 16 16 20 17 14 15 15 13 5 41 208 200 195 195 193 187 187 190 212 220 224 224 225 226 226 228 228 47 26 37 37 41 53 53 52 53 50 50 164 194 202 202 181 181 232 232 67 47 47 125 116 116 179 194 194 190 20 20 189 208 212 212 210 198 16 16 155 194 194 191 221 224 224 227 238 243 244 244 244 249 228 48 81 
133 99 99 99 15 12 12 16 16 17 17 13 12 12 10 6 172 207 207 195 195 193 191 187 191 212 221 224 224 225 226 226 227 227 29 22 31 31 32 22 30 34 34 34 171 190 201 205 205 174 174 232 232 225 93 93 125 107 107 178 194 194 212 212 177 186 208 212 212 211 208 191 55 55 187 186 186 213 218 222 222 227 240 244 245 245 250 204 48 81 
76 99 99 21 12 10 10 11 12 17 17 13 12 12 10 6 189 207 207 194 194 191 191 191 209 209 223 224 224 225 225 227 229 225 19 6 6 15 22 22 30 34 35 160 182 190 201 205 205 173 173 226 226 234 93 93 111 107 107 175 194 194 207 225 225 200 205 212 212 211 208 211 55 55 178 186 186 194 209 215 220 220 226 241 242 242 241 147 147 94 
83 90 35 19 12 10 10 11 12 16 16 13 13 12 9 13 200 207 197 194 194 191 191 195 209 209 224 226 226 224 225 230 231 219 20 6 6 18 160 170 170 166 121 160 182 182 201 211 211 173 173 184 234 234 114 111 111 105 149 175 193 211 211 225 225 201 202 214 214 219 237 211 190 42 42 174 182 182 189 196 208 208 224 224 228 217 217 147 147 38 
83 90 29 19 14 11 11 15 15 14 14 11 11 11 6 22 203 203 198 194 194 195 193 207 207 222 224 227 227 226 231 231 234 208 20 20 169 192 197 197 197 196 185 121 138 67 67 208 208 173 173 186 230 230 230 207 147 116 150 175 175 211 211 213 204 182 202 202 213 237 242 242 217 34 34 149 167 173 173 177 179 177 180 109 186 189 189 41 38 42 
75 74 25 19 14 15 15 15 17 17 16 17 17 15 6 30 203 203 198 196 195 195 196 209 209 222 222 227 227 226 231 231 234 48 48 169 194 194 205 205 197 204 206 204 62 62 42 42 170 191 191 192 230 238 238 228 155 169 152 152 191 191 74 95 95 182 190 196 196 240 242 242 230 34 34 120 144 144 146 145 77 67 60 60 66 54 43 40 42 44 
34 31 25 25 16 15 15 15 17 17 16 17 17 15 6 35 202 202 198 196 196 196 206 206 209 222 222 227 227 226 228 233 229 48 48 188 194 194 205 205 208 211 212 210 62 62 42 42 187 191 191 198 229 238 238 236 176 169 152 152 169 57 57 95 163 190 204 207 207 204 241 241 228 42 15 15 72 72 72 63 40 41 46 46 36 36 42 44 42 44 
26 33 25 26 26 15 13 13 17 18 18 14 14 13 7 38 201 201 198 195 195 197 206 206 210 222 222 226 226 226 228 236 213 52 169 193 193 201 205 205 208 211 212 210 182 182 33 33 187 196 202 202 209 235 235 234 224 170 194 194 155 57 57 146 173 193 206 211 211 213 210 215 215 163 6 6 47 49 49 27 25 25 37 37 36 42 44 44 47 45 
26 33 31 26 26 25 13 13 14 20 20 14 14 13 7 41 202 202 197 195 195 198 211 211 222 225 225 226 226 226 228 236 42 42 189 196 196 193 183 183 199 199 205 144 182 182 154 154 188 203 202 202 225 235 235 234 224 204 194 194 91 119 138 138 173 193 207 211 211 215 216 212 208 42 2 2 29 49 49 19 25 33 33 37 41 41 44 44 47 48 
24 28 28 30 30 28 26 18 18 23 23 14 14 15 7 45 203 203 196 197 197 199 211 211 222 225 225 226 226 226 230 230 42 42 199 196 196 193 183 183 190 199 204 194 113 132 166 166 170 195 195 216 225 233 233 176 176 204 204 192 95 131 139 139 152 200 210 212 215 215 218 218 208 28 0 0 4 32 32 19 31 33 33 42 42 40 40 40 41 48 
21 27 27 29 29 29 29 18 18 22 18 15 15 14 4 162 203 203 196 197 197 199 212 220 222 222 223 227 227 227 231 214 51 176 203 199 199 196 194 194 190 168 168 167 175 175 166 166 170 200 200 200 208 221 221 176 176 175 170 159 85 131 139 139 193 201 210 210 215 220 218 218 214 24 0 0 0 1 8 35 35 35 36 42 42 40 40 40 40 54 
21 27 27 29 29 29 29 18 18 19 19 18 15 4 4 170 204 204 197 197 197 199 216 221 222 222 223 227 227 226 227 50 50 193 203 203 199 187 194 194 187 168 168 167 193 199 199 196 194 199 199 200 176 83 119 149 149 165 199 203 203 202 203 203 202 202 202 218 218 230 230 217 217 24 0 0 0 1 36 37 35 38 38 43 43 42 41 40 40 80 
23 20 20 20 20 24 24 18 17 17 19 17 12 4 4 177 204 204 197 197 197 210 210 222 222 222 225 225 225 224 214 42 42 195 201 179 178 178 190 190 187 179 183 186 186 195 195 202 202 202 203 213 213 83 119 149 149 190 203 208 210 210 210 210 202 202 202 207 226 229 229 217 217 33 0 0 0 3 35 34 37 40 40 41 50 50 45 41 51 213 
23 20 20 20 20 24 21 18 17 17 18 8 8 3 7 183 204 204 195 195 198 204 217 221 222 222 225 225 224 219 191 42 42 185 185 173 176 176 183 172 172 172 181 181 191 195 195 203 202 202 203 213 213 216 138 154 174 186 186 208 210 210 210 210 211 212 210 214 214 229 229 222 222 43 0 0 1 31 30 30 38 40 42 42 50 50 48 47 223 246 
23 24 23 20 17 22 21 21 16 16 15 8 1 1 14 189 201 201 195 195 198 205 218 221 221 220 223 223 221 209 39 39 138 169 168 173 174 173 173 170 170 177 181 181 193 193 193 203 199 199 205 243 243 237 143 143 170 186 186 207 210 210 216 245 245 245 241 213 213 226 226 222 222 49 0 0 28 31 28 28 38 41 42 42 46 46 49 68 238 246 
23 24 23 21 16 12 20 20 19 12 9 4 1 1 25 191 200 200 196 196 205 205 217 221 221 219 220 220 214 193 27 27 137 160 160 172 174 173 173 170 170 177 177 182 193 193 194 194 196 199 209 245 247 247 143 143 161 161 178 203 208 208 213 245 245 245 241 208 208 217 215 215 215 49 2 2 27 27 28 28 35 47 44 44 47 46 54 217 238 245 
25 25 25 24 25 4 4 14 12 12 14 66 66 40 41 191 198 198 197 198 206 206 215 219 219 219 217 214 204 174 23 23 135 160 160 173 174 172 172 170 169 169 174 185 192 192 194 194 196 220 220 245 247 247 149 138 161 161 168 195 204 204 213 239 239 213 206 205 205 217 215 215 215 44 6 18 27 27 36 39 39 47 48 48 47 46 62 216 216 229 
25 25 24 23 25 4 4 10 47 35 35 66 66 21 153 192 198 198 197 198 206 206 214 214 216 211 214 208 184 159 21 21 135 160 169 175 175 175 169 167 167 167 178 185 185 186 193 200 200 220 220 210 240 240 208 133 133 151 151 179 187 187 189 193 206 206 204 205 205 204 207 207 213 35 7 15 15 23 36 40 40 48 49 49 48 50 76 216 216 64 
24 24 22 22 21 13 54 47 47 65 71 71 19 19 166 194 198 198 197 198 207 207 214 214 208 208 210 201 178 145 18 18 130 149 170 175 175 175 170 167 167 165 178 178 180 168 189 194 197 197 198 199 202 205 194 134 134 152 152 162 187 183 183 186 200 202 204 204 203 204 204 204 206 26 6 15 15 30 35 40 40 49 49 49 50 57 171 171 187 42 
19 24 22 22 15 19 54 54 100 100 71 71 21 21 174 197 199 197 197 199 209 212 213 213 208 208 206 173 173 145 18 18 124 140 140 142 169 172 170 167 165 165 167 172 161 161 189 194 197 197 198 199 202 192 180 134 134 152 152 158 181 183 183 186 200 202 201 201 199 202 204 204 206 18 6 15 15 30 35 35 47 49 49 49 50 66 154 154 54 42 
15 18 12 12 18 49 29 84 100 100 67 67 21 21 178 198 199 197 197 206 209 209 212 212 202 202 201 169 169 138 6 6 115 132 132 130 119 158 162 161 160 161 161 164 161 161 182 188 187 187 184 184 184 183 172 136 136 151 151 154 168 168 172 178 196 197 197 197 195 199 199 204 201 9 6 16 16 30 30 35 45 45 49 49 50 71 154 154 47 40 
23 25 12 12 30 17 17 84 84 87 128 128 26 26 183 197 200 197 197 207 209 211 211 211 203 203 198 171 171 138 5 5 27 132 132 130 101 101 124 124 124 149 138 142 155 155 156 182 187 187 184 184 184 183 154 147 147 151 151 155 165 165 172 175 184 184 194 194 191 196 196 203 190 2 2 17 26 30 35 35 45 45 47 51 51 67 137 137 41 40 
23 25 19 19 15 19 19 60 60 120 138 138 43 43 185 197 198 196 196 208 208 211 211 201 203 203 196 174 174 141 3 3 16 129 131 131 101 101 116 116 113 111 131 136 136 156 156 178 185 181 178 178 181 178 154 147 155 154 154 160 160 165 174 174 182 182 191 190 190 191 196 203 179 1 1 19 28 28 35 40 42 42 45 52 52 60 75 46 41 40 
7 21 19 19 15 19 19 21 37 120 138 138 71 71 185 197 199 196 196 208 208 211 211 198 198 198 194 175 175 142 1 1 7 120 131 131 128 101 116 116 104 104 131 136 136 135 149 159 181 181 180 180 178 171 147 149 155 158 158 161 160 160 174 174 182 182 184 190 190 192 192 201 169 1 1 7 28 34 34 42 42 42 42 50 50 52 55 55 36 29 
3 5 14 14 5 5 18 18 28 49 67 61 32 81 188 197 200 200 200 208 208 212 211 196 196 196 193 175 175 138 0 0 1 25 127 128 128 122 126 126 102 102 135 138 135 135 131 151 177 181 180 180 177 164 135 135 154 158 158 161 161 161 173 177 177 177 177 188 188 192 192 201 162 1 1 5 31 33 33 42 43 43 41 42 46 47 50 50 34 27 
3 2 0 0 1 5 18 18 28 48 28 12 12 148 191 191 200 200 200 209 212 212 212 196 196 196 193 178 178 35 0 0 0 12 83 129 133 122 126 126 102 102 142 146 146 125 125 130 172 174 176 176 176 159 123 123 124 157 160 161 161 161 166 166 169 177 177 185 185 189 194 208 43 1 1 3 31 33 33 34 43 43 43 43 45 44 44 50 30 27 
3 2 0 0 1 13 18 18 49 49 28 12 12 165 191 191 200 200 200 210 211 211 211 196 196 196 187 187 180 26 0 0 0 3 65 65 133 130 128 128 126 107 142 147 147 125 125 125 167 174 176 176 172 110 112 114 114 134 134 156 158 158 166 166 176 177 177 185 185 193 200 210 43 1 1 3 28 33 33 34 38 38 43 43 43 43 43 41 35 25 
26 8 3 1 1 2 2 4 49 49 23 44 44 173 189 189 201 201 207 210 212 212 211 197 197 199 190 190 180 16 0 0 0 0 65 77 77 121 124 124 126 109 109 147 147 148 125 125 126 168 171 171 165 109 101 101 111 134 134 134 152 159 165 165 176 179 179 191 191 194 199 210 43 1 3 3 5 33 36 36 38 39 39 42 43 43 43 41 23 20 
33 47 69 10 2 2 2 2 1 1 6 44 44 181 188 188 201 201 208 210 212 212 203 203 207 207 198 198 178 7 0 0 0 0 9 77 77 119 119 115 121 121 109 144 148 148 144 122 122 151 166 170 170 109 105 105 111 145 145 134 146 150 150 157 178 181 181 192 192 194 198 206 46 2 2 6 5 6 38 41 41 39 39 39 40 40 26 25 25 20 
33 49 84 84 44 7 2 1 1 1 1 1 28 181 186 192 192 198 209 211 212 212 203 203 210 210 200 200 173 1 0 0 0 0 4 71 71 119 119 114 121 121 97 97 146 143 143 120 120 151 163 171 171 158 110 110 113 145 145 160 160 150 150 168 174 174 181 192 192 198 198 205 43 4 4 15 6 2 2 38 41 41 40 37 26 22 23 25 25 21 
37 49 74 74 46 34 34 1 0 0 1 1 27 189 186 192 192 197 209 211 211 214 208 208 211 211 200 200 163 0 0 0 1 1 2 20 96 112 115 115 116 124 97 97 137 140 140 120 120 117 163 171 171 158 110 110 117 146 146 163 166 166 167 169 174 182 187 187 195 198 198 204 36 5 5 68 68 2 0 0 1 5 20 20 25 22 23 25 25 23 
87 92 74 74 46 34 34 2 0 0 1 1 40 193 186 193 199 203 208 211 211 211 204 204 212 212 210 202 23 0 0 0 1 1 1 51 51 112 115 115 116 124 89 89 93 140 140 136 113 113 150 154 154 102 107 117 117 141 141 162 166 166 167 175 183 184 184 187 200 199 199 200 25 1 1 68 68 85 0 0 1 5 20 20 28 28 26 22 22 27 
87 92 90 77 68 72 66 63 58 53 53 44 175 192 185 193 199 203 203 211 211 211 204 204 212 212 212 199 6 0 0 1 1 1 1 51 73 107 111 111 120 120 89 89 96 137 137 136 113 113 146 149 149 95 90 90 129 141 153 162 162 174 176 176 184 185 185 188 200 199 199 200 13 0 0 2 13 85 6 1 1 23 24 27 28 28 26 22 22 24 
143 175 175 96 83 72 88 78 70 70 62 59 182 181 182 192 198 198 209 212 211 211 208 214 212 212 212 183 0 0 0 0 1 2 2 12 64 82 90 90 120 120 89 89 107 142 142 122 115 115 145 149 149 94 90 90 127 141 153 162 162 174 174 174 184 185 185 194 198 198 198 192 4 0 0 0 0 5 3 3 5 19 36 35 31 28 28 21 21 24 
163 204 204 189 174 102 88 78 70 70 62 59 180 176 176 191 198 198 211 212 212 211 211 217 217 213 213 28 0 0 0 0 1 6 6 9 64 82 90 90 118 118 102 102 107 142 142 128 119 119 149 149 146 90 91 91 95 118 146 157 164 170 174 174 178 178 178 193 193 193 198 177 0 0 0 0 0 0 0 1 19 19 39 39 31 28 28 21 21 26 
169 214 203 203 192 178 163 145 74 74 61 67 180 176 182 191 191 207 212 212 212 211 211 219 219 217 211 9 0 0 0 0 5 6 6 9 21 81 90 90 96 117 102 102 133 146 146 128 133 133 150 150 141 90 91 91 95 103 115 101 154 165 172 172 176 176 178 194 192 192 193 19 0 0 0 0 0 0 0 1 22 22 39 39 36 26 26 22 22 33 
171 217 209 209 201 190 177 161 82 57 57 154 172 173 183 183 188 208 212 213 213 212 218 219 219 220 201 1 0 0 0 1 6 6 6 9 15 33 88 88 96 117 101 101 133 148 154 154 134 134 150 150 141 81 63 66 67 67 88 88 105 158 168 173 176 176 179 194 192 192 175 25 5 5 3 0 0 0 0 0 4 26 29 29 29 29 26 24 34 33 
171 217 209 209 210 190 186 169 142 69 69 160 168 168 185 185 187 208 214 214 212 212 218 219 219 222 39 0 0 1 1 2 6 7 7 8 11 24 63 63 89 115 115 101 97 149 160 160 134 134 144 144 137 75 55 55 58 67 88 88 106 150 161 169 175 175 181 195 195 188 31 54 54 73 79 18 9 2 0 0 4 26 29 27 27 31 31 33 37 38 
172 221 215 215 210 191 191 169 142 65 65 159 159 168 185 185 187 208 214 215 212 212 218 218 220 222 13 0 0 2 2 2 3 7 7 7 9 16 63 63 97 110 110 88 88 147 160 160 138 138 144 144 137 60 55 55 58 63 92 92 106 155 163 177 179 179 182 194 194 21 31 66 66 73 79 75 39 59 12 5 5 5 24 27 27 31 31 38 38 38 
188 247 242 242 222 191 191 171 138 65 65 159 159 163 182 182 186 209 214 216 216 216 215 222 228 211 1 0 0 1 2 2 4 4 6 7 7 10 54 54 65 110 110 80 80 87 155 155 139 139 139 139 128 49 34 34 56 56 53 101 101 155 170 182 182 179 195 195 41 21 47 66 66 174 174 189 81 59 59 73 73 12 14 14 28 33 33 38 39 39 
188 247 242 242 231 190 190 160 30 50 50 146 146 168 175 175 182 209 214 216 216 216 222 222 228 28 0 0 0 0 2 2 4 3 3 7 7 6 12 65 65 111 111 80 80 74 88 100 127 128 128 128 98 49 34 34 33 33 38 47 57 144 170 182 182 181 165 126 41 97 47 47 68 178 178 227 227 218 85 73 73 60 27 20 25 31 36 38 39 39 
178 230 221 221 212 207 165 128 30 24 24 109 109 145 155 170 185 206 212 213 215 219 219 224 220 4 0 0 0 0 0 1 3 3 3 5 5 4 6 16 54 112 112 76 64 64 75 79 79 85 113 113 98 38 25 28 33 33 29 31 57 35 105 151 160 165 165 126 169 118 75 75 75 178 178 237 249 249 244 231 222 220 219 208 44 30 30 29 36 37 
176 230 212 212 205 198 165 128 194 197 202 207 207 207 207 170 185 198 198 202 206 211 211 219 58 4 0 0 0 0 0 0 0 0 1 1 4 4 6 9 17 101 101 75 64 64 62 68 74 74 78 96 15 3 3 6 27 29 29 19 15 10 4 4 92 233 233 227 169 109 80 71 71 96 204 237 249 249 243 243 246 249 251 251 139 102 38 29 29 26 
176 224 212 212 205 221 225 225 227 226 224 224 224 224 223 223 222 222 221 219 206 211 211 205 58 58 34 27 17 6 0 0 0 0 0 0 1 4 6 6 6 14 83 83 50 56 62 63 63 74 78 13 2 1 1 2 5 11 11 10 3 1 0 0 28 233 233 227 56 109 80 71 71 88 111 220 237 242 243 243 246 249 251 251 139 102 102 57 30 26 
172 217 210 222 225 225 226 225 223 222 221 221 221 221 222 223 222 222 222 222 222 221 221 221 222 225 223 223 221 217 207 192 24 6 0 0 1 2 2 1 1 2 7 10 10 10 53 63 63 67 61 3 1 1 1 0 1 3 3 2 1 1 0 0 1 5 7 14 19 31 42 42 55 88 111 82 199 211 219 220 220 239 247 247 215 75 50 57 49 51 
164 205 219 226 225 228 228 228 223 222 221 221 221 221 222 223 224 222 222 222 222 221 221 222 223 222 222 222 223 224 226 226 226 219 204 186 17 2 2 1 0 0 0 2 2 2 12 56 56 18 9 3 1 1 0 0 0 0 0 0 0 0 0 0 0 3 7 14 47 48 49 49 50 51 52 51 51 52 54 56 58 63 71 78 77 64 50 50 49 51 
128 141 226 226 231 228 228 228 227 225 222 222 222 225 225 226 224 225 225 225 223 223 222 222 223 222 222 222 223 224 226 227 227 229 229 230 227 217 37 9 0 0 0 2 2 2 12 35 35 18 9 9 6 3 1 1 0 0 0 0 0 0 0 0 0 3 29 55 55 48 49 49 45 45 52 51 51 44 44 44 44 43 43 42 51 51 64 65 58 51 
21 82 226 230 231 232 232 232 231 227 227 226 226 226 226 226 226 225 225 225 223 223 224 224 223 222 222 224 233 233 231 233 233 232 229 230 227 234 234 233 213 8 17 25 25 35 35 45 48 49 49 57 59 59 58 55 52 48 11 8 7 7 7 10 21 29 29 49 50 47 44 42 42 43 43 43 40 43 45 45 51 51 49 50 56 51 72 194 194 186 
21 183 183 227 231 232 232 232 231 227 227 226 226 226 226 226 227 227 223 223 224 224 230 230 232 231 233 234 233 233 231 233 233 232 232 231 231 234 234 233 228 33 17 25 25 35 35 45 48 49 49 56 59 62 62 60 58 56 50 49 49 52 66 141 141 168 49 49 50 47 46 46 42 43 43 43 40 43 45 45 51 51 49 50 56 70 194 194 194 207 
113 183 183 227 226 226 227 227 225 225 223 223 223 223 223 224 227 227 222 222 224 230 230 230 232 231 207 207 207 212 217 221 222 222 225 223 220 219 219 220 219 214 206 198 49 36 36 36 55 55 56 56 56 62 62 60 57 50 50 49 49 52 66 141 188 188 195 48 37 47 46 46 46 47 55 130 51 47 47 49 56 57 57 55 64 97 211 211 198 227 
104 180 213 224 225 225 226 227 225 225 223 223 223 223 223 225 225 225 222 222 220 220 219 213 194 194 206 206 216 216 218 225 225 226 229 229 220 220 220 225 225 235 235 242 242 233 203 56 46 60 67 70 70 66 66 63 59 52 52 56 87 87 114 193 182 182 196 63 34 41 43 43 44 44 141 141 48 48 45 45 56 57 57 62 83 191 216 216 229 224 
