P2
90 90
255
0 0 4 4 4 5 5 6 6 6 6 6 6 6 6 6 6 6 6 7 6 6 5 5 4 4 4 4 5 5 5 4 3 4 4 5 4 4 5 5 4 4 4 4 4 4 4 1 1 4 4 4 4 4 4 3 3 3 3 3 3 3 3 3 3 3 3 3 3 4 4 4 4 3 3 3 3 4 4 4 4 4 4 4 4 4 3 1 1 3 
1 1 6 7 7 5 5 6 6 6 6 6 6 6 6 7 6 6 6 7 7 7 7 7 7 7 6 6 6 6 6 6 6 6 6 6 6 6 6 6 6 6 6 6 6 6 6 6 6 6 7 7 7 6 6 6 6 6 6 6 6 6 6 6 7 7 7 6 7 7 7 7 7 7 7 8 8 8 7 7 5 4 4 4 4 4 7 7 7 7 
3 6 6 7 7 7 6 6 6 6 6 6 7 6 6 6 6 6 6 7 7 7 7 7 7 7 6 6 6 6 6 6 6 6 6 6 6 6 6 6 6 6 6 6 6 6 6 6 6 6 6 6 7 6 6 6 6 6 6 6 6 6 6 7 7 7 7 7 7 7 7 7 8 8 8 8 8 8 7 7 8 14 20 69 19 10 7 7 7 7 
3 4 7 6 6 6 6 6 6 6 6 6 5 6 6 6 6 7 7 7 7 6 6 6 6 6 6 6 6 6 6 6 6 6 6 6 6 6 6 6 6 6 6 6 6 6 6 6 6 6 6 6 6 6 7 7 6 6 6 6 6 7 7 7 7 7 7 7 7 8 7 7 8 8 8 8 8 7 11 21 91 94 93 93 86 86 9 6 7 6 
3 6 7 6 6 6 6 6 6 6 6 6 5 5 6 6 6 6 6 6 6 6 6 6 6 6 6 6 6 6 6 6 6 6 6 6 6 6 6 6 6 6 6 6 6 6 6 6 6 6 6 6 6 6 7 7 6 6 6 6 6 7 7 6 7 7 7 7 7 7 8 8 8 8 7 7 12 91 102 106 106 103 93 93 86 86 71 5 7 6 
3 5 6 6 6 6 5 6 6 6 6 6 6 6 6 6 6 6 6 6 6 6 6 6 6 6 6 6 6 6 7 7 6 6 6 6 6 6 6 6 6 6 6 6 6 6 6 6 6 6 6 6 6 6 6 6 6 6 6 6 7 7 7 6 6 7 7 6 7 7 7 8 8 6 10 98 111 114 114 115 115 115 99 94 89 89 71 5 6 6 
3 4 6 6 6 5 5 5 6 6 6 6 6 6 6 6 6 6 6 6 6 6 6 6 6 6 6 6 6 6 6 6 6 6 6 6 6 6 7 6 6 6 6 6 6 6 6 6 6 6 7 6 6 6 6 6 6 7 7 6 6 6 6 7 7 7 7 7 7 7 7 6 8 18 110 110 109 114 114 115 115 115 113 94 89 89 69 5 6 6 
3 4 6 6 5 5 5 5 6 6 6 6 6 6 6 6 6 6 6 6 6 6 6 6 6 6 6 6 6 6 6 6 6 6 6 6 6 6 6 7 7 6 6 6 6 6 6 6 6 5 5 6 6 6 6 6 6 7 7 6 6 6 6 7 7 7 7 8 8 6 6 13 106 106 110 110 86 86 83 58 58 113 113 94 87 87 14 5 6 6 
3 3 6 6 5 5 7 6 6 6 6 6 6 6 6 6 6 6 6 6 6 6 6 6 6 6 6 6 7 7 6 6 6 6 6 6 6 6 6 6 7 6 6 6 6 6 6 6 6 6 5 6 6 6 6 6 6 6 6 6 6 7 8 7 7 7 8 8 7 9 102 105 105 93 93 90 86 86 83 58 54 54 107 90 82 82 7 5 5 4 
3 5 6 6 5 6 7 6 6 6 6 6 6 6 6 6 6 6 6 6 6 6 6 6 6 6 6 6 7 7 6 6 6 6 6 7 7 6 6 6 6 6 6 6 7 6 6 6 6 6 6 6 6 6 6 6 6 6 6 6 6 7 8 8 7 7 7 7 16 104 104 99 99 93 123 129 129 130 131 136 54 54 104 86 86 74 4 6 6 4 
3 5 5 5 5 6 6 6 6 6 6 6 6 6 6 6 6 6 6 6 6 6 6 6 6 6 6 6 7 7 6 6 6 6 6 6 6 7 7 6 6 6 6 6 7 7 7 6 6 6 6 6 6 6 6 6 6 6 6 6 6 7 7 7 7 6 8 101 103 98 98 99 124 126 126 125 125 126 126 131 116 76 100 86 86 10 4 6 6 5 
3 5 5 5 5 6 6 6 6 6 6 6 6 6 6 6 6 7 6 6 6 6 6 5 5 6 6 6 6 6 6 7 6 6 6 6 6 6 7 7 6 6 7 7 7 7 7 7 7 6 6 6 6 6 6 6 6 6 6 6 6 7 7 6 6 13 103 102 102 98 121 125 122 120 119 119 125 125 125 130 78 78 96 96 78 5 6 6 6 6 
3 6 6 6 6 6 6 6 6 6 6 6 6 6 6 6 6 6 6 6 6 6 6 6 6 6 6 7 7 6 6 7 6 6 6 6 6 7 7 7 6 6 7 7 7 7 7 7 7 6 6 6 6 6 6 6 6 6 6 6 6 7 6 7 97 103 103 102 118 121 121 116 116 120 116 117 117 125 125 128 78 89 89 91 10 5 6 6 6 5 
3 4 6 6 6 6 6 6 6 6 6 6 6 6 6 6 6 6 6 6 6 6 6 7 6 6 6 7 7 6 7 7 7 6 7 7 7 7 7 7 6 6 6 7 7 7 7 7 6 7 6 6 6 6 6 6 6 6 6 6 7 6 10 102 104 103 103 121 121 113 110 110 116 115 116 117 117 125 125 128 79 89 89 80 4 6 6 6 6 5 
3 5 6 6 6 6 6 6 6 6 6 6 6 6 6 6 6 6 7 6 6 6 6 7 6 6 6 7 7 7 7 7 7 7 7 7 7 7 7 6 6 7 7 7 7 7 6 6 6 7 7 7 6 6 6 6 7 7 6 6 5 11 103 103 104 119 118 121 108 113 110 101 100 100 103 117 117 120 126 85 87 89 89 8 4 6 6 6 6 6 
3 4 6 6 6 6 6 6 6 6 6 6 6 6 6 6 6 6 6 6 6 6 7 6 6 6 6 6 7 7 7 7 7 7 7 7 7 7 7 6 6 7 7 8 9 11 11 10 9 8 8 6 6 6 6 6 6 6 6 6 4 17 103 103 120 120 118 113 108 108 103 101 100 100 100 116 116 120 127 85 85 87 78 5 6 6 6 6 6 4 
3 4 6 6 6 6 6 6 6 7 6 6 6 6 6 6 6 6 6 6 6 7 7 6 6 6 6 6 7 7 7 7 7 7 7 7 7 7 7 7 9 14 19 65 71 74 72 72 69 66 18 12 8 6 6 6 6 6 6 6 4 10 114 118 120 120 107 107 98 45 46 46 95 100 100 116 116 125 123 88 88 87 6 6 6 6 5 6 6 4 
3 6 6 6 6 6 6 6 6 6 7 6 6 6 5 6 6 6 6 6 6 6 6 6 6 6 6 6 7 7 7 7 7 7 7 7 7 8 11 18 71 81 85 88 92 92 92 91 89 89 89 83 73 15 8 6 6 6 7 6 6 7 114 118 118 109 96 34 31 31 31 31 87 100 100 117 117 125 87 87 88 11 5 6 6 5 5 6 6 6 
3 6 6 6 6 6 6 6 6 6 7 6 6 5 5 6 6 6 6 6 6 6 6 6 7 7 7 7 7 7 7 8 7 7 6 6 9 18 70 70 90 96 98 98 103 102 102 102 104 101 101 96 92 84 72 12 7 7 7 6 6 4 105 105 102 32 28 28 27 31 31 31 47 102 102 124 124 122 87 87 84 5 6 6 6 5 5 5 5 5 
3 6 6 6 6 6 6 6 6 6 7 6 6 6 6 6 6 6 6 6 6 6 6 6 6 6 6 7 7 7 7 7 7 7 7 13 68 78 78 97 104 106 106 110 111 111 110 102 114 110 110 106 103 96 86 77 65 9 7 6 6 4 37 35 26 26 28 28 27 29 31 31 91 105 105 124 124 89 89 88 7 5 6 6 6 6 6 5 5 5 
3 5 6 5 5 6 6 6 6 6 6 6 6 6 6 6 6 6 6 6 6 6 6 6 6 6 6 6 7 7 7 7 7 9 60 73 83 83 78 110 113 113 106 118 111 111 110 125 125 122 118 115 111 96 96 90 83 72 9 6 6 6 9 21 26 26 24 24 26 29 29 32 100 109 122 122 90 89 89 12 5 6 6 6 6 6 6 5 5 5 
3 3 6 5 5 6 6 6 6 6 6 6 6 6 6 6 6 6 6 6 6 6 6 6 7 7 6 6 8 7 7 7 9 65 78 87 95 95 115 118 118 120 124 125 125 118 133 131 128 128 125 123 118 111 105 101 95 88 75 10 6 6 7 11 7 7 7 20 20 29 29 37 110 121 121 122 90 90 84 5 5 6 6 6 5 5 5 5 5 6 
3 4 6 6 6 6 6 6 6 6 6 7 7 6 6 6 6 6 6 6 6 7 7 7 7 7 7 7 7 8 7 9 67 80 91 99 99 118 123 124 124 128 129 129 125 126 139 139 132 131 131 128 122 117 114 110 104 97 88 76 8 7 6 6 5 5 5 8 26 30 30 101 118 121 121 91 91 89 6 5 7 7 6 6 6 6 5 6 6 6 
3 5 6 6 6 6 6 6 6 6 6 6 6 6 6 6 6 6 6 6 6 7 7 7 7 7 7 7 7 7 9 68 82 92 101 99 99 127 128 124 124 134 129 129 130 145 142 142 132 131 131 128 123 123 121 117 111 96 96 90 77 7 6 6 6 6 6 8 26 26 36 113 120 120 93 91 91 9 5 6 6 6 6 6 6 6 6 6 6 4 
3 4 6 6 6 6 6 6 6 6 6 6 6 6 6 6 6 6 6 6 6 6 6 6 7 7 7 7 6 7 67 82 94 103 103 101 129 131 131 133 137 137 138 134 151 151 145 145 144 142 134 134 131 129 127 123 111 104 104 101 94 15 6 6 6 6 6 10 28 28 106 120 120 120 93 93 13 5 7 6 6 6 6 6 6 6 6 6 6 4 
3 4 6 6 6 6 6 6 6 6 6 6 6 6 6 6 6 6 6 6 6 6 7 8 7 7 7 7 6 15 82 94 94 103 103 130 133 133 131 138 138 137 138 155 151 149 147 147 147 142 137 137 135 131 131 126 114 114 104 101 105 89 9 6 6 6 7 23 23 37 117 120 120 91 91 87 5 5 7 7 5 6 6 6 6 6 6 6 6 4 
3 3 6 6 6 5 5 6 6 6 6 6 6 6 6 6 6 6 6 6 6 7 7 7 7 7 7 6 11 81 93 93 94 126 132 134 133 133 141 138 138 140 160 155 152 149 147 147 147 143 143 137 135 131 131 126 114 114 123 122 115 100 19 6 7 7 9 24 29 113 117 117 94 94 91 7 5 5 6 6 6 6 6 6 6 6 6 5 6 5 
3 4 6 6 6 5 5 6 6 6 6 6 6 6 6 6 6 6 6 6 6 6 6 7 7 7 7 8 77 92 93 93 127 133 135 134 134 136 141 141 142 162 162 157 155 155 153 153 151 143 143 144 141 141 134 126 126 129 130 130 121 106 89 11 7 7 24 24 106 120 120 96 94 94 8 5 6 6 6 6 6 6 6 6 6 6 5 5 6 5 
3 4 6 6 6 6 7 6 6 6 6 6 6 6 6 7 6 6 6 6 6 6 7 7 7 7 7 18 89 92 92 127 134 136 136 135 144 147 147 145 165 165 165 157 157 155 153 153 153 151 146 146 141 141 131 131 126 129 130 130 124 112 97 21 9 9 18 35 120 120 120 96 96 12 4 5 5 6 6 6 6 6 6 6 6 6 6 6 6 6 
3 5 5 5 6 6 6 6 6 6 6 6 6 6 6 6 6 6 6 6 7 6 7 7 7 6 10 85 89 89 127 133 137 136 136 146 147 147 147 167 168 168 160 157 157 160 155 155 155 154 154 146 146 135 131 131 134 140 140 127 127 116 104 84 26 26 27 117 120 120 99 99 86 4 6 5 5 6 6 7 6 6 5 5 6 6 6 6 6 5 
3 4 5 5 5 5 6 6 6 6 5 5 6 6 6 6 6 6 6 6 7 6 6 7 7 6 21 101 115 126 132 136 137 137 146 146 147 147 169 170 168 162 162 160 160 159 159 155 155 154 154 151 146 135 135 137 154 154 138 138 131 121 104 84 26 26 112 119 119 95 95 91 5 6 6 6 6 6 6 5 5 5 5 5 6 6 6 6 6 6 
3 4 4 5 5 5 6 6 6 6 6 6 6 6 6 6 6 6 6 6 7 7 7 7 6 10 98 113 123 130 132 136 136 146 146 146 148 171 172 172 164 162 162 162 161 159 159 158 159 159 156 152 142 139 149 159 154 154 138 138 133 126 109 50 50 43 120 120 97 97 95 5 5 6 7 6 6 6 6 5 5 5 6 6 6 6 6 6 6 6 
3 4 4 5 5 5 6 5 5 6 6 6 5 6 6 6 7 6 6 6 7 7 7 7 6 84 108 118 126 130 134 134 146 146 146 148 171 173 173 166 164 164 167 167 163 160 160 162 159 159 156 142 142 144 149 163 163 150 150 137 137 126 58 50 50 119 119 99 97 97 7 5 6 6 6 6 6 6 6 6 6 6 6 6 6 6 6 6 6 6 
3 4 5 5 5 5 6 6 5 6 6 5 5 6 6 6 6 6 6 6 6 6 6 6 9 98 113 122 126 132 137 145 146 146 148 171 173 173 173 169 165 169 167 167 163 163 165 162 162 160 148 148 146 151 168 163 163 151 151 145 137 124 58 58 118 119 119 99 99 10 5 6 6 6 6 6 6 6 6 6 6 6 6 6 6 6 6 6 5 6 
3 4 4 5 5 5 5 5 5 6 6 6 6 6 6 6 6 6 6 6 6 6 7 6 16 106 113 127 130 140 145 145 145 149 171 174 173 173 169 169 171 171 165 165 165 167 167 162 162 150 150 148 161 173 173 163 163 158 151 145 137 62 62 117 121 121 102 102 14 5 6 6 6 6 6 5 6 6 6 6 6 6 6 6 6 6 6 6 5 5 
3 4 4 6 6 5 5 5 5 6 6 6 6 6 5 5 6 6 6 6 6 6 7 6 93 114 124 131 137 142 145 145 149 171 173 173 174 174 169 171 171 171 165 165 169 167 167 164 152 150 150 161 175 174 174 164 164 159 154 146 64 64 62 125 125 119 107 90 5 6 6 6 6 6 6 6 6 6 6 6 6 6 6 6 6 6 6 6 6 5 
3 4 4 6 6 6 6 6 5 7 6 6 6 5 6 6 6 6 6 6 6 6 6 9 106 119 128 134 134 142 142 148 170 173 173 173 175 172 171 170 170 169 167 171 169 169 167 154 154 152 165 179 178 173 170 170 164 159 154 68 64 64 126 125 125 119 99 5 6 6 6 6 6 6 6 6 6 6 6 6 6 6 6 6 6 6 6 6 6 5 
3 4 4 6 6 6 6 5 5 5 6 6 6 5 6 6 6 6 6 6 6 7 5 15 113 122 129 134 134 139 146 168 170 173 175 175 176 173 171 170 170 169 172 171 171 170 156 154 154 165 165 182 182 173 173 171 167 161 146 68 68 125 128 128 125 114 12 5 7 6 6 6 6 6 6 6 6 6 6 6 6 6 6 6 6 6 6 5 6 6 
3 3 6 6 6 6 6 5 5 6 6 6 5 5 6 6 6 6 6 6 6 6 5 89 115 115 129 129 136 161 166 166 170 170 175 175 173 172 171 171 170 173 173 172 171 157 157 156 166 166 185 182 177 173 173 172 167 155 71 71 124 129 129 128 122 94 12 5 6 6 6 6 6 6 6 6 6 6 6 6 6 6 6 6 6 6 6 6 6 6 
3 4 6 6 6 5 5 5 6 6 6 6 6 6 6 6 6 6 6 6 6 6 5 97 115 115 124 133 159 163 164 164 164 175 175 171 171 172 171 171 174 173 173 172 168 157 157 169 184 187 187 181 177 175 172 172 162 71 71 123 130 129 129 125 110 96 14 5 6 6 6 6 6 6 6 6 6 6 6 6 6 6 6 6 6 6 6 6 6 6 
3 4 4 6 6 6 5 5 6 6 6 6 6 6 6 6 6 6 6 6 6 6 8 107 118 118 147 154 158 163 163 163 164 168 171 170 170 172 172 175 175 173 173 159 159 159 169 169 189 187 184 184 181 175 175 168 71 71 122 132 130 130 119 119 113 100 16 5 6 6 6 6 6 6 6 6 6 6 6 6 6 6 6 6 6 6 6 6 6 6 
3 4 4 5 5 6 6 6 6 6 6 6 6 6 6 6 6 6 6 6 6 5 12 116 130 141 149 153 153 161 163 163 167 167 170 170 170 171 175 175 175 173 160 159 159 171 188 191 191 186 186 184 181 178 173 72 72 121 133 132 132 125 119 119 113 100 17 6 7 7 6 6 6 6 6 6 6 6 7 6 6 6 6 6 6 7 6 6 6 6 
3 4 6 6 6 6 6 6 6 6 6 6 5 6 6 6 6 6 6 6 6 4 16 120 132 142 148 153 153 161 163 163 166 166 170 170 171 174 174 175 174 161 161 160 172 189 193 193 188 186 186 184 181 177 75 72 118 133 133 133 126 125 129 129 118 101 17 6 7 7 6 6 6 6 6 6 6 6 7 6 6 6 6 6 6 7 6 6 6 7 
3 4 5 5 6 6 6 6 5 6 6 6 6 6 6 6 6 6 6 6 6 3 20 121 121 142 148 153 159 161 163 163 166 166 170 170 174 174 174 173 161 161 161 165 190 193 193 193 188 188 186 184 181 75 75 117 133 133 133 128 128 137 137 129 120 98 16 6 7 6 6 6 7 6 6 6 6 6 6 6 6 6 6 6 6 6 6 6 6 6 
3 3 5 5 5 6 6 6 6 6 6 6 6 6 6 6 6 6 6 6 6 3 24 121 121 143 143 155 159 161 163 163 166 166 173 173 174 174 173 161 161 161 174 191 194 193 193 191 191 186 186 183 76 75 116 133 133 134 134 129 142 142 140 131 117 98 14 6 7 6 6 6 7 7 6 6 6 6 6 6 6 6 6 6 6 6 6 6 6 6 
3 5 5 5 5 5 5 5 6 6 6 6 6 6 6 6 6 6 6 6 7 4 26 126 126 143 148 152 158 160 162 162 164 171 173 173 173 172 161 161 161 184 189 193 194 193 193 192 191 189 185 76 83 115 134 136 132 131 131 147 147 146 140 115 115 96 11 6 7 6 6 6 6 6 6 6 6 6 6 6 6 6 6 6 6 6 6 6 6 5 
3 5 5 6 5 5 5 5 5 6 6 6 6 6 6 6 6 6 6 6 6 3 27 126 126 142 148 150 150 159 162 162 169 169 169 171 170 160 161 161 167 190 188 193 194 193 193 192 191 188 169 82 113 133 137 136 132 132 151 147 147 146 141 115 115 95 9 7 7 6 6 6 6 6 6 6 6 6 6 6 6 6 6 6 6 6 6 6 6 5 
3 5 5 5 5 6 6 6 6 6 6 6 6 6 6 6 6 6 6 6 6 4 26 124 133 140 146 150 150 159 164 166 169 169 169 168 159 160 161 168 193 190 185 184 184 193 193 192 189 171 82 112 133 137 133 133 133 154 154 150 150 148 126 126 115 91 7 7 7 6 6 6 6 6 6 6 6 6 6 6 6 6 6 6 6 6 6 6 6 5 
3 5 5 5 5 6 6 6 6 6 5 5 5 6 6 6 5 6 6 6 6 4 23 120 128 138 144 144 157 160 160 164 167 167 166 158 159 162 169 193 194 194 185 185 185 186 191 191 78 81 112 133 138 138 133 133 156 156 157 157 153 134 134 126 114 85 7 7 7 6 6 7 6 6 6 6 6 6 6 6 6 5 6 6 6 6 6 6 6 6 
3 5 5 5 5 5 6 6 6 6 5 5 5 6 6 6 5 6 6 6 7 4 20 118 128 137 144 151 156 160 160 164 164 157 158 158 170 170 193 194 194 193 185 185 185 187 188 78 82 112 133 138 135 135 134 158 156 156 157 157 140 140 133 125 112 21 6 7 7 7 7 6 6 6 6 6 6 6 6 6 7 7 6 6 6 6 6 6 6 6 
3 3 6 5 5 5 6 6 6 6 5 5 6 6 6 6 6 6 6 6 6 4 20 118 128 138 145 151 155 155 162 162 153 157 157 170 170 190 193 194 194 193 185 185 187 187 76 83 113 133 138 135 135 135 160 161 161 159 159 157 140 140 133 124 108 13 6 7 7 6 6 6 6 6 6 6 6 6 6 5 16 16 5 6 6 6 6 6 5 7 
3 4 4 6 5 5 5 6 6 6 6 6 6 6 6 6 6 6 6 6 6 4 22 116 128 138 145 150 155 155 157 151 153 156 171 186 188 186 185 185 192 192 186 186 187 76 83 113 133 138 138 135 135 161 160 161 161 162 161 145 140 140 133 121 101 8 6 6 7 6 6 6 6 6 6 6 7 7 7 6 6 5 6 6 6 6 6 5 5 6 
3 4 4 5 6 5 5 6 5 6 6 6 6 6 6 6 6 6 6 7 6 14 100 100 128 137 145 150 150 145 151 151 163 163 184 186 186 185 185 185 185 187 190 187 73 73 114 133 138 135 135 135 163 163 163 163 164 163 149 149 145 140 131 117 90 5 6 6 6 6 6 6 6 6 6 6 7 7 7 6 6 6 6 6 6 6 6 6 5 6 
3 4 4 5 6 6 6 6 5 5 6 6 6 6 6 6 6 6 6 5 10 99 100 100 128 137 136 136 145 145 148 163 163 184 185 185 185 185 185 185 185 187 186 72 72 115 133 138 138 135 135 164 163 163 164 165 165 151 148 148 145 138 122 112 14 5 7 7 6 6 6 6 6 6 6 6 6 6 6 6 6 6 6 6 5 6 6 6 6 5 
3 5 6 6 6 6 6 6 5 6 6 6 6 6 6 6 6 6 5 8 98 98 99 110 110 129 136 136 140 154 162 162 183 183 185 185 185 185 185 185 187 183 70 70 118 134 138 138 136 136 165 165 166 169 169 168 154 150 148 148 143 134 122 104 8 6 6 6 6 6 6 6 6 6 6 6 6 6 6 6 6 6 6 5 6 6 6 6 6 5 
3 4 6 6 6 7 7 5 5 6 6 6 6 6 6 6 6 5 6 96 98 98 110 110 110 129 129 142 154 154 176 180 183 183 183 185 185 185 186 187 180 69 69 120 134 134 137 138 136 166 165 165 166 171 169 156 153 150 150 147 140 125 117 21 5 7 6 6 6 6 6 6 6 6 6 6 6 6 6 6 6 6 6 6 6 6 6 6 6 6 
3 3 6 6 6 5 5 5 6 6 6 6 6 6 6 6 6 6 93 96 96 116 116 103 118 137 142 142 166 172 175 180 178 182 183 183 184 185 186 174 70 69 121 135 137 137 137 135 166 166 166 172 172 171 158 156 156 153 150 144 131 125 109 10 6 7 6 6 6 6 6 6 6 6 6 6 6 6 6 6 6 6 6 6 6 6 6 6 6 6 
3 3 6 6 6 5 5 6 6 6 6 6 6 6 6 6 5 89 93 93 116 116 111 48 117 140 151 160 165 168 171 174 178 178 182 182 183 182 71 71 70 123 135 136 136 137 160 167 166 166 168 172 172 160 157 157 156 153 147 135 131 120 23 5 7 7 6 6 6 6 6 6 6 6 6 6 6 6 6 6 6 6 6 6 6 6 5 5 6 6 
3 6 6 6 6 6 6 6 6 6 6 6 6 6 6 5 14 98 98 118 118 116 26 26 29 140 151 160 165 168 168 174 174 179 180 180 176 67 67 71 125 135 135 136 136 160 167 167 172 172 172 172 160 159 159 157 155 138 138 135 126 110 10 5 7 6 6 6 6 6 6 6 6 6 6 6 6 6 6 6 6 6 6 6 6 6 5 5 6 6 
3 6 6 6 6 6 6 6 6 6 6 6 7 6 5 10 96 96 119 118 118 37 17 17 11 135 139 139 154 164 168 168 171 176 176 168 63 63 106 126 135 134 134 135 161 166 167 167 173 173 172 161 160 159 159 157 153 141 138 130 118 19 5 6 6 6 6 6 6 6 6 6 6 6 6 6 6 6 6 6 6 6 6 6 6 6 6 6 6 6 
3 5 6 6 6 7 6 6 6 6 6 6 7 6 7 93 93 96 119 119 106 24 13 4 4 117 139 139 154 160 164 168 168 168 156 64 63 109 126 134 133 133 134 162 167 167 172 173 173 173 162 162 162 160 159 155 143 141 134 123 103 7 5 6 7 6 6 6 6 6 6 6 6 6 6 6 6 6 6 6 6 6 6 6 6 6 5 5 5 6 
3 6 6 6 6 6 6 6 6 6 6 6 5 5 90 93 93 116 116 113 30 18 9 5 5 9 131 135 149 155 160 160 156 60 60 64 112 126 134 132 133 133 162 166 166 171 171 173 173 161 161 162 162 160 144 144 138 137 127 110 13 5 7 7 6 6 6 6 6 6 6 6 6 6 6 6 6 6 6 6 6 6 6 6 6 6 5 5 5 6 
3 6 6 6 6 6 6 6 6 6 6 6 5 85 95 95 115 115 116 39 23 23 7 6 6 4 113 135 135 144 148 140 54 54 60 115 115 133 131 132 132 161 165 166 166 171 171 172 162 162 162 162 161 157 139 139 138 130 115 20 6 6 6 6 6 6 6 6 6 6 6 6 6 6 6 6 6 6 6 6 6 6 6 6 6 6 6 6 6 6 
3 6 6 6 6 6 6 6 6 7 6 5 12 93 93 114 115 115 103 29 23 10 7 6 6 6 7 122 122 127 51 51 54 54 117 117 131 130 131 131 159 163 165 165 169 170 171 161 162 162 162 161 145 145 139 139 132 118 95 8 7 7 6 6 6 6 6 6 6 5 5 5 7 6 6 6 6 7 7 7 7 6 6 6 6 6 6 6 6 6 
3 5 5 5 6 6 6 6 6 7 5 8 90 93 93 114 106 106 37 26 26 9 7 7 7 6 6 13 43 43 43 51 112 121 121 130 130 130 130 158 158 163 163 169 169 161 160 160 161 161 160 145 145 145 140 132 120 99 9 6 7 6 6 6 6 6 6 6 6 5 5 5 6 6 6 6 6 6 6 5 5 6 6 6 6 6 6 6 6 6 
3 6 6 6 6 6 6 6 6 6 5 86 90 90 117 117 107 98 30 26 26 9 6 6 6 6 6 18 27 43 43 117 125 128 128 128 130 128 156 158 163 163 167 167 158 161 160 160 160 158 144 144 145 140 133 120 101 10 6 6 6 6 6 6 6 6 6 6 6 6 6 6 6 6 6 6 6 6 6 5 6 6 6 6 6 6 6 6 6 6 
3 6 6 6 6 6 6 7 6 5 15 90 90 117 117 117 107 40 29 29 25 21 7 7 8 10 24 18 27 107 121 125 127 127 128 128 146 153 156 156 163 163 164 154 155 155 158 158 156 146 144 144 140 132 120 101 10 6 6 6 6 6 6 6 6 6 6 6 6 6 6 6 6 6 6 6 6 6 6 6 6 6 6 6 6 6 6 6 6 6 
3 6 6 6 6 6 6 7 6 9 87 90 90 117 107 107 100 34 29 29 27 21 24 26 26 24 24 34 112 118 121 125 127 127 120 140 147 153 157 157 160 149 150 151 155 155 155 153 146 146 142 138 131 118 98 9 6 7 6 6 6 6 6 6 6 6 6 6 6 6 6 7 6 6 6 6 6 6 6 6 6 6 6 6 6 6 6 7 6 6 
3 5 6 6 6 6 6 5 7 85 87 87 120 120 107 107 91 32 32 30 29 28 28 26 26 31 104 116 116 118 106 106 122 122 120 139 147 147 152 154 144 145 145 151 151 151 149 146 143 139 134 127 114 22 8 6 7 7 7 7 7 6 6 6 6 6 6 6 6 6 6 6 6 6 6 6 6 6 6 6 6 6 6 6 6 6 6 6 6 5 
3 5 6 6 6 6 6 5 17 86 86 88 120 120 101 101 49 32 32 32 32 28 28 32 98 110 116 116 116 101 101 106 103 116 132 139 139 134 136 138 144 145 145 147 147 145 139 139 135 130 121 106 13 6 7 6 7 7 7 7 7 6 6 6 6 6 7 7 7 6 6 6 6 6 6 6 6 6 6 6 6 6 6 6 6 6 6 5 5 5 
3 4 6 6 6 6 5 10 86 86 86 122 115 115 100 100 87 33 32 32 32 34 43 108 114 114 116 116 101 101 101 13 6 6 109 125 131 134 136 138 139 139 140 140 136 133 133 130 124 111 19 7 5 7 7 7 6 7 7 7 6 6 6 6 6 6 7 7 7 6 6 6 6 6 6 6 6 6 6 6 6 6 6 6 6 6 5 5 5 6 
3 3 6 6 6 6 6 84 86 86 120 122 113 113 99 99 95 47 47 45 98 108 115 116 116 114 114 102 101 101 9 4 5 5 4 6 18 115 124 129 132 132 132 131 128 124 118 106 15 8 6 6 7 7 7 7 6 6 6 6 6 6 6 6 6 6 6 6 6 6 6 6 6 6 6 6 6 6 6 6 6 6 6 6 6 6 6 6 6 6 
3 6 6 6 6 5 14 86 86 83 124 124 112 112 99 99 100 100 101 109 113 113 115 116 116 102 102 102 98 7 5 6 6 6 6 5 4 5 10 18 25 31 96 28 23 16 9 5 4 4 7 7 7 7 7 6 6 6 6 6 6 6 6 6 6 6 6 6 6 6 6 6 6 6 6 6 6 6 6 6 6 6 6 6 6 6 6 6 6 5 
3 6 6 6 5 8 87 86 86 84 124 114 112 112 110 100 100 100 114 114 121 121 119 118 101 102 102 17 5 5 6 6 6 6 6 6 6 5 5 4 3 4 4 4 4 4 5 5 5 6 7 6 6 6 6 6 6 6 6 6 6 6 6 6 6 6 6 6 6 6 6 6 6 6 6 6 6 6 6 6 6 5 6 6 6 6 6 6 6 5 
3 6 6 6 5 75 88 88 78 122 116 112 112 112 110 111 115 115 114 114 121 121 100 100 101 101 11 4 5 6 6 6 6 6 6 6 6 6 6 6 6 6 6 6 7 6 6 5 5 7 7 6 6 6 6 6 6 6 6 6 6 6 6 6 6 5 5 6 6 6 6 6 6 6 6 6 6 6 6 6 6 5 5 6 6 6 6 6 6 5 
3 6 6 5 9 87 88 88 76 122 116 112 112 111 110 111 115 115 117 122 120 102 100 100 98 7 5 6 5 5 6 6 6 6 6 6 6 6 6 6 6 6 6 6 7 6 6 6 6 7 7 7 6 6 6 6 6 6 6 6 6 6 6 6 6 6 6 6 6 6 6 5 6 6 6 6 6 6 6 6 6 6 6 6 6 6 6 6 6 6 
3 6 6 5 73 92 92 76 76 125 120 120 118 109 109 120 120 122 122 99 99 102 102 16 6 6 6 6 5 6 6 6 6 6 6 6 6 6 6 6 6 6 6 6 6 6 6 6 6 7 6 6 6 7 7 6 6 6 6 6 6 6 6 6 6 6 6 6 6 6 6 5 5 5 5 6 6 6 6 6 6 6 6 5 5 6 6 6 5 5 
3 5 5 9 83 83 96 75 75 125 120 120 118 126 123 123 123 97 102 99 99 100 9 5 6 7 6 6 6 6 6 6 6 6 6 7 6 6 6 6 6 6 6 6 6 7 7 6 6 7 7 6 6 7 7 6 6 6 7 6 6 6 6 6 6 6 6 5 6 6 6 6 6 5 5 6 6 6 6 6 6 6 6 5 5 5 6 6 5 5 
3 5 5 69 83 83 101 55 55 129 129 125 126 126 123 91 96 97 102 102 18 6 5 6 6 6 6 6 6 6 6 6 6 6 6 6 6 6 6 6 6 6 6 6 6 7 7 6 6 6 6 6 6 6 6 6 7 7 6 6 6 6 6 6 6 6 6 5 5 6 6 6 6 6 6 6 6 6 6 6 6 6 6 6 5 5 5 6 5 4 
2 2 7 77 87 87 103 55 55 57 117 117 87 87 91 104 104 102 102 11 5 6 6 6 6 6 6 6 6 6 6 6 5 6 6 6 6 6 6 6 6 7 7 6 6 6 7 6 6 6 6 6 6 6 6 6 6 6 6 6 6 6 6 6 6 6 5 6 6 6 6 6 6 6 6 6 6 6 6 6 6 6 6 6 5 5 5 5 5 6 
2 1 12 82 82 91 108 108 57 57 82 84 87 107 107 104 104 17 6 6 7 6 6 6 6 6 6 6 6 6 6 6 5 6 6 6 6 6 6 6 6 7 7 7 6 6 6 6 6 6 6 6 6 6 6 6 6 6 6 6 6 6 6 6 5 29 29 6 6 6 6 6 6 6 6 6 6 6 6 5 5 6 6 6 5 5 5 5 5 6 
2 1 66 83 83 91 99 111 111 110 110 110 109 107 107 99 9 4 6 6 6 6 6 6 6 6 6 6 6 6 6 6 6 6 6 6 6 6 6 5 6 6 6 7 6 6 6 6 6 6 6 6 6 6 6 5 6 6 6 6 6 6 6 6 5 29 29 5 6 6 6 6 5 5 5 7 7 6 6 5 5 5 6 6 5 5 5 5 6 5 
3 3 68 82 82 95 95 100 111 110 110 110 109 100 12 6 5 6 6 7 5 6 6 6 6 6 6 6 6 6 6 6 6 6 6 6 6 6 6 5 6 6 6 6 6 6 6 6 6 6 6 6 6 6 6 6 6 6 6 6 6 6 6 6 6 5 6 6 6 6 6 6 5 5 5 6 6 7 6 5 5 6 6 5 5 5 5 7 7 5 
3 3 68 81 81 95 95 100 103 104 103 95 13 5 5 6 6 6 6 6 5 5 6 6 6 6 6 6 6 6 6 6 6 6 6 6 6 6 6 6 6 6 6 6 6 6 6 6 6 6 6 6 6 6 6 6 6 6 6 6 6 6 6 6 6 6 6 6 6 6 6 6 6 5 6 6 6 5 6 6 5 6 6 6 6 6 5 7 7 5 
3 3 10 81 81 90 90 92 91 84 13 6 5 5 6 6 6 6 6 6 6 6 6 6 6 6 6 6 6 6 6 6 6 6 6 6 6 6 6 6 6 6 6 6 6 6 6 6 7 6 6 6 6 6 6 6 6 6 6 6 6 6 6 6 6 6 6 6 5 6 6 6 6 6 6 6 6 5 6 6 6 6 6 6 6 6 5 5 5 4 
2 3 5 11 69 69 69 15 9 5 5 6 7 6 6 6 6 6 6 6 6 6 6 6 6 6 6 6 6 6 6 6 6 6 6 6 6 6 6 6 6 6 6 6 6 6 6 7 7 6 6 6 6 6 6 6 6 7 6 6 6 6 6 6 6 6 6 6 6 6 6 6 6 6 6 6 5 6 6 6 6 6 6 6 6 6 6 5 5 4 
2 3 5 6 5 5 5 5 6 6 5 5 7 6 6 6 6 6 6 6 6 6 6 6 6 6 6 6 6 6 6 6 6 6 6 6 6 6 6 6 6 6 6 6 6 6 6 6 6 6 6 6 6 6 6 6 6 7 6 6 6 5 6 6 6 6 6 6 6 6 6 6 6 6 6 6 5 6 6 6 6 5 6 5 5 5 5 6 5 5 
3 4 6 6 6 5 6 6 6 7 5 5 7 6 5 5 5 5 5 6 6 6 6 7 7 6 6 7 6 6 6 6 6 6 6 6 6 6 6 6 6 6 6 6 7 6 6 6 6 6 6 6 6 6 6 6 6 7 7 6 6 6 6 6 6 6 6 6 6 6 6 6 6 6 6 6 6 6 6 6 5 5 5 5 6 6 6 6 5 5 
3 4 6 6 6 5 6 6 6 6 5 5 6 6 5 5 5 5 6 6 5 6 6 7 7 6 6 6 6 6 6 6 6 6 6 6 6 6 5 6 6 6 6 6 7 6 6 6 6 6 6 6 6 6 7 6 6 7 7 6 6 6 6 6 6 6 6 6 6 6 6 5 5 6 6 6 6 6 6 6 5 5 5 5 6 6 6 6 5 5 
2 3 6 6 6 6 6 6 6 6 6 6 6 6 5 5 5 5 6 6 6 6 6 6 7 6 6 6 6 6 6 6 5 5 6 6 6 5 5 6 6 6 5 5 6 6 6 6 7 6 6 6 6 6 6 6 6 7 6 6 6 6 6 6 6 6 6 6 6 6 6 5 5 5 5 6 5 6 6 5 5 5 5 5 5 6 6 6 6 6 
